<?xml version="1.0"?>
<svg xmlns="http://www.w3.org/2000/svg" xmlns:xlink="http://www.w3.org/1999/xlink" xmlns:svgjs="http://svgjs.com/svgjs" version="1.1" width="512" height="512" x="0" y="0" viewBox="0 0 512 512" style="enable-background:new 0 0 512 512" xml:space="preserve" class=""><g><g xmlns="http://www.w3.org/2000/svg"><g><path d="m10 491.994v-244.937c0-67.555 54.764-122.319 122.319-122.319 67.555 0 122.319 54.764 122.319 122.319v244.937" fill="#434346" data-original="#8481e2" style="" class=""/><path d="m214.755 267.658h-1.551l-.004-29.676h-26.091l-22.473-32.946-23.522 32.946h-90.226l-.004 29.676h-1.001c-8.745 0-16.192 6.8-16.503 15.54-.326 9.175 7.015 16.716 16.116 16.716h2.85l1.405 6.447c0 46.129 55.447 65.714 62.263 66.689l-8.093 30.72h48.243l-8.093-30.721c6.814-.975 62.264-20.338 62.264-66.688l1.405-6.447h3.4c9.102 0 16.443-7.541 16.117-16.716-.31-8.74-7.758-15.54-16.502-15.54z" fill="#ffcbbe" data-original="#ffcbbe" style=""/><path d="m10 502v-68.425c0-16.462 13.345-29.806 29.806-29.806h185.022c16.463 0 29.81 13.346 29.81 29.81v68.421z" fill="#f5737f" data-original="#f5737f" style=""/><g><g><g><path d="m93.227 303.185c-5.523 0-10-4.477-10-10v-13.375c0-5.523 4.477-10 10-10s10 4.477 10 10v13.375c0 5.523-4.478 10-10 10z" fill="#000000" data-original="#000000" style="" class=""/></g></g><g><g><path d="m171.412 303.185c-5.523 0-10-4.477-10-10v-13.375c0-5.523 4.477-10 10-10s10 4.477 10 10v13.375c0 5.523-4.477 10-10 10z" fill="#000000" data-original="#000000" style="" class=""/></g></g></g><g><path d="m132.338 348.088c-8.224 0-15.893-4.425-20.013-11.548-2.766-4.78-1.132-10.898 3.648-13.663 4.779-2.766 10.897-1.132 13.663 3.648.566.978 1.576 1.563 2.702 1.563 1.125 0 2.135-.585 2.701-1.563 2.766-4.781 8.884-6.415 13.663-3.648 4.781 2.765 6.414 8.883 3.648 13.663-4.12 7.123-11.788 11.548-20.012 11.548z" fill="#000000" data-original="#000000" style="" class=""/></g><g><g><path d="m132.319 457.574-39.958-53.805h79.916z" fill="#e5ecec" data-original="#e5ecec" style=""/></g><path d="m264.639 247.057c0-72.961-59.359-132.319-132.32-132.319-72.961 0-132.319 59.358-132.319 132.319v254.943c0 5.523 4.477 10 10 10h244.638c5.523 0 9.999-4.477 9.999-10v-9.968c0-.013.001-.026.001-.038v-244.937zm-132.32-112.319c61.933 0 112.319 50.386 112.319 112.319v152c-5.837-3.363-12.603-5.288-19.809-5.288h-60.957l-3.694-14.024c7.761-2.996 17.986-8.01 27.483-14.952 20.408-14.919 31.631-34.011 32.606-55.376 5.181-1.022 9.917-3.593 13.675-7.488 4.968-5.148 7.564-11.926 7.31-19.086-.399-11.215-7.82-20.499-18.048-23.847l-.004-21.016c-.001-5.522-4.478-9.999-10-9.999h-20.807l-19.495-28.581c-1.842-2.7-4.886-4.33-8.154-4.365-3.237-.068-6.346 1.528-8.246 4.189l-20.531 28.756h-85.079c-5.522 0-10 4.477-10 9.999l-.002 21.201c-9.943 3.497-17.107 12.648-17.498 23.66-.254 7.16 2.341 13.939 7.31 19.086 3.625 3.756 8.156 6.28 13.121 7.372.943 21.322 12.165 40.425 32.599 55.402 9.525 6.982 19.746 12.019 27.498 15.027l-3.699 14.04h-60.411c-7.205 0-13.97 1.925-19.806 5.286v-151.996c0-61.933 50.386-112.319 112.319-112.319zm-7.932 232.791c-1.577-2.377-4.056-3.962-6.879-4.367-6.7-1.21-53.755-19.059-53.755-56.802 0-.716-.077-1.43-.229-2.13l-1.405-6.446c-1.001-4.594-5.068-7.87-9.771-7.87h-2.85c-1.677 0-3.243-.666-4.409-1.874-1.165-1.207-1.773-2.8-1.713-4.487.116-3.25 3.036-5.895 6.509-5.895h1c5.522 0 10-4.477 10-9.999l.002-19.677h80.228c3.23 0 6.262-1.561 8.139-4.189l15.197-21.285 14.398 21.109c1.863 2.731 4.955 4.365 8.261 4.365h16.092l.002 19.678c.001 5.522 4.478 9.999 10 9.999h1.551c3.474 0 6.393 2.645 6.509 5.895.06 1.686-.548 3.28-1.713 4.487-1.166 1.208-2.732 1.874-4.41 1.874h-3.4c-4.702 0-8.769 3.276-9.771 7.87l-1.405 6.446c-.152.7-.23 1.414-.23 2.13 0 37.826-47.051 55.604-53.681 56.79-2.824.404-5.34 1.995-6.917 4.373-1.576 2.377-2.063 5.315-1.335 8.074l4.787 18.173h-22.292l4.787-18.172c.728-2.761.28-5.693-1.297-8.07zm28.007 46.24-20.075 27.033-20.076-27.033zm92.244 78.231h-224.638v-58.425c0-10.921 8.885-19.806 19.806-19.806h47.526l36.959 49.767c1.887 2.541 4.864 4.038 8.028 4.038s6.142-1.497 8.028-4.038l36.959-49.767h47.523c10.923 0 19.809 8.886 19.809 19.809z" fill="#000000" data-original="#000000" style="" class=""/></g></g><g><g><g><g><ellipse cx="437.248" cy="63.096" fill="#ffcbbe" rx="53.096" ry="53.096" transform="matrix(.707 -.707 .707 .707 83.451 327.661)" data-original="#ffcbbe" style=""/><path d="m437.248 126.191c-34.792 0-63.097-28.305-63.097-63.096s28.305-63.095 63.097-63.095c34.791 0 63.096 28.305 63.096 63.096s-28.305 63.095-63.096 63.095zm0-106.191c-23.764 0-43.097 19.333-43.097 43.096s19.333 43.096 43.097 43.096c23.763 0 43.096-19.332 43.096-43.096s-19.333-43.096-43.096-43.096z" fill="#000000" data-original="#000000" style="" class=""/></g><g><g><path d="m502 164.262c0-9.773-7.928-17.701-17.701-17.701h-94.102c-9.773 0-17.701 7.928-17.701 17.701v45.936h129.504z" fill="#c4ead9" data-original="#c4ead9" style=""/><path d="m502 220.197h-129.505c-5.522 0-10-4.477-10-10v-45.935c0-15.275 12.427-27.702 27.701-27.702h94.103c15.274 0 27.701 12.427 27.701 27.702v45.935c0 5.523-4.478 10-10 10zm-119.505-20h109.505v-35.935c0-4.247-3.455-7.702-7.701-7.702h-94.103c-4.246 0-7.701 3.455-7.701 7.702z" fill="#000000" data-original="#000000" style="" class=""/></g></g></g><g><g><ellipse cx="437.248" cy="354.898" fill="#ffcbbe" rx="53.096" ry="53.096" transform="matrix(.23 -.973 .973 .23 -8.616 698.91)" data-original="#ffcbbe" style=""/><path d="m437.248 417.994c-34.792 0-63.097-28.305-63.097-63.096s28.305-63.096 63.097-63.096c34.791 0 63.096 28.305 63.096 63.096 0 34.792-28.305 63.096-63.096 63.096zm0-106.191c-23.764 0-43.097 19.333-43.097 43.096s19.333 43.096 43.097 43.096c23.763 0 43.096-19.333 43.096-43.096 0-23.764-19.333-43.096-43.096-43.096z" fill="#000000" data-original="#000000" style="" class=""/></g><g><g><path d="m502 456.065c0-9.773-7.928-17.701-17.701-17.701h-94.102c-9.773 0-17.701 7.928-17.701 17.701v45.935h129.504z" fill="#9bc6ff" data-original="#9bc6ff" style=""/><path d="m502 512h-129.505c-5.522 0-10-4.477-10-10v-45.935c0-15.275 12.427-27.701 27.701-27.701h94.103c15.274 0 27.701 12.427 27.701 27.701v45.935c0 5.523-4.478 10-10 10zm-119.505-20h109.505v-35.935c0-4.247-3.455-7.701-7.701-7.701h-94.103c-4.246 0-7.701 3.455-7.701 7.701z" fill="#000000" data-original="#000000" style="" class=""/></g></g></g></g><g><path d="m502 266h-59.667c-5.523 0-10-4.477-10-10s4.477-10 10-10h59.667c5.522 0 10 4.477 10 10s-4.478 10-10 10z" fill="#000000" data-original="#000000" style="" class=""/></g><g><path d="m404.17 266c-4.24 0-8.105-2.78-9.47-6.789-1.286-3.779-.147-8.102 2.873-10.727 3.297-2.866 8.151-3.257 11.87-.97 3.45 2.122 5.299 6.295 4.557 10.275-.873 4.685-5.048 8.211-9.83 8.211z" fill="#000000" data-original="#000000" style="" class=""/></g><path d="m361.667 246h-50.506v-125.901h34.958c5.522 0 10-4.477 10-10s-4.478-10-10-10h-44.958c-5.522 0-10 4.477-10 10v291.803c0 5.523 4.478 10 10 10h44.958c5.522 0 10-4.477 10-10s-4.478-10-10-10h-34.958v-125.902h50.506c5.523 0 10-4.477 10-10s-4.477-10-10-10z" fill="#000000" data-original="#000000" style="" class=""/></g></g></g></svg>
