<?xml version="1.0"?>
<svg xmlns="http://www.w3.org/2000/svg" xmlns:xlink="http://www.w3.org/1999/xlink" xmlns:svgjs="http://svgjs.com/svgjs" version="1.1" width="512" height="512" x="0" y="0" viewBox="0 0 512 512" style="enable-background:new 0 0 512 512" xml:space="preserve" class=""><g>
<path xmlns="http://www.w3.org/2000/svg" style="" d="M503.926,223.29v276.771c0,2.438-1.966,4.414-4.404,4.414H12.477c-2.438,0-4.404-1.976-4.404-4.414  V223.29c0-2.438,1.966-4.414,4.404-4.414h487.046C501.96,218.876,503.926,220.852,503.926,223.29z" fill="#ebe1dc" data-original="#ebe1dc" class=""/>
<rect xmlns="http://www.w3.org/2000/svg" x="275.386" y="218.873" style="" width="107.309" height="285.6" fill="#dcd2cd" data-original="#dcd2cd" class=""/>
<path xmlns="http://www.w3.org/2000/svg" style="" d="M364.038,49.459l-13.923-10.768l13.923-10.769c2.546-1.969,3.558-5.338,2.517-8.384  c-1.04-3.045-3.903-5.092-7.12-5.092h-51.717c-4.156,0-7.524,3.368-7.524,7.524v33.44c0,4.157,3.369,7.525,7.524,7.525h51.717  c3.218,0,6.081-2.047,7.12-5.092C367.595,54.797,366.584,51.427,364.038,49.459z" fill="#3993b7" data-original="#3993b7" class=""/>
<polygon xmlns="http://www.w3.org/2000/svg" style="" points="358.693,192.108 358.693,504.475 153.306,504.475 153.306,192.108 256,89.665 " fill="#dcd2cd" data-original="#dcd2cd" class=""/>
<path xmlns="http://www.w3.org/2000/svg" style="" d="M358.693,193.021v311.454H176.279v-276.52c0-7.695,3.06-15.079,8.518-20.517l94.177-93.946  L358.693,193.021z" fill="#ebe1dc" data-original="#ebe1dc" class=""/>
<g xmlns="http://www.w3.org/2000/svg">
	<circle style="" cx="256.003" cy="190.56" r="34.769" fill="#c97e67" data-original="#c97e67" class=""/>
	<rect x="193.51" y="386.96" style="" width="124.987" height="117.513" fill="#c97e67" data-original="#c97e67" class=""/>
</g>
<g xmlns="http://www.w3.org/2000/svg">
	<path style="" d="M208.344,247.445h-27.922c-1.77,0-3.203,1.435-3.203,3.203v33.644c0,1.77,1.435,3.203,3.203,3.203   h27.922c1.77,0,3.203-1.435,3.203-3.203v-33.644C211.547,248.879,210.113,247.445,208.344,247.445z" fill="#2089b3" data-original="#7fbed7" class=""/>
	<path style="" d="M269.96,247.445h-27.922c-1.77,0-3.203,1.435-3.203,3.203v33.644c0,1.77,1.435,3.203,3.203,3.203   h27.922c1.77,0,3.203-1.435,3.203-3.203v-33.644C273.164,248.879,271.73,247.445,269.96,247.445z" fill="#2089b3" data-original="#7fbed7" class=""/>
	<path style="" d="M331.577,247.445h-27.922c-1.77,0-3.203,1.435-3.203,3.203v33.644c0,1.77,1.435,3.203,3.203,3.203   h27.922c1.77,0,3.203-1.435,3.203-3.203v-33.644C334.781,248.879,333.347,247.445,331.577,247.445z" fill="#2089b3" data-original="#7fbed7" class=""/>
	<path style="" d="M208.344,313.463h-27.922c-1.77,0-3.203,1.435-3.203,3.203v33.644c0,1.77,1.435,3.203,3.203,3.203   h27.922c1.77,0,3.203-1.435,3.203-3.203v-33.644C211.547,314.897,210.113,313.463,208.344,313.463z" fill="#2089b3" data-original="#7fbed7" class=""/>
	<path style="" d="M269.96,313.463h-27.922c-1.77,0-3.203,1.435-3.203,3.203v33.644c0,1.77,1.435,3.203,3.203,3.203   h27.922c1.77,0,3.203-1.435,3.203-3.203v-33.644C273.164,314.897,271.73,313.463,269.96,313.463z" fill="#2089b3" data-original="#7fbed7" class=""/>
	<path style="" d="M331.577,313.463h-27.922c-1.77,0-3.203,1.435-3.203,3.203v33.644c0,1.77,1.435,3.203,3.203,3.203   h27.922c1.77,0,3.203-1.435,3.203-3.203v-33.644C334.781,314.897,333.347,313.463,331.577,313.463z" fill="#2089b3" data-original="#7fbed7" class=""/>
	<path style="" d="M307.717,0H256c-4.156,0-7.524,3.368-7.524,7.524v33.442c0,4.157,3.369,7.524,7.524,7.524h51.717   c4.156,0,7.525-3.368,7.525-7.524V7.524C315.242,3.368,311.873,0,307.717,0z" fill="#2089b3" data-original="#7fbed7" class=""/>
</g>
<path xmlns="http://www.w3.org/2000/svg" style="" d="M31.74,299.719v-56.534c0-1.003,0.813-1.816,1.806-1.816h30.71c1.003,0,1.816,0.813,1.816,1.816  v56.534c0,0.993-0.813,1.806-1.816,1.806h-30.71C32.552,301.525,31.74,300.712,31.74,299.719z" fill="#65b1cf" data-original="#65b1cf" class=""/>
<path xmlns="http://www.w3.org/2000/svg" style="" d="M31.74,299.719v-28.272h34.332v28.272c0,0.993-0.813,1.806-1.816,1.806h-30.71  C32.552,301.525,31.74,300.712,31.74,299.719z" fill="#2089b3" data-original="#7fbed7" class=""/>
<path xmlns="http://www.w3.org/2000/svg" style="" d="M94.698,299.719v-56.534c0-1.003,0.813-1.816,1.806-1.816h30.71c1.003,0,1.816,0.813,1.816,1.816  v56.534c0,0.993-0.813,1.806-1.816,1.806h-30.71C95.51,301.525,94.698,300.712,94.698,299.719z" fill="#65b1cf" data-original="#65b1cf" class=""/>
<path xmlns="http://www.w3.org/2000/svg" style="" d="M94.698,299.719v-28.272h34.332v28.272c0,0.993-0.813,1.806-1.816,1.806h-30.71  C95.51,301.525,94.698,300.712,94.698,299.719z" fill="#2089b3" data-original="#7fbed7" class=""/>
<path xmlns="http://www.w3.org/2000/svg" style="" d="M382.662,299.719v-56.534c0-1.003,0.813-1.816,1.806-1.816h30.71c1.003,0,1.816,0.813,1.816,1.816  v56.534c0,0.993-0.813,1.806-1.816,1.806h-30.71C383.475,301.525,382.662,300.712,382.662,299.719z" fill="#65b1cf" data-original="#65b1cf" class=""/>
<path xmlns="http://www.w3.org/2000/svg" style="" d="M382.662,299.719v-28.272h34.332v28.272c0,0.993-0.813,1.806-1.816,1.806h-30.71  C383.475,301.525,382.662,300.712,382.662,299.719z" fill="#2089b3" data-original="#7fbed7" class=""/>
<path xmlns="http://www.w3.org/2000/svg" style="" d="M445.62,299.719v-56.534c0-1.003,0.813-1.816,1.806-1.816h30.71c1.003,0,1.816,0.813,1.816,1.816  v56.534c0,0.993-0.813,1.806-1.816,1.806h-30.71C446.433,301.525,445.62,300.712,445.62,299.719z" fill="#65b1cf" data-original="#65b1cf" class=""/>
<path xmlns="http://www.w3.org/2000/svg" style="" d="M445.62,299.719v-28.272h34.332v28.272c0,0.993-0.813,1.806-1.816,1.806h-30.71  C446.433,301.525,445.62,300.712,445.62,299.719z" fill="#2089b3" data-original="#7fbed7" class=""/>
<path xmlns="http://www.w3.org/2000/svg" style="" d="M31.74,390.078v-56.534c0-1.003,0.813-1.816,1.806-1.816h30.71c1.003,0,1.816,0.813,1.816,1.816  v56.534c0,0.993-0.813,1.806-1.816,1.806h-30.71C32.552,391.884,31.74,391.071,31.74,390.078z" fill="#65b1cf" data-original="#65b1cf" class=""/>
<path xmlns="http://www.w3.org/2000/svg" style="" d="M31.74,390.078v-28.272h34.332v28.272c0,0.993-0.813,1.806-1.816,1.806h-30.71  C32.552,391.884,31.74,391.071,31.74,390.078z" fill="#2089b3" data-original="#7fbed7" class=""/>
<path xmlns="http://www.w3.org/2000/svg" style="" d="M94.698,390.078v-56.534c0-1.003,0.813-1.816,1.806-1.816h30.71c1.003,0,1.816,0.813,1.816,1.816  v56.534c0,0.993-0.813,1.806-1.816,1.806h-30.71C95.51,391.884,94.698,391.071,94.698,390.078z" fill="#65b1cf" data-original="#65b1cf" class=""/>
<path xmlns="http://www.w3.org/2000/svg" style="" d="M94.698,390.078v-28.272h34.332v28.272c0,0.993-0.813,1.806-1.816,1.806h-30.71  C95.51,391.884,94.698,391.071,94.698,390.078z" fill="#2089b3" data-original="#7fbed7" class=""/>
<path xmlns="http://www.w3.org/2000/svg" style="" d="M31.74,480.558v-56.534c0-1.003,0.813-1.816,1.806-1.816h30.71c1.003,0,1.816,0.813,1.816,1.816  v56.534c0,0.993-0.813,1.806-1.816,1.806h-30.71C32.552,482.363,31.74,481.551,31.74,480.558z" fill="#65b1cf" data-original="#65b1cf" class=""/>
<path xmlns="http://www.w3.org/2000/svg" style="" d="M31.74,480.558v-28.272h34.332v28.272c0,0.993-0.813,1.806-1.816,1.806h-30.71  C32.552,482.363,31.74,481.551,31.74,480.558z" fill="#2089b3" data-original="#7fbed7" class=""/>
<path xmlns="http://www.w3.org/2000/svg" style="" d="M94.698,480.558v-56.534c0-1.003,0.813-1.816,1.806-1.816h30.71c1.003,0,1.816,0.813,1.816,1.816  v56.534c0,0.993-0.813,1.806-1.816,1.806h-30.71C95.51,482.363,94.698,481.551,94.698,480.558z" fill="#65b1cf" data-original="#65b1cf" class=""/>
<path xmlns="http://www.w3.org/2000/svg" style="" d="M94.698,480.558v-28.272h34.332v28.272c0,0.993-0.813,1.806-1.816,1.806h-30.71  C95.51,482.363,94.698,481.551,94.698,480.558z" fill="#2089b3" data-original="#7fbed7" class=""/>
<path xmlns="http://www.w3.org/2000/svg" style="" d="M382.662,390.078v-56.534c0-1.003,0.813-1.816,1.806-1.816h30.71c1.003,0,1.816,0.813,1.816,1.816  v56.534c0,0.993-0.813,1.806-1.816,1.806h-30.71C383.475,391.884,382.662,391.071,382.662,390.078z" fill="#65b1cf" data-original="#65b1cf" class=""/>
<path xmlns="http://www.w3.org/2000/svg" style="" d="M382.662,390.078v-28.272h34.332v28.272c0,0.993-0.813,1.806-1.816,1.806h-30.71  C383.475,391.884,382.662,391.071,382.662,390.078z" fill="#2089b3" data-original="#7fbed7" class=""/>
<path xmlns="http://www.w3.org/2000/svg" style="" d="M445.62,390.078v-56.534c0-1.003,0.813-1.816,1.806-1.816h30.71c1.003,0,1.816,0.813,1.816,1.816  v56.534c0,0.993-0.813,1.806-1.816,1.806h-30.71C446.433,391.884,445.62,391.071,445.62,390.078z" fill="#65b1cf" data-original="#65b1cf" class=""/>
<path xmlns="http://www.w3.org/2000/svg" style="" d="M445.62,390.078v-28.272h34.332v28.272c0,0.993-0.813,1.806-1.816,1.806h-30.71  C446.433,391.884,445.62,391.071,445.62,390.078z" fill="#2089b3" data-original="#7fbed7" class=""/>
<path xmlns="http://www.w3.org/2000/svg" style="" d="M382.662,480.558v-56.534c0-1.003,0.813-1.816,1.806-1.816h30.71c1.003,0,1.816,0.813,1.816,1.816  v56.534c0,0.993-0.813,1.806-1.816,1.806h-30.71C383.475,482.363,382.662,481.551,382.662,480.558z" fill="#65b1cf" data-original="#65b1cf" class=""/>
<path xmlns="http://www.w3.org/2000/svg" style="" d="M382.662,480.558v-28.272h34.332v28.272c0,0.993-0.813,1.806-1.816,1.806h-30.71  C383.475,482.363,382.662,481.551,382.662,480.558z" fill="#2089b3" data-original="#7fbed7" class=""/>
<path xmlns="http://www.w3.org/2000/svg" style="" d="M445.62,480.558v-56.534c0-1.003,0.813-1.816,1.806-1.816h30.71c1.003,0,1.816,0.813,1.816,1.816  v56.534c0,0.993-0.813,1.806-1.816,1.806h-30.71C446.433,482.363,445.62,481.551,445.62,480.558z" fill="#65b1cf" data-original="#65b1cf" class=""/>
<g xmlns="http://www.w3.org/2000/svg">
	<path style="" d="M445.62,480.558v-28.272h34.332v28.272c0,0.993-0.813,1.806-1.816,1.806h-30.71   C446.433,482.363,445.62,481.551,445.62,480.558z" fill="#2089b3" data-original="#7fbed7" class=""/>
	<path style="" d="M370.212,201.088c-2.829,2.99-6.862,4.946-11.708,4.946c-4.274,0-8.377-1.685-11.427-4.685   l-82.94-81.937c-4.685-4.625-12.21-4.605-16.875,0.03l-82.238,81.857c-3.05,3.03-7.173,4.735-11.467,4.735h-0.06   c-4.846,0-8.879-1.956-11.708-4.946c-5.678-5.959-6.612-16.022,0.231-22.834l90.535-90.174l-0.02-0.01l14.718-14.708   c4.665-4.665,12.22-4.675,16.895-0.03l105.804,104.902C376.822,185.045,375.9,195.118,370.212,201.088z" fill="#2089b3" data-original="#7fbed7" class=""/>
</g>
<path xmlns="http://www.w3.org/2000/svg" style="" d="M370.212,201.088c-2.829,2.99-6.862,4.946-11.708,4.946c-4.274,0-8.377-1.685-11.427-4.685  l-82.94-81.937c-4.685-4.625-12.21-4.605-16.875,0.03l-82.238,81.857c-3.05,3.03-7.173,4.735-11.467,4.735h-0.06  c-4.846,0-8.879-1.956-11.708-4.946c0.07-0.08,0.15-0.161,0.231-0.241l90.535-90.174l-0.02-0.02l14.718-14.708  c4.665-4.655,12.22-4.675,16.895-0.03l105.804,104.902C370.04,200.907,370.132,200.997,370.212,201.088z" fill="#3993b7" data-original="#3993b7" class=""/>
<path xmlns="http://www.w3.org/2000/svg" style="" d="M329.499,381.786v5.177c0,0.582-0.05,1.164-0.161,1.716c-0.803,4.284-4.555,7.525-9.08,7.525H191.741  c-5.107,0-9.24-4.133-9.24-9.24v-5.177c0-5.107,4.133-9.24,9.24-9.24h128.518C325.366,372.546,329.499,376.679,329.499,381.786z" fill="#65b1cf" data-original="#65b1cf" class=""/>
<path xmlns="http://www.w3.org/2000/svg" style="" d="M329.499,381.786v5.177c0,0.582-0.05,1.164-0.161,1.716H211.124c-5.107,0-9.24-4.143-9.24-9.25  v-5.167c0-0.582,0.05-1.164,0.161-1.716h118.215C325.366,372.546,329.499,376.679,329.499,381.786z" fill="#2089b3" data-original="#7fbed7" class=""/>
<path xmlns="http://www.w3.org/2000/svg" d="M278.971,461.386c4.156,0,7.525-3.368,7.525-7.525v-17.605c0-4.157-3.369-7.525-7.525-7.525  c-4.156,0-7.524,3.368-7.524,7.525v17.605C271.446,458.017,274.815,461.386,278.971,461.386z" fill="#000000" data-original="#000000" style="" class=""/>
<path xmlns="http://www.w3.org/2000/svg" d="M233.028,461.386c4.156,0,7.524-3.368,7.524-7.525v-17.605c0-4.157-3.369-7.525-7.524-7.525s-7.525,3.368-7.525,7.525  v17.605C225.504,458.017,228.873,461.386,233.028,461.386z" fill="#000000" data-original="#000000" style="" class=""/>
<path xmlns="http://www.w3.org/2000/svg" d="M290.854,197.714c-3.798-1.679-8.244,0.035-9.925,3.836c-6.475,14.622-23.963,20.517-37.908,12.959  c-13.164-7.132-18.18-23.638-10.976-36.933c10.625-19.61,38.919-18.742,48.49,1.126c1.803,3.743,6.299,5.319,10.045,3.513  c3.744-1.804,5.317-6.301,3.513-10.045c-14.723-30.564-58.687-32.388-75.279-1.764c-15.349,28.325,5.439,62.449,37.156,62.449  c16.752,0,31.921-9.838,38.723-25.218C296.372,203.839,294.655,199.395,290.854,197.714z" fill="#000000" data-original="#000000" style="" class=""/>
<path xmlns="http://www.w3.org/2000/svg" d="M249.153,171.816v19.546l-7.515,8.23c-2.802,3.07-2.586,7.828,0.483,10.631s7.827,2.586,10.631-0.482  c8.023-9.516,11.451-10.699,11.451-15.459v-22.465c0-4.157-3.369-7.524-7.525-7.524C252.522,164.292,249.153,167.66,249.153,171.816  z" fill="#000000" data-original="#000000" style="" class=""/>
<path xmlns="http://www.w3.org/2000/svg" d="M211.547,239.92h-34.33c-4.156,0-7.524,3.368-7.524,7.524v40.051c0,4.157,3.369,7.525,7.524,7.525h34.33  c4.156,0,7.525-3.368,7.525-7.525v-40.051C219.072,243.288,215.703,239.92,211.547,239.92z M204.023,279.972h-19.281v-25.002h19.281  V279.972z" fill="#000000" data-original="#000000" style="" class=""/>
<path xmlns="http://www.w3.org/2000/svg" d="M273.164,239.92h-34.33c-4.156,0-7.525,3.368-7.525,7.524v40.051c0,4.157,3.369,7.525,7.525,7.525h34.33  c4.156,0,7.525-3.368,7.525-7.525v-40.051C280.688,243.288,277.319,239.92,273.164,239.92z M265.639,279.972h-19.281v-25.002h19.281  V279.972z" fill="#000000" data-original="#000000" style="" class=""/>
<path xmlns="http://www.w3.org/2000/svg" d="M334.781,239.92h-34.33c-4.156,0-7.525,3.368-7.525,7.524v40.051c0,4.157,3.369,7.525,7.525,7.525h34.33  c4.156,0,7.524-3.368,7.524-7.525v-40.051C342.306,243.288,338.937,239.92,334.781,239.92z M327.257,279.972h-19.281v-25.002h19.281  V279.972z" fill="#000000" data-original="#000000" style="" class=""/>
<path xmlns="http://www.w3.org/2000/svg" d="M211.547,305.938h-34.33c-4.156,0-7.524,3.368-7.524,7.524v40.051c0,4.157,3.369,7.525,7.524,7.525h34.33  c4.156,0,7.525-3.368,7.525-7.525v-40.051C219.072,309.307,215.703,305.938,211.547,305.938z M204.023,345.989h-19.281v-25.002  h19.281V345.989z" fill="#000000" data-original="#000000" style="" class=""/>
<path xmlns="http://www.w3.org/2000/svg" d="M273.164,305.938h-34.33c-4.156,0-7.525,3.368-7.525,7.524v40.051c0,4.157,3.369,7.525,7.525,7.525h34.33  c4.156,0,7.525-3.368,7.525-7.525v-40.051C280.688,309.307,277.319,305.938,273.164,305.938z M265.639,345.989h-19.281v-25.002  h19.281V345.989z" fill="#000000" data-original="#000000" style="" class=""/>
<path xmlns="http://www.w3.org/2000/svg" d="M334.781,305.938h-34.33c-4.156,0-7.525,3.368-7.525,7.524v40.051c0,4.157,3.369,7.525,7.525,7.525h34.33  c4.156,0,7.524-3.368,7.524-7.525v-40.051C342.306,309.307,338.937,305.938,334.781,305.938z M327.257,345.989h-19.281v-25.002  h19.281V345.989z" fill="#000000" data-original="#000000" style="" class=""/>
<path xmlns="http://www.w3.org/2000/svg" d="M499.522,211.351H368.447c14.922-6.907,18.766-26.605,6.8-38.465C264.536,63.775,269.631,66.644,263.524,63.968V48.491  h36.668v6.92c0,4.157,3.369,7.525,7.524,7.525h51.717c7.151,0,10.266-9.098,4.603-13.477L350.114,38.69l13.923-10.769  c5.657-4.376,2.555-13.477-4.603-13.477h-44.193v-6.92c0-4.157-3.369-7.524-7.525-7.524H256c-4.156,0-7.524,3.368-7.524,7.524  v33.442v22.757c-4.727,1.892-5.066,2.738-25.182,22.962c-2.94,2.93-2.95,7.695-0.02,10.635c2.93,2.95,7.695,2.96,10.645,0.02  c20.497-20.497,19.274-19.965,21.801-19.965c3.464,0-2.811-3.938,108.935,106.196c5.574,5.523,1.636,14.939-6.15,14.939  c-6.348,0-4.458-2.068-50.444-46.291l-38.636-38.164c-7.077-6.981-18.183-7.496-25.814-1.405c-1.69,1.334,3.102-3.202-83.893,83.321  c-1.655,1.635-3.843,2.538-6.22,2.538c-7.773,0-11.727-9.404-6.16-14.919l65.252-65.002c2.95-2.94,2.96-7.705,0.02-10.645  c-2.93-2.95-7.695-2.96-10.635-0.02l-65.262,65.002c-11.9,11.847-8.09,31.518,6.863,38.425H12.477  c-6.581,0-11.929,5.357-11.929,11.939v276.771c0,6.581,5.347,11.939,11.929,11.939c22.592,0,443.466,0,487.046,0  c6.581,0,11.929-5.357,11.929-11.939V223.29C511.451,216.709,506.103,211.351,499.522,211.351z M315.242,29.493h22.165  c-2.396,2.313-7.116,3.893-7.116,9.197c0,5.318,4.692,6.857,7.115,9.196h-22.164C315.242,41.791,315.242,36.199,315.242,29.493z   M263.524,15.049h36.668c0,6.096,0,11.687,0,18.393h-36.668V15.049z M145.781,496.951H15.597V226.4h130.184L145.781,496.951  L145.781,496.951z M310.969,496.951h-47.444v-93.224h47.444V496.951z M191.741,388.678c-0.943,0-1.716-0.773-1.716-1.716v-5.177  c0-0.943,0.773-1.716,1.716-1.716c17.299,0,108.899,0,128.518,0c0.943,0,1.716,0.773,1.716,1.716v5.177  C321.975,390.295,324.602,387.89,191.741,388.678z M351.169,226.4v270.551h-25.152v-94.237c6.411-2.358,11.006-8.528,11.006-15.751  v-5.177c0-9.24-7.525-16.765-16.765-16.765H191.74c-9.24,0-16.765,7.525-16.765,16.765v5.177c0,7.224,4.595,13.394,11.006,15.751  v48.177c0,4.154,3.361,7.525,7.525,7.525c4.154,0,7.524-3.371,7.524-7.525v-47.164h47.444v93.224H201.03v-15.962  c0-4.154-3.371-7.525-7.524-7.525c-4.164,0-7.525,3.371-7.525,7.525v15.962h-25.152c0-10.332,0-267.848,0-284.526  c9.518-3.02,5.36-2.907,91.739-87.645c1.741-1.741,4.534-1.737,6.28-0.01l82.94,81.927c2.689,2.649,5.889,4.585,9.381,5.709  L351.169,226.4L351.169,226.4z M496.402,496.951H366.218V226.4h130.184V496.951z" fill="#000000" data-original="#000000" style="" class=""/>
<path xmlns="http://www.w3.org/2000/svg" d="M31.744,309.046h34.33c4.156,0,7.524-3.368,7.524-7.525v-60.153c0-4.157-3.369-7.525-7.524-7.525h-34.33  c-4.156,0-7.524,3.368-7.524,7.525v60.153C24.219,305.678,27.588,309.046,31.744,309.046z M39.268,248.893h19.281v15.028H39.268  V248.893z M39.268,278.97h19.281v15.028H39.268V278.97z" fill="#000000" data-original="#000000" style="" class=""/>
<path xmlns="http://www.w3.org/2000/svg" d="M94.699,309.046h34.33c4.156,0,7.525-3.368,7.525-7.525v-60.153c0-4.157-3.369-7.525-7.525-7.525h-34.33  c-4.156,0-7.524,3.368-7.524,7.525v60.153C87.174,305.678,90.543,309.046,94.699,309.046z M102.223,248.893h19.281v15.028h-19.281  V248.893z M102.223,278.97h19.281v15.028h-19.281V278.97z" fill="#000000" data-original="#000000" style="" class=""/>
<path xmlns="http://www.w3.org/2000/svg" d="M31.744,399.406h34.33c4.156,0,7.524-3.368,7.524-7.524v-60.153c0-4.157-3.369-7.525-7.524-7.525h-34.33  c-4.156,0-7.524,3.368-7.524,7.525v60.153C24.219,396.038,27.588,399.406,31.744,399.406z M39.268,339.254h19.281v15.028H39.268  V339.254z M39.268,369.33h19.281v15.028H39.268V369.33z" fill="#000000" data-original="#000000" style="" class=""/>
<path xmlns="http://www.w3.org/2000/svg" d="M94.699,399.406h34.33c4.156,0,7.525-3.368,7.525-7.524v-60.153c0-4.157-3.369-7.525-7.525-7.525h-34.33  c-4.156,0-7.524,3.368-7.524,7.525v60.153C87.174,396.038,90.543,399.406,94.699,399.406z M102.223,339.254h19.281v15.028h-19.281  V339.254z M102.223,369.33h19.281v15.028h-19.281V369.33z" fill="#000000" data-original="#000000" style="" class=""/>
<path xmlns="http://www.w3.org/2000/svg" d="M31.744,489.928h34.33c4.156,0,7.524-3.368,7.524-7.525v-60.153c0-4.157-3.369-7.525-7.524-7.525h-34.33  c-4.156,0-7.524,3.368-7.524,7.525v60.153C24.219,486.56,27.588,489.928,31.744,489.928z M39.268,429.775h19.281v15.028H39.268  V429.775z M39.268,459.851h19.281v15.028H39.268V459.851z" fill="#000000" data-original="#000000" style="" class=""/>
<path xmlns="http://www.w3.org/2000/svg" d="M94.699,489.928h34.33c4.156,0,7.525-3.368,7.525-7.525v-60.153c0-4.157-3.369-7.525-7.525-7.525h-34.33  c-4.156,0-7.524,3.368-7.524,7.525v60.153C87.174,486.56,90.543,489.928,94.699,489.928z M102.223,429.775h19.281v15.028h-19.281  V429.775z M102.223,459.851h19.281v15.028h-19.281V459.851z" fill="#000000" data-original="#000000" style="" class=""/>
<path xmlns="http://www.w3.org/2000/svg" d="M382.662,309.046h34.33c4.156,0,7.525-3.368,7.525-7.525v-60.153c0-4.157-3.369-7.525-7.525-7.525h-34.33  c-4.156,0-7.525,3.368-7.525,7.525v60.153C375.138,305.678,378.506,309.046,382.662,309.046z M390.187,248.893h19.281v15.028  h-19.281V248.893z M390.187,278.97h19.281v15.028h-19.281V278.97z" fill="#000000" data-original="#000000" style="" class=""/>
<path xmlns="http://www.w3.org/2000/svg" d="M445.617,309.046h34.33c4.156,0,7.525-3.368,7.525-7.525v-60.153c0-4.157-3.369-7.525-7.525-7.525h-34.33  c-4.156,0-7.524,3.368-7.524,7.525v60.153C438.093,305.678,441.461,309.046,445.617,309.046z M453.142,248.893h19.281v15.028  h-19.281V248.893z M453.142,278.97h19.281v15.028h-19.281V278.97z" fill="#000000" data-original="#000000" style="" class=""/>
<path xmlns="http://www.w3.org/2000/svg" d="M382.662,399.406h34.33c4.156,0,7.525-3.368,7.525-7.524v-60.153c0-4.157-3.369-7.525-7.525-7.525h-34.33  c-4.156,0-7.525,3.368-7.525,7.525v60.153C375.138,396.038,378.506,399.406,382.662,399.406z M390.187,339.254h19.281v15.028  h-19.281V339.254z M390.187,369.33h19.281v15.028h-19.281V369.33z" fill="#000000" data-original="#000000" style="" class=""/>
<path xmlns="http://www.w3.org/2000/svg" d="M445.617,399.406h34.33c4.156,0,7.525-3.368,7.525-7.524v-60.153c0-4.157-3.369-7.525-7.525-7.525h-34.33  c-4.156,0-7.524,3.368-7.524,7.525v60.153C438.093,396.038,441.461,399.406,445.617,399.406z M453.142,339.254h19.281v15.028  h-19.281V339.254z M453.142,369.33h19.281v15.028h-19.281V369.33z" fill="#000000" data-original="#000000" style="" class=""/>
<path xmlns="http://www.w3.org/2000/svg" d="M382.662,489.928h34.33c4.156,0,7.525-3.368,7.525-7.525v-60.153c0-4.157-3.369-7.525-7.525-7.525h-34.33  c-4.156,0-7.525,3.368-7.525,7.525v60.153C375.138,486.56,378.506,489.928,382.662,489.928z M390.187,429.775h19.281v15.028h-19.281  V429.775z M390.187,459.851h19.281v15.028h-19.281V459.851z" fill="#000000" data-original="#000000" style="" class=""/>
<path xmlns="http://www.w3.org/2000/svg" d="M445.617,489.928h34.33c4.156,0,7.525-3.368,7.525-7.525v-60.153c0-4.157-3.369-7.525-7.525-7.525h-34.33  c-4.156,0-7.524,3.368-7.524,7.525v60.153C438.093,486.56,441.461,489.928,445.617,489.928z M453.142,429.775h19.281v15.028h-19.281  V429.775z M453.142,459.851h19.281v15.028h-19.281V459.851z" fill="#000000" data-original="#000000" style="" class=""/>
<g xmlns="http://www.w3.org/2000/svg">
</g>
<g xmlns="http://www.w3.org/2000/svg">
</g>
<g xmlns="http://www.w3.org/2000/svg">
</g>
<g xmlns="http://www.w3.org/2000/svg">
</g>
<g xmlns="http://www.w3.org/2000/svg">
</g>
<g xmlns="http://www.w3.org/2000/svg">
</g>
<g xmlns="http://www.w3.org/2000/svg">
</g>
<g xmlns="http://www.w3.org/2000/svg">
</g>
<g xmlns="http://www.w3.org/2000/svg">
</g>
<g xmlns="http://www.w3.org/2000/svg">
</g>
<g xmlns="http://www.w3.org/2000/svg">
</g>
<g xmlns="http://www.w3.org/2000/svg">
</g>
<g xmlns="http://www.w3.org/2000/svg">
</g>
<g xmlns="http://www.w3.org/2000/svg">
</g>
<g xmlns="http://www.w3.org/2000/svg">
</g>
</g></svg>
