<svg width="2500" height="2400" xmlns="http://www.w3.org/2000/svg">
 <!-- Created with Method Draw - http://github.com/duopixel/Method-Draw/ -->

 <g>
  <title>background</title>
  <rect fill="none" id="canvas_background" height="2402" width="2502" y="-1" x="-1"/>
  <g display="none" overflow="visible" y="0" x="0" height="100%" width="100%" id="canvasGrid">
   <rect fill="url(#gridpattern)" stroke-width="0" y="0" x="0" height="100%" width="100%"/>
  </g>
 </g>
 <g>
  <title>Layer 1</title>
  <g opacity="0.8" stroke="null" id="svg_207">
   <g stroke="null" transform="matrix(3.2959951380644834,0,0,3.2489942760535677,-23701.061852213046,-21004.18404766579) " id="svg_186">
    <g stroke="null" id="svg_187">
     <path stroke="null" id="svg_188" fill="#2d4456" d="m7225.37687,6871.81845c18.794,-39.072 58.751,-66.042 105.009,-66.042l69.106,0c46.257,0 86.215,26.97 105.009,66.042l0.001,0c11.449,-222.136 -4.943,-365.161 -139.563,-365.161s-151.012,143.025 -139.562,365.161z"/>
     <path stroke="null" id="svg_189" fill="#253847" d="m7403.03687,6787.77745l-76.196,0c-42.251,0 -79.72,18.519 -103.121,47.082c0.453,12.063 1.007,24.377 1.656,36.959l0.001,0c18.794,-39.072 58.751,-66.042 105.009,-66.042l69.106,0c46.257,0 86.215,26.97 105.009,66.042l0.001,0c0.648,-12.582 1.202,-24.896 1.655,-36.959c-23.4,-28.564 -60.869,-47.082 -103.12,-47.082z"/>
     <path stroke="null" id="svg_190" fill="#ffe0cc" d="m7459.45987,6643.67245l-19.926,-43.649l-13.487,38.839c-2.095,6.034 -7.782,10.08 -14.17,10.08l-93.876,0c-6.388,0 -12.075,-4.045 -14.17,-10.08l-13.487,-38.839l-19.926,40.224l0,71.01c0,52.202 42.318,94.52 94.52,94.52c52.202,0 94.521,-42.318 94.521,-94.521l0,-67.584l0.001,0z"/>
     <path stroke="null" id="svg_191" fill="#ffceb3" d="m7364.93887,6787.77745c-52.203,0 -94.521,-42.318 -94.521,-94.52l0,18c0,52.202 42.318,94.52 94.52,94.52c52.202,0 94.521,-42.318 94.521,-94.521l0,-18c0.001,52.202 -42.317,94.521 -94.52,94.521z"/>
     <path stroke="null" id="svg_192" fill="#86dcff" d="m7515.95087,7002.65745l-302.024,0l0,-80.421c0,-64.319 52.141,-116.459 116.459,-116.459l69.106,0c64.319,0 116.459,52.141 116.459,116.459l0,80.421z"/>
     <path stroke="null" id="svg_193" fill="#56caed" d="m7213.92687,6984.65745l302.025,0l0,18l-302.025,0l0,-18z"/>
     <path stroke="null" id="svg_194" fill="#e4eef9" d="m7364.93887,6913.21745l86.533,-95.216c-15.648,-7.818 -33.298,-12.225 -51.98,-12.225l-69.106,0c-18.682,0 -36.332,4.406 -51.98,12.224l86.533,95.217z"/>
     <path stroke="null" id="svg_195" fill="#d5e0f2" d="m7290.15187,6812.92645c-4.024,1.482 -7.945,3.176 -11.746,5.075l86.533,95.216l86.533,-95.216c-3.801,-1.899 -7.723,-3.593 -11.746,-5.075l-71.087,78.219c-1.984,2.183 -5.417,2.183 -7.4,0l-71.087,-78.219z"/>
     <path stroke="null" id="svg_196" fill="#e6485d" d="m7382.45887,6839.63145l-35.04,0l-7.643,-33.854l50.325,0l-7.642,33.854z"/>
     <path stroke="null" id="svg_197" fill="#ff5876" d="m7364.93887,6913.21745s17.546,-19.307 25.772,-28.359l-8.252,-45.228l-35.04,0l-8.252,45.228l25.772,28.359z"/>
     <path stroke="null" id="svg_198" fill="#e6485d" d="m7390.71087,6884.85845l-2.735,-14.99l-19.337,21.277c-1.984,2.183 -5.417,2.183 -7.4,0l-19.337,-21.277l-2.735,14.99l25.772,28.359s17.546,-19.307 25.772,-28.359z"/>
     <path stroke="null" id="svg_199" fill="#ffcf4d" d="m7278.40587,6818.00145c-9.587,4.79 -18.423,10.857 -26.278,17.988l101.711,111.916c5.952,6.549 16.25,6.549 22.201,0l101.711,-111.916c-7.855,-7.132 -16.692,-13.198 -26.278,-17.988l-86.534,95.216l-86.533,-95.216z"/>
     <path stroke="null" id="svg_200" fill="#ffb629" d="m7376.03987,6929.90645c-5.952,6.549 -16.25,6.549 -22.201,0l-92.322,-101.586c-3.263,2.395 -6.398,4.954 -9.389,7.669l101.711,111.916c5.952,6.549 16.25,6.549 22.201,0l101.711,-111.916c-2.991,-2.716 -6.126,-5.274 -9.389,-7.669l-92.322,101.586z"/>
    </g>
    <g stroke="null" id="svg_201">
     <g stroke="null" id="svg_202">
      <path stroke="null" id="svg_203" d="m7512.37087,6870.63745c4.591,-90.11 3.812,-153.013 -2.522,-203.744c-7.63,-61.111 -23.923,-104.066 -49.809,-131.321c-23.592,-24.84 -54.701,-36.915 -95.101,-36.915c-25.305,0 -47.531,4.977 -66.061,14.793c-3.668,1.943 -5.066,6.491 -3.123,10.158c1.943,3.668 6.493,5.066 10.158,3.123c16.34,-8.656 36.199,-13.045 59.025,-13.045c36.059,0 63.602,10.545 84.204,32.236c23.596,24.843 38.575,65.022 45.793,122.833c5.686,45.547 6.801,101.334 3.479,178.709c-19.501,-25.606 -48.703,-43.438 -82.078,-47.965c30.371,-17.741 50.823,-50.689 50.823,-88.328l0,-67.715c0,-1.077 -0.232,-2.141 -0.679,-3.121l-19.965,-43.735c-2.545,-6.069 -11.984,-5.629 -13.935,0.655l-13.513,38.915c-1.049,3.021 -3.902,5.05 -7.099,5.05l-94.06,0c-3.197,0 -6.05,-2.029 -7.099,-5.05l-13.513,-38.915c-1.917,-6.178 -11.153,-6.751 -13.833,-0.87l-19.964,40.302c-0.514,1.037 -0.781,2.179 -0.781,3.336l0,71.148c0,37.639 20.452,70.587 50.823,88.328c-33.375,4.527 -62.578,22.359 -82.078,47.966c-3.388,-78.985 -2.155,-135.682 3.857,-181.661c7.62,-58.282 23.345,-98.378 48.073,-122.58c2.966,-2.903 3.017,-7.66 0.114,-10.627c-2.903,-2.966 -7.66,-3.017 -10.627,-0.114c-27.228,26.649 -44.389,69.621 -52.463,131.372c-6.688,51.147 -7.587,114.987 -2.91,206.781c-7.306,15.809 -11.391,33.399 -11.391,51.928l0,15.612c0,4.15 3.364,7.515 7.515,7.515c4.15,0 7.515,-3.365 7.515,-7.515l0,-15.612c0,-29.302 11.607,-55.943 30.461,-75.572l96.649,106.347c8.48,9.748 24.888,9.748 33.367,0l31.587,-34.757c2.791,-3.071 2.564,-7.824 -0.508,-10.615c-3.07,-2.792 -7.823,-2.565 -10.616,0.507l-31.587,34.757c-2.821,3.26 -8.3,3.259 -11.122,0l-96.644,-106.344c4.375,-3.459 9.022,-6.587 13.9,-9.354l82.745,91.048c2.826,3.251 8.296,3.251 11.122,0l82.746,-91.047c4.878,2.766 9.524,5.895 13.899,9.353l-44.832,49.33c-2.791,3.071 -2.564,7.824 0.508,10.615c3.063,2.785 7.816,2.571 10.615,-0.507l44.835,-49.333c18.854,19.63 30.461,46.27 30.461,75.572l0,73.064l-44.746,0l0,-58.638c0,-4.15 -3.364,-7.515 -7.515,-7.515s-7.515,3.365 -7.515,7.515l0,58.638l-168.036,0l0,-58.638c0,-4.15 -3.365,-7.515 -7.515,-7.515s-7.515,3.365 -7.515,7.515l0,58.638l-44.745,0l0,-27.393c0,-4.15 -3.365,-7.515 -7.515,-7.515s-7.515,3.365 -7.515,7.515l0,34.908c0,4.15 3.364,7.515 7.515,7.515l302.616,0c4.151,0 7.515,-3.365 7.515,-7.515l0,-80.578c0.001,-18.529 -4.084,-36.119 -11.39,-51.928zm-135.885,-38.355l-23.094,0l-4.265,-18.891l31.623,0l-4.264,18.891zm-98.739,-121.111l0,-69.389l11.229,-22.669l7.635,21.987c3.147,9.061 11.706,15.149 21.297,15.149l94.06,0c9.591,0 18.15,-6.088 21.296,-15.149l7.363,-21.205l11.501,25.194l0,66.081c0,48.077 -39.113,87.191 -87.191,87.191c-48.076,0.001 -87.19,-39.113 -87.19,-87.19zm52.571,102.22l3.402,0l5.997,26.564l-5.264,28.853l-43.639,-48.017c12.256,-4.774 25.579,-7.4 39.504,-7.4zm34.621,88.963l-17.763,-19.545l6.476,-35.497l22.573,0l6.477,35.496l-17.763,19.546zm30.486,-33.546l-5.265,-28.853l5.997,-26.564l3.402,0c13.925,0 27.248,2.625 39.505,7.399l-43.639,48.018z"/>
      <path stroke="null" id="svg_204" d="m7319.13787,6674.70645c-4.142,0 -7.5,3.358 -7.5,7.5l0,21.19c0,4.142 3.358,7.5 7.5,7.5s7.5,-3.358 7.5,-7.5l0,-21.19c0,-4.142 -3.358,-7.5 -7.5,-7.5z"/>
      <path stroke="null" id="svg_205" d="m7410.73987,6710.89745c4.143,0 7.5,-3.358 7.5,-7.5l0,-21.19c0,-4.142 -3.357,-7.5 -7.5,-7.5s-7.5,3.358 -7.5,7.5l0,21.19c0,4.142 3.357,7.5 7.5,7.5z"/>
      <path stroke="null" id="svg_206" d="m7364.93887,6759.43645c26.662,0 34.722,-18.737 35.074,-19.588c0,-0.001 0.002,-0.004 0.003,-0.006c2.124,-4.773 -1.652,-10.532 -6.913,-10.414c-3.125,0 -5.802,1.913 -6.929,4.631c-0.379,0.803 -5.248,10.377 -21.235,10.377c-15.983,0 -20.853,-9.57 -21.235,-10.377c-1.127,-2.718 -3.803,-4.631 -6.929,-4.631c-5.261,-0.118 -9.036,5.642 -6.913,10.414c0.001,0.001 0.002,0.004 0.002,0.006c0.352,0.851 8.413,19.588 35.075,19.588z"/>
     </g>
    </g>
   </g>
  </g>
  <g opacity="0.8" stroke="null" id="svg_240">
   <g stroke="null" transform="matrix(3.2776827540772815,0,0,3.2292718582719555,-24091.086532230587,-23459.544835465527) " id="svg_212">
    <g stroke="null" id="svg_213">
     <path stroke="null" id="svg_214" fill="#86dcff" d="m8089.75078,7805.14188l-302.024,0l0,-80.421c0,-64.319 52.141,-116.459 116.459,-116.459l69.106,0c64.319,0 116.459,52.141 116.459,116.459l0,80.421z"/>
     <path stroke="null" id="svg_215" fill="#56caed" d="m7787.72678,7787.14188l302.025,0l0,18l-302.025,0l0,-18z"/>
     <path stroke="null" id="svg_216" fill="#e4eef9" d="m7938.73878,7715.70188l86.533,-95.216c-15.648,-7.818 -33.298,-12.225 -51.98,-12.225l-69.106,0c-18.682,0 -36.332,4.406 -51.98,12.224l86.533,95.217z"/>
     <path stroke="null" id="svg_217" fill="#d5e0f2" d="m7863.95178,7615.41088c-4.024,1.482 -7.945,3.176 -11.746,5.075l86.533,95.216l86.533,-95.216c-3.801,-1.899 -7.723,-3.593 -11.746,-5.075l-71.087,78.219c-1.984,2.183 -5.417,2.183 -7.4,0l-71.087,-78.219z"/>
     <g stroke="null" id="svg_218" fill="#ffc4ad">
      <path stroke="null" id="svg_219" d="m7844.21778,7513.74088l0,-37.882c-1.071,-0.11 -2.158,-0.167 -3.259,-0.167c-17.406,0 -31.517,14.111 -31.517,31.517s14.111,31.517 31.517,31.517c2.202,0 4.351,-0.228 6.426,-0.658c-2.062,-7.763 -3.167,-15.915 -3.167,-24.327z"/>
      <path stroke="null" id="svg_220" d="m8036.51878,7475.69088c-1.101,0 -2.188,0.057 -3.259,0.167l0,37.882c0,8.411 -1.105,16.564 -3.167,24.327c2.075,0.43 4.224,0.658 6.426,0.658c17.406,0 31.517,-14.111 31.517,-31.517s-14.111,-31.517 -31.517,-31.517z"/>
     </g>
     <path stroke="null" id="svg_221" fill="#ffb69f" d="m7840.95878,7520.72588c-14.278,0 -26.332,-9.497 -30.206,-22.517c-0.849,2.853 -1.311,5.872 -1.311,9c0,17.406 14.111,31.517 31.517,31.517c2.202,0 4.351,-0.228 6.426,-0.658c-1.502,-5.656 -2.49,-11.522 -2.919,-17.542c-1.152,0.128 -2.321,0.2 -3.507,0.2z"/>
     <path stroke="null" id="svg_222" fill="#ffb69f" d="m8036.51878,7520.72588c-1.186,0 -2.355,-0.071 -3.507,-0.199c-0.429,6.02 -1.416,11.885 -2.918,17.542c2.075,0.43 4.224,0.658 6.426,0.658c17.406,0 31.517,-14.111 31.517,-31.517c0,-3.128 -0.463,-6.147 -1.311,-9c-3.875,13.018 -15.929,22.516 -30.207,22.516z"/>
     <path stroke="null" id="svg_223" fill="#ffe0cc" d="m7844.21778,7378.81588l0,134.925c0,52.202 42.319,94.521 94.521,94.521c52.202,0 94.521,-42.318 94.521,-94.521l0,-134.925l-189.042,0z"/>
     <path stroke="null" id="svg_224" fill="#ffceb3" d="m7938.73878,7590.26188c-52.202,0 -94.521,-42.318 -94.521,-94.521l0,18c0,52.202 42.319,94.521 94.521,94.521c52.202,0 94.521,-42.318 94.521,-94.521l0,-18c0,52.202 -42.319,94.521 -94.521,94.521z"/>
     <path stroke="null" id="svg_225" fill="#2d4456" d="m8033.24878,7448.23688c-18.732,-10.735 -36.099,-41.959 -36.099,-41.959c-18.067,34.458 -57.299,38.169 -57.299,38.169c3.613,-17.494 -9.808,-33.928 -9.808,-33.928c-31.617,36.645 -72.677,39.425 -83.294,39.161c-1.614,-0.04 -3.212,-0.304 -4.76,-0.777c-24.742,-7.573 -47.856,-37.878 -47.856,-37.878c35.815,1.109 47.73,-22.116 47.73,-22.116c-36.596,1.107 -39.1,-36.647 -39.1,-36.647c55.186,7.195 66.228,-25.436 114.895,-39.81s83.125,22.748 83.125,22.748s49.323,-4.762 53.555,45.52c4.044,48.058 -21.089,67.517 -21.089,67.517"/>
     <g stroke="null" id="svg_226" fill="#253847">
      <path stroke="null" id="svg_227" d="m8029.76078,7427.99988c-11.917,-8.434 -22.853,-24.03 -28.53,-32.965c-1.872,-2.947 -6.073,-3.065 -8.211,-0.305c-20.435,26.387 -62.976,15.789 -62.976,15.789s13.421,16.434 9.808,33.928c0,0 39.231,-3.711 57.299,-38.169c0,0 17.367,31.224 36.099,41.959c0,0 24.734,-19.178 21.161,-66.436c-2.075,25.399 -12.748,39.794 -18.097,45.516c-1.714,1.831 -4.507,2.131 -6.553,0.683z"/>
      <path stroke="null" id="svg_228" d="m7931.09978,7404.59288c0.678,-4.69 -4.996,-7.588 -8.406,-4.297c-30.329,29.273 -66.134,31.629 -75.945,31.384c-1.614,-0.04 -3.212,-0.304 -4.76,-0.777c-12.012,-3.677 -23.632,-12.71 -32.418,-21.034c-4.566,0.879 -9.69,1.333 -15.438,1.155c0,0 23.114,30.305 47.856,37.878c1.547,0.474 3.145,0.737 4.76,0.777c10.618,0.265 51.677,-2.516 83.294,-39.161c0.464,-2.242 0.808,-4.206 1.057,-5.925z"/>
     </g>
     <path stroke="null" id="svg_229" fill="#e6485d" d="m7956.25878,7642.11588l-35.04,0l-7.643,-33.854l50.326,0l-7.643,33.854z"/>
     <path stroke="null" id="svg_230" fill="#ff5876" d="m7938.73878,7715.70188s17.546,-19.307 25.772,-28.359l-8.252,-45.228l-35.04,0l-8.252,45.228l25.772,28.359z"/>
     <path stroke="null" id="svg_231" fill="#e6485d" d="m7964.51078,7687.34288l-2.735,-14.99l-19.337,21.277c-1.984,2.183 -5.417,2.183 -7.4,0l-19.337,-21.277l-2.735,14.99l25.772,28.359s17.546,-19.307 25.772,-28.359z"/>
     <path stroke="null" id="svg_232" fill="#ffcf4d" d="m7852.20578,7620.48588c-9.587,4.79 -18.423,10.857 -26.278,17.988l101.711,111.916c5.952,6.549 16.25,6.549 22.201,0l101.711,-111.916c-7.855,-7.132 -16.692,-13.199 -26.278,-17.988l-86.534,95.216l-86.533,-95.216z"/>
     <path stroke="null" id="svg_233" fill="#ffb629" d="m7949.83978,7732.39088c-5.952,6.549 -16.25,6.549 -22.201,0l-92.322,-101.585c-3.263,2.395 -6.398,4.954 -9.389,7.669l101.711,111.916c5.952,6.549 16.25,6.549 22.201,0l101.711,-111.916c-2.991,-2.716 -6.126,-5.274 -9.389,-7.669l-92.322,101.585z"/>
    </g>
    <g stroke="null" id="svg_234">
     <g stroke="null" id="svg_235">
      <path stroke="null" id="svg_236" d="m7990.13178,7602.00288c21.199,-12.383 37.564,-32.175 45.514,-55.802c0.352,0.009 0.704,0.027 1.056,0.027c21.554,0 39.09,-17.536 39.09,-39.09c0,-20.118 -15.279,-36.73 -34.841,-38.855l0,-16.951c7.172,-7.223 24.637,-29.412 21.09,-71.552c-1.438,-17.09 -7.749,-30.412 -18.759,-39.597c-14.114,-11.775 -31.87,-13.029 -39.427,-13.011c-9.321,-8.71 -42.93,-35.781 -88.365,-22.363c-8.786,2.596 -17.188,5.987 -25.683,10.368c-3.689,1.903 -5.137,6.434 -3.235,10.122c1.903,3.688 6.434,5.137 10.122,3.235c7.644,-3.942 15.185,-6.989 23.052,-9.312c43.537,-12.861 74.366,19.332 75.644,20.696c1.583,1.704 3.893,2.577 6.204,2.37c0.186,-0.019 18.973,-1.559 32.149,9.511c7.755,6.515 12.237,16.354 13.321,29.243c2.721,32.335 -8.474,50.18 -14.563,57.339c-14.983,-11.636 -28.53,-35.748 -28.677,-36.013c-2.622,-5.143 -10.703,-5.055 -13.221,0.163c-10.992,20.965 -31.191,29.292 -42.743,32.449c-1.24,-16.068 -11.486,-28.817 -12.014,-29.463c-2.781,-3.58 -8.639,-3.659 -11.509,-0.156c-31.659,36.693 -72.973,36.738 -77.572,36.631c-0.926,-0.023 -1.854,-0.176 -2.758,-0.452c-13.076,-4.003 -26.035,-15.496 -34.501,-24.295c28.068,-4.837 38.368,-24.237 38.86,-25.196c2.689,-4.851 -1.393,-11.285 -6.912,-10.94c-12.182,0.377 -20.802,-4.117 -26.332,-13.714c-1.385,-2.403 -2.403,-4.852 -3.148,-7.088c26.947,1.332 43.469,-7.084 59.235,-16.663c3.547,-2.155 4.675,-6.777 2.52,-10.323c-2.154,-3.547 -6.776,-4.675 -10.323,-2.52c-15.914,9.67 -31.407,17.372 -59.926,13.652c-4.543,-0.708 -8.887,3.37 -8.469,7.948c0.03,0.455 0.808,11.27 6.777,21.943c4.276,7.648 11.777,16.304 24.622,19.993c-8.468,6.327 -19.329,9.333 -32.314,8.929c-6.125,-0.387 -10.088,7.311 -6.207,12.067c0.966,1.268 23.122,30.016 48.638,39.519l0,13.433c-19.562,2.125 -34.841,18.737 -34.841,38.855c0,21.554 17.536,39.09 39.09,39.09c0.352,0 0.704,-0.018 1.056,-0.027c7.949,23.627 24.314,43.419 45.514,55.802c-60.573,8.216 -107.415,60.264 -107.415,123.054l0,15.61c0,4.15 3.364,7.514 7.514,7.514s7.514,-3.364 7.514,-7.514l0,-15.61c0,-29.3 11.606,-55.938 30.458,-75.566l96.64,106.337c8.48,9.747 24.885,9.747 33.364,0l31.585,-34.754c2.791,-3.071 2.564,-7.823 -0.507,-10.614c-3.07,-2.792 -7.823,-2.564 -10.614,0.507l-31.585,34.754c-2.822,3.259 -8.3,3.259 -11.121,0l-96.636,-106.333c4.375,-3.459 9.021,-6.587 13.899,-9.353l82.738,91.04c2.826,3.251 8.296,3.25 11.121,0l82.738,-91.04c4.878,2.767 9.524,5.895 13.899,9.353l-44.827,49.326c-2.791,3.071 -2.564,7.823 0.507,10.614c3.062,2.785 7.817,2.571 10.614,-0.507l44.83,-49.329c18.853,19.628 30.458,46.266 30.458,75.566l0,73.057l-44.741,0l0,-58.633c0,-4.15 -3.364,-7.514 -7.514,-7.514s-7.514,3.364 -7.514,7.514l0,58.633l-168.023,0l0,-58.633c0,-4.15 -3.364,-7.514 -7.514,-7.514s-7.514,3.364 -7.514,7.514l0,58.633l-44.741,0l0,-27.391c0,-4.15 -3.364,-7.514 -7.514,-7.514s-7.514,3.364 -7.514,7.514l0,34.905c0,4.15 3.364,7.514 7.514,7.514l302.589,0c4.15,0 7.514,-3.364 7.514,-7.514l0,-80.571c-0.001,-62.793 -46.843,-114.841 -107.416,-123.057zm-39.847,32.78l-23.092,0l-4.264,-18.889l31.62,0l-4.264,18.889zm110.478,-127.645c0,12.331 -9.325,22.52 -21.293,23.898c0.969,-5.642 1.48,-11.438 1.48,-17.353l0,-30.224c11.248,2.014 19.813,11.861 19.813,23.679zm-244.048,0c0,-11.817 8.566,-21.665 19.813,-23.679l0,30.224c0,5.914 0.511,11.711 1.48,17.353c-11.968,-1.379 -21.293,-11.567 -21.293,-23.898zm34.84,6.545l0,-56.769c13.328,-0.687 47.859,-5.381 77.288,-34.389c2.658,5.316 5.186,12.789 3.652,20.214c-0.482,2.334 0.172,4.759 1.763,6.535c1.591,1.775 3.93,2.683 6.303,2.466c1.588,-0.15 35.383,-3.68 56.597,-31.594c6.438,9.703 17.022,23.79 28.764,32.007l0,61.53c0,48.073 -39.111,87.183 -87.184,87.183s-87.183,-39.11 -87.183,-87.183zm52.566,102.211l3.401,0l5.996,26.562l-5.264,28.85l-43.635,-48.013c12.257,-4.774 25.578,-7.399 39.502,-7.399zm34.618,88.954l-17.761,-19.544l6.476,-35.494l22.571,0l6.476,35.494l-17.762,19.544zm30.484,-33.542l-5.264,-28.85l5.996,-26.562l3.401,0c13.924,0 27.245,2.625 39.501,7.399l-43.634,48.013z"/>
      <path stroke="null" id="svg_237" d="m7938.73878,7561.92088c26.662,0 34.723,-18.737 35.074,-19.588c0.001,-0.002 0.002,-0.004 0.003,-0.006c2.124,-4.773 -1.652,-10.532 -6.913,-10.414c-3.125,0 -5.802,1.913 -6.929,4.631c-0.379,0.803 -5.247,10.377 -21.235,10.377c-15.983,0 -20.853,-9.57 -21.235,-10.377c-1.127,-2.718 -3.804,-4.631 -6.929,-4.631c-5.261,-0.118 -9.036,5.642 -6.912,10.414c0.001,0.001 0.002,0.004 0.003,0.006c0.35,0.851 8.411,19.588 35.073,19.588z"/>
      <path stroke="null" id="svg_238" d="m7892.93778,7477.19088c-4.142,0 -7.5,3.358 -7.5,7.5l0,21.19c0,4.142 3.358,7.5 7.5,7.5s7.5,-3.358 7.5,-7.5l0,-21.19c0,-4.142 -3.358,-7.5 -7.5,-7.5z"/>
      <path stroke="null" id="svg_239" d="m7984.53978,7513.38188c4.142,0 7.5,-3.358 7.5,-7.5l0,-21.19c0,-4.142 -3.358,-7.5 -7.5,-7.5s-7.5,3.358 -7.5,7.5l0,21.19c0,4.142 3.358,7.5 7.5,7.5z"/>
     </g>
    </g>
   </g>
  </g>
  <g stroke="null" id="svg_278">
   <path stroke="null" id="svg_245" fill="#72D8FF" d="m2023.55589,590.62445l0,-292.66116c0,-65.01883 -41.19656,-117.72994 -92.01225,-117.72994l-941.71912,0c-50.81569,0 -92.01225,52.71112 -92.01225,117.72994l0,1744.07365c0,65.01883 41.19656,117.72994 92.01225,117.72994l941.71912,0c50.81569,0 92.01225,-52.71112 92.01225,-117.72994l0,-562.23178l0,-889.18071z"/>
   <rect stroke="null" transform="matrix(3.144535226251725,0,0,4.023442142548053,-37962.596160369605,-46358.34846351653) " id="svg_246" fill="#EDF2FA" height="353.92" width="358" y="11630.85747" x="12358.07699"/>
   <polygon stroke="null" id="svg_247" fill="#A0E557" points="1897.773681640625,442.43165016174316 1897.773681640625,881.00803565979 1784.5701904296875,743.5163974761963 1671.3668212890625,881.00803565979 1671.3668212890625,442.43165016174316 "/>
   <path stroke="null" id="svg_248" fill="#FFB954" d="m728.00738,727.42148l-125.78141,-329.92226l-125.78141,329.92226l0,1183.6484c0,48.32959 30.62148,87.50987 68.39364,87.50987l114.77554,0c37.77216,0 68.39364,-39.18028 68.39364,-87.50987l0,-1183.6484z"/>
   <path stroke="null" id="svg_249" fill="#FE8F8D" d="m658.56661,1998.57975l-112.68128,0c-38.35075,0 -69.44077,-39.7838 -69.44077,-88.8537l0,-142.33329l251.56282,0l0,142.33329c0,49.0699 -31.09002,88.8537 -69.44077,88.8537z"/>
   <polygon stroke="null" id="svg_250" fill="#D8D8E4" points="728.0079956054688,727.4226474761963 602.2262573242188,397.4998264312744 476.4446716308594,727.4226474761963 "/>
   <path stroke="null" id="svg_251" d="m2023.55589,1332.26554c-8.27013,0 -16.38303,4.30508 -22.23186,11.78869s-9.21349,17.86408 -9.21349,28.44574c0,10.62189 3.36151,20.96213 9.21349,28.44574c5.84884,7.52384 13.96174,11.78869 22.23186,11.78869s16.38303,-4.26485 22.22872,-11.78869c5.84884,-7.4836 9.21663,-17.86408 9.21663,-28.44574s-3.36465,-20.96213 -9.21663,-28.44574c-5.84569,-7.4836 -13.95859,-11.78869 -22.22872,-11.78869z"/>
   <path stroke="null" id="svg_252" d="m1931.54364,139.99893l-941.71912,0c-68.07604,0 -123.4576,70.86086 -123.4576,157.96436l0,1744.07768c0,87.09948 55.38155,157.96034 123.4576,157.96034l941.72227,0c68.0729,0 123.45445,-70.86086 123.45445,-157.96436l0,-497.71186c0,-22.22147 -14.08123,-40.23442 -31.44535,-40.23442s-31.44535,18.01295 -31.44535,40.23442l0,277.13469l-1062.85291,0l0,-1343.49171l710.66496,0l0,403.04027c0,16.0817 7.48714,30.62242 19.03702,36.96739c11.54673,6.34497 24.94245,3.28313 34.05846,-7.78938l91.55314,-111.19587l91.55314,111.19989c5.96204,7.2422 13.74791,11.05642 21.65641,11.05642c4.18538,0 8.40849,-1.07024 12.40205,-3.26704c11.54988,-6.34497 19.03702,-20.88569 19.03702,-36.96739l0,-403.04429l62.8907,0l0,679.98184c0,22.22147 14.08123,40.23442 31.44535,40.23442s31.44535,-18.01295 31.44535,-40.23442l0,-859.98662c0,-87.1035 -55.38155,-157.96436 -123.4576,-157.96436zm60.56689,1761.93371l0,140.10833c0,42.72896 -27.17193,77.4915 -60.56689,77.4915l-941.71912,0c-33.39496,0 -60.56689,-34.76254 -60.56689,-77.49552l0,-140.10833l1062.85291,0.00402l0,0zm-125.78141,-1114.59004l-60.10779,-73.00536c-12.13476,-14.74189 -31.16234,-14.74189 -43.30025,0l-60.10779,73.00536l0,-309.37454l163.51583,0l0,309.37454zm-937.0715,-389.84338l0,-99.53594c0,-42.73298 27.17193,-77.49552 60.56689,-77.49552l941.72227,0c33.39182,0 60.56375,34.76254 60.56375,77.49552l0,99.53594l-1062.85291,0z"/>
   <path stroke="null" id="svg_253" d="m1897.77448,1580.39122l-830.1573,0c-17.36412,0 -31.44535,18.01295 -31.44535,40.23442s14.08123,40.23442 31.44535,40.23442l830.1573,0c17.36412,0 31.44535,-18.01295 31.44535,-40.23442s-14.08123,-40.23442 -31.44535,-40.23442z"/>
   <path stroke="null" id="svg_254" d="m1045.38532,1198.44585c5.84884,7.4836 13.96174,11.78869 22.23186,11.78869s16.38303,-4.30508 22.22872,-11.78869c5.84884,-7.4836 9.21663,-17.86408 9.21663,-28.44574s-3.36465,-20.96213 -9.21663,-28.44574c-5.84569,-7.4836 -13.95859,-11.78869 -22.22872,-11.78869s-16.38303,4.30508 -22.23186,11.78869c-5.84884,7.4836 -9.21349,17.86408 -9.21349,28.44574s3.36151,20.96213 9.21349,28.44574z"/>
   <path stroke="null" id="svg_255" d="m1897.77448,1129.7657l-691.83863,0c-17.36412,0 -31.44535,18.01295 -31.44535,40.23442c0,22.22147 14.08123,40.23442 31.44535,40.23442l691.83863,0c17.36412,0 31.44535,-18.01295 31.44535,-40.23442s-14.08123,-40.23442 -31.44535,-40.23442z"/>
   <path stroke="null" id="svg_256" d="m1897.77448,1355.09455l-830.1573,0c-17.36412,0 -31.44535,18.01295 -31.44535,40.23442s14.08123,40.23442 31.44535,40.23442l830.1573,0c17.36412,0 31.44535,-18.01295 31.44535,-40.23442s-14.08123,-40.23442 -31.44535,-40.23442z"/>
   <path stroke="null" id="svg_257" d="m1069.95043,759.60902l431.61262,0c17.36412,0 31.44535,-18.01295 31.44535,-40.23442s-14.08123,-40.23442 -31.44535,-40.23442l-431.61262,0c-17.36412,0 -31.44535,18.01295 -31.44535,40.23442s14.08123,40.23442 31.44535,40.23442z"/>
   <path stroke="null" id="svg_258" d="m1069.95043,984.93787l431.61262,0c17.36412,0 31.44535,-18.01295 31.44535,-40.23442s-14.08123,-40.23442 -31.44535,-40.23442l-431.61262,0c-17.36412,0 -31.44535,18.01295 -31.44535,40.23442s14.08123,40.23442 31.44535,40.23442z"/>
   <path stroke="null" id="svg_259" d="m1573.88735,268.74908l-226.40654,0c-17.36412,0 -31.44535,18.01295 -31.44535,40.23442s14.08123,40.23442 31.44535,40.23442l226.40654,0c17.36412,0 31.44535,-18.01295 31.44535,-40.23442s-14.08123,-40.23442 -31.44535,-40.23442z"/>
   <path stroke="null" id="svg_260" d="m1460.68408,2046.14488c8.27013,0 16.38303,-4.30508 22.22872,-11.78869c5.84884,-7.52384 9.21663,-17.86408 9.21663,-28.44574s-3.36465,-20.96213 -9.21663,-28.44574c-5.84569,-7.4836 -13.95859,-11.78869 -22.22872,-11.78869s-16.38303,4.30508 -22.23186,11.78869s-9.21349,17.86408 -9.21349,28.44574s3.36151,20.96213 9.21349,28.44574c5.84884,7.4836 13.96174,11.78869 22.23186,11.78869z"/>
   <path stroke="null" id="svg_261" d="m630.48591,379.86046c-5.2671,-13.82455 -16.23838,-22.59565 -28.25994,-22.59565s-22.99284,8.7711 -28.25994,22.59565l-125.78141,329.92226c-2.09426,5.492 -3.18541,11.52314 -3.18541,17.63877l0,1183.6484c0,70.4384 44.78762,127.74429 99.83899,127.74429l114.77554,0c55.05138,0 99.83899,-57.30589 99.83899,-127.74429l0,-1183.6484c0,-6.11563 -1.09115,-12.14677 -3.18541,-17.63877l-125.78141,-329.92226zm-26.12165,643.95594c-17.36412,0 -31.44535,18.01295 -31.44535,40.23442l0,668.47479l-65.02899,0l0,-964.86971l188.67211,0l0,964.86971l-60.75242,0l0,-668.47479c0,-22.22147 -14.08123,-40.23442 -31.44535,-40.23442zm-2.13828,-534.54648l75.45627,197.91714l-150.91253,0l75.45627,-197.91714zm57.38777,1469.07541l-114.77554,0c-20.37344,0 -36.94829,-21.20756 -36.94829,-47.27545l0,-98.07543l188.67211,0l0,98.07543c0,26.06788 -16.57485,47.27545 -36.94829,47.27545z"/>
   <path stroke="null" id="svg_262" d="m635.8096,903.11313c0,-22.22147 -14.08123,-40.23442 -31.44535,-40.23442s-31.44535,18.01295 -31.44535,40.23442l0,0.84492c0,22.22147 14.08123,40.23442 31.44535,40.23442s31.44535,-18.01295 31.44535,-40.23442l0,-0.84492z"/>
   <g stroke="null" transform="matrix(3.144535226251725,0,0,4.023442142548053,-37962.596160369605,-46358.34846351653) " id="svg_263"/>
   <g stroke="null" transform="matrix(3.144535226251725,0,0,4.023442142548053,-37962.596160369605,-46358.34846351653) " id="svg_264"/>
   <g stroke="null" transform="matrix(3.144535226251725,0,0,4.023442142548053,-37962.596160369605,-46358.34846351653) " id="svg_265"/>
   <g stroke="null" transform="matrix(3.144535226251725,0,0,4.023442142548053,-37962.596160369605,-46358.34846351653) " id="svg_266"/>
   <g stroke="null" transform="matrix(3.144535226251725,0,0,4.023442142548053,-37962.596160369605,-46358.34846351653) " id="svg_267"/>
   <g stroke="null" transform="matrix(3.144535226251725,0,0,4.023442142548053,-37962.596160369605,-46358.34846351653) " id="svg_268"/>
   <g stroke="null" transform="matrix(3.144535226251725,0,0,4.023442142548053,-37962.596160369605,-46358.34846351653) " id="svg_269"/>
   <g stroke="null" transform="matrix(3.144535226251725,0,0,4.023442142548053,-37962.596160369605,-46358.34846351653) " id="svg_270"/>
   <g stroke="null" transform="matrix(3.144535226251725,0,0,4.023442142548053,-37962.596160369605,-46358.34846351653) " id="svg_271"/>
   <g stroke="null" transform="matrix(3.144535226251725,0,0,4.023442142548053,-37962.596160369605,-46358.34846351653) " id="svg_272"/>
   <g stroke="null" transform="matrix(3.144535226251725,0,0,4.023442142548053,-37962.596160369605,-46358.34846351653) " id="svg_273"/>
   <g stroke="null" transform="matrix(3.144535226251725,0,0,4.023442142548053,-37962.596160369605,-46358.34846351653) " id="svg_274"/>
   <g stroke="null" transform="matrix(3.144535226251725,0,0,4.023442142548053,-37962.596160369605,-46358.34846351653) " id="svg_275"/>
   <g stroke="null" transform="matrix(3.144535226251725,0,0,4.023442142548053,-37962.596160369605,-46358.34846351653) " id="svg_276"/>
   <g stroke="null" transform="matrix(3.144535226251725,0,0,4.023442142548053,-37962.596160369605,-46358.34846351653) " id="svg_277"/>
  </g>
 </g>
</svg>