<?xml version="1.0" encoding="utf-8"?>
<!-- Generator: Adobe Illustrator 22.0.0, SVG Export Plug-In . SVG Version: 6.00 Build 0)  -->
<svg version="1.1" id="Layer_1" xmlns="http://www.w3.org/2000/svg" xmlns:xlink="http://www.w3.org/1999/xlink" x="0px" y="0px"
	 viewBox="0 0 80 80" style="enable-background:new 0 0 80 80;" xml:space="preserve">
<style type="text/css">
	.st0{fill:#FFE93E;}
	.st1{fill:#EBEBEB;}
	.st2{fill:#668AFF;}
	.st3{fill:#00AA9E;}
</style>
<path class="st0" d="M62.2,31.6c0-12.2-9.9-22.1-22.1-22.1c-12.2,0-22.1,9.9-22.1,22.1c0,7.5,3.8,14.5,10.2,18.6
	c2,1.3,3.3,3.5,3.3,5.9v5c0,2,1.6,3.7,3.7,3.7H45c2,0,3.7-1.6,3.7-3.7v-4.9c0-2.5,1.3-4.7,3.4-6C58.4,46.1,62.2,39.1,62.2,31.6z"/>
<path class="st1" d="M33.9,72.1c0,2,1.6,3.7,3.7,3.7l0,0h4.9c2,0,3.7-1.6,3.7-3.7l0,0v-7.4H33.9V72.1z"/>
<path class="st2" d="M69.8,18.6l3.9-2.9l-4.4-5.9l-3.9,2.9c-1.1,0.8-2.6,0.6-3.4-0.5c-0.4-0.5-0.6-1.2-0.5-1.8l0.7-4.8l-7.3-1
	l-0.7,4.8c-0.2,1.3-1.4,2.3-2.8,2.1c-0.6-0.1-1.2-0.4-1.6-1l-2.9-3.9L41,11l2.9,3.9c0.8,1.1,0.6,2.6-0.5,3.4
	c-0.5,0.4-1.2,0.6-1.8,0.5l-4.8-0.7l-1,7.3l4.8,0.7c1.3,0.2,2.3,1.4,2.1,2.8c-0.1,0.6-0.4,1.2-1,1.6l-3.9,2.9l4.4,5.9l3.9-2.9
	c1.1-0.8,2.6-0.6,3.4,0.5c0.4,0.5,0.6,1.2,0.5,1.8l-0.7,4.8l7.3,1l0.7-4.8c0.2-1.3,1.4-2.3,2.8-2.1c0.6,0.1,1.2,0.4,1.6,1l2.9,3.9
	l5.9-4.4l-2.9-3.9c-0.8-1.1-0.6-2.6,0.5-3.4c0.5-0.4,1.2-0.6,1.8-0.5l4.8,0.7l1-7.3L70.9,23c-1.3-0.2-2.3-1.4-2.1-2.8
	C68.9,19.5,69.2,19,69.8,18.6L69.8,18.6z M55.7,33.1c-4.7,0-8.6-3.8-8.6-8.6s3.8-8.6,8.6-8.6s8.6,3.8,8.6,8.6S60.4,33.1,55.7,33.1z"
	/>
<path class="st3" d="M28.1,50.2c-1.1-0.7-2.1-1.5-3-2.3c-0.9,3.3-4.2,5.2-7.5,4.4s-5.2-4.2-4.4-7.5c0.7-2.7,3.1-4.6,5.9-4.6
	c0.2,0,0.4,0,0.5,0.1c-1.2-2.7-1.8-5.7-1.8-8.7h-1.6l-0.8,4c-0.1,0.7-0.8,1.1-1.5,0.9c-0.2,0-0.3-0.1-0.4-0.2L10.3,34l-3.7,3.7
	l2.3,3.4c0.4,0.6,0.2,1.3-0.3,1.7C8.5,42.9,8.3,43,8.1,43l-4,0.8v4.9l4,0.8c0.7,0.1,1.1,0.8,0.9,1.5c0,0.2-0.1,0.3-0.2,0.4l-2.3,3.4
	l3.7,3.7l3.4-2.3c0.6-0.4,1.3-0.2,1.7,0.3c0.1,0.1,0.2,0.3,0.2,0.4l0.8,4h4.9l0.8-4c0.1-0.7,0.8-1.1,1.5-1c0.2,0,0.3,0.1,0.4,0.2
	l3.4,2.3l3.9-3.9C30.9,52.8,29.8,51.2,28.1,50.2L28.1,50.2z"/>
<path d="M75.8,22.4l-4.8-0.7c-0.7-0.1-1.1-0.7-1-1.4c0-0.3,0.2-0.6,0.5-0.8l3.9-2.9c0.5-0.4,0.7-1.2,0.2-1.7L70.2,9
	c-0.4-0.5-1.2-0.7-1.7-0.2v0l-3.9,2.9c-0.5,0.4-1.3,0.3-1.7-0.2c-0.2-0.3-0.3-0.6-0.2-0.9l0.7-4.8c0.1-0.7-0.4-1.3-1-1.4
	c0,0,0,0,0,0l-7.3-1c-0.7-0.1-1.3,0.4-1.4,1c0,0,0,0,0,0l-0.7,4.8c-0.1,0.7-0.7,1.1-1.4,1c-0.3,0-0.6-0.2-0.8-0.5l-2.9-3.9
	c-0.4-0.5-1.2-0.7-1.7-0.2v0l-3.7,2.8c-1.7-0.2-3.4-0.2-5,0c-10.9,1.2-19.5,10-20.6,20.9c0,0.3,0,0.7-0.1,1h-0.4
	c-0.6,0-1.1,0.4-1.2,1l-0.8,4L10.9,33c-0.5-0.3-1.1-0.3-1.6,0.1l-3.7,3.7c-0.4,0.4-0.5,1.1-0.1,1.6l2.3,3.4l-4,0.8
	c-0.6,0.1-1,0.6-1,1.2v4.9c0,0.6,0.4,1.1,1,1.2l4,0.8l-2.3,3.4c-0.3,0.5-0.3,1.1,0.1,1.6l3.7,3.7c0.4,0.4,1.1,0.5,1.6,0.1l3.4-2.3
	l0.8,4c0.1,0.6,0.6,1,1.2,1h4.9c0.6,0,1.1-0.4,1.2-1l0.8-4l3.4,2.3c0.5,0.3,1.1,0.3,1.6-0.1l1.9-1.9V61c0,1.7,0.9,3.4,2.5,4.2v6.8
	c0,2.7,2.2,4.9,4.9,4.9h4.9c2.7,0,4.9-2.2,4.9-4.9v-6.8c1.5-0.9,2.5-2.5,2.5-4.2v-4.9c0-2,1.1-3.9,2.8-5c1-0.7,2-1.4,2.9-2.2
	L54,47.1c-0.8,0.7-1.7,1.4-2.6,2c-2.4,1.5-3.9,4.2-4,7.1V61c0,1.4-1.1,2.5-2.5,2.5h-9.8c-1.4,0-2.5-1.1-2.5-2.5v-5
	c0-2.8-1.5-5.4-3.9-6.9c-9.7-6.1-12.7-19-6.5-28.7c3.8-6,10.4-9.7,17.5-9.7c0,0,0,0.1,0,0.1c0,0.3,0,0.6,0.2,0.9l2.9,3.9
	c0.3,0.4,0.3,0.9,0.1,1.4c-0.3,0.4-0.7,0.7-1.2,0.6l-4.8-0.7c-0.7-0.1-1.3,0.4-1.4,1c0,0,0,0,0,0l-1,7.3c-0.1,0.7,0.4,1.3,1,1.4
	c0,0,0,0,0,0l4.8,0.7c0.7,0.1,1.1,0.7,1,1.4c0,0.3-0.2,0.6-0.5,0.8L37,32.4c-0.5,0.4-0.7,1.2-0.2,1.7l4.4,5.9
	c0.4,0.5,1.2,0.7,1.7,0.2l0,0l3.9-2.9c0.5-0.4,1.3-0.3,1.7,0.2c0.2,0.3,0.3,0.6,0.2,0.9l-0.7,4.8c-0.1,0.7,0.4,1.3,1,1.4
	c0,0,0,0,0,0l7.3,1c0.1,0,0.1,0,0.2,0c0.6,0,1.1-0.4,1.2-1.1l0.7-4.8c0.1-0.7,0.7-1.1,1.4-1c0.3,0,0.6,0.2,0.8,0.5l2.9,3.9
	c0.4,0.5,1.2,0.7,1.7,0.2l0,0l5.9-4.4c0.5-0.4,0.7-1.2,0.2-1.7l-2.9-3.9c-0.3-0.4-0.3-0.9-0.1-1.4c0.2-0.4,0.7-0.7,1.2-0.6l4.8,0.7
	c0.7,0.1,1.3-0.4,1.4-1c0,0,0,0,0,0l1-7.3C77,23.2,76.5,22.5,75.8,22.4C75.8,22.4,75.8,22.4,75.8,22.4L75.8,22.4z M18.9,41.4
	c1.1,2.4,2.7,4.7,4.6,6.6c-0.9,2.5-3.7,3.9-6.3,3c-2.5-0.9-3.9-3.7-3-6.3C14.9,42.7,16.8,41.4,18.9,41.4L18.9,41.4z M42.5,74.5h-4.9
	c-1.4,0-2.5-1.1-2.5-2.5v-1.2H45v1.2C45,73.4,43.9,74.5,42.5,74.5z M45,65.9v2.5h-9.8v-2.5H45z M29.9,54.4L27.3,57l-2.6-1.8
	c-1.1-0.8-2.6-0.5-3.4,0.6c-0.2,0.3-0.3,0.6-0.4,0.9l-0.6,3.1h-2.9l-0.6-3.1c-0.3-1.3-1.6-2.2-2.9-1.9c-0.3,0.1-0.6,0.2-0.9,0.4
	L10.4,57l-2.2-2.2l1.8-2.5c0.8-1.1,0.5-2.6-0.6-3.4c-0.3-0.2-0.6-0.3-0.9-0.4l-3.1-0.6v-2.9l3.1-0.6c1.3-0.3,2.2-1.6,1.9-2.9
	c-0.1-0.3-0.2-0.6-0.4-0.9l-1.8-2.6l2.2-2.2l2.6,1.8c1.1,0.8,2.6,0.5,3.4-0.6c0.2-0.3,0.3-0.6,0.4-0.9l0.2-1c0.2,1.4,0.5,2.8,1,4.2
	c-4,0.5-6.9,4.1-6.4,8.2c0.5,4,4.1,6.9,8.2,6.4c2.4-0.3,4.6-1.8,5.7-3.9c0.7,0.5,1.4,1.1,2.1,1.5C28.6,51.9,29.5,53.1,29.9,54.4
	L29.9,54.4z M73.6,29.6L70,29c-2-0.3-3.9,1.1-4.2,3.1c-0.1,1,0.1,1.9,0.7,2.7l2.2,2.9l-3.9,2.9l-2.2-2.9c-1.2-1.6-3.5-2-5.2-0.7
	c-0.8,0.6-1.3,1.5-1.4,2.4l-0.5,3.6l-4.9-0.7l0.5-3.6c0.3-2-1.1-3.9-3.1-4.2c-1-0.1-2,0.1-2.7,0.7l-2.9,2.2l-2.9-3.9l2.9-2.2
	c1.6-1.2,2-3.5,0.7-5.2c-0.6-0.8-1.5-1.3-2.4-1.4l-3.6-0.5l0.7-4.9l3.6,0.5c2,0.3,3.9-1.1,4.2-3.1c0.1-1-0.1-2-0.7-2.7l-2.2-2.9
	l3.9-2.9l2.2,2.9c1.2,1.6,3.5,2,5.2,0.7c0.8-0.6,1.3-1.5,1.4-2.4l0.5-3.6l4.9,0.7l-0.5,3.6c-0.3,2,1.1,3.9,3.1,4.2
	c1,0.1,1.9-0.1,2.7-0.7l2.9-2.2l2.9,3.9L69,17.6c-1.6,1.2-2,3.5-0.7,5.2c0.6,0.8,1.5,1.3,2.4,1.4l3.6,0.5L73.6,29.6z"/>
<path d="M55.7,14.7c-5.4,0-9.8,4.4-9.8,9.8s4.4,9.8,9.8,9.8s9.8-4.4,9.8-9.8C65.5,19.1,61.1,14.7,55.7,14.7z M55.7,31.9
	c-4.1,0-7.4-3.3-7.4-7.4s3.3-7.4,7.4-7.4s7.4,3.3,7.4,7.4C63.1,28.6,59.8,31.9,55.7,31.9z"/>
<path d="M38.8,57.4h2.5V61h-2.5V57.4z"/>
<path d="M34.7,45.3c-7.6-3-11.3-11.5-8.4-19.1c1.1-2.9,3.2-5.4,5.9-7.1L30.9,17c-8,5.1-10.4,15.7-5.4,23.7c2,3.1,4.9,5.5,8.3,6.9
	c3,1.2,5,4.1,5,7.3h2.5C41.3,50.6,38.7,46.8,34.7,45.3z"/>
<path d="M63.4,48.8H72v2.5h-8.6V48.8z"/>
<path d="M61.4,57.1l1.6-1.9l7.4,6.1l-1.6,1.9L61.4,57.1z"/>
<path d="M56,58.6h2.5v8.6H56V58.6z"/>
<path d="M4.1,24.2l9.8-2.5l0.6,2.4l-9.8,2.5L4.1,24.2z"/>
<path d="M6.2,11.7l1.4-2l8.6,6.1l-1.4,2L6.2,11.7z"/>
<path d="M16.7,3.6L19.1,3l2.5,9.8l-2.4,0.6L16.7,3.6z"/>
</svg>
