<?xml version="1.0" encoding="utf-8"?>
<!-- Generator: Adobe Illustrator 24.1.1, SVG Export Plug-In . SVG Version: 6.00 Build 0)  -->
<svg version="1.1" id="Capa_1" xmlns="http://www.w3.org/2000/svg" xmlns:xlink="http://www.w3.org/1999/xlink" x="0px" y="0px"
	 viewBox="0 0 10 10" style="enable-background:new 0 0 10 10;" xml:space="preserve">
<style type="text/css">
	.st0{fill:none;stroke:#000000;stroke-width:0.1;stroke-miterlimit:10;}
	.st1{fill:#5D87A5;}
	.st2{fill:#449AE7;}
	.st3{fill:#F1C1A2;}
	.st4{fill:#B1A182;}
	.st5{fill:#F8A980;}
	.st6{fill:#EDCB84;}
	.st7{fill:#ABCCDA;}
	.st8{stroke:#000000;stroke-width:0.08;stroke-miterlimit:10;}
	.st9{fill:#F53B7C;}
	.st10{fill:#E69216;}
	.st11{fill:#ED1E79;}
</style>
<line class="st0" x1="1.77" y1="5.26" x2="1.76" y2="5.25"/>
<path class="st0" d="M6.06,7.16C6.02,7.18,5.97,7.2,5.93,7.21"/>
<g>
	<path class="st1" d="M0.8,4.88V4.54V3.48h0.87c0.07-0.35,0.22-0.7,0.41-1L1.46,1.87l1.01-1.01l0.61,0.62c0.3-0.19,0.65-0.34,1-0.41
		V0.2h1.44v0.87c0.35,0.07,0.7,0.22,1,0.41l0.61-0.62l1.01,1.01L7.52,2.48c0.19,0.3,0.34,0.65,0.41,1H8.8v0.66v0.74"/>
	<g>
		<path d="M0.95,4.88c0-0.47,0-0.93,0-1.4C0.9,3.53,0.85,3.58,0.8,3.63c0.29,0,0.58,0,0.87,0c0.06,0,0.13-0.05,0.14-0.11
			c0.08-0.35,0.21-0.66,0.39-0.96C2.24,2.5,2.23,2.42,2.19,2.37c-0.21-0.2-0.41-0.41-0.62-0.61c0,0.07,0,0.14,0,0.21
			C1.9,1.64,2.24,1.3,2.58,0.97c-0.07,0-0.14,0-0.21,0c0.2,0.21,0.41,0.41,0.61,0.62C3.02,1.63,3.1,1.64,3.16,1.61
			c0.3-0.18,0.62-0.32,0.96-0.39C4.18,1.2,4.23,1.13,4.23,1.07c0-0.29,0-0.58,0-0.87c-0.05,0.05-0.1,0.1-0.15,0.15
			c0.48,0,0.96,0,1.44,0C5.47,0.3,5.42,0.25,5.37,0.2c0,0.29,0,0.58,0,0.87c0,0.06,0.05,0.13,0.11,0.14
			c0.35,0.08,0.66,0.21,0.96,0.39C6.5,1.64,6.58,1.63,6.63,1.59c0.2-0.21,0.41-0.41,0.61-0.62c-0.07,0-0.14,0-0.21,0
			C7.36,1.3,7.7,1.64,8.03,1.98c0-0.07,0-0.14,0-0.21c-0.21,0.2-0.41,0.41-0.62,0.61C7.37,2.42,7.36,2.5,7.39,2.56
			c0.18,0.3,0.32,0.62,0.39,0.96C7.8,3.58,7.87,3.63,7.93,3.63c0.29,0,0.58,0,0.87,0c-0.05-0.05-0.1-0.1-0.15-0.15
			c0,0.47,0,0.93,0,1.4c0,0.19,0.3,0.19,0.3,0c0-0.47,0-0.93,0-1.4c0-0.08-0.07-0.15-0.15-0.15c-0.29,0-0.58,0-0.87,0
			c0.05,0.04,0.1,0.07,0.14,0.11C7.99,3.07,7.85,2.73,7.65,2.4C7.64,2.46,7.63,2.53,7.63,2.59c0.21-0.2,0.41-0.41,0.62-0.61
			c0.06-0.06,0.06-0.16,0-0.21C7.91,1.43,7.57,1.09,7.24,0.75c-0.06-0.06-0.16-0.06-0.21,0c-0.2,0.21-0.41,0.41-0.61,0.62
			C6.47,1.37,6.54,1.36,6.6,1.35c-0.33-0.2-0.66-0.34-1.04-0.43c0.04,0.05,0.07,0.1,0.11,0.14c0-0.29,0-0.58,0-0.87
			c0-0.08-0.07-0.15-0.15-0.15c-0.48,0-0.96,0-1.44,0C4,0.05,3.93,0.12,3.93,0.2c0,0.29,0,0.58,0,0.87C3.97,1.02,4,0.97,4.04,0.93
			C3.67,1.01,3.33,1.15,3,1.35c0.06,0.01,0.12,0.02,0.18,0.02c-0.2-0.21-0.41-0.41-0.61-0.62c-0.06-0.06-0.16-0.06-0.21,0
			C2.03,1.09,1.69,1.43,1.35,1.76c-0.06,0.06-0.06,0.16,0,0.21c0.21,0.2,0.41,0.41,0.62,0.61C1.97,2.53,1.96,2.46,1.95,2.4
			c-0.2,0.33-0.34,0.66-0.43,1.04c0.05-0.04,0.1-0.07,0.14-0.11c-0.29,0-0.58,0-0.87,0c-0.08,0-0.15,0.07-0.15,0.15
			c0,0.47,0,0.93,0,1.4C0.65,5.07,0.95,5.07,0.95,4.88L0.95,4.88z"/>
	</g>
</g>
<line class="st0" x1="7.84" y1="5.25" x2="7.83" y2="5.26"/>
<g>
	<path class="st2" d="M5.76,7.16H6.8V5.47c0-0.73-0.5-1.36-1.17-1.55c-0.22,0.2-0.5,0.31-0.81,0.31S4.23,4.12,4.01,3.92
		C3.33,4.11,2.84,4.74,2.84,5.47v1.69h1.08"/>
	<g>
		<path d="M5.76,7.31c0.35,0,0.69,0,1.04,0c0.08,0,0.15-0.07,0.15-0.15c0-0.47,0-0.94,0-1.4c0-0.22,0.01-0.44-0.04-0.66
			C6.82,4.68,6.57,4.31,6.24,4.06C6.08,3.94,5.86,3.8,5.67,3.77C5.58,3.76,5.54,3.8,5.47,3.85c-0.13,0.1-0.28,0.17-0.44,0.2
			c-0.27,0.06-0.57,0-0.8-0.15C4.16,3.86,4.1,3.77,4.01,3.77C3.9,3.76,3.77,3.84,3.68,3.89c-0.67,0.32-0.99,1-0.99,1.71
			c0,0.52,0,1.04,0,1.56c0,0.08,0.07,0.15,0.15,0.15c0.36,0,0.72,0,1.08,0c0.19,0,0.19-0.3,0-0.3c-0.36,0-0.72,0-1.08,0
			c0.05,0.05,0.1,0.1,0.15,0.15c0-0.48,0-0.96,0-1.43c0-0.24,0-0.48,0.07-0.71C3.21,4.55,3.59,4.2,4.05,4.06
			C4,4.05,3.95,4.04,3.9,4.03c0.54,0.46,1.3,0.46,1.83,0c-0.05,0.01-0.1,0.03-0.15,0.04C6.04,4.2,6.41,4.54,6.57,4.99
			c0.09,0.24,0.08,0.49,0.08,0.74c0,0.48,0,0.96,0,1.43c0.05-0.05,0.1-0.1,0.15-0.15c-0.35,0-0.69,0-1.04,0
			C5.57,7.01,5.57,7.31,5.76,7.31L5.76,7.31z"/>
	</g>
</g>
<g>
	<g>
		<path d="M4.07,7.16C4.06,6.6,4.06,6.04,4.05,5.48c0-0.08,0-0.16,0-0.24c0-0.19-0.3-0.19-0.3,0C3.75,5.8,3.76,6.36,3.77,6.92
			c0,0.08,0,0.16,0,0.24C3.77,7.35,4.07,7.35,4.07,7.16L4.07,7.16z"/>
	</g>
</g>
<g>
	<g>
		<path d="M5.91,7.16C5.9,6.6,5.9,6.04,5.89,5.48c0-0.08,0-0.16,0-0.24c0-0.19-0.3-0.19-0.3,0C5.59,5.8,5.6,6.36,5.61,6.92
			c0,0.08,0,0.16,0,0.24C5.61,7.35,5.91,7.35,5.91,7.16L5.91,7.16z"/>
	</g>
</g>
<g>
	<path class="st3" d="M6.02,3.33c0.03-0.09,0.04-0.19,0.05-0.3V2.98c0-0.05,0-0.1-0.02-0.15H3.59c-0.02,0.05-0.02,0.1-0.02,0.15
		v0.05c0,0.07,0.01,0.14,0.03,0.21c0.06,0.27,0.2,0.51,0.41,0.68c0.22,0.2,0.5,0.31,0.81,0.31s0.59-0.11,0.81-0.31
		c0.18-0.15,0.31-0.35,0.38-0.58"/>
	<g>
		<path d="M6.13,3.36C6.19,3.19,6.22,2.97,6.16,2.8C6.15,2.75,6.1,2.71,6.05,2.71c-0.72,0-1.43,0-2.15,0c-0.1,0-0.21,0-0.31,0
			c-0.05,0-0.1,0.04-0.12,0.09c-0.09,0.3,0.04,0.68,0.2,0.93c0.19,0.28,0.49,0.5,0.82,0.58C5.2,4.48,5.91,4.05,6.13,3.36
			c0.04-0.14-0.19-0.2-0.24-0.05C5.71,3.86,5.13,4.22,4.56,4.08C4.29,4.02,4.05,3.84,3.89,3.62C3.75,3.42,3.63,3.1,3.7,2.86
			C3.67,2.89,3.63,2.92,3.59,2.95c0.72,0,1.43,0,2.15,0c0.1,0,0.21,0,0.31,0C6.01,2.92,5.97,2.89,5.93,2.86
			C5.97,3,5.94,3.17,5.9,3.3C5.86,3.45,6.09,3.51,6.13,3.36L6.13,3.36z"/>
	</g>
</g>
<g>
	<path class="st4" d="M6.5,2.61v0.07c0,0.08-0.07,0.15-0.15,0.15H3.29c-0.08,0-0.15-0.07-0.15-0.15V2.61c0-0.07,0.05-0.13,0.12-0.14
		V2.46h3.1C6.44,2.47,6.5,2.53,6.5,2.61z"/>
	<g>
		<path d="M6.38,2.61c0,0.08-0.01,0.09-0.08,0.1c-0.07,0-0.14,0-0.2,0c-0.25,0-0.5,0-0.75,0c-0.58,0-1.15,0-1.73,0
			c-0.09,0-0.17,0-0.26,0c-0.02,0-0.05,0.01-0.06,0C3.26,2.69,3.23,2.6,3.29,2.59c0.05-0.02,0.09-0.06,0.09-0.12c0,0,0-0.01,0-0.01
			C3.34,2.5,3.3,2.54,3.26,2.58c0.9,0,1.8,0,2.71,0C6.01,2.58,6.37,2.54,6.38,2.61c0.02,0.15,0.26,0.15,0.24,0
			c-0.03-0.23-0.2-0.27-0.4-0.27c-0.23,0-0.46,0-0.69,0c-0.61,0-1.22,0-1.82,0c-0.15,0-0.3,0-0.45,0c-0.06,0-0.12,0.05-0.12,0.12
			c0,0,0,0.01,0,0.01C3.17,2.43,3.2,2.39,3.23,2.35C3.04,2.41,2.96,2.62,3.05,2.8C3.1,2.91,3.21,2.95,3.33,2.95
			c0.23,0.01,0.47,0,0.71,0c0.69,0,1.38,0,2.08,0c0.08,0,0.16,0,0.23,0c0.2-0.01,0.28-0.16,0.28-0.34C6.62,2.45,6.38,2.45,6.38,2.61
			z"/>
	</g>
</g>
<g>
	<path class="st5" d="M3.46,3.37H3.23c-0.06,0-0.1-0.05-0.1-0.1V3.03c0-0.06,0.05-0.1,0.1-0.1h0.24c0.06,0,0.1,0.05,0.1,0.1v0.24
		C3.57,3.33,3.52,3.37,3.46,3.37z"/>
	<g>
		<path d="M3.46,3.25c-0.08,0-0.16,0-0.24,0c-0.01,0-0.01-0.01,0.01,0c0,0-0.01,0-0.01,0c-0.01,0,0.03,0.02,0.01,0
			c0,0-0.01,0-0.01-0.01c0.01,0,0.01,0.01,0.02,0.01c0,0-0.01-0.01-0.01-0.01c0,0,0.02,0.03,0.01,0.01c0,0-0.01-0.02,0,0
			c0.01,0.02,0,0,0-0.01c0,0,0,0.03,0,0.01c0,0,0,0,0,0c0-0.01,0-0.02,0-0.03c0-0.05,0-0.11,0-0.16c0-0.02,0-0.03,0-0.05
			c0-0.01,0.01-0.01,0,0.01c0,0,0-0.01,0-0.01c0-0.02-0.02,0.02,0,0.01c0,0,0.01-0.01,0.01-0.01C3.24,3.05,3.23,3.05,3.24,3.04
			c0.01-0.01-0.03,0.02-0.01,0.01c0,0,0,0,0.01,0c0.01,0,0,0-0.02,0.01c0,0,0.01,0,0.01,0c0.01-0.01-0.03,0-0.01,0c0,0,0,0,0,0
			c0.01,0,0.01,0,0.02,0c0.02,0,0.05,0,0.07,0c0.05,0,0.09,0,0.14,0c0,0,0,0,0,0c0.02,0-0.03-0.01,0,0c0.02,0-0.02-0.01-0.01,0
			c0,0,0.01,0.01,0.01,0.01C3.45,3.04,3.45,3.03,3.45,3.04c0.01,0.01-0.02-0.03,0,0c0.01,0.01,0,0.01,0-0.01c0,0,0,0.01,0,0.01
			c0.01,0.02,0-0.03,0-0.01c0,0,0,0.01,0,0.01c0,0.06,0,0.12,0,0.17c0,0.02,0,0.03,0,0.05c0,0.01,0,0.01,0,0c0-0.03,0,0.01,0,0.01
			c0,0,0.02-0.03,0-0.01C3.44,3.28,3.46,3.26,3.46,3.25c-0.01,0-0.01,0-0.01,0C3.44,3.27,3.45,3.26,3.46,3.25c0,0-0.01,0-0.01,0.01
			C3.47,3.24,3.47,3.25,3.46,3.25C3.43,3.26,3.49,3.25,3.46,3.25c-0.06,0-0.12,0.05-0.12,0.12c0,0.06,0.05,0.12,0.12,0.12
			c0.08,0,0.15-0.04,0.19-0.11C3.68,3.34,3.69,3.3,3.69,3.26c0-0.06,0-0.11,0-0.17c0-0.02,0-0.04,0-0.05c0-0.08-0.04-0.14-0.1-0.19
			C3.53,2.8,3.46,2.81,3.39,2.81c-0.05,0-0.11,0-0.16,0C3.1,2.81,3,2.91,3,3.03c0,0.05,0,0.11,0,0.16c0,0.07,0,0.14,0.04,0.2
			c0.05,0.06,0.11,0.1,0.19,0.1c0.02,0,0.05,0,0.07,0c0.05,0,0.11,0,0.16,0c0.06,0,0.12-0.06,0.12-0.12
			C3.58,3.31,3.53,3.25,3.46,3.25z"/>
	</g>
</g>
<g>
	<path class="st5" d="M6.41,3.37H6.17c-0.06,0-0.1-0.05-0.1-0.1V3.03c0-0.06,0.05-0.1,0.1-0.1h0.24c0.06,0,0.1,0.05,0.1,0.1v0.24
		C6.52,3.33,6.47,3.37,6.41,3.37z"/>
	<g>
		<path d="M6.41,3.25c-0.08,0-0.16,0-0.24,0c-0.01,0-0.01-0.01,0.01,0c0,0-0.01,0-0.01,0c-0.01,0,0.03,0.02,0.01,0
			c0,0-0.01,0-0.01-0.01c0.01,0,0.01,0.01,0.02,0.01c0,0-0.01-0.01-0.01-0.01c0,0,0.02,0.03,0.01,0.01c0,0-0.01-0.02,0,0
			c0.01,0.02,0,0,0-0.01c0,0,0,0.03,0,0.01c0,0,0,0,0,0c0-0.01,0-0.02,0-0.03c0-0.05,0-0.11,0-0.16c0-0.02,0-0.03,0-0.05
			c0-0.01,0.01-0.01,0,0.01c0,0,0-0.01,0-0.01c0-0.02-0.02,0.02,0,0.01c0,0,0.01-0.01,0.01-0.01C6.18,3.05,6.18,3.05,6.19,3.04
			C6.2,3.03,6.16,3.06,6.18,3.05c0,0,0,0,0.01,0c0.01,0,0,0-0.02,0.01c0,0,0.01,0,0.01,0c0.01-0.01-0.03,0-0.01,0c0,0,0,0,0,0
			c0.01,0,0.01,0,0.02,0c0.02,0,0.05,0,0.07,0c0.05,0,0.09,0,0.14,0c0,0,0,0,0,0c0.02,0-0.03-0.01,0,0c0.02,0-0.02-0.01-0.01,0
			c0,0,0.01,0.01,0.01,0.01C6.39,3.04,6.39,3.03,6.4,3.04c0.01,0.01-0.02-0.03,0,0c0.01,0.01,0,0.01,0-0.01c0,0,0,0.01,0,0.01
			c0.01,0.02,0-0.03,0-0.01c0,0,0,0.01,0,0.01c0,0.06,0,0.12,0,0.17c0,0.02,0,0.03,0,0.05c0,0.01,0,0.01,0,0c0-0.03,0,0.01,0,0.01
			c0,0,0.02-0.03,0-0.01C6.38,3.28,6.41,3.26,6.41,3.25c-0.01,0-0.01,0-0.01,0C6.39,3.27,6.4,3.26,6.41,3.25c0,0-0.01,0-0.01,0.01
			C6.42,3.24,6.42,3.25,6.41,3.25C6.38,3.26,6.43,3.25,6.41,3.25c-0.06,0-0.12,0.05-0.12,0.12c0,0.06,0.05,0.12,0.12,0.12
			c0.08,0,0.15-0.04,0.19-0.11C6.63,3.34,6.64,3.3,6.64,3.26c0-0.06,0-0.11,0-0.17c0-0.02,0-0.04,0-0.05c0-0.08-0.04-0.14-0.1-0.19
			C6.48,2.8,6.4,2.81,6.33,2.81c-0.05,0-0.11,0-0.16,0c-0.13,0-0.22,0.1-0.23,0.23c0,0.05,0,0.11,0,0.16c0,0.07,0,0.14,0.04,0.2
			c0.05,0.06,0.11,0.1,0.19,0.1c0.02,0,0.05,0,0.07,0c0.05,0,0.11,0,0.16,0c0.06,0,0.12-0.06,0.12-0.12
			C6.53,3.31,6.48,3.25,6.41,3.25z"/>
	</g>
</g>
<g>
	<path class="st6" d="M5.04,1.19v0.59c0,0.06-0.04,0.11-0.1,0.11H4.7c-0.06,0-0.1-0.05-0.1-0.11V1.19c0-0.06,0.04-0.1,0.1-0.1h0.24
		C5,1.09,5.04,1.13,5.04,1.19z"/>
	<g>
		<path d="M4.92,1.19c0,0.13,0,0.27,0,0.4c0,0.06,0,0.12,0,0.18c0,0.01,0,0.01,0,0.02c0-0.02,0,0,0,0c0-0.01,0.01-0.01,0.01-0.02
			c-0.01,0.02,0,0,0,0c0.02-0.01-0.01,0,0.01,0c-0.02,0-0.05,0-0.07,0c-0.04,0-0.09,0-0.13,0c-0.01,0-0.02,0-0.03,0
			c-0.01,0,0.01,0,0.01,0c0,0-0.03-0.01,0,0c0,0,0.01,0,0.01,0.01c-0.01-0.01-0.01-0.01,0,0c0.01,0.02,0,0,0,0c0,0,0,0.03,0,0
			c0,0,0,0,0,0c0-0.01,0-0.01,0-0.02c0-0.03,0-0.06,0-0.08c0-0.15,0-0.31,0-0.46c0-0.01,0-0.01,0-0.02c0-0.02,0,0-0.01,0.01
			c0-0.01,0.01-0.02,0,0c0,0-0.01,0-0.01,0.01c0.01-0.01,0.01-0.01,0,0c-0.03,0.01,0,0,0.01,0c0.02,0,0.04,0,0.06,0
			c0.05,0,0.09,0,0.14,0c0.01,0,0.02,0,0.03,0c0.01,0,0.02,0,0,0c0,0-0.01,0-0.01-0.01c0.01,0.01,0.01,0.01,0,0
			c-0.01-0.01-0.01-0.02,0,0C4.92,1.19,4.92,1.16,4.92,1.19c0,0.06,0.05,0.12,0.12,0.12c0.06,0,0.12-0.05,0.12-0.12
			c0-0.12-0.08-0.21-0.2-0.22c-0.03,0-0.07,0-0.1,0c-0.11,0-0.24-0.02-0.32,0.06C4.47,1.1,4.48,1.19,4.48,1.28c0,0.1,0,0.19,0,0.29
			c0,0.07,0,0.13,0,0.2c0,0.08,0.04,0.16,0.11,0.2c0.05,0.03,0.1,0.03,0.15,0.03c0.05,0,0.1,0,0.15,0c0.05,0,0.09,0,0.14-0.02
			c0.09-0.04,0.13-0.12,0.13-0.21c0-0.02,0-0.04,0-0.06c0-0.17,0-0.35,0-0.52c0-0.06-0.06-0.12-0.12-0.12
			C4.97,1.07,4.92,1.12,4.92,1.19z"/>
	</g>
</g>
<g>
	<g>
		<path d="M4.67,1.97c0,0.12,0,0.25,0,0.37c0,0.02,0,0.04,0,0.05c0,0.08,0.07,0.15,0.15,0.15c0.08,0,0.15-0.07,0.15-0.15
			c0-0.12,0-0.25,0-0.37c0-0.02,0-0.04,0-0.05c0-0.08-0.07-0.15-0.15-0.15C4.74,1.82,4.67,1.89,4.67,1.97L4.67,1.97z"/>
	</g>
</g>
<g>
	<g>
		<path d="M3.38,2.47C3.38,2.47,3.38,2.46,3.38,2.47c0-0.04-0.01-0.07-0.04-0.09C3.32,2.35,3.29,2.34,3.26,2.34
			c-0.03,0-0.06,0.01-0.08,0.04C3.15,2.4,3.14,2.43,3.14,2.46c0,0,0,0.01,0,0.01c0,0.03,0.01,0.06,0.04,0.08
			c0.02,0.02,0.05,0.04,0.08,0.04c0.03,0,0.06-0.01,0.08-0.04C3.37,2.53,3.38,2.5,3.38,2.47L3.38,2.47z"/>
	</g>
</g>
<g>
	<path class="st7" d="M6.36,2.46h-3.1C3.31,1.91,3.87,1.48,4.6,1.41v0.37c0,0.06,0.04,0.11,0.1,0.11h0.24c0.06,0,0.1-0.05,0.1-0.11
		V1.41C5.76,1.49,6.31,1.92,6.36,2.46z"/>
	<g>
		<path d="M6.36,2.31c-0.91,0-1.81,0-2.72,0c-0.13,0-0.26,0-0.38,0c0.05,0.05,0.1,0.1,0.15,0.15C3.47,1.89,4.1,1.61,4.6,1.56
			c-0.05-0.05-0.1-0.1-0.15-0.15c0,0.12-0.01,0.25,0,0.37C4.46,2,4.63,2.04,4.82,2.04C5,2.04,5.17,2,5.19,1.78
			c0.01-0.12,0-0.25,0-0.37c-0.05,0.05-0.1,0.1-0.15,0.15c0.49,0.06,1.11,0.35,1.17,0.9c0.02,0.19,0.32,0.19,0.3,0
			c-0.08-0.74-0.8-1.12-1.47-1.2C4.96,1.25,4.89,1.34,4.89,1.41c0,0.09,0,0.17,0,0.26c0,0.01-0.01,0.1,0,0.11
			c0.05-0.03,0.06-0.04,0.04-0.04c-0.01,0-0.02,0-0.03,0c-0.02-0.01-0.07,0-0.08,0c-0.02,0-0.06-0.01-0.08,0
			C4.69,1.75,4.72,1.72,4.73,1.76c0.01,0.08,0.03-0.01,0.02-0.01c0.01-0.01,0-0.05,0-0.07c0-0.09,0-0.18,0-0.27
			c0-0.07-0.07-0.16-0.15-0.15c-0.68,0.07-1.41,0.45-1.49,1.2C3.1,2.54,3.19,2.61,3.26,2.61c0.91,0,1.81,0,2.72,0
			c0.13,0,0.26,0,0.38,0C6.55,2.61,6.55,2.31,6.36,2.31z"/>
	</g>
</g>
<g>
	<g>
		<path d="M4.93,2.43c0-0.16,0-0.32,0-0.48c0-0.02,0-0.05,0-0.07c0-0.06-0.06-0.12-0.12-0.12c-0.07,0-0.12,0.05-0.12,0.12
			c0,0.16,0,0.32,0,0.48c0,0.02,0,0.05,0,0.07c0,0.06,0.06,0.12,0.12,0.12C4.88,2.55,4.93,2.5,4.93,2.43L4.93,2.43z"/>
	</g>
</g>
<circle class="st8" cx="4.32" cy="3.16" r="0.1"/>
<circle class="st8" cx="5.32" cy="3.16" r="0.1"/>
<g>
	<circle class="st2" cx="4.81" cy="5.54" r="0.45"/>
	<g>
		<path d="M5.11,5.54c0,0.01,0,0.02,0,0.04c0,0.03,0,0,0,0c0,0.02-0.01,0.04-0.01,0.06c0,0.01-0.01,0.02-0.01,0.03
			c0-0.01,0.01-0.03,0,0C5.07,5.68,5.06,5.7,5.05,5.72c-0.02,0.03,0.01-0.01,0,0C5.04,5.73,5.03,5.74,5.03,5.75
			C5.02,5.75,4.97,5.79,5,5.77C4.99,5.78,4.97,5.79,4.95,5.8c-0.01,0-0.01,0.01-0.02,0.01C4.91,5.83,4.96,5.81,4.92,5.82
			C4.9,5.82,4.88,5.83,4.86,5.84c-0.01,0-0.04,0,0,0c-0.01,0-0.02,0-0.03,0c-0.02,0-0.04,0-0.06,0c-0.02,0,0.04,0.01,0,0
			c-0.01,0-0.02-0.01-0.04-0.01c-0.01,0-0.02-0.01-0.03-0.01c-0.01,0-0.02-0.01,0,0C4.68,5.81,4.66,5.8,4.64,5.79
			C4.64,5.78,4.63,5.78,4.62,5.77c-0.02-0.01,0.02,0.02,0,0C4.6,5.75,4.59,5.74,4.57,5.72c0.02,0.02,0.01,0.01,0,0
			C4.56,5.71,4.56,5.7,4.55,5.69C4.55,5.69,4.52,5.63,4.54,5.67C4.53,5.65,4.52,5.63,4.52,5.61c0-0.01,0-0.02-0.01-0.02
			c-0.01-0.03,0,0.02,0-0.02c0-0.02,0-0.04,0-0.06c0-0.01,0.01-0.05,0-0.01c0-0.01,0-0.02,0-0.02c0-0.02,0.01-0.04,0.02-0.06
			c0.01-0.04-0.02,0.03,0-0.01c0.01-0.01,0.01-0.02,0.02-0.03c0.01-0.01,0.01-0.02,0.02-0.02c0-0.01,0.02-0.03,0,0
			C4.58,5.34,4.6,5.33,4.61,5.32c0,0,0.03-0.03,0.01-0.01C4.6,5.32,4.63,5.3,4.63,5.29C4.65,5.28,4.67,5.27,4.7,5.26
			c0,0-0.03,0.01,0,0c0.01,0,0.02-0.01,0.03-0.01c0.01,0,0.02,0,0.02-0.01c0,0,0.04-0.01,0.02,0c-0.02,0,0.02,0,0.02,0
			c0.01,0,0.02,0,0.03,0c0.01,0,0.02,0,0.03,0c0.03,0-0.02-0.01,0.01,0C4.88,5.25,4.9,5.25,4.92,5.26c0.03,0.01-0.01-0.01,0,0
			c0.01,0.01,0.03,0.01,0.04,0.02c0.01,0,0.01,0.01,0.02,0.01C4.99,5.3,5,5.3,5,5.31c-0.01-0.01-0.02-0.01,0,0
			c0.01,0.01,0.03,0.03,0.04,0.04c0.03,0.03-0.02-0.03,0.01,0.01c0.01,0.01,0.01,0.02,0.02,0.03c0.01,0.01,0.01,0.02,0.02,0.03
			c0.02,0.03-0.01-0.02,0,0.01C5.09,5.45,5.1,5.47,5.11,5.49c0,0.01,0,0.03,0,0C5.11,5.51,5.11,5.52,5.11,5.54
			c0,0.08,0.07,0.15,0.15,0.15c0.08,0,0.15-0.07,0.15-0.15c0-0.26-0.16-0.48-0.4-0.56c-0.23-0.09-0.5-0.01-0.66,0.18
			c-0.16,0.2-0.19,0.47-0.06,0.7c0.13,0.22,0.39,0.33,0.64,0.28c0.28-0.05,0.48-0.31,0.48-0.59c0-0.08-0.07-0.15-0.15-0.15
			C5.18,5.39,5.11,5.46,5.11,5.54z"/>
	</g>
</g>
<g>
	<g>
		<path d="M4.42,6.48c0.23,0,0.47,0,0.7,0c0.03,0,0.07,0,0.1,0c0.06,0,0.12-0.06,0.12-0.12c0-0.07-0.05-0.12-0.12-0.12
			c-0.23,0-0.47,0-0.7,0c-0.03,0-0.07,0-0.1,0C4.36,6.24,4.3,6.3,4.3,6.36C4.3,6.43,4.35,6.48,4.42,6.48L4.42,6.48z"/>
	</g>
</g>
<g>
	<path class="st9" d="M3.19,9.59h1.04V7.9c0-0.73-0.5-1.36-1.17-1.55c-0.22,0.2-0.5,0.31-0.81,0.31S1.66,6.55,1.44,6.35
		C0.76,6.54,0.27,7.17,0.27,7.9v1.69h1.08"/>
	<g>
		<path d="M3.19,9.74c0.35,0,0.69,0,1.04,0c0.08,0,0.15-0.07,0.15-0.15c0-0.47,0-0.94,0-1.4c0-0.22,0.01-0.44-0.04-0.66
			C4.25,7.11,4,6.74,3.67,6.48C3.51,6.37,3.3,6.23,3.1,6.2C3.01,6.19,2.97,6.23,2.91,6.28c-0.13,0.1-0.28,0.17-0.44,0.2
			c-0.27,0.06-0.57,0-0.8-0.15C1.59,6.28,1.53,6.2,1.44,6.2C1.34,6.19,1.2,6.27,1.11,6.31c-0.67,0.32-0.99,1-0.99,1.71
			c0,0.52,0,1.04,0,1.56c0,0.08,0.07,0.15,0.15,0.15c0.36,0,0.72,0,1.08,0c0.19,0,0.19-0.3,0-0.3c-0.36,0-0.72,0-1.08,0
			c0.05,0.05,0.1,0.1,0.15,0.15c0-0.48,0-0.96,0-1.43c0-0.24,0-0.48,0.07-0.71c0.15-0.46,0.53-0.81,0.99-0.95
			c-0.05-0.01-0.1-0.03-0.15-0.04c0.54,0.46,1.3,0.46,1.83,0c-0.05,0.01-0.1,0.03-0.15,0.04C3.47,6.63,3.84,6.97,4,7.41
			C4.08,7.66,4.08,7.9,4.08,8.15c0,0.48,0,0.96,0,1.43c0.05-0.05,0.1-0.1,0.15-0.15c-0.35,0-0.69,0-1.04,0C3,9.44,3,9.74,3.19,9.74
			L3.19,9.74z"/>
	</g>
</g>
<g>
	<g>
		<path d="M1.5,9.59C1.49,9.03,1.49,8.47,1.48,7.91c0-0.08,0-0.16,0-0.24c0-0.19-0.3-0.19-0.3,0C1.19,8.22,1.19,8.78,1.2,9.34
			c0,0.08,0,0.16,0,0.24C1.2,9.78,1.5,9.78,1.5,9.59L1.5,9.59z"/>
	</g>
</g>
<g>
	<g>
		<path d="M3.34,9.59C3.33,9.03,3.33,8.47,3.32,7.91c0-0.08,0-0.16,0-0.24c0-0.19-0.3-0.19-0.3,0c0.01,0.56,0.01,1.12,0.02,1.68
			c0,0.08,0,0.16,0,0.24C3.04,9.78,3.34,9.78,3.34,9.59L3.34,9.59z"/>
	</g>
</g>
<g>
	<path class="st3" d="M3.45,5.76c0.03-0.09,0.04-0.19,0.05-0.3V5.41c0-0.05,0-0.1-0.02-0.15H1.02C1,5.31,1,5.36,1,5.41v0.05
		C1,5.53,1.01,5.6,1.03,5.67c0.06,0.27,0.2,0.51,0.41,0.68c0.22,0.2,0.5,0.31,0.81,0.31s0.59-0.11,0.81-0.31
		C3.24,6.2,3.37,6,3.44,5.77"/>
	<g>
		<path d="M3.57,5.79C3.62,5.62,3.65,5.4,3.6,5.22C3.58,5.17,3.53,5.14,3.48,5.14c-0.72,0-1.43,0-2.15,0c-0.1,0-0.21,0-0.31,0
			c-0.05,0-0.1,0.04-0.12,0.09c-0.09,0.3,0.04,0.68,0.2,0.93c0.19,0.28,0.49,0.5,0.82,0.58C2.63,6.91,3.34,6.48,3.57,5.79
			c0.04-0.14-0.19-0.2-0.24-0.05C3.15,6.29,2.57,6.64,1.99,6.5C1.73,6.44,1.48,6.27,1.32,6.05c-0.14-0.2-0.26-0.52-0.19-0.76
			C1.1,5.32,1.06,5.35,1.02,5.38c0.72,0,1.43,0,2.15,0c0.1,0,0.21,0,0.31,0C3.44,5.35,3.4,5.32,3.36,5.29
			c0.04,0.13,0.01,0.31-0.03,0.44C3.29,5.87,3.52,5.93,3.57,5.79L3.57,5.79z"/>
	</g>
</g>
<g>
	<path class="st4" d="M3.93,5.04v0.07c0,0.08-0.07,0.15-0.15,0.15H0.72c-0.08,0-0.15-0.07-0.15-0.15V5.04
		c0-0.07,0.05-0.13,0.12-0.14V4.88h3.1C3.87,4.89,3.93,4.95,3.93,5.04z"/>
	<g>
		<path d="M3.81,5.04c0,0.08-0.01,0.09-0.08,0.1c-0.07,0-0.14,0-0.2,0c-0.25,0-0.5,0-0.75,0c-0.58,0-1.15,0-1.73,0
			c-0.09,0-0.17,0-0.26,0c-0.02,0-0.05,0.01-0.06,0c-0.04-0.02-0.07-0.1-0.01-0.12C0.77,5,0.81,4.95,0.81,4.89c0,0,0-0.01,0-0.01
			C0.77,4.92,0.73,4.96,0.69,5c0.9,0,1.8,0,2.71,0C3.44,5,3.8,4.97,3.81,5.04c0.02,0.15,0.26,0.15,0.24,0
			c-0.03-0.23-0.2-0.27-0.4-0.27c-0.23,0-0.46,0-0.69,0c-0.61,0-1.22,0-1.82,0c-0.15,0-0.3,0-0.45,0c-0.06,0-0.12,0.05-0.12,0.12
			c0,0,0,0.01,0,0.01C0.6,4.86,0.63,4.82,0.66,4.78C0.47,4.83,0.4,5.05,0.48,5.22c0.05,0.11,0.16,0.15,0.28,0.15
			c0.23,0.01,0.47,0,0.71,0c0.69,0,1.38,0,2.08,0c0.08,0,0.16,0,0.23,0c0.2-0.01,0.28-0.16,0.28-0.34C4.05,4.88,3.81,4.88,3.81,5.04
			z"/>
	</g>
</g>
<g>
	<path class="st5" d="M0.9,5.8H0.66c-0.06,0-0.1-0.05-0.1-0.1V5.46c0-0.06,0.05-0.1,0.1-0.1H0.9C0.95,5.35,1,5.4,1,5.46V5.7
		C1,5.75,0.95,5.8,0.9,5.8z"/>
	<g>
		<path d="M0.9,5.68c-0.08,0-0.16,0-0.24,0c-0.01,0-0.01-0.01,0.01,0c0,0-0.01,0-0.01,0c-0.01,0,0.03,0.02,0.01,0
			c0,0-0.01,0-0.01-0.01c0.01,0,0.01,0.01,0.02,0.01c0,0-0.01-0.01-0.01-0.01c0,0,0.02,0.03,0.01,0.01c0,0-0.01-0.02,0,0
			c0.01,0.02,0,0,0-0.01c0,0,0,0.03,0,0.01c0,0,0,0,0,0c0-0.01,0-0.02,0-0.03c0-0.05,0-0.11,0-0.16c0-0.02,0-0.03,0-0.05
			c0-0.01,0.01-0.01,0,0.01c0,0,0-0.01,0-0.01c0-0.02-0.02,0.02,0,0.01c0,0,0.01-0.01,0.01-0.01C0.67,5.48,0.66,5.48,0.67,5.47
			c0.01-0.01-0.03,0.02-0.01,0.01c0,0,0,0,0.01,0c0.01,0,0,0-0.02,0.01c0,0,0.01,0,0.01,0c0.01-0.01-0.03,0-0.01,0c0,0,0,0,0,0
			c0.01,0,0.01,0,0.02,0c0.02,0,0.05,0,0.07,0c0.05,0,0.09,0,0.14,0c0,0,0,0,0,0c0.02,0-0.03-0.01,0,0c0.02,0-0.02-0.01-0.01,0
			c0,0,0.01,0.01,0.01,0.01C0.88,5.47,0.88,5.46,0.88,5.47c0.01,0.01-0.02-0.03,0,0c0.01,0.01,0,0.01,0-0.01c0,0,0,0.01,0,0.01
			c0.01,0.02,0-0.03,0-0.01c0,0,0,0.01,0,0.01c0,0.06,0,0.12,0,0.17c0,0.02,0,0.03,0,0.05c0,0.01,0,0.01,0,0c0-0.03,0,0.01,0,0.01
			c0,0,0.02-0.03,0-0.01C0.87,5.71,0.89,5.68,0.9,5.68c-0.01,0-0.01,0-0.01,0C0.88,5.69,0.88,5.69,0.9,5.68c0,0-0.01,0-0.01,0.01
			C0.9,5.67,0.9,5.68,0.9,5.68C0.86,5.69,0.92,5.68,0.9,5.68c-0.06,0-0.12,0.05-0.12,0.12c0,0.06,0.05,0.12,0.12,0.12
			c0.08,0,0.15-0.04,0.19-0.11c0.02-0.04,0.03-0.08,0.03-0.12c0-0.06,0-0.11,0-0.17c0-0.02,0-0.04,0-0.05c0-0.08-0.04-0.14-0.1-0.19
			c-0.06-0.04-0.13-0.04-0.2-0.04c-0.05,0-0.11,0-0.16,0c-0.13,0-0.22,0.1-0.23,0.23c0,0.05,0,0.11,0,0.16c0,0.07,0,0.14,0.04,0.2
			c0.05,0.06,0.11,0.1,0.19,0.1c0.02,0,0.05,0,0.07,0c0.05,0,0.11,0,0.16,0c0.06,0,0.12-0.06,0.12-0.12
			C1.01,5.73,0.96,5.68,0.9,5.68z"/>
	</g>
</g>
<g>
	<path class="st5" d="M3.84,5.8H3.6c-0.06,0-0.1-0.05-0.1-0.1V5.46c0-0.06,0.05-0.1,0.1-0.1h0.24c0.06,0,0.1,0.05,0.1,0.1V5.7
		C3.95,5.75,3.9,5.8,3.84,5.8z"/>
	<g>
		<path d="M3.84,5.68c-0.08,0-0.16,0-0.24,0c-0.01,0-0.01-0.01,0.01,0c0,0-0.01,0-0.01,0c-0.01,0,0.03,0.02,0.01,0
			c0,0-0.01,0-0.01-0.01c0.01,0,0.01,0.01,0.02,0.01c0,0-0.01-0.01-0.01-0.01c0,0,0.02,0.03,0.01,0.01c0,0-0.01-0.02,0,0
			c0.01,0.02,0,0,0-0.01c0,0,0,0.03,0,0.01c0,0,0,0,0,0c0-0.01,0-0.02,0-0.03c0-0.05,0-0.11,0-0.16c0-0.02,0-0.03,0-0.05
			c0-0.01,0.01-0.01,0,0.01c0,0,0-0.01,0-0.01c0-0.02-0.02,0.02,0,0.01c0,0,0.01-0.01,0.01-0.01C3.61,5.48,3.61,5.48,3.62,5.47
			c0.01-0.01-0.03,0.02-0.01,0.01c0,0,0,0,0.01,0c0.01,0,0,0-0.02,0.01c0,0,0.01,0,0.01,0c0.01-0.01-0.03,0-0.01,0c0,0,0,0,0,0
			c0.01,0,0.01,0,0.02,0c0.02,0,0.05,0,0.07,0c0.05,0,0.09,0,0.14,0c0,0,0,0,0,0c0.02,0-0.03-0.01,0,0c0.02,0-0.02-0.01-0.01,0
			c0,0,0.01,0.01,0.01,0.01C3.82,5.47,3.82,5.46,3.83,5.47c0.01,0.01-0.02-0.03,0,0c0.01,0.01,0,0.01,0-0.01c0,0,0,0.01,0,0.01
			c0.01,0.02,0-0.03,0-0.01c0,0,0,0.01,0,0.01c0,0.06,0,0.12,0,0.17c0,0.02,0,0.03,0,0.05c0,0.01,0,0.01,0,0c0-0.03,0,0.01,0,0.01
			c0,0,0.02-0.03,0-0.01C3.82,5.71,3.84,5.68,3.84,5.68c-0.01,0-0.01,0-0.01,0C3.82,5.69,3.83,5.69,3.84,5.68c0,0-0.01,0-0.01,0.01
			C3.85,5.67,3.85,5.68,3.84,5.68C3.81,5.69,3.86,5.68,3.84,5.68c-0.06,0-0.12,0.05-0.12,0.12c0,0.06,0.05,0.12,0.12,0.12
			c0.08,0,0.15-0.04,0.19-0.11c0.02-0.04,0.03-0.08,0.03-0.12c0-0.06,0-0.11,0-0.17c0-0.02,0-0.04,0-0.05c0-0.08-0.04-0.14-0.1-0.19
			c-0.06-0.04-0.13-0.04-0.2-0.04c-0.05,0-0.11,0-0.16,0c-0.13,0-0.22,0.1-0.23,0.23c0,0.05,0,0.11,0,0.16c0,0.07,0,0.14,0.04,0.2
			c0.05,0.06,0.11,0.1,0.19,0.1c0.02,0,0.05,0,0.07,0c0.05,0,0.11,0,0.16,0c0.06,0,0.12-0.06,0.12-0.12
			C3.96,5.73,3.91,5.68,3.84,5.68z"/>
	</g>
</g>
<g>
	<path class="st6" d="M2.47,3.61V4.2c0,0.06-0.04,0.11-0.1,0.11H2.13c-0.06,0-0.1-0.05-0.1-0.11V3.61c0-0.06,0.04-0.1,0.1-0.1h0.24
		C2.43,3.51,2.47,3.55,2.47,3.61z"/>
	<g>
		<path d="M2.35,3.61c0,0.13,0,0.27,0,0.4c0,0.06,0,0.12,0,0.18c0,0.01,0,0.01,0,0.02c0-0.02,0,0,0,0c0-0.01,0.01-0.01,0.01-0.02
			c-0.01,0.02,0,0,0,0c0.02-0.01-0.01,0,0.01,0c-0.02,0-0.05,0-0.07,0c-0.04,0-0.09,0-0.13,0c-0.01,0-0.02,0-0.03,0
			c-0.01,0,0.01,0,0.01,0c0,0-0.03-0.01,0,0c0,0,0.01,0,0.01,0.01c-0.01-0.01-0.01-0.01,0,0c0.01,0.02,0,0,0,0c0,0,0,0.03,0,0
			c0,0,0,0,0,0c0-0.01,0-0.01,0-0.02c0-0.03,0-0.06,0-0.08c0-0.15,0-0.31,0-0.46c0-0.01,0-0.01,0-0.02c0-0.02,0,0-0.01,0.01
			c0-0.01,0.01-0.02,0,0c0,0-0.01,0-0.01,0.01c0.01-0.01,0.01-0.01,0,0c-0.03,0.01,0,0,0.01,0c0.02,0,0.04,0,0.06,0
			c0.05,0,0.09,0,0.14,0c0.01,0,0.02,0,0.03,0c0.01,0,0.02,0,0,0c0,0-0.01,0-0.01-0.01c0.01,0.01,0.01,0.01,0,0
			c-0.01-0.01-0.01-0.02,0,0C2.35,3.62,2.35,3.59,2.35,3.61c0,0.06,0.05,0.12,0.12,0.12c0.06,0,0.12-0.05,0.12-0.12
			c0-0.12-0.08-0.21-0.2-0.22c-0.03,0-0.07,0-0.1,0c-0.11,0-0.24-0.02-0.32,0.06C1.9,3.53,1.91,3.62,1.91,3.71c0,0.1,0,0.19,0,0.29
			c0,0.07,0,0.13,0,0.2c0,0.08,0.04,0.16,0.11,0.2c0.05,0.03,0.1,0.03,0.15,0.03c0.05,0,0.1,0,0.15,0c0.05,0,0.09,0,0.14-0.02
			C2.54,4.38,2.59,4.29,2.59,4.2c0-0.02,0-0.04,0-0.06c0-0.17,0-0.35,0-0.52c0-0.06-0.06-0.12-0.12-0.12
			C2.41,3.5,2.35,3.55,2.35,3.61z"/>
	</g>
</g>
<g>
	<g>
		<path d="M2.1,4.4c0,0.12,0,0.25,0,0.37c0,0.02,0,0.04,0,0.05c0,0.08,0.07,0.15,0.15,0.15c0.08,0,0.15-0.07,0.15-0.15
			c0-0.12,0-0.25,0-0.37c0-0.02,0-0.04,0-0.05c0-0.08-0.07-0.15-0.15-0.15C2.17,4.25,2.1,4.31,2.1,4.4L2.1,4.4z"/>
	</g>
</g>
<g>
	<g>
		<path d="M0.81,4.9C0.81,4.89,0.81,4.89,0.81,4.9c0-0.04-0.01-0.07-0.04-0.09C0.75,4.78,0.72,4.76,0.69,4.77
			c-0.03,0-0.06,0.01-0.08,0.04C0.58,4.82,0.57,4.85,0.57,4.89c0,0,0,0.01,0,0.01c0,0.03,0.01,0.06,0.04,0.08
			C0.63,5,0.66,5.02,0.69,5.02c0.03,0,0.06-0.01,0.08-0.04C0.8,4.96,0.81,4.93,0.81,4.9L0.81,4.9z"/>
	</g>
</g>
<g>
	<path class="st10" d="M3.79,4.88h-3.1C0.74,4.34,1.3,3.91,2.03,3.84V4.2c0,0.06,0.04,0.11,0.1,0.11h0.24c0.06,0,0.1-0.05,0.1-0.11
		V3.84C3.19,3.92,3.74,4.35,3.79,4.88z"/>
	<g>
		<path d="M3.79,4.76c-0.91,0-1.81,0-2.72,0c-0.13,0-0.26,0-0.38,0C0.73,4.8,0.77,4.84,0.81,4.88c0.07-0.58,0.7-0.87,1.22-0.93
			C1.99,3.91,1.95,3.88,1.91,3.84c0,0.12-0.01,0.25,0,0.37c0.01,0.21,0.17,0.23,0.34,0.23c0.17,0,0.33-0.03,0.34-0.23
			c0.01-0.12,0-0.25,0-0.37C2.55,3.88,2.51,3.91,2.47,3.95c0.51,0.06,1.13,0.36,1.2,0.93c0.02,0.15,0.26,0.15,0.24,0
			C3.83,4.17,3.12,3.8,2.47,3.71C2.41,3.71,2.35,3.78,2.35,3.84c0,0.09,0,0.17,0,0.26c0,0.02,0.01,0.09,0,0.11
			c0-0.01,0.02-0.02-0.02-0.01c-0.02,0.01-0.06,0-0.08,0c-0.03,0-0.11,0-0.11,0c0.01,0.01,0.01-0.07,0.01-0.09c0-0.09,0-0.18,0-0.27
			c0-0.06-0.06-0.13-0.12-0.12C1.37,3.79,0.65,4.16,0.57,4.88C0.56,4.95,0.63,5,0.69,5C1.6,5,2.5,5,3.41,5c0.13,0,0.26,0,0.38,0
			C3.94,5,3.94,4.76,3.79,4.76z"/>
	</g>
</g>
<g>
	<g>
		<path d="M2.36,4.86c0-0.16,0-0.32,0-0.48c0-0.02,0-0.05,0-0.07c0-0.06-0.06-0.12-0.12-0.12c-0.07,0-0.12,0.05-0.12,0.12
			c0,0.16,0,0.32,0,0.48c0,0.02,0,0.05,0,0.07c0,0.06,0.06,0.12,0.12,0.12C2.31,4.98,2.36,4.93,2.36,4.86L2.36,4.86z"/>
	</g>
</g>
<circle class="st8" cx="1.75" cy="5.59" r="0.1"/>
<circle class="st8" cx="2.75" cy="5.59" r="0.1"/>
<g>
	<circle class="st11" cx="2.24" cy="7.97" r="0.45"/>
	<g>
		<path d="M2.57,7.97c0,0.07-0.02,0.13-0.07,0.2C2.48,8.19,2.51,8.16,2.5,8.17C2.49,8.18,2.48,8.19,2.48,8.19
			C2.47,8.2,2.47,8.21,2.46,8.21c0,0-0.03,0.03-0.01,0.01C2.43,8.23,2.42,8.24,2.4,8.25c-0.01,0-0.01,0.01-0.02,0.01
			c-0.01,0.01-0.01,0.01,0,0c-0.01,0-0.01,0-0.02,0.01C2.34,8.28,2.32,8.29,2.3,8.29c0,0-0.03,0-0.01,0c-0.01,0-0.02,0-0.03,0
			c-0.02,0-0.04,0-0.06,0c-0.02,0,0.03,0.01-0.01,0c-0.01,0-0.02-0.01-0.04-0.01c-0.01,0-0.02-0.01-0.03-0.01c0,0-0.02-0.01,0,0
			C2.09,8.26,2.08,8.25,2.06,8.24C2.05,8.24,2.04,8.23,2.04,8.23C2.02,8.21,2.05,8.24,2.03,8.22C2.01,8.2,1.99,8.19,1.98,8.17
			c0.01,0.01,0,0,0,0C1.97,8.15,1.96,8.15,1.96,8.13c0-0.01-0.01-0.01-0.01-0.02c0,0-0.02-0.04-0.01-0.01
			C1.93,8.08,1.92,8.06,1.92,8.04c0-0.01,0-0.02-0.01-0.02c0-0.01,0-0.02,0,0c0-0.01,0-0.01,0-0.02c0-0.02,0-0.04,0-0.06
			c0,0,0.01-0.04,0-0.02c0-0.01,0-0.02,0-0.02c0-0.02,0.01-0.04,0.02-0.06c0.01-0.03-0.01,0.02,0.01-0.01
			C1.95,7.82,1.95,7.81,1.96,7.8c0.01-0.01,0.01-0.02,0.02-0.02c0,0,0.02-0.02,0.01-0.01C1.99,7.75,2,7.73,2.02,7.72
			c0,0,0.03-0.02,0.01-0.01C2.02,7.72,2.05,7.69,2.05,7.69c0.02-0.01,0.04-0.02,0.06-0.03c0,0-0.02,0.01,0,0
			c0.01,0,0.02-0.01,0.03-0.01c0.01,0,0.02,0,0.02-0.01c0,0,0.04-0.01,0.02,0c-0.02,0,0.02,0,0.02,0c0.01,0,0.02,0,0.03,0
			c0.01,0,0.02,0,0.03,0c0.03,0-0.01,0,0.02,0c0.02,0.01,0.05,0.01,0.07,0.02c0.04,0.01-0.01-0.01,0.01,0
			C2.39,7.67,2.4,7.67,2.41,7.68c0.01,0,0.01,0.01,0.02,0.01c0.01,0,0.01,0.01,0.02,0.01c-0.01-0.01-0.01-0.01,0,0
			c0.01,0.01,0.03,0.03,0.04,0.04C2.52,7.78,2.48,7.74,2.5,7.77C2.51,7.78,2.52,7.78,2.52,7.8c0.01,0.01,0.01,0.02,0.02,0.03
			c0.01,0.02,0-0.01,0.01,0.01c0.01,0.02,0.01,0.05,0.02,0.07c0,0,0,0.02,0,0C2.57,7.93,2.57,7.95,2.57,7.97
			c0,0.15,0.24,0.15,0.24,0c0-0.24-0.15-0.45-0.38-0.54C2.22,7.35,1.95,7.42,1.81,7.6C1.65,7.78,1.62,8.05,1.75,8.26
			c0.12,0.21,0.37,0.31,0.6,0.27c0.27-0.05,0.45-0.29,0.46-0.56C2.81,7.81,2.57,7.81,2.57,7.97z"/>
	</g>
</g>
<g>
	<g>
		<path d="M1.85,8.91c0.23,0,0.47,0,0.7,0c0.03,0,0.07,0,0.1,0c0.06,0,0.12-0.06,0.12-0.12c0-0.07-0.05-0.12-0.12-0.12
			c-0.23,0-0.47,0-0.7,0c-0.03,0-0.07,0-0.1,0c-0.06,0-0.12,0.06-0.12,0.12C1.73,8.85,1.78,8.91,1.85,8.91L1.85,8.91z"/>
	</g>
</g>
<g>
	<path class="st9" d="M8.69,9.59h1.04V7.9c0-0.73-0.5-1.36-1.17-1.55c-0.22,0.2-0.5,0.31-0.81,0.31c-0.31,0-0.59-0.11-0.81-0.31
		C6.26,6.54,5.77,7.17,5.77,7.9v1.69h1.08"/>
	<g>
		<path d="M8.69,9.74c0.35,0,0.69,0,1.04,0c0.08,0,0.15-0.07,0.15-0.15c0-0.47,0-0.94,0-1.4c0-0.22,0.01-0.44-0.04-0.66
			C9.75,7.11,9.5,6.74,9.17,6.48C9.01,6.37,8.8,6.23,8.6,6.2C8.51,6.19,8.47,6.23,8.41,6.28c-0.13,0.1-0.28,0.17-0.44,0.2
			c-0.27,0.06-0.57,0-0.8-0.15C7.09,6.28,7.03,6.2,6.94,6.2C6.84,6.19,6.7,6.27,6.61,6.31c-0.67,0.32-0.99,1-0.99,1.71
			c0,0.52,0,1.04,0,1.56c0,0.08,0.07,0.15,0.15,0.15c0.36,0,0.72,0,1.08,0c0.19,0,0.19-0.3,0-0.3c-0.36,0-0.72,0-1.08,0
			c0.05,0.05,0.1,0.1,0.15,0.15c0-0.48,0-0.96,0-1.43c0-0.24,0-0.48,0.07-0.71c0.15-0.46,0.53-0.81,0.99-0.95
			c-0.05-0.01-0.1-0.03-0.15-0.04c0.54,0.46,1.3,0.46,1.83,0c-0.05,0.01-0.1,0.03-0.15,0.04C8.97,6.63,9.34,6.97,9.5,7.41
			C9.58,7.66,9.58,7.9,9.58,8.15c0,0.48,0,0.96,0,1.43c0.05-0.05,0.1-0.1,0.15-0.15c-0.35,0-0.69,0-1.04,0
			C8.5,9.44,8.5,9.74,8.69,9.74L8.69,9.74z"/>
	</g>
</g>
<g>
	<g>
		<path d="M7,9.59C6.99,9.03,6.99,8.47,6.98,7.91c0-0.08,0-0.16,0-0.24c0-0.19-0.3-0.19-0.3,0C6.69,8.22,6.69,8.78,6.7,9.34
			c0,0.08,0,0.16,0,0.24C6.7,9.78,7,9.78,7,9.59L7,9.59z"/>
	</g>
</g>
<g>
	<g>
		<path d="M8.84,9.59C8.83,9.03,8.83,8.47,8.82,7.91c0-0.08,0-0.16,0-0.24c0-0.19-0.3-0.19-0.3,0c0.01,0.56,0.01,1.12,0.02,1.68
			c0,0.08,0,0.16,0,0.24C8.54,9.78,8.84,9.78,8.84,9.59L8.84,9.59z"/>
	</g>
</g>
<g>
	<path class="st3" d="M8.95,5.76C8.98,5.67,8.99,5.57,9,5.46V5.41c0-0.05,0-0.1-0.02-0.15H6.52C6.5,5.31,6.5,5.36,6.5,5.41v0.05
		c0,0.07,0.01,0.14,0.03,0.21c0.06,0.27,0.2,0.51,0.41,0.68c0.22,0.2,0.5,0.31,0.81,0.31s0.59-0.11,0.81-0.31
		C8.74,6.2,8.87,6,8.94,5.77"/>
	<g>
		<path d="M9.07,5.79C9.12,5.62,9.15,5.4,9.1,5.22C9.08,5.17,9.03,5.14,8.98,5.14c-0.72,0-1.43,0-2.15,0c-0.1,0-0.21,0-0.31,0
			c-0.05,0-0.1,0.04-0.12,0.09c-0.09,0.3,0.04,0.68,0.2,0.93c0.19,0.28,0.49,0.5,0.82,0.58C8.13,6.91,8.84,6.48,9.07,5.79
			c0.04-0.14-0.19-0.2-0.24-0.05C8.65,6.29,8.07,6.64,7.49,6.5C7.23,6.44,6.98,6.27,6.82,6.05c-0.14-0.2-0.26-0.52-0.19-0.76
			C6.6,5.32,6.56,5.35,6.52,5.38c0.72,0,1.43,0,2.15,0c0.1,0,0.21,0,0.31,0C8.94,5.35,8.9,5.32,8.86,5.29
			c0.04,0.13,0.01,0.31-0.03,0.44C8.79,5.87,9.02,5.93,9.07,5.79L9.07,5.79z"/>
	</g>
</g>
<g>
	<path class="st4" d="M9.43,5.04v0.07c0,0.08-0.07,0.15-0.15,0.15H6.22c-0.08,0-0.15-0.07-0.15-0.15V5.04
		c0-0.07,0.05-0.13,0.12-0.14V4.88h3.1C9.37,4.89,9.43,4.95,9.43,5.04z"/>
	<g>
		<path d="M9.31,5.04c0,0.08-0.01,0.09-0.08,0.1c-0.07,0-0.14,0-0.2,0c-0.25,0-0.5,0-0.75,0c-0.58,0-1.15,0-1.73,0
			c-0.09,0-0.17,0-0.26,0c-0.02,0-0.05,0.01-0.06,0c-0.04-0.02-0.07-0.1-0.01-0.12C6.27,5,6.31,4.95,6.31,4.89c0,0,0-0.01,0-0.01
			C6.27,4.92,6.23,4.96,6.19,5c0.9,0,1.8,0,2.71,0C8.94,5,9.3,4.97,9.31,5.04c0.02,0.15,0.26,0.15,0.24,0
			c-0.03-0.23-0.2-0.27-0.4-0.27c-0.23,0-0.46,0-0.69,0c-0.61,0-1.22,0-1.82,0c-0.15,0-0.3,0-0.45,0c-0.06,0-0.12,0.05-0.12,0.12
			c0,0,0,0.01,0,0.01C6.1,4.86,6.13,4.82,6.16,4.78C5.97,4.83,5.9,5.05,5.98,5.22c0.05,0.11,0.16,0.15,0.28,0.15
			c0.23,0.01,0.47,0,0.71,0c0.69,0,1.38,0,2.08,0c0.08,0,0.16,0,0.23,0c0.2-0.01,0.28-0.16,0.28-0.34C9.55,4.88,9.31,4.88,9.31,5.04
			z"/>
	</g>
</g>
<g>
	<path class="st5" d="M6.4,5.8H6.16c-0.06,0-0.1-0.05-0.1-0.1V5.46c0-0.06,0.05-0.1,0.1-0.1H6.4c0.06,0,0.1,0.05,0.1,0.1V5.7
		C6.5,5.75,6.45,5.8,6.4,5.8z"/>
	<g>
		<path d="M6.4,5.68c-0.08,0-0.16,0-0.24,0c-0.01,0-0.01-0.01,0.01,0c0,0-0.01,0-0.01,0c-0.01,0,0.03,0.02,0.01,0
			c0,0-0.01,0-0.01-0.01c0.01,0,0.01,0.01,0.02,0.01c0,0-0.01-0.01-0.01-0.01c0,0,0.02,0.03,0.01,0.01c0,0-0.01-0.02,0,0
			c0.01,0.02,0,0,0-0.01c0,0,0,0.03,0,0.01c0,0,0,0,0,0c0-0.01,0-0.02,0-0.03c0-0.05,0-0.11,0-0.16c0-0.02,0-0.03,0-0.05
			c0-0.01,0.01-0.01,0,0.01c0,0,0-0.01,0-0.01c0-0.02-0.02,0.02,0,0.01c0,0,0.01-0.01,0.01-0.01C6.17,5.48,6.16,5.48,6.17,5.47
			c0.01-0.01-0.03,0.02-0.01,0.01c0,0,0,0,0.01,0c0.01,0,0,0-0.02,0.01c0,0,0.01,0,0.01,0c0.01-0.01-0.03,0-0.01,0c0,0,0,0,0,0
			c0.01,0,0.01,0,0.02,0c0.02,0,0.05,0,0.07,0c0.05,0,0.09,0,0.14,0c0,0,0,0,0,0c0.02,0-0.03-0.01,0,0c0.02,0-0.02-0.01-0.01,0
			c0,0,0.01,0.01,0.01,0.01C6.38,5.47,6.38,5.46,6.38,5.47c0.01,0.01-0.02-0.03,0,0c0.01,0.01,0,0.01,0-0.01c0,0,0,0.01,0,0.01
			c0.01,0.02,0-0.03,0-0.01c0,0,0,0.01,0,0.01c0,0.06,0,0.12,0,0.17c0,0.02,0,0.03,0,0.05c0,0.01,0,0.01,0,0c0-0.03,0,0.01,0,0.01
			c0,0,0.02-0.03,0-0.01C6.37,5.71,6.39,5.68,6.4,5.68c-0.01,0-0.01,0-0.01,0C6.38,5.69,6.38,5.69,6.4,5.68c0,0-0.01,0-0.01,0.01
			C6.4,5.67,6.41,5.68,6.4,5.68C6.36,5.69,6.42,5.68,6.4,5.68c-0.06,0-0.12,0.05-0.12,0.12c0,0.06,0.05,0.12,0.12,0.12
			c0.08,0,0.15-0.04,0.19-0.11c0.02-0.04,0.03-0.08,0.03-0.12c0-0.06,0-0.11,0-0.17c0-0.02,0-0.04,0-0.05c0-0.08-0.04-0.14-0.1-0.19
			c-0.06-0.04-0.13-0.04-0.2-0.04c-0.05,0-0.11,0-0.16,0c-0.13,0-0.22,0.1-0.23,0.23c0,0.05,0,0.11,0,0.16c0,0.07,0,0.14,0.04,0.2
			c0.05,0.06,0.11,0.1,0.19,0.1c0.02,0,0.05,0,0.07,0c0.05,0,0.11,0,0.16,0c0.06,0,0.12-0.06,0.12-0.12
			C6.51,5.73,6.46,5.68,6.4,5.68z"/>
	</g>
</g>
<g>
	<path class="st5" d="M9.34,5.8H9.1C9.05,5.8,9,5.75,9,5.7V5.46c0-0.06,0.05-0.1,0.1-0.1h0.24c0.06,0,0.1,0.05,0.1,0.1V5.7
		C9.45,5.75,9.4,5.8,9.34,5.8z"/>
	<g>
		<path d="M9.34,5.68c-0.08,0-0.16,0-0.24,0c-0.01,0-0.01-0.01,0.01,0c0,0-0.01,0-0.01,0c-0.01,0,0.03,0.02,0.01,0
			c0,0-0.01,0-0.01-0.01c0.01,0,0.01,0.01,0.02,0.01c0,0-0.01-0.01-0.01-0.01c0,0,0.02,0.03,0.01,0.01c0,0-0.01-0.02,0,0
			c0.01,0.02,0,0,0-0.01c0,0,0,0.03,0,0.01c0,0,0,0,0,0c0-0.01,0-0.02,0-0.03c0-0.05,0-0.11,0-0.16c0-0.02,0-0.03,0-0.05
			c0-0.01,0.01-0.01,0,0.01c0,0,0-0.01,0-0.01c0-0.02-0.02,0.02,0,0.01c0,0,0.01-0.01,0.01-0.01C9.11,5.48,9.11,5.48,9.12,5.47
			c0.01-0.01-0.03,0.02-0.01,0.01c0,0,0,0,0.01,0c0.01,0,0,0-0.02,0.01c0,0,0.01,0,0.01,0c0.01-0.01-0.03,0-0.01,0c0,0,0,0,0,0
			c0.01,0,0.01,0,0.02,0c0.02,0,0.05,0,0.07,0c0.05,0,0.09,0,0.14,0c0,0,0,0,0,0c0.02,0-0.03-0.01,0,0c0.02,0-0.02-0.01-0.01,0
			c0,0,0.01,0.01,0.01,0.01C9.32,5.47,9.32,5.46,9.33,5.47c0.01,0.01-0.02-0.03,0,0c0.01,0.01,0,0.01,0-0.01c0,0,0,0.01,0,0.01
			c0.01,0.02,0-0.03,0-0.01c0,0,0,0.01,0,0.01c0,0.06,0,0.12,0,0.17c0,0.02,0,0.03,0,0.05c0,0.01,0,0.01,0,0c0-0.03,0,0.01,0,0.01
			c0,0,0.02-0.03,0-0.01C9.32,5.71,9.34,5.68,9.34,5.68c-0.01,0-0.01,0-0.01,0C9.32,5.69,9.33,5.69,9.34,5.68c0,0-0.01,0-0.01,0.01
			C9.35,5.67,9.35,5.68,9.34,5.68C9.31,5.69,9.36,5.68,9.34,5.68c-0.06,0-0.12,0.05-0.12,0.12c0,0.06,0.05,0.12,0.12,0.12
			c0.08,0,0.15-0.04,0.19-0.11c0.02-0.04,0.03-0.08,0.03-0.12c0-0.06,0-0.11,0-0.17c0-0.02,0-0.04,0-0.05c0-0.08-0.04-0.14-0.1-0.19
			c-0.06-0.04-0.13-0.04-0.2-0.04c-0.05,0-0.11,0-0.16,0c-0.13,0-0.22,0.1-0.23,0.23c0,0.05,0,0.11,0,0.16c0,0.07,0,0.14,0.04,0.2
			c0.05,0.06,0.11,0.1,0.19,0.1c0.02,0,0.05,0,0.07,0c0.05,0,0.11,0,0.16,0c0.06,0,0.12-0.06,0.12-0.12
			C9.46,5.73,9.41,5.68,9.34,5.68z"/>
	</g>
</g>
<g>
	<path class="st6" d="M7.97,3.61V4.2c0,0.06-0.04,0.11-0.1,0.11H7.63c-0.06,0-0.1-0.05-0.1-0.11V3.61c0-0.06,0.04-0.1,0.1-0.1h0.24
		C7.93,3.51,7.97,3.55,7.97,3.61z"/>
	<g>
		<path d="M7.85,3.61c0,0.13,0,0.27,0,0.4c0,0.06,0,0.12,0,0.18c0,0.01,0,0.01,0,0.02c0-0.02,0,0,0,0c0-0.01,0.01-0.01,0.01-0.02
			c-0.01,0.02,0,0,0,0c0.02-0.01-0.01,0,0.01,0c-0.02,0-0.05,0-0.07,0c-0.04,0-0.09,0-0.13,0c-0.01,0-0.02,0-0.03,0
			c-0.01,0,0.01,0,0.01,0c0,0-0.03-0.01,0,0c0,0,0.01,0,0.01,0.01c-0.01-0.01-0.01-0.01,0,0c0.01,0.02,0,0,0,0c0,0,0,0.03,0,0
			c0,0,0,0,0,0c0-0.01,0-0.01,0-0.02c0-0.03,0-0.06,0-0.08c0-0.15,0-0.31,0-0.46c0-0.01,0-0.01,0-0.02c0-0.02,0,0-0.01,0.01
			c0-0.01,0.01-0.02,0,0c0,0-0.01,0-0.01,0.01c0.01-0.01,0.01-0.01,0,0c-0.03,0.01,0,0,0.01,0c0.02,0,0.04,0,0.06,0
			c0.05,0,0.09,0,0.14,0c0.01,0,0.02,0,0.03,0c0.01,0,0.02,0,0,0c0,0-0.01,0-0.01-0.01c0.01,0.01,0.01,0.01,0,0
			c-0.01-0.01-0.01-0.02,0,0C7.85,3.62,7.85,3.59,7.85,3.61c0,0.06,0.05,0.12,0.12,0.12c0.06,0,0.12-0.05,0.12-0.12
			c0-0.12-0.08-0.21-0.2-0.22c-0.03,0-0.07,0-0.1,0c-0.11,0-0.24-0.02-0.32,0.06C7.4,3.53,7.41,3.62,7.41,3.71c0,0.1,0,0.19,0,0.29
			c0,0.07,0,0.13,0,0.2c0,0.08,0.04,0.16,0.11,0.2c0.05,0.03,0.1,0.03,0.15,0.03c0.05,0,0.1,0,0.15,0c0.05,0,0.09,0,0.14-0.02
			C8.04,4.38,8.09,4.29,8.09,4.2c0-0.02,0-0.04,0-0.06c0-0.17,0-0.35,0-0.52c0-0.06-0.06-0.12-0.12-0.12
			C7.91,3.5,7.85,3.55,7.85,3.61z"/>
	</g>
</g>
<g>
	<g>
		<path d="M7.6,4.4c0,0.12,0,0.25,0,0.37c0,0.02,0,0.04,0,0.05c0,0.08,0.07,0.15,0.15,0.15c0.08,0,0.15-0.07,0.15-0.15
			c0-0.12,0-0.25,0-0.37c0-0.02,0-0.04,0-0.05c0-0.08-0.07-0.15-0.15-0.15C7.67,4.25,7.6,4.31,7.6,4.4L7.6,4.4z"/>
	</g>
</g>
<g>
	<g>
		<path d="M6.31,4.9C6.31,4.89,6.31,4.89,6.31,4.9c0-0.04-0.01-0.07-0.04-0.09C6.25,4.78,6.22,4.76,6.19,4.77
			c-0.03,0-0.06,0.01-0.08,0.04C6.08,4.82,6.07,4.85,6.07,4.89c0,0,0,0.01,0,0.01c0,0.03,0.01,0.06,0.04,0.08
			C6.13,5,6.16,5.02,6.19,5.02c0.03,0,0.06-0.01,0.08-0.04C6.3,4.96,6.31,4.93,6.31,4.9L6.31,4.9z"/>
	</g>
</g>
<g>
	<path class="st10" d="M9.29,4.88h-3.1C6.24,4.34,6.8,3.91,7.53,3.84V4.2c0,0.06,0.04,0.11,0.1,0.11h0.24c0.06,0,0.1-0.05,0.1-0.11
		V3.84C8.69,3.92,9.24,4.35,9.29,4.88z"/>
	<g>
		<path d="M9.29,4.76c-0.91,0-1.81,0-2.72,0c-0.13,0-0.26,0-0.38,0C6.23,4.8,6.27,4.84,6.31,4.88c0.07-0.58,0.7-0.87,1.22-0.93
			C7.49,3.91,7.45,3.88,7.41,3.84c0,0.12-0.01,0.25,0,0.37c0.01,0.21,0.17,0.23,0.34,0.23c0.17,0,0.33-0.03,0.34-0.23
			c0.01-0.12,0-0.25,0-0.37C8.05,3.88,8.01,3.91,7.97,3.95c0.51,0.06,1.13,0.36,1.2,0.93c0.02,0.15,0.26,0.15,0.24,0
			C9.33,4.17,8.62,3.8,7.97,3.71C7.91,3.71,7.85,3.78,7.85,3.84c0,0.09,0,0.17,0,0.26c0,0.02,0.01,0.09,0,0.11
			c0-0.01,0.02-0.02-0.02-0.01c-0.02,0.01-0.06,0-0.08,0c-0.03,0-0.11,0-0.11,0c0.01,0.01,0.01-0.07,0.01-0.09c0-0.09,0-0.18,0-0.27
			c0-0.06-0.06-0.13-0.12-0.12C6.87,3.79,6.15,4.16,6.07,4.88C6.06,4.95,6.13,5,6.19,5C7.1,5,8,5,8.91,5c0.13,0,0.26,0,0.38,0
			C9.44,5,9.44,4.76,9.29,4.76z"/>
	</g>
</g>
<g>
	<g>
		<path d="M7.87,4.86c0-0.16,0-0.32,0-0.48c0-0.02,0-0.05,0-0.07c0-0.06-0.06-0.12-0.12-0.12c-0.07,0-0.12,0.05-0.12,0.12
			c0,0.16,0,0.32,0,0.48c0,0.02,0,0.05,0,0.07c0,0.06,0.06,0.12,0.12,0.12C7.81,4.98,7.87,4.93,7.87,4.86L7.87,4.86z"/>
	</g>
</g>
<circle class="st8" cx="7.25" cy="5.59" r="0.1"/>
<circle class="st8" cx="8.25" cy="5.59" r="0.1"/>
<g>
	<circle class="st11" cx="7.74" cy="7.97" r="0.45"/>
	<g>
		<path d="M8.07,7.97c0,0.07-0.02,0.13-0.07,0.2C7.98,8.19,8.01,8.16,8,8.17C7.99,8.18,7.98,8.19,7.98,8.19
			C7.97,8.2,7.97,8.21,7.96,8.21c0,0-0.03,0.03-0.01,0.01C7.93,8.23,7.92,8.24,7.9,8.25c-0.01,0-0.01,0.01-0.02,0.01
			c-0.01,0.01-0.01,0.01,0,0c-0.01,0-0.01,0-0.02,0.01C7.84,8.28,7.82,8.29,7.8,8.29c0,0-0.03,0-0.01,0c-0.01,0-0.02,0-0.03,0
			c-0.02,0-0.04,0-0.06,0c-0.02,0,0.03,0.01-0.01,0c-0.01,0-0.02-0.01-0.04-0.01c-0.01,0-0.02-0.01-0.03-0.01c0,0-0.02-0.01,0,0
			C7.59,8.26,7.58,8.25,7.56,8.24C7.55,8.24,7.54,8.23,7.54,8.23C7.52,8.21,7.55,8.24,7.53,8.22C7.51,8.2,7.49,8.19,7.48,8.17
			c0.01,0.01,0,0,0,0C7.47,8.15,7.46,8.15,7.46,8.13c0-0.01-0.01-0.01-0.01-0.02c0,0-0.02-0.04-0.01-0.01
			C7.43,8.08,7.42,8.06,7.42,8.04c0-0.01,0-0.02-0.01-0.02c0-0.01,0-0.02,0,0c0-0.01,0-0.01,0-0.02c0-0.02,0-0.04,0-0.06
			c0,0,0.01-0.04,0-0.02c0-0.01,0-0.02,0-0.02c0-0.02,0.01-0.04,0.02-0.06c0.01-0.03-0.01,0.02,0.01-0.01
			C7.45,7.82,7.45,7.81,7.46,7.8c0.01-0.01,0.01-0.02,0.02-0.02c0,0,0.02-0.02,0.01-0.01c0.01-0.01,0.03-0.03,0.04-0.04
			c0,0,0.03-0.02,0.01-0.01C7.52,7.72,7.55,7.69,7.55,7.69c0.02-0.01,0.04-0.02,0.06-0.03c0,0-0.02,0.01,0,0
			c0.01,0,0.02-0.01,0.03-0.01c0.01,0,0.02,0,0.02-0.01c0,0,0.04-0.01,0.02,0c-0.02,0,0.02,0,0.02,0c0.01,0,0.02,0,0.03,0
			c0.01,0,0.02,0,0.03,0c0.03,0-0.01,0,0.02,0c0.02,0.01,0.05,0.01,0.07,0.02c0.04,0.01-0.01-0.01,0.01,0
			C7.89,7.67,7.9,7.67,7.91,7.68c0.01,0,0.01,0.01,0.02,0.01c0.01,0,0.01,0.01,0.02,0.01c-0.01-0.01-0.01-0.01,0,0
			c0.01,0.01,0.03,0.03,0.04,0.04C8.02,7.78,7.98,7.74,8,7.77C8.01,7.78,8.02,7.78,8.02,7.8c0.01,0.01,0.01,0.02,0.02,0.03
			c0.01,0.02,0-0.01,0.01,0.01c0.01,0.02,0.01,0.05,0.02,0.07c0,0,0,0.02,0,0C8.07,7.93,8.07,7.95,8.07,7.97
			c0,0.15,0.24,0.15,0.24,0c0-0.24-0.15-0.45-0.38-0.54C7.72,7.35,7.45,7.42,7.31,7.6C7.15,7.78,7.13,8.05,7.25,8.26
			c0.12,0.21,0.37,0.31,0.6,0.27c0.27-0.05,0.45-0.29,0.46-0.56C8.31,7.81,8.07,7.81,8.07,7.97z"/>
	</g>
</g>
<g>
	<g>
		<path d="M7.35,8.91c0.23,0,0.47,0,0.7,0c0.03,0,0.07,0,0.1,0c0.06,0,0.12-0.06,0.12-0.12c0-0.07-0.05-0.12-0.12-0.12
			c-0.23,0-0.47,0-0.7,0c-0.03,0-0.07,0-0.1,0c-0.06,0-0.12,0.06-0.12,0.12C7.23,8.85,7.28,8.91,7.35,8.91L7.35,8.91z"/>
	</g>
</g>
</svg>
