<?xml version="1.0" encoding="utf-8"?>
<!-- Generator: Adobe Illustrator 22.0.0, SVG Export Plug-In . SVG Version: 6.00 Build 0)  -->
<svg version="1.1" id="Layer_1" xmlns="http://www.w3.org/2000/svg" xmlns:xlink="http://www.w3.org/1999/xlink" x="0px" y="0px"
	 viewBox="0 0 80 80" style="enable-background:new 0 0 80 80;" xml:space="preserve">
<style type="text/css">
	.st0{fill:#009C77;}
	.st1{fill:#2A7FBF;}
	.st2{fill:#FAAF00;}
	.st3{fill:#BB9500;}
	.st4{fill:#003566;}
</style>
<path class="st0" d="M16.5,4.2h55.2c2,0,3.6,1.6,3.6,3.6v48c0,2-1.6,3.6-3.6,3.6H16.5c-2,0-3.6-1.6-3.6-3.6v-48
	C12.9,5.8,14.5,4.2,16.5,4.2z"/>
<path class="st1" d="M16.5,7.8h2.4v2.4h-2.4V7.8z"/>
<path class="st1" d="M21.3,7.8h2.4v2.4h-2.4V7.8z"/>
<path class="st1" d="M26.1,7.8h2.4v2.4h-2.4V7.8z"/>
<path class="st1" d="M16.5,12.6h55.2V15H16.5V12.6z"/>
<path class="st2" d="M32.1,31.8H17.7v-12h6l2.4,2.4h6V31.8z"/>
<path class="st2" d="M51.3,31.8H36.9v-12h6l2.4,2.4h6V31.8z"/>
<path class="st2" d="M70.5,31.8H56.1v-12h6l2.4,2.4h6V31.8z"/>
<path class="st2" d="M70.5,51H56.1V39h6l2.4,2.4h6V51z"/>
<path class="st2" d="M51.3,51H36.9V39h6l2.4,2.4h6V51z"/>
<path class="st3" d="M21.5,31.8h10.7v-9.6h-3.9L21.5,31.8z"/>
<path class="st3" d="M40.7,31.8h10.7v-9.6h-3.9L40.7,31.8z"/>
<path class="st3" d="M59.7,31.8h10.7v-9.6h-3.9L59.7,31.8z"/>
<path class="st3" d="M59.9,51h10.7v-9.6h-3.9L59.9,51z"/>
<path class="st3" d="M40.7,51h10.7v-9.6h-3.9L40.7,51z"/>
<path class="st4" d="M42.9,59.4v-7.2h-4.1c-0.3-1.3-0.9-2.5-1.5-3.7l2.9-2.9l-5.1-5.1l-2.9,2.9c-1.2-0.7-2.4-1.2-3.7-1.5v-4.1h-7.2
	v4.1c-1.3,0.3-2.5,0.9-3.7,1.5l-2.9-2.9l-5.1,5.1l2.9,2.9c-0.7,1.2-1.2,2.4-1.5,3.7H6.9v7.2H11c0.3,1.3,0.9,2.5,1.5,3.7L9.6,66
	l5.1,5.1l2.9-2.9c1.2,0.7,2.4,1.2,3.7,1.5v4.1h7.2v-4.1c1.3-0.3,2.5-0.9,3.7-1.5l2.9,2.9l5.1-5.1l-2.9-2.9c0.7-1.2,1.2-2.4,1.5-3.7
	H42.9z M24.9,63c-4,0-7.2-3.2-7.2-7.2c0-4,3.2-7.2,7.2-7.2c4,0,7.2,3.2,7.2,7.2C32.1,59.8,28.9,63,24.9,63z"/>
<path d="M71.7,3H16.5c-2.7,0-4.8,2.1-4.8,4.8v28.8h2.4V7.8c0-1.3,1.1-2.4,2.4-2.4h55.2c1.3,0,2.4,1.1,2.4,2.4v48
	c0,1.3-1.1,2.4-2.4,2.4H46.5v2.4h25.2c2.7,0,4.8-2.1,4.8-4.8v-48C76.5,5.2,74.4,3,71.7,3z"/>
<path d="M16.5,7.8h2.4v2.4h-2.4V7.8z"/>
<path d="M21.3,7.8h2.4v2.4h-2.4V7.8z"/>
<path d="M26.1,7.8h2.4v2.4h-2.4V7.8z"/>
<path d="M16.5,12.6h55.2V15H16.5V12.6z"/>
<path d="M16.5,31.8c0,0.7,0.5,1.2,1.2,1.2h14.4c0.7,0,1.2-0.5,1.2-1.2v-9.6c0-0.7-0.5-1.2-1.2-1.2h-5.5l-2-2
	c-0.2-0.2-0.5-0.4-0.8-0.4h-6c-0.7,0-1.2,0.5-1.2,1.2V31.8z M18.9,21h4.3l2,2c0.2,0.2,0.5,0.4,0.8,0.4h4.8v7.2h-12V21z"/>
<path d="M52.5,22.2c0-0.7-0.5-1.2-1.2-1.2h-5.5l-2-2c-0.2-0.2-0.5-0.4-0.8-0.4h-6c-0.7,0-1.2,0.5-1.2,1.2v12c0,0.7,0.5,1.2,1.2,1.2
	h14.4c0.7,0,1.2-0.5,1.2-1.2V22.2z M50.1,30.6h-12V21h4.3l2,2c0.2,0.2,0.5,0.4,0.8,0.4h4.8V30.6z"/>
<path d="M71.7,22.2c0-0.7-0.5-1.2-1.2-1.2H65l-2-2c-0.2-0.2-0.5-0.4-0.8-0.4h-6c-0.7,0-1.2,0.5-1.2,1.2v12c0,0.7,0.5,1.2,1.2,1.2
	h14.4c0.7,0,1.2-0.5,1.2-1.2L71.7,22.2L71.7,22.2z M69.3,30.6h-12V21h4.3l2,2c0.2,0.2,0.5,0.4,0.8,0.4h4.8V30.6z"/>
<path d="M46.5,49.8v2.4h4.8c0.7,0,1.2-0.5,1.2-1.2v-9.6c0-0.7-0.5-1.2-1.2-1.2h-5.5l-2-2c-0.2-0.2-0.5-0.4-0.8-0.4h-3.6v2.4h3.1l2,2
	c0.2,0.2,0.5,0.4,0.8,0.4h4.8v7.2H46.5z"/>
<path d="M70.5,40.2H65l-2-2c-0.2-0.2-0.5-0.4-0.8-0.4h-6c-0.7,0-1.2,0.5-1.2,1.2v12c0,0.7,0.5,1.2,1.2,1.2h14.4
	c0.7,0,1.2-0.5,1.2-1.2v-9.6C71.7,40.7,71.2,40.2,70.5,40.2z M69.3,49.8h-12v-9.6h4.3l2,2c0.2,0.2,0.5,0.4,0.8,0.4h4.8V49.8z"/>
<path d="M10.1,51H6.9c-0.7,0-1.2,0.5-1.2,1.2v7.2c0,0.7,0.5,1.2,1.2,1.2h3.2c0.3,0.8,0.6,1.6,0.9,2.3l-2.2,2.2
	c-0.5,0.5-0.5,1.2,0,1.7l5.1,5.1c0.5,0.5,1.2,0.5,1.7,0l2.2-2.2c0.7,0.4,1.5,0.7,2.3,0.9v3.2c0,0.7,0.5,1.2,1.2,1.2h7.2
	c0.7,0,1.2-0.5,1.2-1.2v-3.2c0.8-0.3,1.6-0.6,2.3-0.9l2.2,2.2c0.5,0.5,1.2,0.5,1.7,0l5.1-5.1c0.5-0.5,0.5-1.2,0-1.7l-2.2-2.2
	c0.4-0.7,0.7-1.5,0.9-2.3h3.2c0.7,0,1.2-0.5,1.2-1.2v-7.2c0-0.7-0.5-1.2-1.2-1.2h-3.2c-0.3-0.8-0.6-1.6-0.9-2.3l2.2-2.2
	c0.5-0.5,0.5-1.2,0-1.7l-5.1-5.1c-0.5-0.5-1.2-0.5-1.7,0L32,41.9c-0.7-0.4-1.5-0.7-2.3-0.9v-3.2c0-0.7-0.5-1.2-1.2-1.2h-7.2
	c-0.7,0-1.2,0.5-1.2,1.2V41c-0.8,0.3-1.6,0.6-2.3,0.9l-2.2-2.2c-0.5-0.5-1.2-0.5-1.7,0l-5.1,5.1c-0.5,0.5-0.5,1.2,0,1.7l2.2,2.2
	c-0.1,0.2-0.2,0.4-0.3,0.6C10.5,49.9,10.3,50.4,10.1,51z M12.2,52.5c0.3-1.2,0.8-2.3,1.4-3.4c0.3-0.5,0.2-1.1-0.2-1.5l-2-2l3.4-3.4
	l2,2c0.4,0.4,1,0.5,1.5,0.2c1.1-0.6,2.2-1.1,3.4-1.4c0.5-0.1,0.9-0.6,0.9-1.2V39h4.8v2.9c0,0.5,0.4,1,0.9,1.2
	c1.2,0.3,2.3,0.8,3.4,1.4c0.5,0.3,1.1,0.2,1.5-0.2l2-2l3.4,3.4l-2,2c-0.4,0.4-0.5,1-0.2,1.5c0.6,1.1,1.1,2.2,1.4,3.4
	c0.1,0.5,0.6,0.9,1.2,0.9h2.9v4.8h-2.9c-0.5,0-1,0.4-1.2,0.9c-0.3,1.2-0.8,2.3-1.4,3.4C36,63,36.1,63.6,36.5,64l2,2l-3.4,3.4l-2-2
	c-0.4-0.4-1-0.5-1.5-0.2c-1.1,0.6-2.2,1.1-3.4,1.4c-0.5,0.1-0.9,0.6-0.9,1.2v2.9h-4.8v-2.9c0-0.5-0.4-1-0.9-1.2
	c-1.2-0.3-2.3-0.8-3.4-1.4c-0.5-0.3-1.1-0.2-1.5,0.2l-2,2L11.3,66l2-2c0.4-0.4,0.5-1,0.2-1.5c-0.6-1.1-1.1-2.2-1.4-3.4
	c-0.1-0.5-0.6-0.9-1.2-0.9H8.1v-4.8H11C11.5,53.4,12,53,12.2,52.5z"/>
<path d="M24.9,64.2c4.6,0,8.4-3.8,8.4-8.4c0-4.6-3.8-8.4-8.4-8.4c-4.6,0-8.4,3.8-8.4,8.4C16.5,60.4,20.3,64.2,24.9,64.2z M24.9,49.8
	c3.3,0,6,2.7,6,6c0,3.3-2.7,6-6,6c-3.3,0-6-2.7-6-6C18.9,52.5,21.6,49.8,24.9,49.8z"/>
</svg>
