<?xml version="1.0" encoding="utf-8"?>
<!-- Generator: Adobe Illustrator 22.0.0, SVG Export Plug-In . SVG Version: 6.00 Build 0)  -->
<svg version="1.1" id="Layer_1" xmlns="http://www.w3.org/2000/svg" xmlns:xlink="http://www.w3.org/1999/xlink" x="0px" y="0px"
	 viewBox="0 0 80 80" style="enable-background:new 0 0 80 80;" xml:space="preserve">
<style type="text/css">
	.st0{fill:#FFF5F5;}
	.st1{fill:#7FBED7;}
	.st2{fill:#3E9DC3;}
	.st3{fill:#FF6D5D;}
	.st4{fill:#FFC255;}
	.st5{fill:#FF8D86;}
	.st6{fill:#FFE39C;}
	.st7{fill:#3993B7;}
	.st8{fill:#D63030;}
	.st9{fill:#FFC574;}
</style>
<g>
	<path class="st0" d="M25,13.9v34.7c0,0.6-0.5,1.1-1.1,1.1H13.7c-0.6,0-1.1-0.5-1.1-1.1V13.9c0-0.6,0.5-1.1,1.1-1.1h10.3
		C24.5,12.9,25,13.3,25,13.9z"/>
	<path class="st0" d="M46.3,13.9v34.7c0,0.6-0.5,1.1-1.1,1.1H35c-0.6,0-1.1-0.5-1.1-1.1V13.9c0-0.6,0.5-1.1,1.1-1.1h10.3
		C45.8,12.9,46.3,13.3,46.3,13.9z"/>
	<path class="st0" d="M67.6,13.9v34.7c0,0.6-0.5,1.1-1.1,1.1H56.3c-0.6,0-1.1-0.5-1.1-1.1V13.9c0-0.6,0.5-1.1,1.1-1.1h10.3
		C67.2,12.9,67.6,13.3,67.6,13.9z"/>
</g>
<path class="st1" d="M71.6,5.1H51.3c-0.3,0-0.5,0.2-0.5,0.5c0-0.3-0.2-0.5-0.5-0.5H30c-0.3,0-0.5,0.2-0.5,0.5c0-0.3-0.2-0.5-0.5-0.5
	H8.7c-0.3,0-0.5,0.2-0.5,0.5v68.8c0,0.3,0.2,0.5,0.5,0.5h20.3c0.3,0,0.5-0.2,0.5-0.5c0,0.3,0.2,0.5,0.5,0.5h20.3
	c0.3,0,0.5-0.2,0.5-0.5c0,0.3,0.2,0.5,0.5,0.5h20.3c0.3,0,0.5-0.2,0.5-0.5V5.6C72.1,5.3,71.9,5.1,71.6,5.1z"/>
<path class="st2" d="M29.5,5.6v68.8c0,0.3-0.2,0.5-0.5,0.5H8.7c-0.3,0-0.5-0.2-0.5-0.5V5.6c0-0.3,0.2-0.5,0.5-0.5h20.3
	C29.2,5.1,29.5,5.3,29.5,5.6z"/>
<path class="st3" d="M50.8,5.6v68.8c0,0.3-0.2,0.5-0.5,0.5H30c-0.3,0-0.5-0.2-0.5-0.5V5.6c0-0.3,0.2-0.5,0.5-0.5h20.3
	C50.5,5.1,50.8,5.3,50.8,5.6z"/>
<path class="st4" d="M72.1,5.6v68.8c0,0.3-0.2,0.5-0.5,0.5H51.3c-0.3,0-0.5-0.2-0.5-0.5V5.6c0-0.3,0.2-0.5,0.5-0.5h20.3
	C71.9,5.1,72.1,5.3,72.1,5.6z"/>
<path class="st1" d="M29.5,5.6v68.8c0,0.3-0.2,0.5-0.5,0.5H13.1c-0.3,0-0.5-0.2-0.5-0.5V5.6c0-0.3,0.2-0.5,0.5-0.5h15.8
	C29.2,5.1,29.5,5.3,29.5,5.6z"/>
<path class="st5" d="M50.8,5.6v68.8c0,0.3-0.2,0.5-0.5,0.5H34.4c-0.3,0-0.5-0.2-0.5-0.5V5.6c0-0.3,0.2-0.5,0.5-0.5h15.8
	C50.5,5.1,50.8,5.3,50.8,5.6z"/>
<path class="st6" d="M72.1,5.6v68.8c0,0.3-0.2,0.5-0.5,0.5H55.8c-0.3,0-0.5-0.2-0.5-0.5V5.6c0-0.3,0.2-0.5,0.5-0.5h15.8
	C71.9,5.1,72.1,5.3,72.1,5.6z"/>
<path class="st0" d="M23.9,12.9H13.7c-0.6,0-1.1,0.5-1.1,1.1v34.7c0,0.6,0.5,1.1,1.1,1.1h10.3c0.6,0,1.1-0.5,1.1-1.1V13.9
	C25,13.3,24.5,12.9,23.9,12.9z"/>
<circle class="st7" cx="18.8" cy="60.9" r="6.2"/>
<path class="st0" d="M45.3,12.9H35c-0.6,0-1.1,0.5-1.1,1.1v34.7c0,0.6,0.5,1.1,1.1,1.1h10.3c0.6,0,1.1-0.5,1.1-1.1V13.9
	C46.3,13.3,45.8,12.9,45.3,12.9z"/>
<circle class="st8" cx="40.1" cy="60.9" r="6.2"/>
<path class="st0" d="M66.6,12.9H56.3c-0.6,0-1.1,0.5-1.1,1.1v34.7c0,0.6,0.5,1.1,1.1,1.1h10.3c0.6,0,1.1-0.5,1.1-1.1V13.9
	C67.6,13.3,67.2,12.9,66.6,12.9z"/>
<circle class="st9" cx="61.4" cy="60.9" r="6.2"/>
<path d="M12.6,50.8H25c0.6,0,1.1-0.5,1.1-1.1V12.9c0-0.6-0.5-1.1-1.1-1.1H12.6c-0.6,0-1.1,0.5-1.1,1.1v36.8
	C11.5,50.3,12,50.8,12.6,50.8z M13.6,13.9H24v1.8H13.6V13.9z M13.6,17.9H24v25.8H13.6V17.9z M13.6,45.8H24v2.8H13.6V45.8z"/>
<path d="M21.1,20.4h-4.6c-0.6,0-1.1,0.5-1.1,1.1c0,0.6,0.5,1.1,1.1,1.1h4.6c0.6,0,1.1-0.5,1.1-1.1S21.7,20.4,21.1,20.4z"/>
<path d="M21.1,25.1h-4.6c-0.6,0-1.1,0.5-1.1,1.1s0.5,1.1,1.1,1.1h4.6c0.6,0,1.1-0.5,1.1-1.1S21.7,25.1,21.1,25.1z"/>
<path d="M21.1,29.7h-4.6c-0.6,0-1.1,0.5-1.1,1.1c0,0.6,0.5,1.1,1.1,1.1h4.6c0.6,0,1.1-0.5,1.1-1.1C22.1,30.2,21.7,29.7,21.1,29.7z"
	/>
<path d="M21.1,34.4h-4.6c-0.6,0-1.1,0.5-1.1,1.1c0,0.6,0.5,1.1,1.1,1.1h4.6c0.6,0,1.1-0.5,1.1-1.1C22.1,34.9,21.7,34.4,21.1,34.4z"
	/>
<path d="M21.1,39h-4.6c-0.6,0-1.1,0.5-1.1,1.1s0.5,1.1,1.1,1.1h4.6c0.6,0,1.1-0.5,1.1-1.1C22.1,39.5,21.7,39,21.1,39z"/>
<path d="M47.4,12.9c0-0.6-0.5-1.1-1.1-1.1H33.9c-0.6,0-1.1,0.5-1.1,1.1v36.8c0,0.6,0.5,1.1,1.1,1.1h12.4c0.6,0,1.1-0.5,1.1-1.1V12.9
	z M45.3,48.6H35v-2.8h10.3V48.6z M45.3,43.7H35V17.9h10.3V43.7z M45.3,15.8H35v-1.8h10.3V15.8z"/>
<path d="M37.8,22.5h4.6c0.6,0,1.1-0.5,1.1-1.1s-0.5-1.1-1.1-1.1h-4.6c-0.6,0-1.1,0.5-1.1,1.1S37.2,22.5,37.8,22.5z"/>
<path d="M37.8,27.2h4.6c0.6,0,1.1-0.5,1.1-1.1s-0.5-1.1-1.1-1.1h-4.6c-0.6,0-1.1,0.5-1.1,1.1S37.2,27.2,37.8,27.2z"/>
<path d="M37.8,31.8h4.6c0.6,0,1.1-0.5,1.1-1.1s-0.5-1.1-1.1-1.1h-4.6c-0.6,0-1.1,0.5-1.1,1.1C36.8,31.4,37.2,31.8,37.8,31.8z"/>
<path d="M37.8,36.5h4.6c0.6,0,1.1-0.5,1.1-1.1s-0.5-1.1-1.1-1.1h-4.6c-0.6,0-1.1,0.5-1.1,1.1S37.2,36.5,37.8,36.5z"/>
<path d="M37.8,41.2h4.6c0.6,0,1.1-0.5,1.1-1.1c0-0.6-0.5-1.1-1.1-1.1h-4.6c-0.6,0-1.1,0.5-1.1,1.1C36.8,40.7,37.2,41.2,37.8,41.2z"
	/>
<path d="M40.1,53.7c-4,0-7.3,3.3-7.3,7.3s3.3,7.3,7.3,7.3s7.3-3.3,7.3-7.3S44.1,53.7,40.1,53.7z M40.1,66.1c-2.8,0-5.2-2.3-5.2-5.2
	s2.3-5.2,5.2-5.2s5.2,2.3,5.2,5.2S43,66.1,40.1,66.1z"/>
<path d="M72,4c-1.3,0-28.6,0-30,0C41.5,4,41,4.5,41,5.1s0.5,1.1,1.1,1.1h7.7c0,3.4,0,64.7,0,67.8H30.5c0-2.9,0-64.7,0-67.8h7.3
	c0.6,0,1.1-0.5,1.1-1.1S38.4,4,37.8,4C36.3,4,9.7,4,8.2,4C7.6,4,7.1,4.5,7.1,5.1v69.7c0,0.6,0.5,1.1,1.1,1.1c3.6,0,59.9,0,63.8,0
	c0.6,0,1.1-0.5,1.1-1.1V5.1C73.2,4.5,72.6,4,72,4z M28.4,73.9H9.2V6.1h19.2C28.4,9.2,28.4,71,28.4,73.9z M71,73.9H51.8
	c0-1.4,0-64.5,0-67.8H71V73.9z"/>
<path d="M55.2,50.8h5.2c0.6,0,1.1-0.5,1.1-1.1s-0.5-1.1-1.1-1.1h-4.2v-2.8h10.3v2.8h-1.9c-0.6,0-1.1,0.5-1.1,1.1s0.5,1.1,1.1,1.1h3
	c0.6,0,1.1-0.5,1.1-1.1V12.9c0-0.6-0.5-1.1-1.1-1.1H55.2c-0.6,0-1.1,0.5-1.1,1.1v36.8C54.2,50.3,54.6,50.8,55.2,50.8z M56.3,13.9
	h10.3v1.8H56.3V13.9z M56.3,17.9h10.3v25.8H56.3V17.9z"/>
<path d="M63.7,20.4h-4.6c-0.6,0-1.1,0.5-1.1,1.1c0,0.6,0.5,1.1,1.1,1.1h4.6c0.6,0,1.1-0.5,1.1-1.1S64.3,20.4,63.7,20.4z"/>
<path d="M63.7,25.1h-4.6c-0.6,0-1.1,0.5-1.1,1.1s0.5,1.1,1.1,1.1h4.6c0.6,0,1.1-0.5,1.1-1.1S64.3,25.1,63.7,25.1z"/>
<path d="M63.7,29.7h-4.6c-0.6,0-1.1,0.5-1.1,1.1c0,0.6,0.5,1.1,1.1,1.1h4.6c0.6,0,1.1-0.5,1.1-1.1C64.8,30.2,64.3,29.7,63.7,29.7z"
	/>
<path d="M63.7,34.4h-4.6c-0.6,0-1.1,0.5-1.1,1.1c0,0.6,0.5,1.1,1.1,1.1h4.6c0.6,0,1.1-0.5,1.1-1.1C64.8,34.9,64.3,34.4,63.7,34.4z"
	/>
<path d="M63.7,39h-4.6c-0.6,0-1.1,0.5-1.1,1.1s0.5,1.1,1.1,1.1h4.6c0.6,0,1.1-0.5,1.1-1.1S64.3,39,63.7,39z"/>
<path d="M61.4,68.2c4,0,7.3-3.3,7.3-7.3s-3.3-7.3-7.3-7.3s-7.3,3.3-7.3,7.3S57.4,68.2,61.4,68.2z M61.4,55.8c2.8,0,5.2,2.3,5.2,5.2
	s-2.3,5.2-5.2,5.2s-5.2-2.3-5.2-5.2S58.6,55.8,61.4,55.8z"/>
<rect x="37" y="4" width="6.1" height="2.1"/>
<path d="M19,53.7c-4,0-7.3,3.3-7.3,7.3s3.3,7.3,7.3,7.3s7.3-3.3,7.3-7.3S23,53.7,19,53.7z M19,66.1c-2.8,0-5.2-2.3-5.2-5.2
	s2.3-5.2,5.2-5.2s5.2,2.3,5.2,5.2S21.8,66.1,19,66.1z"/>
<rect x="59.9" y="48.6" width="5.2" height="2.1"/>
</svg>
