<?xml version="1.0" encoding="utf-8"?>
<!-- Generator: Adobe Illustrator 22.0.0, SVG Export Plug-In . SVG Version: 6.00 Build 0)  -->
<svg version="1.1" id="Layer_1" xmlns="http://www.w3.org/2000/svg" xmlns:xlink="http://www.w3.org/1999/xlink" x="0px" y="0px"
	 viewBox="0 0 80 80" style="enable-background:new 0 0 80 80;" xml:space="preserve">
<style type="text/css">
	.st0{fill:#008167;}
	.st1{fill:#6BFFB7;}
	.st2{fill:#C6C5CA;}
	.st3{fill:#D23F00;}
	.st4{fill:#004A66;}
	.st5{fill:#FFD6BB;}
	.st6{fill:#FFC498;}
	.st7{fill:#2C0100;}
</style>
<path class="st0" d="M69.6,53.2c-0.3,1.1-0.7,2.1-1.3,3.1l3.3,4.3l-5,5l-4.3-3.3c-1,0.5-2,1-3.1,1.3l-0.8,5.4h-7.1l-0.8-5.4
	c-1.1-0.3-2.1-0.7-3.1-1.3l-4.3,3.3l-5-5l3.3-4.3c-0.5-1-1-2-1.3-3.1l-5.4-0.8v-7.1l5.4-0.8c0.3-1.1,0.7-2.1,1.3-3.1l-3.3-4.3l5-5
	l2.6,2l1.7,1.3c0.5-0.3,1-0.5,1.5-0.7c0.5-0.2,1.1-0.4,1.6-0.6l0.8-5.4h7.1l0.8,5.4c0.5,0.2,1.1,0.3,1.6,0.6c0.5,0.2,1,0.4,1.5,0.7
	l3.3-2.4l1.1-0.8l5,5l-3.3,4.3c0.5,1,1,2,1.3,3.1l5.4,0.8v7.1L69.6,53.2z"/>
<path class="st1" d="M60.8,41.5c-1.4-1.1-3-1.8-4.7-2c-0.4,0-0.8-0.1-1.2-0.1c-5.2,0-9.5,4.2-9.5,9.5c0,3.2,1.6,6.2,4.3,7.9
	c1.5,1,3.4,1.6,5.2,1.6c0.8,0,1.6-0.1,2.4-0.3c5.1-1.3,8.1-6.5,6.8-11.6C63.5,44.5,62.4,42.8,60.8,41.5L60.8,41.5z"/>
<path class="st2" d="M60.8,34.7c-0.5-0.2-1.1-0.4-1.6-0.6l-0.8-5.4H56v-9.8c-3.8-2.6-4.7-7.8-2.1-11.5c0.8-1.2,2-2.1,3.3-2.8v7.5
	l3.6,1.2l3.6-1.2V4.6c4.1,2,5.9,6.9,3.9,11c-0.6,1.3-1.6,2.4-2.8,3.3v14l-3.3,2.4C61.8,35.1,61.3,34.9,60.8,34.7z"/>
<path class="st0" d="M60.8,34.7v6.8c-1.4-1.1-3-1.8-4.7-2V28.7h2.4l0.8,5.4C59.7,34.3,60.2,34.4,60.8,34.7z"/>
<path class="st3" d="M44.1,26.4h-2.4c-0.4,0-0.8,0.1-1.2,0.3v6.8c0,0.3,0,0.6,0,0.8c0.1,0,0.1,0.1,0.2,0.1c0.3,0.1,0.7,0.2,1,0.2
	h2.4c0.6,0,1.1-0.2,1.5-0.6c0.5-0.4,0.8-1.1,0.8-1.8v-3.6C46.5,27.4,45.5,26.4,44.1,26.4z"/>
<path class="st4" d="M49.6,56.8c-1.3-2.3-3.4-4-5.8-5l-9.1-3.7l-1.2-0.5c0,2.6-2.1,4.7-4.7,4.7S24,50.3,24,47.7l-10.3,4.1
	c-4.5,1.8-7.5,6.2-7.5,11v10.9h45.1V62.9C51.3,60.7,50.7,58.7,49.6,56.8z"/>
<path class="st5" d="M33.5,44.3v3.4c0,2.6-2.1,4.7-4.7,4.7S24,50.3,24,47.7v-3.4C27,45.7,30.4,45.7,33.5,44.3z"/>
<path class="st3" d="M16.9,33.5c0,0.3,0,0.6,0,0.8c-0.4,0.2-0.8,0.3-1.2,0.3h-2.4c-1.3,0-2.4-1.1-2.4-2.4v-3.6
	c0-1.3,1.1-2.4,2.4-2.4h2.4c0.4,0,0.8,0.1,1.2,0.3V33.5z"/>
<path class="st6" d="M33.5,44.3v2.4c-3,1.3-6.5,1.3-9.5,0v-2.4C27,45.7,30.4,45.7,33.5,44.3z"/>
<path class="st7" d="M40.6,26.7v0.9h-1.2c-1.5,0-2.9-0.7-3.8-1.9l-2.1-2.8l-4,3.2c-1.3,1-2.8,1.6-4.4,1.6h-8.2v-2.4
	c0-6.6,5.3-11.9,11.9-11.9s11.9,5.3,11.9,11.9V26.7z"/>
<path class="st5" d="M39.4,27.5c-1.5,0-2.9-0.7-3.8-1.9l-2.1-2.8l-4,3.2c-1.3,1-2.8,1.6-4.4,1.6h-8.2v5.9c0,0.3,0,0.6,0,0.8
	c0.5,6.5,6.1,11.4,12.7,11c3.4-0.2,6.6-2,8.6-4.7c0.4-0.5,0.8-1.1,1.1-1.8c0.7-1.3,1.1-2.7,1.2-4.1v0c0-0.1,0-0.2,0-0.4
	c0-0.3,0-0.6,0-0.8v-5.9H39.4z"/>
<path d="M22.6,31.1H23c0.6,0,1,0.5,1,1v0.3c0,0.6-0.5,1-1,1h-0.3c-0.6,0-1-0.5-1-1v-0.3C21.6,31.6,22.1,31.1,22.6,31.1z"/>
<path d="M34.7,31.1L34.7,31.1c0.7,0,1.2,0.5,1.2,1.2l0,0c0,0.7-0.5,1.2-1.2,1.2h0c-0.7,0-1.2-0.5-1.2-1.2l0,0
	C33.5,31.6,34,31.1,34.7,31.1z"/>
<path d="M75.2,44.2l-4.6-0.7c-0.2-0.6-0.5-1.3-0.8-1.9l2.8-3.7c0.4-0.5,0.3-1.1-0.1-1.6l-5-5c-0.2-0.2-0.4-0.3-0.7-0.3V19.5
	c2.2-1.8,3.6-4.5,3.6-7.4c0-3.7-2.1-7-5.4-8.6c-0.6-0.3-1.3,0-1.6,0.6c-0.1,0.2-0.1,0.3-0.1,0.5v6.6l-2.4,0.8l-2.4-0.8V4.6
	c0-0.7-0.5-1.2-1.2-1.2c-0.2,0-0.3,0-0.5,0.1c-3.3,1.6-5.4,4.9-5.4,8.6c0,2.9,1.3,5.6,3.6,7.4v8h-3.6c-0.6,0-1.1,0.4-1.2,1l-0.8,5.4
	l2.3,0.3l0.6-4.4h5.1l0.6,4.4c0.1,0.5,0.4,0.8,0.8,1c1,0.3,1.9,0.7,2.8,1.2c0.4,0.2,0.9,0.2,1.3-0.1l3.5-2.6l3.6,3.6l-2.6,3.5
	c-0.3,0.4-0.3,0.9-0.1,1.3c0.5,0.9,0.9,1.9,1.2,2.8c0.1,0.4,0.5,0.8,1,0.8l4.4,0.6v5.1l-4.4,0.6c-0.5,0.1-0.8,0.4-1,0.8
	c-0.3,1-0.7,1.9-1.2,2.8c-0.2,0.4-0.2,0.9,0.1,1.3l2.6,3.5l-3.6,3.6l-3.5-2.6c-0.4-0.3-0.9-0.3-1.3-0.1c-0.9,0.5-1.9,0.9-2.8,1.2
	c-0.4,0.1-0.8,0.5-0.8,1l-0.6,4.4h-4.9v-5c0-1.3-0.2-2.5-0.5-3.7c5.7,1.7,11.7-1.6,13.4-7.3c1.7-5.7-1.6-11.7-7.3-13.4
	c-5.7-1.7-11.7,1.6-13.4,7.3c-0.5,1.6-0.6,3.4-0.2,5c0,0-0.1,0-0.1,0l-9.6-3.8v-1.8c1.6-0.8,3-1.9,4.1-3.3h3c2,0,3.6-1.6,3.6-3.6
	v-2.6c1.4-0.5,2.4-1.8,2.4-3.3v-3.6c0-1.5-1-2.8-2.4-3.3V24c0-9.2-7.4-16.6-16.6-16.6S12.1,14.8,12.1,24v1.4
	c-1.4,0.5-2.4,1.8-2.4,3.3v3.6c0,2,1.6,3.6,3.6,3.6h2.4c0.1,0,0.1,0,0.2,0c0.7,4,3.3,7.4,6.9,9.3v1.8l-9.6,3.8
	c-5,2-8.2,6.8-8.2,12.1v10.9C5,74.5,5.5,75,6.2,75h45.1c0.7,0,1.2-0.5,1.2-1.2v-3.6h5.9c0.6,0,1.1-0.4,1.2-1l0.7-4.6
	c0.6-0.2,1.3-0.5,1.9-0.8l3.7,2.8c0.5,0.4,1.1,0.3,1.6-0.1l5-5c0.4-0.4,0.5-1.1,0.1-1.6l-2.8-3.7c0.3-0.6,0.6-1.2,0.8-1.9l4.6-0.7
	c0.6-0.1,1-0.6,1-1.2v-7.1C76.2,44.8,75.7,44.3,75.2,44.2z M62.1,34c-0.1,0-0.1,0-0.2-0.1V19.2h-2.4v9.4l0-0.1c-0.1-0.6-0.6-1-1.2-1
	h-1.2v-8.6c0-0.4-0.2-0.8-0.5-1c-3.2-2.2-4-6.7-1.8-9.9c0.3-0.5,0.7-0.9,1.1-1.2v5.3c0,0.5,0.3,1,0.8,1.1l3.6,1.2
	c0.2,0.1,0.5,0.1,0.7,0l3.6-1.2c0.5-0.2,0.8-0.6,0.8-1.1V6.8c2.9,2.6,3.2,7.1,0.6,10.1c-0.4,0.4-0.8,0.8-1.2,1.1
	c-0.3,0.2-0.5,0.6-0.5,1v13.4L62.1,34z M46.5,48.9c0-4.6,3.7-8.4,8.3-8.4c4.6,0,8.4,3.7,8.4,8.3c0,4.6-3.7,8.4-8.3,8.4
	c-1.6,0-3.1-0.4-4.5-1.3c-0.8-1.3-1.9-2.5-3.1-3.4C46.8,51.4,46.5,50.2,46.5,48.9z M41.8,39.4h-1.4c0.6-1.1,1-2.3,1.2-3.6
	c0.1,0,0.1,0,0.2,0H43v2.4C43,38.9,42.4,39.4,41.8,39.4z M39.4,26.4c-1.1,0-2.2-0.5-2.8-1.4l-2.1-2.8c-0.2-0.3-0.5-0.4-0.8-0.5
	c-0.3,0-0.6,0.1-0.9,0.3l-4,3.2c-1.1,0.8-2.4,1.3-3.7,1.3h-7v-1.2c0-5.9,4.8-10.7,10.7-10.7s10.7,4.8,10.7,10.7V26.4z M45.3,32.3
	c0,0.7-0.5,1.2-1.2,1.2h-2.4v-5.9h2.4c0.7,0,1.2,0.5,1.2,1.2V32.3z M28.7,9.8C36.6,9.8,43,16.1,43,24v1.2h-1.2c0-7.2-5.8-13-13-13
	s-13,5.8-13,13h-1.2V24C14.5,16.1,20.9,9.8,28.7,9.8z M13.3,33.5c-0.7,0-1.2-0.5-1.2-1.2v-3.6c0-0.7,0.5-1.2,1.2-1.2h2.4v5.9H13.3z
	 M18,33.5v-4.7h7c1.9,0,3.7-0.6,5.2-1.8l3-2.4l1.4,1.9c1.1,1.5,2.9,2.4,4.7,2.4v4.7c0,2.1-0.6,4.2-1.8,5.9h-8.9v2.4h6.7
	c-4.6,3.7-11.3,3-15-1.6C18.9,38.3,18,35.9,18,33.5z M28.7,46.5c1.2,0,2.4-0.2,3.6-0.5v1.7c0,2-1.6,3.6-3.6,3.6s-3.6-1.6-3.6-3.6V46
	C26.3,46.4,27.5,46.5,28.7,46.5z M50.1,72.6H43v-13h-2.4v13H16.9v-13h-2.4v13H7.4v-9.8c0-4.4,2.6-8.3,6.7-9.9l9-3.6
	c0.9,3.1,4.1,4.9,7.3,4.1c2-0.6,3.5-2.1,4.1-4.1l9,3.6c4.1,1.6,6.7,5.5,6.7,9.9V72.6z"/>
<rect x="53.6" y="32.3" width="2.4" height="2.4"/>
<rect x="53.6" y="63.1" width="2.4" height="2.4"/>
<rect x="64.5" y="58.6" transform="matrix(0.7071 -0.7071 0.7071 0.7071 -23.0374 63.9949)" width="2.4" height="2.4"/>
<rect x="69.1" y="47.7" width="2.4" height="2.4"/>
<rect x="64.5" y="36.8" transform="matrix(0.7071 -0.7071 0.7071 0.7071 -7.6151 57.6073)" width="2.4" height="2.4"/>
<path d="M53.2,51.6c-0.3-0.2-0.7-0.1-0.9,0.2c-0.2,0.3-0.1,0.7,0.2,0.9c0.7,0.5,1.3,0.6,1.9,0.7V54c0,0.4,0.3,0.7,0.7,0.7
	c0.4,0,0.7-0.3,0.7-0.7v-0.6C57,53.1,57.8,52,58,51c0.2-1.4-0.5-2.5-1.8-3c-0.2-0.1-0.3-0.1-0.5-0.2v-2.6c0.4,0.1,0.6,0.3,0.6,0.3
	l0.2,0.1c0.3,0.3,0.7,0.2,1,0c0.3-0.3,0.2-0.7,0-1l-0.2-0.1c0,0-0.6-0.5-1.5-0.7v-0.5c0-0.4-0.3-0.7-0.7-0.7c-0.4,0-0.7,0.3-0.7,0.7
	v0.5c-0.1,0-0.1,0-0.2,0.1c-0.9,0.3-1.5,1-1.7,1.9c-0.2,0.9,0.1,1.7,0.7,2.2c0.3,0.2,0.7,0.5,1.2,0.7v3.4
	C53.9,52,53.7,51.9,53.2,51.6L53.2,51.6z M55.7,49.2C55.7,49.2,55.7,49.2,55.7,49.2c1,0.4,1,1.2,0.9,1.5c-0.1,0.5-0.4,1-0.9,1.2
	V49.2z M54,47c-0.2-0.2-0.3-0.5-0.2-0.8c0.1-0.3,0.2-0.6,0.6-0.8v1.9C54.2,47.1,54.1,47,54,47z"/>
</svg>
