<?xml version="1.0" encoding="utf-8"?>
<!-- Generator: Adobe Illustrator 22.0.0, SVG Export Plug-In . SVG Version: 6.00 Build 0)  -->
<svg version="1.1" id="Layer_1" xmlns="http://www.w3.org/2000/svg" xmlns:xlink="http://www.w3.org/1999/xlink" x="0px" y="0px"
	 viewBox="0 0 80 80" style="enable-background:new 0 0 80 80;" xml:space="preserve">
<style type="text/css">
	.st0{fill:#5D2E00;}
	.st1{fill:#008FE4;}
</style>
<path class="st0" d="M73.6,6.4v68.2l-30-12.5V18.9L73.6,6.4z"/>
<path class="st1" d="M35.3,40.5l-12.5,8.3v-4.2H5.4v-8.3h17.5v-4.2L35.3,40.5z"/>
<g>
	<path d="M36.7,40.5c0-0.5-0.2-0.9-0.6-1.2L23.6,31c-0.4-0.3-1-0.3-1.4-0.1c-0.5,0.2-0.7,0.7-0.7,1.2V35H5.4C4.6,35,4,35.6,4,36.3
		v8.3C4,45.4,4.6,46,5.4,46h16.1v2.8c0,0.5,0.3,1,0.7,1.2c0.4,0.2,1,0.2,1.4-0.1l12.5-8.3C36.5,41.4,36.7,41,36.7,40.5z M24.2,46.2
		v-1.6c0-0.8-0.6-1.4-1.4-1.4H6.8v-5.5h16.1c0.8,0,1.4-0.6,1.4-1.4v-1.6l8.6,5.7L24.2,46.2z"/>
	<path d="M50.6,36.3v8.3c0,0.8,0.6,1.4,1.4,1.4s1.4-0.6,1.4-1.4v-8.3c0-0.8-0.6-1.4-1.4-1.4S50.6,35.6,50.6,36.3z"/>
	<circle cx="73.6" cy="40.5" r="1.4"/>
	<path d="M75,6.4C75,5.6,74.4,5,73.6,5H31.2c-0.8,0-1.4,0.6-1.4,1.4V28c0,0.8,0.6,1.4,1.4,1.4c0.8,0,1.4-0.6,1.4-1.4V7.8h34.1
		l-23.6,9.8c-0.5,0.2-0.9,0.7-0.9,1.3v43.3c0,0.6,0.3,1.1,0.9,1.3l23.6,9.8H32.6V53c0-0.8-0.6-1.4-1.4-1.4s-1.4,0.6-1.4,1.4v21.6
		c0,0.8,0.6,1.4,1.4,1.4h42.4c0.8,0,1.4-0.6,1.4-1.4V46.7c0-0.8-0.6-1.4-1.4-1.4s-1.4,0.6-1.4,1.4v25.8L45,61.2V19.8L72.2,8.5v25.8
		c0,0.8,0.6,1.4,1.4,1.4S75,35,75,34.3L75,6.4z"/>
</g>
<rect x="72.2" y="32.6" width="2.8" height="17.7"/>
</svg>
