<?xml version="1.0" encoding="utf-8"?>
<!-- Generator: Adobe Illustrator 22.0.0, SVG Export Plug-In . SVG Version: 6.00 Build 0)  -->
<svg version="1.1" id="Layer_1" xmlns="http://www.w3.org/2000/svg" xmlns:xlink="http://www.w3.org/1999/xlink" x="0px" y="0px"
	 viewBox="0 0 80 80" style="enable-background:new 0 0 80 80;" xml:space="preserve">
<style type="text/css">
	.st0{fill:#1F000A;}
	.st1{fill:#1A000B;}
	.st2{fill:#F0A479;}
	.st3{fill:#FFB09E;}
	.st4{fill:#FFCEBF;}
	.st5{fill:#E4EAF8;}
	.st6{fill:#D8DCE5;}
	.st7{fill:#FF5050;}
	.st8{fill:#ED3A3A;}
	.st9{fill:#DB2A2A;}
	.st10{fill:#59413A;}
	.st11{fill:#2D211D;}
	.st12{fill:#383391;}
	.st13{fill:#060075;}
	.st14{fill:#1F0300;}
	.st15{fill:#160400;}
	.st16{fill:#3BC227;}
	.st17{fill:#2C911D;}
</style>
<path class="st0" d="M39.4,5.4c-5.1,0-9.2,4.1-9.2,9.2v3.7c0.6-0.6,1.5-0.9,2.3-0.8V17c0-0.4,0.3-0.7,0.7-0.6
	c3.5,0.3,7.2-0.9,9.9-2.7c0.3-0.2,0.6-0.1,0.8,0.1c2.3,2.5,2.3,2.4,2.3,2.7v0.9c0.9-0.1,1.8,0.1,2.3,0.7v-3.6
	C48.5,9.5,44.4,5.4,39.4,5.4z"/>
<path class="st1" d="M33.1,14.5c0-4.6,3.3-8.4,7.7-9.1c-0.5-0.1-1-0.1-1.4-0.1c-5.1,0-9.2,4.1-9.2,9.2v3.7c0.6-0.6,1.5-0.9,2.3-0.8
	V17c0-0.3,0.2-0.6,0.5-0.6L33.1,14.5L33.1,14.5z"/>
<path class="st2" d="M46.2,17.1v5c0,0.1,0,0.1,0,0.2c1.8,0.3,3.2-1,3.2-2.6C49.4,18.2,48,16.9,46.2,17.1z"/>
<path class="st3" d="M48.6,17.8c-0.6-0.5-1.4-0.8-2.4-0.7v5c0,0.1,0,0.1,0,0.2c0.9,0.1,1.8-0.2,2.4-0.7L48.6,17.8L48.6,17.8z"/>
<path class="st2" d="M32.6,22.2v-5.1c-1.6-0.2-3.2,1-3.2,2.6c0,1.6,1.4,2.9,3.2,2.6C32.6,22.3,32.6,22.3,32.6,22.2z"/>
<path class="st3" d="M32.6,21.4c-0.4-0.5-0.6-1-0.6-1.7c0-0.6,0.2-1.1,0.6-1.6v-1c-1.6-0.2-3.2,1-3.2,2.6c0,1.6,1.4,2.9,3.2,2.6
	c0-0.1,0-0.1,0-0.2L32.6,21.4L32.6,21.4z"/>
<path class="st4" d="M39.5,28.6c-1.5,0-2.8-0.4-3.8-1.1v3.8l3.8,4.7l3.8-4.7v-3.9C42.2,28.2,40.9,28.6,39.5,28.6z"/>
<path class="st3" d="M38.5,28.5c-1.1-0.1-2-0.5-2.9-1v3.8l2.9,3.5L38.5,28.5L38.5,28.5z"/>
<path class="st5" d="M53.4,34.9l-10.1-3.9l-3.8,4.7l-3.8-4.7l-10.1,3.9c0,0-3.7,1.5-3.7,5.8c0,3.9,0,13.6,0,16.8
	c0,0.7,0.6,1.2,1.2,1.2c0.5,0,32.4,0,32.9,0c0.7,0,1.2-0.6,1.2-1.2c0-3.1,0-12.9,0-16.8C57.2,36.4,53.4,34.9,53.4,34.9z"/>
<path class="st6" d="M24.6,57.5c0-3.1,0-14.3,0-18.2c0-2.5,1.3-4.1,2.4-5l-1.5,0.6c0,0-3.7,1.5-3.7,5.8c0,3.9,0,13.6,0,16.8
	c0,0.7,0.6,1.2,1.2,1.2c0.1,0,1.2,0,2.9,0C25.2,58.7,24.6,58.1,24.6,57.5z"/>
<path class="st4" d="M43.9,13.5c-0.2-0.2-0.5-0.3-0.8-0.1c-2.7,1.8-6.3,2.9-9.9,2.7c-0.4,0-0.7,0.3-0.7,0.6v5.5
	c0,3.5,2.8,6.7,6.9,6.7c3.7,0,6.7-3,6.7-6.7v-5.9C46.2,15.9,46.2,16,43.9,13.5z"/>
<path class="st3" d="M35.4,22.2v-6.1c-0.7,0.1-1.5,0.1-2.2,0c-0.4,0-0.7,0.3-0.7,0.6v5.5c0,3.5,2.8,6.7,6.9,6.7c0.5,0,0.9,0,1.3-0.1
	C37.7,28.2,35.4,25.4,35.4,22.2z"/>
<g>
	<path class="st6" d="M44.1,38.1l2.9-5.7l-3.7-1.4l-3.8,4.7l3.7,2.7C43.5,38.5,43.9,38.4,44.1,38.1z"/>
	<path class="st6" d="M34.8,38.1L32,32.4l3.7-1.4l3.8,4.7l-3.7,2.7C35.4,38.5,35,38.4,34.8,38.1z"/>
</g>
<path class="st7" d="M43.4,54.1l-2.5-14.6h-1.4h0H38l-2.5,14.6c0,0.2,0,0.4,0.1,0.5l0,0l0,0l3.4,3.7c0.2,0.2,0.5,0.2,0.7,0l3.4-3.7
	l0,0l0,0C43.3,54.4,43.4,54.3,43.4,54.1z"/>
<g>
	<path class="st8" d="M38.6,54.6c-0.1-0.1-0.2-0.3-0.1-0.5l2.5-14.6h-1.4h0H38l-2.5,14.6c0,0.2,0,0.4,0.1,0.5l3.4,3.7
		c0.2,0.2,0.5,0.2,0.7,0l1.1-1.2L38.6,54.6z"/>
	<polygon class="st8" points="39.5,35.7 39.5,35.7 39.5,35.7 39.5,35.7 39.5,35.7 36.7,37.6 38,39.5 39.5,39.5 39.5,39.5 40.9,39.5 
		42.2,37.6 	"/>
</g>
<path class="st9" d="M40.9,36.7l-1.4-1v0l0,0l0,0v0l-2.7,1.9l1.3,1.9h1.4h0h1.4l-1.1-1.7c-0.1-0.2-0.1-0.4,0.1-0.5L40.9,36.7z"/>
<path class="st10" d="M57.1,18.3c-5.1,0-9.2,4.1-9.2,9.2v3.7c0.6-0.6,1.5-0.9,2.3-0.8v-0.5c0-0.4,0.3-0.7,0.7-0.6
	c3.5,0.3,7.2-0.9,9.9-2.7c0.3-0.2,0.6-0.1,0.8,0.1c2.3,2.5,2.3,2.4,2.3,2.7v0.9c0.9-0.1,1.8,0.1,2.3,0.7v-3.6
	C66.3,22.4,62.2,18.3,57.1,18.3z"/>
<path class="st11" d="M50.8,27.4c0-4.6,3.3-8.4,7.7-9.1c-0.5-0.1-1-0.1-1.4-0.1c-5.1,0-9.2,4.1-9.2,9.2v3.7c0.6-0.6,1.5-0.9,2.3-0.8
	v-0.5c0-0.3,0.2-0.6,0.5-0.6L50.8,27.4L50.8,27.4L50.8,27.4z"/>
<path class="st2" d="M63.9,30v5c0,0.1,0,0.1,0,0.2c1.8,0.3,3.2-1,3.2-2.6C67.1,31.1,65.7,29.8,63.9,30z"/>
<path class="st3" d="M66.3,30.7c-0.6-0.5-1.4-0.8-2.4-0.7v5c0,0.1,0,0.1,0,0.2c0.9,0.1,1.8-0.2,2.4-0.7L66.3,30.7L66.3,30.7z"/>
<path class="st2" d="M50.3,35.1V30c-1.6-0.2-3.2,1-3.2,2.6c0,1.6,1.4,2.9,3.2,2.6C50.3,35.2,50.3,35.1,50.3,35.1z"/>
<path class="st3" d="M50.3,34.3c-0.4-0.5-0.6-1-0.6-1.7c0-0.6,0.2-1.1,0.6-1.6v-1c-1.6-0.2-3.2,1-3.2,2.6c0,1.6,1.4,2.9,3.2,2.6
	c0-0.1,0-0.1,0-0.2L50.3,34.3L50.3,34.3L50.3,34.3z"/>
<path class="st4" d="M57.2,41.5c-1.5,0-2.8-0.4-3.8-1.1v3.8l3.8,4.7l3.8-4.7v-3.9C59.9,41,58.6,41.5,57.2,41.5z"/>
<path class="st3" d="M56.2,41.4c-1.1-0.1-2-0.5-2.9-1v3.8l2.9,3.5V41.4z"/>
<path class="st5" d="M71.1,47.8L61,43.8l-3.8,4.7l-3.8-4.7l-10.1,3.9c0,0-3.7,1.5-3.7,5.8c0,3.9,0,13.6,0,16.8
	c0,0.7,0.6,1.2,1.2,1.2c0.5,0,32.4,0,32.9,0c0.7,0,1.2-0.6,1.2-1.2c0-3.1,0-12.9,0-16.8C74.9,49.3,71.1,47.8,71.1,47.8z"/>
<path class="st6" d="M42.3,70.4c0-3.1,0-14.3,0-18.2c0-2.5,1.3-4.1,2.4-5l-1.5,0.6c0,0-3.7,1.5-3.7,5.8c0,3.9,0,13.6,0,16.8
	c0,0.7,0.6,1.2,1.2,1.2c0.1,0,1.2,0,2.9,0C42.9,71.6,42.3,71,42.3,70.4z"/>
<path class="st4" d="M61.6,26.4c-0.2-0.2-0.5-0.3-0.8-0.1c-2.7,1.8-6.3,2.9-9.9,2.7c-0.4,0-0.7,0.3-0.7,0.6v5.5
	c0,3.5,2.8,6.7,6.9,6.7c3.7,0,6.7-3,6.7-6.7v-5.9C63.9,28.8,63.9,28.9,61.6,26.4z"/>
<path class="st3" d="M53.1,35.1V29c-0.7,0.1-1.5,0.1-2.2,0c-0.4,0-0.7,0.3-0.7,0.6v5.5c0,3.5,2.8,6.7,6.9,6.7c0.5,0,0.9,0,1.3-0.1
	C55.4,41.1,53.1,38.3,53.1,35.1z"/>
<g>
	<path class="st6" d="M61.8,51l2.9-5.7L61,43.8l-3.8,4.7l3.7,2.7C61.2,51.4,61.6,51.3,61.8,51z"/>
	<path class="st6" d="M52.6,51l-2.9-5.7l3.7-1.4l3.8,4.7l-3.7,2.7C53.1,51.4,52.7,51.3,52.6,51z"/>
</g>
<path class="st12" d="M61.1,67l-2.5-14.6h-1.4h0h-1.4L53.3,67c0,0.2,0,0.4,0.1,0.5l0,0l0,0l3.4,3.7c0.2,0.2,0.5,0.2,0.7,0l3.4-3.7
	l0,0l0,0C61,67.3,61.1,67.1,61.1,67z"/>
<g>
	<path class="st13" d="M56.3,67.5c-0.1-0.1-0.2-0.3-0.1-0.5l2.5-14.6h-1.4h0h-1.4L53.3,67c0,0.2,0,0.4,0.1,0.5l3.4,3.7
		c0.2,0.2,0.5,0.2,0.7,0l1.1-1.2L56.3,67.5z"/>
	<polygon class="st13" points="57.2,48.6 57.2,48.6 57.2,48.6 57.2,48.6 57.2,48.6 54.5,50.5 55.7,52.4 57.2,52.4 57.2,52.4 
		58.6,52.4 59.9,50.5 	"/>
</g>
<path class="st13" d="M58.6,49.6l-1.4-1v0l0,0l0,0v0l-2.7,1.9l1.3,1.9h1.4h0h1.4l-1.1-1.7c-0.1-0.2-0.1-0.4,0.1-0.5L58.6,49.6z"/>
<path class="st14" d="M21.7,18.3c-5.1,0-9.2,4.1-9.2,9.2v3.7c0.6-0.6,1.5-0.9,2.3-0.8v-0.5c0-0.4,0.3-0.7,0.7-0.6
	c3.5,0.3,7.2-0.9,9.9-2.7c0.3-0.2,0.6-0.1,0.8,0.1c2.3,2.5,2.3,2.4,2.3,2.7v0.9c0.9-0.1,1.8,0.1,2.3,0.7v-3.6
	C30.8,22.4,26.7,18.3,21.7,18.3z"/>
<path class="st15" d="M15.4,27.4c0-4.6,3.3-8.4,7.7-9.1c-0.5-0.1-1-0.1-1.4-0.1c-5.1,0-9.2,4.1-9.2,9.2v3.7c0.6-0.6,1.5-0.9,2.3-0.8
	v-0.5c0-0.3,0.2-0.6,0.5-0.6L15.4,27.4L15.4,27.4z"/>
<path class="st2" d="M28.5,30v5c0,0.1,0,0.1,0,0.2c1.8,0.3,3.2-1,3.2-2.6C31.7,31.1,30.3,29.8,28.5,30z"/>
<path class="st3" d="M30.8,30.7c-0.6-0.5-1.4-0.8-2.4-0.7v5c0,0.1,0,0.1,0,0.2c0.9,0.1,1.8-0.2,2.4-0.7L30.8,30.7L30.8,30.7z"/>
<path class="st2" d="M14.8,35.1V30c-1.6-0.2-3.2,1-3.2,2.6c0,1.6,1.4,2.9,3.2,2.6C14.9,35.2,14.8,35.1,14.8,35.1z"/>
<path class="st3" d="M14.8,34.3c-0.4-0.5-0.6-1-0.6-1.7c0-0.6,0.2-1.1,0.6-1.6v-1c-1.6-0.2-3.2,1-3.2,2.6c0,1.6,1.4,2.9,3.2,2.6
	c0-0.1,0-0.1,0-0.2L14.8,34.3L14.8,34.3z"/>
<path class="st4" d="M21.8,41.5c-1.5,0-2.8-0.4-3.8-1.1v3.8l3.8,4.7l3.8-4.7v-3.9C24.5,41,23.2,41.5,21.8,41.5z"/>
<path class="st3" d="M20.8,41.4c-1.1-0.1-2-0.5-2.9-1v3.8l2.9,3.5V41.4z"/>
<path class="st5" d="M35.7,47.8l-10.1-3.9l-3.8,4.7l-3.8-4.7L7.8,47.8c0,0-3.7,1.5-3.7,5.8c0,3.9,0,13.6,0,16.8
	c0,0.7,0.6,1.2,1.2,1.2c0.5,0,32.4,0,32.9,0c0.7,0,1.2-0.6,1.2-1.2c0-3.1,0-12.9,0-16.8C39.5,49.3,35.7,47.8,35.7,47.8z"/>
<path class="st6" d="M6.9,70.4c0-3.1,0-14.3,0-18.2c0-2.5,1.3-4.1,2.4-5l-1.5,0.6c0,0-3.7,1.5-3.7,5.8c0,3.9,0,13.6,0,16.8
	c0,0.7,0.6,1.2,1.2,1.2c0.1,0,1.2,0,2.9,0C7.4,71.6,6.9,71,6.9,70.4z"/>
<path class="st4" d="M26.2,26.4c-0.2-0.2-0.5-0.3-0.8-0.1c-2.7,1.8-6.3,2.9-9.9,2.7c-0.4,0-0.7,0.3-0.7,0.6v5.5
	c0,3.5,2.8,6.7,6.9,6.7c3.7,0,6.7-3,6.7-6.7v-5.9C28.5,28.8,28.5,28.9,26.2,26.4z"/>
<path class="st3" d="M17.7,35.1V29C17,29,16.2,29,15.5,29c-0.4,0-0.7,0.3-0.7,0.6v5.5c0,3.5,2.8,6.7,6.9,6.7c0.5,0,0.9,0,1.3-0.1
	C20,41.1,17.7,38.3,17.7,35.1z"/>
<g>
	<path class="st6" d="M26.4,51l2.9-5.7l-3.7-1.4l-3.8,4.7l3.7,2.7C25.8,51.4,26.2,51.3,26.4,51z"/>
	<path class="st6" d="M17.1,51l-2.9-5.7l3.7-1.4l3.8,4.7L18,51.2C17.7,51.4,17.3,51.3,17.1,51z"/>
</g>
<path class="st16" d="M25.6,67l-2.5-14.6h-1.4h0h-1.4L17.9,67c0,0.2,0,0.4,0.1,0.5l0,0l0,0l3.4,3.7c0.2,0.2,0.5,0.2,0.7,0l3.4-3.7
	l0,0l0,0C25.6,67.3,25.7,67.1,25.6,67z"/>
<g>
	<path class="st17" d="M20.9,67.5c-0.1-0.1-0.2-0.3-0.1-0.5l2.5-14.6h-1.4h0h-1.4L17.9,67c0,0.2,0,0.4,0.1,0.5l3.4,3.7
		c0.2,0.2,0.5,0.2,0.7,0l1.1-1.2L20.9,67.5z"/>
	<polygon class="st17" points="21.7,48.6 21.7,48.6 21.7,48.6 21.7,48.6 21.7,48.6 19,50.5 20.3,52.4 21.7,52.4 21.7,52.4 
		23.2,52.4 24.5,50.5 	"/>
</g>
<path class="st17" d="M23.2,49.6l-1.4-1v0l0,0l0,0v0L19,50.5l1.3,1.9h1.4h0h1.4l-1.1-1.7c-0.1-0.2-0.1-0.4,0.1-0.5L23.2,49.6z"/>
<path d="M74.9,59.2c0.6,0,1.1-0.5,1.1-1.1v-4.6c0-4.9-4.2-6.7-4.4-6.8c0,0,0,0,0,0L62.1,43v-1.9c1.5-1.2,2.5-2.9,2.8-4.8
	c0.7-0.1,1.4-0.4,2-0.9c0.8-0.7,1.3-1.7,1.3-2.8c0-0.9-0.3-1.7-0.8-2.3v-2.9c0-5.6-4.6-10.2-10.2-10.2c-2.5,0-4.9,0.9-6.6,2.5
	c0-0.8-0.3-1.6-0.8-2.2v-2.9c0-5.6-4.6-10.2-10.2-10.2c-5.6,0-10.2,4.6-10.2,10.2v3c-0.5,0.6-0.8,1.4-0.8,2.1c-1.1-1-2.5-1.7-4-2.1
	c-0.6-0.2-1.2,0.2-1.3,0.8c-0.2,0.6,0.2,1.2,0.8,1.3c3.6,0.9,6,4.2,6,7.8V29c0,0-0.2,0-0.2,0c0-0.3-0.1-0.5-0.3-0.7
	c-0.3-0.4-0.8-0.9-2.3-2.6c-0.6-0.6-1.5-0.7-2.2-0.3c-2.7,1.8-6,2.7-9.1,2.5c-1-0.1-1.6,0.4-1.9,1.1c0,0-0.3,0.1-0.3,0.1v-1.6
	c0-3.5,2.4-6.7,5.8-7.8c0.6-0.2,0.9-0.8,0.7-1.3c-0.2-0.6-0.8-0.9-1.3-0.7c-2.1,0.6-3.9,1.9-5.2,3.6c-1.3,1.8-2.1,3.9-2.1,6.2v3
	c-0.5,0.6-0.8,1.4-0.8,2.3c0,1.8,1.3,3.4,3.3,3.7c0.3,1.9,1.3,3.7,3,5V43l-9.4,3.7c0,0,0,0,0,0C7.2,46.8,3,48.6,3,53.5v16.8
	c0,1.3,1,2.3,2.3,2.3h32.9c0.5,0,0.9-0.1,1.2-0.4c0.4,0.2,0.8,0.4,1.2,0.4h32.9c1.3,0,2.3-1,2.3-2.3v-7.1c0-0.6-0.5-1.1-1.1-1.1
	c-0.6,0-1.1,0.5-1.1,1.1v7.1c0,0.1-0.1,0.2-0.2,0.2h-4.1V54.8c0-0.6-0.5-1.1-1.1-1.1s-1.1,0.5-1.1,1.1v15.6h-7.9l2.1-2.3
	c0.3-0.4,0.5-0.9,0.4-1.4c0,0,0,0,0,0l-2.4-14.1l0.4-0.7l0.1,0.1c0.4,0.3,0.9,0.4,1.4,0.3c0.5-0.1,0.9-0.4,1.1-0.9v0l2.4-4.9
	l5.6,2.2c0.2,0.1,3.1,1.4,3.1,4.8v4.6C73.9,58.7,74.3,59.2,74.9,59.2z M53.3,50l-2.1-4.2L53,45l2.6,3.2C54.5,49.1,53.4,49.9,53.3,50
	z M27.8,45.8L25.7,50l-0.6-0.4c0,0,0,0,0,0l-1.8-1.3L26,45L27.8,45.8z M17.9,50l-2.1-4.2l1.8-0.7l2.6,3.2l-1.8,1.3c0,0,0,0,0,0
	L17.9,50z M30.6,32.5c0,0.7-0.4,1.3-1,1.5v-2.9C30.2,31.3,30.6,31.9,30.6,32.5z M43.4,14.5c1,1,1.5,1.6,1.8,1.9c0,2.7,0,3.7,0,5.7
	c0,3.1-2.6,5.7-5.7,5.7c-3.5,0-5.9-2.7-5.9-5.7v-5C37,17.2,40.5,16.2,43.4,14.5z M48.3,19.7c0,0.5-0.2,0.9-0.5,1.2
	c-0.1,0.1-0.3,0.2-0.5,0.3v-2.9C48,18.5,48.3,19,48.3,19.7z M52.3,41.2V43l-9.1,3.5l-1.2-6.8l0.4-0.7l0.1,0.1
	c0.4,0.3,0.9,0.4,1.4,0.3c0.5-0.1,0.9-0.4,1.1-0.9v0l1.8-3.6c0.6,0.8,1.5,1.2,2.4,1.3C49.7,38.3,50.8,40,52.3,41.2z M39.5,49.6
	c-0.4-0.7-1-1.4-1.7-1.9l1.2-7.1H40l1.2,7.1C40.5,48.3,39.9,48.9,39.5,49.6z M26.7,41.1c1.5-1.2,2.5-2.9,2.8-4.8
	c1-0.1,1.9-0.7,2.5-1.5l1.9,3.7c0,0,0,0,0,0c0.2,0.4,0.6,0.8,1.1,0.9c0.5,0.1,1,0,1.4-0.3l0.1-0.1l0.4,0.7l-1.2,6.8L26.7,43
	L26.7,41.1L26.7,41.1z M39.5,29.9C39.5,29.9,39.5,29.9,39.5,29.9L39.5,29.9L39.5,29.9c0.9,0,1.9-0.2,2.7-0.5v1.1l-2.8,3.4l-2.8-3.4
	v-1C37.6,29.8,38.6,29.9,39.5,29.9z M49.2,34c-0.6-0.2-1-0.8-1-1.5c0-0.6,0.5-1.1,1-1.4V34z M43.4,37.1l-0.6-0.4c0,0,0,0,0,0
	L41,35.4l0.9-1.1l1.7-2.1l1.8,0.7L43.4,37.1z M40.4,38.4h-1.7l-0.4-0.6l1.3-0.9l1.3,0.9L40.4,38.4z M35.6,37.1l-2.1-4.2l1.8-0.7
	l2.6,3.2l-1.8,1.3c0,0,0,0,0,0L35.6,37.1z M46.9,27.4v3c-0.2,0.2-0.3,0.4-0.4,0.6l-2.1-0.8v-1.9c1.5-1.2,2.5-2.9,2.8-4.8
	c0.2,0,0.4-0.1,0.5-0.1C47.2,24.5,46.9,25.9,46.9,27.4z M31.5,18.3v2.8c-0.6-0.2-1-0.8-1-1.5C30.5,19.1,30.9,18.5,31.5,18.3z
	 M31.6,23.3c0.3,1.9,1.3,3.7,3,5v1.8L32.4,31c-0.1-0.3-0.3-0.5-0.5-0.7v-2.9c0-1.5-0.3-2.8-0.9-4.1C31.3,23.3,31.4,23.3,31.6,23.3z
	 M21.3,53.4h1.1l2.3,13.4l-2.8,3.1L19,66.9L21.3,53.4z M22.6,51.3h-1.7l-0.4-0.6l1.3-0.9l1.3,0.9L22.6,51.3z M60,42.3v1.1l-2.8,3.4
	l-2.8-3.4v-1c0.9,0.3,1.9,0.5,2.8,0.5c0,0,0,0,0,0l0,0h0C58.2,42.8,59.1,42.6,60,42.3z M57.2,40.7c-3.6,0-5.9-2.8-5.9-5.7v-5
	c3.4,0.1,6.9-0.9,9.8-2.7c1,1,1.5,1.6,1.8,1.9c0,2.7,0,3.7,0,5.7C62.9,38.1,60.4,40.7,57.2,40.7z M65,34v-2.9c0.6,0.2,1,0.8,1,1.5
	C66.1,33.2,65.7,33.8,65,34z M57.1,19.3c4.5,0,8.1,3.6,8.1,8.1V29c0,0-0.2,0-0.2,0c0-0.3-0.1-0.5-0.3-0.7c-0.3-0.4-0.8-0.9-2.3-2.6
	c-0.6-0.6-1.5-0.7-2.2-0.3c-2.6,1.7-6,2.7-9.1,2.5c-0.9-0.1-1.5,0.4-1.8,1.1c0,0-0.3,0.1-0.3,0.1v-1.6C49,22.9,52.7,19.3,57.1,19.3z
	 M31.3,14.5c0-4.5,3.6-8.1,8.1-8.1s8.1,3.6,8.1,8.1v1.6c0,0-0.2,0-0.2,0c0-0.3-0.1-0.5-0.3-0.8c-0.3-0.4-0.8-0.9-2.3-2.5
	c-0.6-0.6-1.5-0.7-2.2-0.3c-2.8,1.8-6.2,2.7-9.2,2.5c-0.7-0.1-1.5,0.4-1.7,1.1c0,0-0.3,0.1-0.3,0.1L31.3,14.5L31.3,14.5z M12.8,32.6
	c0-0.6,0.5-1.1,1-1.4V34C13.2,33.8,12.8,33.2,12.8,32.6z M15.9,35v-5c3.4,0.1,6.9-0.9,9.8-2.7c1,1,1.5,1.6,1.8,1.9
	c0,2.7,0,3.7,0,5.7c0,3.1-2.5,5.7-5.7,5.7C18.3,40.7,15.9,38,15.9,35z M21.8,42.8C21.8,42.8,21.8,42.8,21.8,42.8L21.8,42.8
	L21.8,42.8c1,0,1.9-0.2,2.7-0.5v1.1l-2.8,3.4L19,43.4v-1C19.9,42.7,20.9,42.8,21.8,42.8z M5.1,70.3V53.5c0-3.4,2.9-4.7,3.1-4.8
	l5.5-2.2l2.4,4.9c0,0,0,0,0,0c0.2,0.4,0.6,0.8,1.1,0.9c0.5,0.1,1,0,1.4-0.3l0.1-0.1l0.4,0.7l-2.4,14.1c0,0,0,0,0,0
	c-0.1,0.5,0.1,1,0.4,1.4l2.1,2.3h-7.8V54.8c0-0.6-0.5-1.1-1.1-1.1c-0.6,0-1.1,0.5-1.1,1.1v15.6H5.3C5.2,70.5,5.1,70.4,5.1,70.3z
	 M38.3,70.5h-4.1V54.8c0-0.6-0.5-1.1-1.1-1.1c-0.6,0-1.1,0.5-1.1,1.1v15.6h-7.9l2.1-2.3c0.3-0.4,0.5-0.9,0.4-1.4c0,0,0,0,0,0
	l-2.4-14.1l0.4-0.7l0.1,0.1c0.3,0.2,0.6,0.3,1,0.3c0.6,0,1.2-0.4,1.5-0.9v0l2.4-4.9l5.6,2.2c1.6,0.7,3.1,2.5,3.1,4.8v16.8
	C38.4,70.4,38.3,70.5,38.3,70.5z M47,70.5V54.8c0-0.6-0.5-1.1-1.1-1.1s-1.1,0.5-1.1,1.1v15.6h-4.1c-0.1,0-0.2-0.1-0.2-0.2V53.5
	c0-1.3,0.4-2.4,1.2-3.4c0.6-0.6,1.3-1.2,1.8-1.4l1.5-0.6l4.1-1.6l2.4,4.9c0,0,0,0,0,0c0.2,0.4,0.6,0.8,1.1,0.9c0.5,0.1,1,0,1.4-0.3
	l0.1-0.1l0.4,0.7l-2.4,14.1c0,0,0,0,0,0c-0.1,0.5,0.1,1,0.4,1.4l2.1,2.3H47L47,70.5L47,70.5z M57.2,69.9l-2.8-3.1l2.3-13.4h1.1
	L60,66.9L57.2,69.9z M58.1,51.3h-1.7L56,50.7l1.3-0.9l1.3,0.9L58.1,51.3z M61.1,50c0,0-2.3-1.7-2.4-1.7c1-1.2,0.5-0.7,2.6-3.2
	l1.8,0.7L61.1,50z"/>
<polyline points="73.9,58.1 73.9,63.4 76,63.4 76,58.1 "/>
<path d="M16,19c0.5-0.4,3.2-2.4,7-2c3.4,0.4,5.5,2.4,6,3"/>
</svg>
