<?xml version="1.0" encoding="utf-8"?>
<!-- Generator: Adobe Illustrator 22.0.0, SVG Export Plug-In . SVG Version: 6.00 Build 0)  -->
<svg version="1.1" id="Layer_1" xmlns="http://www.w3.org/2000/svg" xmlns:xlink="http://www.w3.org/1999/xlink" x="0px" y="0px"
	 viewBox="0 0 80 80" style="enable-background:new 0 0 80 80;" xml:space="preserve">
<style type="text/css">
	.st0{fill:#009688;}
	.st1{fill:#00695C;}
	.st2{fill:#50D5FF;stroke:#000000;stroke-miterlimit:10;}
	.st3{fill:#1FACFF;}
	.st4{fill:#FF9801;}
	.st5{fill:#F57C00;}
	.st6{fill:#F6E800;}
	.st7{fill:#FEC108;}
	.st8{fill:#FFDC00;}
	.st9{fill:#FFEB3A;}
	.st10{fill:#FDD834;}
</style>
<path id="Shape" class="st0" d="M23.7,22.5V9.7c0-1.9,1.6-3.5,3.5-3.5h43.2c1.9,0,3.5,1.6,3.5,3.5v60.7c0,1.9-1.6,3.5-3.5,3.5H27.2
	c-1.9,0-3.5-1.6-3.5-3.5V22.5z"/>
<path id="Shape_1_" class="st1" d="M70.3,6.2h-3.5c1.9,0,3.5,1.6,3.5,3.5v60.7c0,1.9-1.6,3.5-3.5,3.5h3.5c1.9,0,3.5-1.6,3.5-3.5V9.7
	C73.8,7.7,72.3,6.2,70.3,6.2z"/>
<path id="Shape_2_" class="st2" d="M45.8,10.8H68c0.6,0,1.2,0.5,1.2,1.2v9.3c0,0.6-0.5,1.2-1.2,1.2H29.5c-0.6,0-1.2-0.5-1.2-1.2V12
	c0-0.6,0.5-1.2,1.2-1.2H45.8z"/>
<path id="Shape_3_" class="st3" d="M68,10.8h-3.5c0.6,0,1.2,0.5,1.2,1.2v9.3c0,0.6-0.5,1.2-1.2,1.2H68c0.6,0,1.2-0.5,1.2-1.2V12
	C69.2,11.4,68.6,10.8,68,10.8z"/>
<path id="Shape_4_" class="st4" d="M47,69.2h-1.2c-1.3,0-2.3-1-2.3-2.3V61c0-1.3,1-2.3,2.3-2.3h21c1.3,0,2.3,1,2.3,2.3v5.8
	c0,1.3-1,2.3-2.3,2.3H47z"/>
<path id="Shape_5_" class="st5" d="M66.8,58.7h-3.5c1.3,0,2.3,1,2.3,2.3v5.8c0,1.3-1,2.3-2.3,2.3h3.5c1.3,0,2.3-1,2.3-2.3V61
	C69.2,59.7,68.1,58.7,66.8,58.7z"/>
<path id="Rectangle-path" class="st4" d="M61,43.5h5.8c1.3,0,2.3,1,2.3,2.3v5.8c0,1.3-1,2.3-2.3,2.3H61c-1.3,0-2.3-1-2.3-2.3v-5.8
	C58.7,44.5,59.7,43.5,61,43.5z"/>
<path id="Shape_6_" class="st5" d="M66.8,43.5h-3.5c1.3,0,2.3,1,2.3,2.3v5.8c0,1.3-1,2.3-2.3,2.3h3.5c1.3,0,2.3-1,2.3-2.3v-5.8
	C69.2,44.5,68.1,43.5,66.8,43.5z"/>
<path id="Rectangle-path_1_" class="st4" d="M45.8,43.5h5.8c1.3,0,2.3,1,2.3,2.3v5.8c0,1.3-1,2.3-2.3,2.3h-5.8c-1.3,0-2.3-1-2.3-2.3
	v-5.8C43.5,44.5,44.5,43.5,45.8,43.5z"/>
<path id="Shape_7_" class="st5" d="M51.7,43.5h-3.5c1.3,0,2.3,1,2.3,2.3v5.8c0,1.3-1,2.3-2.3,2.3h3.5c1.3,0,2.3-1,2.3-2.3v-5.8
	C54,44.5,53,43.5,51.7,43.5z"/>
<path id="Rectangle-path_2_" class="st4" d="M61,28.3h5.8c1.3,0,2.3,1,2.3,2.3v5.8c0,1.3-1,2.3-2.3,2.3H61c-1.3,0-2.3-1-2.3-2.3
	v-5.8C58.7,29.4,59.7,28.3,61,28.3z"/>
<path id="Shape_8_" class="st5" d="M66.8,28.3h-3.5c1.3,0,2.3,1,2.3,2.3v5.8c0,1.3-1,2.3-2.3,2.3h3.5c1.3,0,2.3-1,2.3-2.3v-5.8
	C69.2,29.4,68.1,28.3,66.8,28.3z"/>
<path id="Rectangle-path_3_" class="st4" d="M45.8,28.3h5.8c1.3,0,2.3,1,2.3,2.3v5.8c0,1.3-1,2.3-2.3,2.3h-5.8c-1.3,0-2.3-1-2.3-2.3
	v-5.8C43.5,29.4,44.5,28.3,45.8,28.3z"/>
<path id="Shape_9_" class="st5" d="M51.7,28.3h-3.5c1.3,0,2.3,1,2.3,2.3v5.8c0,1.3-1,2.3-2.3,2.3h3.5c1.3,0,2.3-1,2.3-2.3v-5.8
	C54,29.4,53,28.3,51.7,28.3z"/>
<path id="Shape_10_" class="st6" d="M37.7,62.8v7c0,2.3-7,4.1-15.8,4.1S6.2,72,6.2,69.8v-7c0,2.3,7,4.1,15.8,4.1S37.7,65,37.7,62.8z
	"/>
<path id="Shape_11_" class="st7" d="M37.7,55.8v7c0,2.3-7,4.1-15.8,4.1S6.2,65,6.2,62.8v-7c0,2.3,7,4.1,15.8,4.1S37.7,58,37.7,55.8z
	"/>
<path id="Shape_12_" class="st8" d="M37.7,48.8v7c0,2.3-7,4.1-15.8,4.1S6.2,58,6.2,55.8v-7c0,2.3,7,4.1,15.8,4.1S37.7,51,37.7,48.8z
	"/>
<path id="Shape_13_" class="st7" d="M37.7,41.8v7c0,2.3-7,4.1-15.8,4.1S6.2,51,6.2,48.8v-7c0,2.3,7,4.1,15.8,4.1S37.7,44,37.7,41.8z
	"/>
<path id="Shape_14_" class="st8" d="M37.7,34.8v7c0,2.3-7,4.1-15.8,4.1S6.2,44,6.2,41.8v-7c0,2.3,7,4.1,15.8,4.1S37.7,37,37.7,34.8z
	"/>
<ellipse id="Oval" class="st9" cx="21.9" cy="34.8" rx="15.8" ry="4.1"/>
<path id="Shape_15_" class="st10" d="M21.9,30.7c-0.6,0-1.2,0-1.8,0c7.9,0.2,14,2,14,4.1s-6.1,3.8-14,4.1c0.6,0,1.2,0,1.8,0
	c8.7,0,15.8-1.8,15.8-4.1S30.6,30.7,21.9,30.7z"/>
<path id="Shape_18_" d="M70.3,5H27.2c-2.6,0-4.7,2.1-4.7,4.7V26c0,0.6,0.5,1.2,1.2,1.2c0.6,0,1.2-0.5,1.2-1.2V9.7
	c0-1.3,1-2.3,2.3-2.3h43.2c1.3,0,2.3,1,2.3,2.3v60.7c0,1.3-1,2.3-2.3,2.3H40c-0.6,0-1.2,0.5-1.2,1.2c0,0.6,0.5,1.2,1.2,1.2h30.3
	c2.6,0,4.7-2.1,4.7-4.7V9.7C75,7.1,72.9,5,70.3,5z"/>
<path id="Shape_19_" d="M70.3,12c0-1.3-1-2.3-2.3-2.3H29.5c-1.3,0-2.3,1-2.3,2.3v9.3c0,1.3,1,2.3,2.3,2.3H68c1.3,0,2.3-1,2.3-2.3V12
	z M29.5,21.3V12H68v9.3H29.5z"/>
<path id="Shape_20_" d="M42.3,66.8c0,1.9,1.6,3.5,3.5,3.5h21c1.9,0,3.5-1.6,3.5-3.5V61c0-1.9-1.6-3.5-3.5-3.5h-21
	c-1.9,0-3.5,1.6-3.5,3.5V66.8z M44.7,61c0-0.6,0.5-1.2,1.2-1.2h21c0.6,0,1.2,0.5,1.2,1.2v5.8c0,0.6-0.5,1.2-1.2,1.2h-21
	c-0.6,0-1.2-0.5-1.2-1.2V61z"/>
<path id="Shape_21_" d="M70.3,45.8c0-1.9-1.6-3.5-3.5-3.5H61c-1.9,0-3.5,1.6-3.5,3.5v5.8c0,1.9,1.6,3.5,3.5,3.5h5.8
	c1.9,0,3.5-1.6,3.5-3.5V45.8z M68,51.7c0,0.6-0.5,1.2-1.2,1.2H61c-0.6,0-1.2-0.5-1.2-1.2v-5.8c0-0.6,0.5-1.2,1.2-1.2h5.8
	c0.6,0,1.2,0.5,1.2,1.2V51.7z"/>
<path id="Shape_22_" d="M70.3,30.7c0-1.9-1.6-3.5-3.5-3.5H61c-1.9,0-3.5,1.6-3.5,3.5v5.8c0,1.9,1.6,3.5,3.5,3.5h5.8
	c1.9,0,3.5-1.6,3.5-3.5V30.7z M68,36.5c0,0.6-0.5,1.2-1.2,1.2H61c-0.6,0-1.2-0.5-1.2-1.2v-5.8c0-0.6,0.5-1.2,1.2-1.2h5.8
	c0.6,0,1.2,0.5,1.2,1.2V36.5z"/>
<path id="Shape_23_" d="M45.8,40h5.8c1.9,0,3.5-1.6,3.5-3.5v-5.8c0-1.9-1.6-3.5-3.5-3.5h-5.8c-1.9,0-3.5,1.6-3.5,3.5v5.8
	C42.3,38.4,43.9,40,45.8,40z M44.7,30.7c0-0.6,0.5-1.2,1.2-1.2h5.8c0.6,0,1.2,0.5,1.2,1.2v5.8c0,0.6-0.5,1.2-1.2,1.2h-5.8
	c-0.6,0-1.2-0.5-1.2-1.2V30.7z"/>
<path id="Shape_24_" d="M42.3,51.7c0,1.9,1.6,3.5,3.5,3.5h5.8c1.9,0,3.5-1.6,3.5-3.5v-5.8c0-1.9-1.6-3.5-3.5-3.5h-5.8
	c-1.9,0-3.5,1.6-3.5,3.5V51.7z M44.7,45.8c0-0.6,0.5-1.2,1.2-1.2h5.8c0.6,0,1.2,0.5,1.2,1.2v5.8c0,0.6-0.5,1.2-1.2,1.2h-5.8
	c-0.6,0-1.2-0.5-1.2-1.2V45.8z"/>
<path id="Shape_25_" d="M22.9,75c6.3,0,16.9-1.1,16.9-5.3v-35c0-4.1-10.6-5.3-16.9-5.3S6,30.6,6,34.8v35C6,73.9,16.6,75,22.9,75z
	 M22.9,31.8c8.9,0,14.3,1.9,14.6,2.9c-0.3,1-5.6,2.9-14.6,2.9c-1,0-1.9,0-2.9-0.1c-0.6,0-1.2,0.5-1.2,1.1c0,0.6,0.5,1.2,1.1,1.2
	c1,0,2,0.1,3,0.1c4.5,0,11.1-0.6,14.6-2.4v4.1c-0.1,0.2-1.1,1.2-4.9,2c-0.6,0.1-1,0.7-0.9,1.3c0.1,0.6,0.6,1,1.2,1
	c0.1,0,0.2,0,0.2,0c1.5-0.3,3-0.8,4.4-1.4v4.1c-0.3,1-5.6,2.9-14.6,2.9c-1,0-1.9,0-2.9-0.1c-0.6,0-1.2,0.5-1.2,1.1
	c0,0.6,0.5,1.2,1.1,1.2c1,0,2,0.1,3,0.1c4.5,0,11.1-0.6,14.6-2.4v4.1c-0.1,0.2-1.1,1.2-4.9,2c-0.6,0.1-1,0.7-0.9,1.3s0.6,1,1.2,1
	c0.1,0,0.2,0,0.2,0c1.5-0.3,3-0.8,4.4-1.4v4.1c-0.3,1-5.6,2.9-14.6,2.9c-1,0-1.9,0-2.9-0.1c-0.6,0-1.2,0.5-1.2,1.1s0.5,1.2,1.1,1.2
	c1,0,2,0.1,3,0.1c4.5,0,11.1-0.6,14.6-2.4v4.1c-0.3,1-5.6,2.9-14.6,2.9S8.6,70.7,8.3,69.8v-4.1c1.8,0.8,3.7,1.4,5.6,1.7
	c0.1,0,0.1,0,0.2,0c0.6,0,1.1-0.5,1.2-1.1c0.1-0.6-0.4-1.1-1-1.2c-4.7-0.8-5.9-2-6-2.3v-4.1c3.5,1.8,10.1,2.4,14.6,2.4
	c1.4,0,2.8,0,4.2-0.1c0.4,0,0.8-0.3,1-0.6c0.2-0.4,0.2-0.8-0.1-1.2c-0.2-0.3-0.7-0.5-1.1-0.5c-1.3,0.1-2.6,0.1-4,0.1
	c-8.9,0-14.3-1.9-14.6-2.9v-4.1c1.8,0.8,3.7,1.4,5.6,1.7c0.1,0,0.1,0,0.2,0c0.6,0,1.1-0.5,1.2-1.1c0.1-0.6-0.4-1.1-1-1.2
	c-4.7-0.8-5.9-2-6-2.3v-4.1c3.5,1.8,10.1,2.4,14.6,2.4c1.4,0,2.8,0,4.2-0.1c0.4,0,0.8-0.3,1-0.6c0.2-0.4,0.2-0.8-0.1-1.2
	c-0.2-0.3-0.7-0.5-1.1-0.5c-1.3,0.1-2.6,0.1-4,0.1c-8.9,0-14.3-1.9-14.6-2.9v-4.1c1.8,0.8,3.7,1.4,5.6,1.7c0.6,0.1,1.2-0.3,1.3-1
	c0.1-0.6-0.3-1.2-1-1.3c-4.7-0.8-5.9-2-6-2.2v0C8.6,33.8,14,31.8,22.9,31.8L22.9,31.8z"/>
</svg>
