<?xml version="1.0" encoding="utf-8"?>
<!-- Generator: Adobe Illustrator 22.0.0, SVG Export Plug-In . SVG Version: 6.00 Build 0)  -->
<svg version="1.1" id="Layer_1" xmlns="http://www.w3.org/2000/svg" xmlns:xlink="http://www.w3.org/1999/xlink" x="0px" y="0px"
	 viewBox="0 0 1280 1024" style="enable-background:new 0 0 1280 1024;" xml:space="preserve">
<style type="text/css">
	.st0{stroke:#000000;stroke-width:30;stroke-miterlimit:10;}
</style>
<g>
	<g>
		<path d="M1089.5,232.1c-0.2-6.3-0.4-12.6-2.2-17.2l41.9-12.3l-16.5-41.9l-41.9,12.3c-7.1-10.8-15.8-20-26.2-27.5l24.4-30.6
			l-43-23.8l-22.8,29c-12-4.3-25.6-8.6-40.9-9.7l-1.1-36.1l-52.4,1.6l1.1,36.1c-13.5,2-26.8,7.1-40.2,12.3L843.3,95l-41.5,26.4
			l26.3,29.1c-9.9,8.2-18,19.4-24.5,29.1l-42.6-9.7l-13.9,41.3l42.6,9.7c-1.5,6.3-1.3,11-1.2,17.3c0.2,6.3,0.4,12.6,2.2,17.2
			l-41.9,12.3l16.5,40.4l41.9-12.3c7.1,10.8,15.8,20,26.2,27.5L809.1,354l43,23.8l24.4-30.6c12,4.3,25.6,8.6,40.9,9.7l1.1,36.1
			l52.4-1.6l-1.1-36.1c13.5-2,26.8-7.1,40.2-12.3l26.3,29.1l41.5-26.4l-27.9-25.9c9.9-8.2,18-19.4,24.5-29.1l42.6,9.7l13.9-41.3
			l-42.6-9.7C1089.8,243.1,1089.6,236.8,1089.5,232.1z M942.6,296.4c-40.6,1.3-73.5-24.5-74.6-59c-1.1-34.6,30.2-62.3,70.8-63.5
			c40.6-1.3,73.5,24.5,74.6,59C1014.5,267.4,981.5,295.2,942.6,296.4z"/>
	</g>
	<g>
		<path class="st0" d="M1089.5,232.1c-0.2-6.3-0.4-12.6-2.2-17.2l41.9-12.3l-16.5-41.9l-41.9,12.3c-7.1-10.8-15.8-20-26.2-27.5
			l24.4-30.6l-43-23.8l-22.8,29c-12-4.3-25.6-8.6-40.9-9.7l-1.1-36.1l-52.4,1.6l1.1,36.1c-13.5,2-26.8,7.1-40.2,12.3L843.3,95
			l-41.5,26.4l26.3,29.1c-9.9,8.2-18,19.4-24.5,29.1l-42.6-9.7l-13.9,41.3l42.6,9.7c-1.5,6.3-1.3,11-1.2,17.3
			c0.2,6.3,0.4,12.6,2.2,17.2l-41.9,12.3l16.5,40.4l41.9-12.3c7.1,10.8,15.8,20,26.2,27.5L809.1,354l43,23.8l24.4-30.6
			c12,4.3,25.6,8.6,40.9,9.7l1.1,36.1l52.4-1.6l-1.1-36.1c13.5-2,26.8-7.1,40.2-12.3l26.3,29.1l41.5-26.4l-27.9-25.9
			c9.9-8.2,18-19.4,24.5-29.1l42.6,9.7l13.9-41.3l-42.6-9.7C1089.8,243.1,1089.6,236.8,1089.5,232.1z M942.6,296.4
			c-40.6,1.3-73.5-24.5-74.6-59c-1.1-34.6,30.2-62.3,70.8-63.5c40.6-1.3,73.5,24.5,74.6,59C1014.5,267.4,981.5,295.2,942.6,296.4z"
			/>
	</g>
</g>
<g>
	<g>
		<path d="M1003.8,680c0-12.1-2.2-22.1-2.2-34.2l81.4-22.1l-33-78.5l-79.2,22.1c-13.2-20.1-28.6-38.3-48.4-54.4l50.6-56.4
			l-81.4-48.3l-50.6,56.4c-24.2-10.1-50.6-16.1-77-20.1V372h-99v70.5c-26.4,4-52.8,10.1-77,20.1l-50.6-56.4l-81.4,48.3l50.6,56.4
			c-19.8,16.1-35.2,34.2-48.4,54.4l-79.2-22.1l-33,80.5l81.4,22.1c-2.2,10.1-2.2,22.1-2.2,34.2c0,12.1,2.2,22.1,2.2,34.2l-81.4,20.1
			l30.8,78.5l79.2-22.1c13.2,20.1,28.6,38.3,48.4,54.4l-48.4,58.4l81.4,48.3l50.6-56.4c24.2,10.1,50.6,16.1,77,20.1V986h99v-70.5
			c26.4-4,52.8-10.1,77-20.1l50.6,56.4l81.4-48.3l-50.6-56.4c19.8-16.1,35.2-34.2,48.4-54.4l79.2,22.1l30.8-78.5l-81.4-22.1
			C1001.6,702.1,1003.8,690.1,1003.8,680z M713.5,794.7c-77,0-140.8-52.3-140.8-116.8s61.6-116.8,140.8-116.8
			c77,0,140.8,52.3,140.8,116.8S790.5,794.7,713.5,794.7z"/>
	</g>
	<g>
		<path class="st0" d="M1003.8,680c0-12.1-2.2-22.1-2.2-34.2l81.4-22.1l-33-78.5l-79.2,22.1c-13.2-20.1-28.6-38.3-48.4-54.4
			l50.6-56.4l-81.4-48.3l-50.6,56.4c-24.2-10.1-50.6-16.1-77-20.1V372h-99v70.5c-26.4,4-52.8,10.1-77,20.1l-50.6-56.4l-81.4,48.3
			l50.6,56.4c-19.8,16.1-35.2,34.2-48.4,54.4l-79.2-22.1l-33,80.5l81.4,22.1c-2.2,10.1-2.2,22.1-2.2,34.2c0,12.1,2.2,22.1,2.2,34.2
			l-81.4,20.1l30.8,78.5l79.2-22.1c13.2,20.1,28.6,38.3,48.4,54.4l-48.4,58.4l81.4,48.3l50.6-56.4c24.2,10.1,50.6,16.1,77,20.1V986
			h99v-70.5c26.4-4,52.8-10.1,77-20.1l50.6,56.4l81.4-48.3l-50.6-56.4c19.8-16.1,35.2-34.2,48.4-54.4l79.2,22.1l30.8-78.5
			l-81.4-22.1C1001.6,702.1,1003.8,690.1,1003.8,680z M713.5,794.7c-77,0-140.8-52.3-140.8-116.8s61.6-116.8,140.8-116.8
			c77,0,140.8,52.3,140.8,116.8S790.5,794.7,713.5,794.7z"/>
	</g>
</g>
<g>
	<g>
		<path d="M570.2,207.4c0-8.1,0-16.1-2.2-22.1l55-14.1l-19.8-54.4l-55,14.1c-8.8-14.1-19.8-26.2-33-36.2l33-38.3l-55-32.2
			l-30.8,36.2c-15.4-6-33-12.1-52.8-14.1V0h-68.2v46.3c-17.6,2-35.2,8.1-52.8,14.1l-33-38.3l-55,32.2l33,38.3
			c-13.2,10.1-24.2,24.2-33,36.2l-55-14.1L126,167.1l55,14.1c-2.2,8.1-2.2,14.1-2.2,22.1c0,8.1,0,16.1,2.2,22.1l-55,14.1l19.8,52.3
			l55-14.1c8.8,14.1,19.8,26.2,33,36.2l-33,38.3l55,32.2l33-38.3c15.4,6,33,12.1,52.8,14.1v46.3h68.2v-46.3
			c17.6-2,35.2-8.1,52.8-14.1l33,38.3l55-32.2l-35.2-34.2c13.2-10.1,24.2-24.2,33-36.2l55,14.1l19.8-52.3l-55-14.1
			C570.2,221.5,570.2,213.4,570.2,207.4z M376.7,283.9c-52.8,0-94.6-34.2-94.6-78.5s41.8-78.5,94.6-78.5s94.6,34.2,94.6,78.5
			S427.3,283.9,376.7,283.9z"/>
	</g>
	<g>
		<path class="st0" d="M570.2,207.4c0-8.1,0-16.1-2.2-22.1l55-14.1l-19.8-54.4l-55,14.1c-8.8-14.1-19.8-26.2-33-36.2l33-38.3
			l-55-32.2l-30.8,36.2c-15.4-6-33-12.1-52.8-14.1V0h-68.2v46.3c-17.6,2-35.2,8.1-52.8,14.1l-33-38.3l-55,32.2l33,38.3
			c-13.2,10.1-24.2,24.2-33,36.2l-55-14.1L126,167.1l55,14.1c-2.2,8.1-2.2,14.1-2.2,22.1c0,8.1,0,16.1,2.2,22.1l-55,14.1l19.8,52.3
			l55-14.1c8.8,14.1,19.8,26.2,33,36.2l-33,38.3l55,32.2l33-38.3c15.4,6,33,12.1,52.8,14.1v46.3h68.2v-46.3
			c17.6-2,35.2-8.1,52.8-14.1l33,38.3l55-32.2l-35.2-34.2c13.2-10.1,24.2-24.2,33-36.2l55,14.1l19.8-52.3l-55-14.1
			C570.2,221.5,570.2,213.4,570.2,207.4z M376.7,283.9c-52.8,0-94.6-34.2-94.6-78.5s41.8-78.5,94.6-78.5s94.6,34.2,94.6,78.5
			S427.3,283.9,376.7,283.9z"/>
	</g>
</g>
</svg>
