<?xml version="1.0" encoding="utf-8"?>
<!-- Generator: Adobe Illustrator 22.0.0, SVG Export Plug-In . SVG Version: 6.00 Build 0)  -->
<svg version="1.1" id="Layer_1" xmlns="http://www.w3.org/2000/svg" xmlns:xlink="http://www.w3.org/1999/xlink" x="0px" y="0px"
	 viewBox="0 0 80 80" style="enable-background:new 0 0 80 80;" xml:space="preserve">
<style type="text/css">
	.st0{fill:#16A085;}
</style>
<path class="st0" d="M70.9,22.1l-6.8-3.4v56.7l9.5-47.7C74.1,25.5,73,23.1,70.9,22.1z"/>
<path class="st0" d="M60.2,75H11.9C9.2,75,7,72.8,7,70.1V14.4C7,10.9,9.9,8,13.4,8h44C61,8,64,10.9,64,14.6v56.6
	C64,73.3,62.3,75,60.2,75z"/>
<g>
	<path d="M71.4,15.8l-6.2-3.1c-0.4-3.1-3.1-5.5-6.3-5.5H29.1c-0.6-3-3.2-5.2-6.3-5.2h-5.2c-3.1,0-5.8,2.3-6.3,5.3
		C8.3,7.8,6,10.5,6,13.6v56.7c0,3.6,2.8,6.4,6.4,6.4h46.4c3.5,0,6.4-2.7,6.4-6.2l0,0l9.5-47.7C75.4,20,74,17.1,71.4,15.8z M17.7,4.6
		h5.2c1.7,0,3.1,1,3.6,2.6H14.1C14.6,5.6,16,4.6,17.7,4.6z M62.8,70.3c0,2.2-1.7,3.9-3.9,3.9H44.7v-3.9c0-0.8-0.5-1.3-1.3-1.3
		s-1.3,0.5-1.3,1.3v3.9h-2.6v-9c0-0.8-0.5-1.3-1.3-1.3S37,64.4,37,65.2v9h-2.6v-3.9c0-0.8-0.5-1.3-1.3-1.3s-1.3,0.5-1.3,1.3v3.9H19
		v-3.9c0-0.8-0.5-1.3-1.3-1.3s-1.3,0.5-1.3,1.3v3.9h-3.9c-2.2,0-3.9-1.7-3.9-3.9V13.6c0-2.2,1.7-3.9,3.9-3.9h14.2v24.5
		c0,2.2-1.7,3.9-3.9,3.9S19,36.4,19,34.2V13.6c0-0.8-0.5-1.3-1.3-1.3s-1.3,0.5-1.3,1.3v20.6c0,3.6,2.8,6.4,6.4,6.4s6.4-2.8,6.4-6.4
		V9.7h29.6c2.2,0,3.9,1.7,3.9,3.9L62.8,70.3L62.8,70.3z M72.3,22.4l-7,34.9V15.7l4.9,2.4C71.8,18.9,72.7,20.7,72.3,22.4z"/>
	<path d="M53.8,17.5H38.3c-0.8,0-1.3,0.5-1.3,1.3s0.5,1.3,1.3,1.3h15.5c0.8,0,1.3-0.5,1.3-1.3C55,18,54.5,17.5,53.8,17.5z"/>
	<path d="M53.8,27.8H38.3c-0.8,0-1.3,0.5-1.3,1.3s0.5,1.3,1.3,1.3h15.5c0.8,0,1.3-0.5,1.3-1.3S54.5,27.8,53.8,27.8z"/>
	<path d="M38.3,40.7h5.2c0.8,0,1.3-0.5,1.3-1.3s-0.5-1.3-1.3-1.3h-5.2c-0.8,0-1.3,0.5-1.3,1.3S37.5,40.7,38.3,40.7z"/>
	<path d="M53.8,38.1h-5.2c-0.8,0-1.3,0.5-1.3,1.3s0.5,1.3,1.3,1.3h5.2c0.8,0,1.3-0.5,1.3-1.3S54.5,38.1,53.8,38.1z"/>
	<path d="M33.1,53.6H17.7c-0.8,0-1.3,0.5-1.3,1.3s0.5,1.3,1.3,1.3h15.5c0.8,0,1.3-0.5,1.3-1.3S33.9,53.6,33.1,53.6z"/>
	<path d="M53.8,53.6H38.3c-0.8,0-1.3,0.5-1.3,1.3s0.5,1.3,1.3,1.3h15.5c0.8,0,1.3-0.5,1.3-1.3S54.5,53.6,53.8,53.6z"/>
	<path d="M53.8,32.9H38.3c-0.8,0-1.3,0.5-1.3,1.3s0.5,1.3,1.3,1.3h15.5c0.8,0,1.3-0.5,1.3-1.3S54.5,32.9,53.8,32.9z"/>
	<path d="M44.7,49.7c0-0.8-0.5-1.3-1.3-1.3H17.7c-0.8,0-1.3,0.5-1.3,1.3s0.5,1.3,1.3,1.3h25.8C44.2,51,44.7,50.5,44.7,49.7z"/>
	<path d="M53.8,48.4h-5.2c-0.8,0-1.3,0.5-1.3,1.3s0.5,1.3,1.3,1.3h5.2c0.8,0,1.3-0.5,1.3-1.3C55,48.9,54.5,48.4,53.8,48.4z"/>
	<path d="M38.3,25.2h5.2c0.8,0,1.3-0.5,1.3-1.3s-0.5-1.3-1.3-1.3h-5.2c-0.8,0-1.3,0.5-1.3,1.3S37.5,25.2,38.3,25.2z"/>
	<path d="M53.8,22.6h-5.2c-0.8,0-1.3,0.5-1.3,1.3s0.5,1.3,1.3,1.3h5.2c0.8,0,1.3-0.5,1.3-1.3S54.5,22.6,53.8,22.6z"/>
	<path d="M53.8,43.2H38.3c-0.8,0-1.3,0.5-1.3,1.3s0.5,1.3,1.3,1.3h15.5c0.8,0,1.3-0.5,1.3-1.3C55,43.8,54.5,43.2,53.8,43.2z"/>
</g>
</svg>
