<svg id="filled_outline" height="512" viewBox="0 0 512 512" width="512" xmlns="http://www.w3.org/2000/svg" data-name="filled outline"><path d="m48 24h416a24 24 0 0 1 24 24v424a16 16 0 0 1 -16 16h-432a16 16 0 0 1 -16-16v-424a24 24 0 0 1 24-24z" fill="#e0edff"/><path d="m280 288h160v160h-160z" fill="#548aff"/><path d="m336 384h72v-48h-24l-16-16h-32z" fill="#f5714f"/><path d="m72 288h160v160h-160z" fill="#548aff"/><path d="m136 424v-16l-12.284 10.912-22.628-22.628 10.912-12.284h-16v-32h16l-10.912-12.284 22.628-22.628 12.284 10.912v-16h32v16l12.284-10.912 22.628 22.628-10.912 12.284h16v32h-16l10.912 12.284-22.628 22.628-12.284-10.912v16z" fill="#d1e4ff"/><path d="m72 88h160v160h-160z" fill="#548aff"/><path d="m280 88h160v160h-160z" fill="#548aff"/><path d="m304 168h32v8a16 16 0 0 1 -16 16 16 16 0 0 1 -16-16z" fill="#ffc431"/><path d="m384 168h32v8a16 16 0 0 1 -16 16 16 16 0 0 1 -16-16z" fill="#ffc431"/><path d="m344 352h-32v64h72v-48h-24z" fill="#ff9178"/><circle cx="152" cy="168" fill="#ffa100" r="48"/><path d="m464 16h-416a32.03667 32.03667 0 0 0 -32 32v424a24.0275 24.0275 0 0 0 24 24h432a24.0275 24.0275 0 0 0 24-24v-424a32.03667 32.03667 0 0 0 -32-32zm16 456a8.00917 8.00917 0 0 1 -8 8h-432a8.00917 8.00917 0 0 1 -8-8v-424a16.01833 16.01833 0 0 1 16-16h416a16.01833 16.01833 0 0 1 16 16z"/><circle cx="48" cy="48" r="8"/><circle cx="72" cy="48" r="8"/><circle cx="96" cy="48" r="8"/><path d="m232 80h-160a8.00039 8.00039 0 0 0 -8 8v160a8.00039 8.00039 0 0 0 8 8h160a8.00039 8.00039 0 0 0 8-8v-160a8.00039 8.00039 0 0 0 -8-8zm-8 160h-144v-144h144z"/><path d="m232 280h-160a8.00039 8.00039 0 0 0 -8 8v160a8.00039 8.00039 0 0 0 8 8h160a8.00039 8.00039 0 0 0 8-8v-160a8.00039 8.00039 0 0 0 -8-8zm-8 160h-144v-144h144z"/><path d="m440 80h-160a8.00039 8.00039 0 0 0 -8 8v160a8.00039 8.00039 0 0 0 8 8h160a8.00039 8.00039 0 0 0 8-8v-160a8.00039 8.00039 0 0 0 -8-8zm-8 160h-144v-144h144z"/><path d="m440 280h-160a8.00039 8.00039 0 0 0 -8 8v160a8.00039 8.00039 0 0 0 8 8h160a8.00039 8.00039 0 0 0 8-8v-160a8.00039 8.00039 0 0 0 -8-8zm-8 160h-144v-144h144z"/><path d="m152 224a56 56 0 1 0 -56-56 56.0629 56.0629 0 0 0 56 56zm-8-80.16064a15.75963 15.75963 0 0 1 -1.60059-1.03956l-11.59668-8.69775a39.751 39.751 0 0 1 13.19727-5.29712zm16-15.03443a39.751 39.751 0 0 1 13.19727 5.29712l-11.59668 8.69775a15.6894 15.6894 0 0 1 -1.60059 1.03956zm0 63.35571a15.75963 15.75963 0 0 1 1.60059 1.03956l11.59668 8.69775a39.751 39.751 0 0 1 -13.19727 5.29712zm-16 15.03443a39.751 39.751 0 0 1 -13.19727-5.29712l11.59668-8.69775a15.6894 15.6894 0 0 1 1.60059-1.03956zm48-39.19507a39.76636 39.76636 0 0 1 -7.08228 22.688l-13.71752-10.28859a31.69323 31.69323 0 0 0 -11.2002-5.3396v-14.11987a31.69659 31.69659 0 0 0 11.2002-5.33935l13.71752-10.28859a39.76636 39.76636 0 0 1 7.08228 22.688zm-72.91772-22.688 13.71752 10.28858a31.69247 31.69247 0 0 0 11.2002 5.33936v14.12012a31.70071 31.70071 0 0 0 -11.2002 5.33935l-13.71752 10.28859a39.88148 39.88148 0 0 1 0-45.376z"/><path d="m320 200a24.0275 24.0275 0 0 0 24-24v-8a8.00039 8.00039 0 0 0 -8-8h-8v-16h8a8.00235 8.00235 0 0 0 5.65723-2.34277l10.34277-10.34323v84.686h-24v16h64v-16h-24v-84.686l10.34277 10.34327a8.00235 8.00235 0 0 0 5.65723 2.34273h8v16h-8a8.00039 8.00039 0 0 0 -8 8v8a24 24 0 0 0 48 0v-8a8.00039 8.00039 0 0 0 -8-8h-8v-16h8v-16h-28.68652l-21.65625-21.65723a8.003 8.003 0 0 0 -11.31446 0l-21.65625 21.65723h-28.68652v16h8v16h-8a8.00039 8.00039 0 0 0 -8 8v8a24.0275 24.0275 0 0 0 24 24zm80-16a8.00917 8.00917 0 0 1 -8-8h16a8.00917 8.00917 0 0 1 -8 8zm-72-8a8 8 0 0 1 -16 0z"/><circle cx="152" cy="368" r="16"/><path d="m94.43066 391.8457a8.00341 8.00341 0 0 0 1 10.09571l22.62793 22.62793a8.00329 8.00329 0 0 0 10.09571 1 8.00165 8.00165 0 0 0 7.8457 6.43066h32a8.00165 8.00165 0 0 0 7.8457-6.43066 8.00476 8.00476 0 0 0 10.09571-1l22.62793-22.62793a8.00341 8.00341 0 0 0 1-10.09571 8.00165 8.00165 0 0 0 6.43066-7.8457v-32a8.00165 8.00165 0 0 0 -6.43066-7.8457 8.00341 8.00341 0 0 0 -1-10.09571l-22.62793-22.62793a8.00329 8.00329 0 0 0 -10.09571-1 8.00165 8.00165 0 0 0 -7.8457-6.43066h-32a8.00165 8.00165 0 0 0 -7.8457 6.43066 8.00341 8.00341 0 0 0 -10.09571 1l-22.62793 22.62793a8.00341 8.00341 0 0 0 -1 10.09571 8.00165 8.00165 0 0 0 -6.43066 7.8457v32a8.00165 8.00165 0 0 0 6.43066 7.8457zm9.56934-31.8457h8a7.99976 7.99976 0 0 0 5.98145-13.3125l-5.9043-6.64648 11.96385-11.96387 6.64648 5.9043a7.99976 7.99976 0 0 0 13.31252-5.98145v-8h16v8a7.99976 7.99976 0 0 0 13.3125 5.98145l6.64648-5.9043 11.96387 11.96385-5.9043 6.64648a7.99976 7.99976 0 0 0 5.98145 13.31252h8v16h-8a7.99976 7.99976 0 0 0 -5.98145 13.3125l5.9043 6.64648-11.96385 11.96387-6.64648-5.9043a7.99976 7.99976 0 0 0 -13.31252 5.98145v8h-16v-8a7.99976 7.99976 0 0 0 -13.3125-5.98145l-6.64648 5.9043-11.96387-11.96385 5.9043-6.64648a7.99976 7.99976 0 0 0 -5.98145-13.31252h-8z"/><path d="m312 424h72a8.00039 8.00039 0 0 0 8-8v-24h16a8.00039 8.00039 0 0 0 8-8v-48a8.00039 8.00039 0 0 0 -8-8h-20.68652l-13.65625-13.65723a8.00235 8.00235 0 0 0 -5.65723-2.34277h-32a8.00039 8.00039 0 0 0 -8 8v24h-16a8.00039 8.00039 0 0 0 -8 8v64a8.00039 8.00039 0 0 0 8 8zm32-96h20.68652l13.65625 13.65723a8.00235 8.00235 0 0 0 5.65723 2.34277h16v32h-8v-8a8.00039 8.00039 0 0 0 -8-8h-20.68652l-13.65625-13.65723a8.00235 8.00235 0 0 0 -5.65723-2.34277zm-24 32h20.68652l13.65625 13.65723a8.00235 8.00235 0 0 0 5.65723 2.34277h16v32h-56z"/></svg>