<?xml version="1.0" encoding="utf-8"?>
<!-- Generator: Adobe Illustrator 24.1.1, SVG Export Plug-In . SVG Version: 6.00 Build 0)  -->
<svg version="1.1" id="Capa_1" xmlns="http://www.w3.org/2000/svg" xmlns:xlink="http://www.w3.org/1999/xlink" x="0px" y="0px"
	 viewBox="0 0 80 80" style="enable-background:new 0 0 80 80;" xml:space="preserve">
<style type="text/css">
	.st0{fill:#00B5A0;stroke:#000000;stroke-width:3;stroke-miterlimit:10;}
	.st1{fill:#D9E021;}
	.st2{fill:#FFFFFF;}
</style>
<path class="st0" d="M57.07,66.84v8.11c0,1.68-1.34,3.05-2.98,3.05H9.92c-1.65,0-2.98-1.37-2.98-3.05V25.03
	c0-0.67,0.21-1.32,0.61-1.85L20.49,5.84c0.18-0.24,0.39-0.45,0.62-0.62l0.86-0.64C22.48,4.2,23.09,4,23.72,4h30.36
	c1.65,0,2.98,1.37,2.98,3.05v11.41"/>
<g>
	<g>
		<path d="M14.53,26.05c4.36,0,8.72,0,13.08,0c0.62,0,1.23,0,1.85,0c0.97,0,0.97-1.5,0-1.5c-4.36,0-8.72,0-13.08,0
			c-0.62,0-1.23,0-1.85,0C13.57,24.55,13.57,26.05,14.53,26.05L14.53,26.05z"/>
	</g>
</g>
<g>
	<g>
		<path d="M14.53,30.54c4.36,0,8.72,0,13.08,0c0.62,0,1.23,0,1.85,0c0.97,0,0.97-1.5,0-1.5c-4.36,0-8.72,0-13.08,0
			c-0.62,0-1.23,0-1.85,0C13.57,29.04,13.57,30.54,14.53,30.54L14.53,30.54z"/>
	</g>
</g>
<g>
	<g>
		<path d="M14.53,35.02c4.36,0,8.72,0,13.08,0c0.62,0,1.23,0,1.85,0c0.97,0,0.97-1.5,0-1.5c-4.36,0-8.72,0-13.08,0
			c-0.62,0-1.23,0-1.85,0C13.57,33.52,13.57,35.02,14.53,35.02L14.53,35.02z"/>
	</g>
</g>
<g>
	<g>
		<path d="M14.53,39.51c4.36,0,8.72,0,13.08,0c0.62,0,1.23,0,1.85,0c0.97,0,0.97-1.5,0-1.5c-4.36,0-8.72,0-13.08,0
			c-0.62,0-1.23,0-1.85,0C13.57,38.01,13.57,39.51,14.53,39.51L14.53,39.51z"/>
	</g>
</g>
<g>
	<g>
		<path d="M14.53,43.99c4.36,0,8.72,0,13.08,0c0.62,0,1.23,0,1.85,0c0.97,0,0.97-1.5,0-1.5c-4.36,0-8.72,0-13.08,0
			c-0.62,0-1.23,0-1.85,0C13.57,42.49,13.57,43.99,14.53,43.99L14.53,43.99z"/>
	</g>
</g>
<g>
	<path class="st1" d="M77,45.1v-7.15h-4.51c-0.44-2.07-1.27-4-2.4-5.71l2.83-2.92l-4.88-5.06l-2.99,3.1
		c-1.41-0.87-2.95-1.52-4.59-1.9V21.5h-6.9v3.96c-1.67,0.39-3.24,1.04-4.66,1.93l-2.66-3.07l-5.13,4.78l2.77,3.2
		c-1.1,1.69-1.92,3.59-2.36,5.65H37v7.15h4.51c0.44,2.06,1.26,3.98,2.37,5.66l-2.79,2.6l4.61,5.32l3.23-3.02
		c1.42,0.89,2.99,1.54,4.66,1.93v3.9h6.9v-3.93c1.66-0.39,3.2-1.03,4.61-1.92l2.94,3.03l4.88-5.05l-2.79-2.89
		c1.1-1.69,1.92-3.59,2.36-5.65H77z M56.99,49.02c-4,0-7.23-3.35-7.23-7.5c0-4.15,3.24-7.5,7.23-7.5s6.67,3.35,6.67,7.5
		C63.66,45.67,60.98,49.02,56.99,49.02z"/>
	<g>
		<path d="M77.75,45.1c0-2.38,0-4.77,0-7.15c0-0.41-0.34-0.75-0.75-0.75c-1.5,0-3.01,0-4.51,0c0.24,0.18,0.48,0.37,0.72,0.55
			c-0.48-2.11-1.3-4.07-2.48-5.89c-0.04,0.3-0.08,0.61-0.12,0.91c0.94-0.97,1.89-1.94,2.83-2.92c0.29-0.29,0.29-0.76,0-1.06
			c-1.63-1.69-3.26-3.38-4.88-5.06c-0.28-0.29-0.78-0.29-1.06,0c-1,1.03-2,2.07-2.99,3.1c0.3-0.04,0.61-0.08,0.91-0.12
			c-1.49-0.9-3.08-1.56-4.77-1.98c0.18,0.24,0.37,0.48,0.55,0.72c0-1.32,0-2.64,0-3.96c0-0.41-0.34-0.75-0.75-0.75
			c-2.3,0-4.6,0-6.9,0c-0.41,0-0.75,0.34-0.75,0.75c0,1.32,0,2.64,0,3.96c0.18-0.24,0.37-0.48,0.55-0.72
			c-1.72,0.42-3.33,1.09-4.84,2.01c0.3,0.04,0.61,0.08,0.91,0.12c-0.89-1.02-1.77-2.05-2.66-3.07c-0.27-0.31-0.78-0.26-1.06,0
			c-1.71,1.59-3.42,3.18-5.13,4.78c-0.31,0.29-0.26,0.76,0,1.06c0.92,1.07,1.85,2.14,2.77,3.2c-0.04-0.3-0.08-0.61-0.12-0.91
			c-1.15,1.8-1.96,3.75-2.43,5.83c0.24-0.18,0.48-0.37,0.72-0.55c-1.5,0-3.01,0-4.51,0c-0.41,0-0.75,0.34-0.75,0.75
			c0,2.38,0,4.77,0,7.15c0,0.41,0.34,0.75,0.75,0.75c1.5,0,3.01,0,4.51,0c-0.24-0.18-0.48-0.37-0.72-0.55
			c0.47,2.09,1.29,4.04,2.45,5.84c0.04-0.3,0.08-0.61,0.12-0.91c-0.93,0.87-1.86,1.74-2.79,2.6c-0.31,0.29-0.26,0.76,0,1.06
			c1.54,1.77,3.07,3.55,4.61,5.32c0.27,0.31,0.78,0.26,1.06,0c1.08-1.01,2.15-2.01,3.23-3.02c-0.3,0.04-0.61,0.08-0.91,0.12
			c1.51,0.92,3.12,1.58,4.84,2.01c-0.18-0.24-0.37-0.48-0.55-0.72c0,1.3,0,2.6,0,3.9c0,0.41,0.34,0.75,0.75,0.75c2.3,0,4.6,0,6.9,0
			c0.41,0,0.75-0.34,0.75-0.75c0-1.31,0-2.62,0-3.93c-0.18,0.24-0.37,0.48-0.55,0.72c1.7-0.42,3.29-1.08,4.79-1.99
			c-0.3-0.04-0.61-0.08-0.91-0.12c0.98,1.01,1.96,2.02,2.94,3.03c0.28,0.29,0.78,0.29,1.06,0c1.63-1.68,3.26-3.37,4.88-5.05
			c0.29-0.3,0.29-0.76,0-1.06c-0.93-0.96-1.86-1.93-2.79-2.89c0.04,0.3,0.08,0.61,0.12,0.91c1.15-1.8,1.96-3.75,2.43-5.83
			c-0.24,0.18-0.48,0.37-0.72,0.55c1.5,0,3.01,0,4.51,0c0.97,0,0.97-1.5,0-1.5c-1.5,0-3.01,0-4.51,0c-0.32,0-0.65,0.23-0.72,0.55
			c-0.45,1.96-1.2,3.77-2.28,5.47c-0.18,0.28-0.11,0.68,0.12,0.91c0.93,0.96,1.86,1.93,2.79,2.89c0-0.35,0-0.71,0-1.06
			c-1.63,1.68-3.26,3.37-4.88,5.05c0.35,0,0.71,0,1.06,0c-0.98-1.01-1.96-2.02-2.94-3.03C65.4,54.89,65,54.83,64.72,55
			c-1.39,0.85-2.85,1.45-4.43,1.84c-0.32,0.08-0.55,0.4-0.55,0.72c0,1.31,0,2.62,0,3.93c0.25-0.25,0.5-0.5,0.75-0.75
			c-2.3,0-4.6,0-6.9,0c0.25,0.25,0.5,0.5,0.75,0.75c0-1.3,0-2.6,0-3.9c0-0.32-0.23-0.64-0.55-0.72c-1.6-0.39-3.07-1-4.48-1.85
			c-0.29-0.18-0.67-0.11-0.91,0.12c-1.08,1.01-2.15,2.01-3.23,3.02c0.35,0,0.71,0,1.06,0c-1.54-1.77-3.07-3.55-4.61-5.32
			c0,0.35,0,0.71,0,1.06c0.93-0.87,1.86-1.74,2.79-2.6c0.23-0.22,0.29-0.64,0.12-0.91c-1.1-1.7-1.85-3.51-2.3-5.48
			c-0.07-0.32-0.4-0.55-0.72-0.55c-1.5,0-3.01,0-4.51,0c0.25,0.25,0.5,0.5,0.75,0.75c0-2.38,0-4.77,0-7.15
			c-0.25,0.25-0.5,0.5-0.75,0.75c1.5,0,3.01,0,4.51,0c0.32,0,0.65-0.23,0.72-0.55c0.45-1.96,1.2-3.77,2.28-5.47
			c0.19-0.3,0.1-0.66-0.12-0.91c-0.92-1.07-1.85-2.14-2.77-3.2c0,0.35,0,0.71,0,1.06c1.71-1.59,3.42-3.18,5.13-4.78
			c-0.35,0-0.71,0-1.06,0c0.89,1.02,1.77,2.05,2.66,3.07c0.21,0.25,0.64,0.28,0.91,0.12c1.41-0.85,2.88-1.46,4.48-1.86
			c0.32-0.08,0.55-0.4,0.55-0.72c0-1.32,0-2.64,0-3.96c-0.25,0.25-0.5,0.5-0.75,0.75c2.3,0,4.6,0,6.9,0
			c-0.25-0.25-0.5-0.5-0.75-0.75c0,1.32,0,2.64,0,3.96c0,0.32,0.23,0.64,0.55,0.72c1.57,0.39,3.03,0.99,4.41,1.83
			c0.28,0.17,0.68,0.12,0.91-0.12c1-1.03,2-2.07,2.99-3.1c-0.35,0-0.71,0-1.06,0c1.63,1.69,3.26,3.38,4.88,5.06
			c0-0.35,0-0.71,0-1.06c-0.94,0.97-1.89,1.94-2.83,2.92c-0.22,0.23-0.3,0.63-0.12,0.91c1.11,1.71,1.87,3.54,2.32,5.53
			c0.07,0.32,0.41,0.55,0.72,0.55c1.5,0,3.01,0,4.51,0c-0.25-0.25-0.5-0.5-0.75-0.75c0,2.38,0,4.77,0,7.15
			C76.25,46.06,77.75,46.06,77.75,45.1z"/>
		<path d="M56.99,48.27c-2.78-0.04-5.24-1.86-6.12-4.5c-0.87-2.63-0.13-5.59,1.95-7.43c2.01-1.78,5.15-2.14,7.39-0.58
			c2.2,1.52,2.99,4.48,2.61,7.02C62.37,45.81,60.14,48.23,56.99,48.27c-0.96,0.01-0.97,1.51,0,1.5c3.34-0.05,6.03-2.25,7.01-5.41
			c0.96-3.11,0.29-6.94-2.15-9.2c-2.44-2.26-6.21-2.45-9-0.69c-2.91,1.84-4.32,5.36-3.68,8.72c0.71,3.75,4.01,6.53,7.82,6.59
			C57.95,49.79,57.95,48.29,56.99,48.27z"/>
	</g>
</g>
<g>
	<circle class="st2" cx="5" cy="120" r="8"/>
	<g>
		<path d="M12.25,120c-0.04,3.02-1.91,5.79-4.78,6.82c-2.88,1.03-6.15,0.13-8.09-2.23c-1.92-2.33-2.15-5.72-0.61-8.31
			c1.54-2.57,4.61-3.98,7.56-3.41C9.76,113.53,12.2,116.54,12.25,120c0.01,0.96,1.51,0.97,1.5,0c-0.05-3.63-2.27-6.89-5.68-8.19
			c-3.44-1.31-7.49-0.22-9.81,2.62c-2.31,2.83-2.66,6.9-0.78,10.04c1.88,3.14,5.56,4.76,9.15,4.12c4.12-0.74,7.07-4.46,7.12-8.6
			C13.76,119.03,12.26,119.03,12.25,120z"/>
	</g>
</g>
</svg>
