<?xml version="1.0" encoding="utf-8"?>
<!-- Generator: Adobe Illustrator 24.1.1, SVG Export Plug-In . SVG Version: 6.00 Build 0)  -->
<svg version="1.1" id="Capa_1" xmlns="http://www.w3.org/2000/svg" xmlns:xlink="http://www.w3.org/1999/xlink" x="0px" y="0px"
	 viewBox="0 0 80 80" style="enable-background:new 0 0 80 80;" xml:space="preserve">
<style type="text/css">
	.st0{fill:#AFB5BA;stroke:#000000;stroke-width:2.5;stroke-miterlimit:10;}
	.st1{fill:#7F8488;}
	.st2{fill:#E5EAEC;stroke:#000000;stroke-width:2.5;stroke-miterlimit:10;}
	.st3{fill:#FED10E;stroke:#000000;stroke-width:2.5;stroke-miterlimit:10;}
	.st4{fill:#FBC413;stroke:#000000;stroke-width:2.5;stroke-miterlimit:10;}
	.st5{fill:#00ACD9;stroke:#000000;stroke-width:2.5;stroke-miterlimit:10;}
	.st6{fill:none;stroke:#000000;stroke-width:2.5;stroke-miterlimit:10;}
	.st7{fill:#FADEAF;}
	.st8{fill:#A68866;}
	.st9{fill:none;stroke:#000000;stroke-width:2;stroke-miterlimit:10;}
</style>
<polygon class="st0" points="10.12,56.05 10.12,67.95 2.4,62 "/>
<g>
	<ellipse class="st1" cx="45.25" cy="50.92" rx="11.62" ry="20.48"/>
	<g>
		<path d="M56.11,50.92c-0.02,3.81-0.58,7.63-1.94,11.21c-1.05,2.74-2.67,5.6-5.15,7.28c-5.25,3.54-10.05-1.37-12.17-6.01
			c-3.12-6.85-3.28-15.39-0.95-22.49c1.52-4.63,5.61-11.5,11.52-9.31c2.93,1.09,4.89,3.99,6.15,6.7
			C55.4,42.22,56.09,46.62,56.11,50.92c0.01,0.96,1.51,0.97,1.5,0c-0.04-6.85-1.79-16.08-8.16-19.99
			c-5.79-3.55-11.29,1.3-13.75,6.45c-3.55,7.44-3.77,16.92-1.01,24.64c1.85,5.18,6.47,11.85,12.9,9.75
			c3.33-1.09,5.66-4.13,7.14-7.16c2.06-4.24,2.86-9,2.89-13.69C57.62,49.96,56.12,49.96,56.11,50.92z"/>
	</g>
</g>
<g>
	<ellipse class="st1" cx="26.2" cy="50.5" rx="11.62" ry="20.48"/>
	<g>
		<path d="M37.07,50.5c-0.02,3.81-0.58,7.63-1.94,11.21c-1.05,2.74-2.67,5.6-5.15,7.28c-5.25,3.54-10.05-1.37-12.17-6.01
			c-3.12-6.85-3.28-15.39-0.95-22.49c1.52-4.63,5.61-11.5,11.52-9.31c2.93,1.09,4.89,3.99,6.15,6.7
			C36.36,41.8,37.05,46.2,37.07,50.5c0.01,0.96,1.51,0.97,1.5,0c-0.04-6.85-1.79-16.08-8.16-19.99c-5.79-3.55-11.29,1.3-13.75,6.45
			c-3.55,7.44-3.77,16.92-1.01,24.64c1.85,5.18,6.47,11.85,12.9,9.75c3.33-1.09,5.66-4.13,7.14-7.16c2.06-4.24,2.86-9,2.89-13.69
			C38.58,49.53,37.08,49.53,37.07,50.5z"/>
	</g>
</g>
<g>
	<ellipse class="st1" cx="64.77" cy="50.5" rx="11.62" ry="20.48"/>
	<g>
		<path d="M75.64,50.5c-0.02,3.81-0.58,7.63-1.94,11.21c-1.05,2.74-2.67,5.6-5.15,7.28c-5.25,3.54-10.05-1.37-12.17-6.01
			c-3.12-6.85-3.28-15.39-0.95-22.49c1.52-4.63,5.61-11.5,11.52-9.31c2.93,1.09,4.89,3.99,6.15,6.7
			C74.93,41.8,75.61,46.2,75.64,50.5c0.01,0.96,1.51,0.97,1.5,0c-0.04-6.85-1.79-16.08-8.16-19.99c-5.79-3.55-11.29,1.3-13.75,6.45
			c-3.55,7.44-3.77,16.92-1.01,24.64c1.85,5.18,6.47,11.85,12.9,9.75c3.33-1.09,5.66-4.13,7.14-7.16c2.06-4.24,2.86-9,2.89-13.69
			C77.14,49.53,75.64,49.53,75.64,50.5z"/>
	</g>
</g>
<polygon class="st2" points="15.68,53 15.68,71 14.08,71 10.12,67.95 10.12,56.05 14.08,53 "/>
<rect x="15.68" y="53" class="st3" width="51.07" height="9"/>
<rect x="15.68" y="62" class="st4" width="51.07" height="9"/>
<rect x="66.75" y="53" class="st5" width="10.84" height="18"/>
<line class="st6" x1="71.4" y1="71" x2="71.4" y2="59.43"/>
<g>
	<path class="st7" d="M72.19,18.85v8.89c0,4.1-3.33,7.43-7.43,7.43c-4.1,0-7.42-3.33-7.42-7.43v-7.83l7.47-5.49
		c0.35,2.7,2.66,4.78,5.45,4.78C70.94,19.2,71.59,19.08,72.19,18.85z"/>
	<g>
		<path d="M71.44,18.85c0,1.85,0,3.71,0,5.56c0,2.15,0.27,4.5-0.78,6.46c-1.8,3.34-6.13,4.56-9.38,2.56
			c-1.52-0.93-2.61-2.46-3.02-4.19c-0.21-0.88-0.17-1.79-0.17-2.69c0-2.21,0-4.43,0-6.64c-0.12,0.22-0.25,0.43-0.37,0.65
			c2.49-1.83,4.98-3.66,7.47-5.49c-0.37-0.15-0.73-0.3-1.1-0.45c0.6,3.88,4.61,6.24,8.3,4.95c0.91-0.32,0.52-1.76-0.4-1.45
			c-2.99,1.04-5.97-0.8-6.46-3.91c-0.07-0.45-0.74-0.72-1.1-0.45c-2.3,1.69-4.6,3.38-6.9,5.07c-0.32,0.23-0.79,0.48-0.91,0.87
			c-0.12,0.36-0.03,0.87-0.03,1.24c0,1.76,0,3.53,0,5.29c0,1.65,0.01,3.22,0.69,4.77c0.99,2.28,3.03,4.04,5.45,4.65
			c5.16,1.32,10.13-2.68,10.22-7.93c0.05-2.96,0-5.92,0-8.88C72.94,17.89,71.44,17.89,71.44,18.85z"/>
	</g>
</g>
<g>
	<path class="st7" d="M33.63,18.85v8.89c0,4.1-3.33,7.43-7.43,7.43c-4.1,0-7.42-3.33-7.42-7.43v-7.83l7.47-5.49
		c0.35,2.7,2.66,4.78,5.45,4.78C32.38,19.2,33.03,19.08,33.63,18.85z"/>
	<g>
		<path d="M32.88,18.85c0,1.85,0,3.71,0,5.56c0,2.15,0.27,4.5-0.78,6.46c-1.8,3.34-6.13,4.56-9.39,2.56
			c-1.52-0.93-2.61-2.46-3.02-4.19c-0.21-0.88-0.17-1.79-0.17-2.69c0-2.21,0-4.43,0-6.64c-0.12,0.22-0.25,0.43-0.37,0.65
			c2.49-1.83,4.98-3.66,7.47-5.49c-0.37-0.15-0.73-0.3-1.1-0.45c0.6,3.88,4.61,6.24,8.3,4.95c0.91-0.32,0.52-1.76-0.4-1.45
			c-2.99,1.04-5.97-0.8-6.46-3.91c-0.07-0.45-0.74-0.72-1.1-0.45c-2.3,1.69-4.6,3.38-6.9,5.07c-0.32,0.23-0.79,0.48-0.91,0.87
			c-0.12,0.36-0.03,0.87-0.03,1.24c0,1.76,0,3.53,0,5.29c0,1.65,0.01,3.22,0.69,4.77c0.99,2.28,3.03,4.04,5.45,4.65
			c5.16,1.32,10.13-2.68,10.22-7.93c0.05-2.96,0-5.92,0-8.88C34.38,17.89,32.88,17.89,32.88,18.85z"/>
	</g>
</g>
<g>
	<path class="st8" d="M72.19,11.99v6.87c-0.6,0.23-1.25,0.35-1.93,0.35c-2.79,0-5.1-2.08-5.45-4.78l-7.47,5.49v-7.93
		c0-4.1,3.32-7.43,7.42-7.43c2.05,0,3.91,0.83,5.25,2.18C71.36,8.08,72.19,9.94,72.19,11.99z"/>
	<g>
		<path d="M71.44,11.99c0,2.29,0,4.58,0,6.87c0.18-0.24,0.37-0.48,0.55-0.72c-2.97,1.06-5.99-0.81-6.46-3.91
			c-0.07-0.45-0.74-0.71-1.1-0.45c-2.49,1.83-4.98,3.66-7.47,5.49c0.38,0.22,0.75,0.43,1.13,0.65c0-2.5,0-5,0-7.5
			c0-1.69,0.39-3.29,1.48-4.63c1.49-1.83,3.9-2.78,6.24-2.4C69.06,5.92,71.39,8.74,71.44,11.99c0.02,0.96,1.52,0.97,1.5,0
			c-0.05-3.04-1.72-5.91-4.47-7.29c-2.52-1.27-5.6-1.16-8,0.33c-2.21,1.38-3.63,3.73-3.85,6.32c-0.11,1.32-0.03,2.68-0.03,4
			c0,1.52,0,3.05,0,4.57c0,0.52,0.66,1,1.13,0.65c2.49-1.83,4.98-3.66,7.47-5.49c-0.37-0.15-0.73-0.3-1.1-0.45
			c0.58,3.86,4.63,6.26,8.3,4.95c0.31-0.11,0.55-0.38,0.55-0.72c0-2.29,0-4.58,0-6.87C72.94,11.02,71.44,11.02,71.44,11.99z"/>
	</g>
</g>
<g>
	<path class="st8" d="M33.63,11.99v6.87c-0.6,0.23-1.25,0.35-1.93,0.35c-2.79,0-5.1-2.08-5.45-4.78l-7.47,5.49v-7.93
		c0-4.1,3.32-7.43,7.42-7.43c2.05,0,3.91,0.83,5.25,2.18C32.8,8.08,33.63,9.94,33.63,11.99z"/>
	<g>
		<path d="M32.88,11.99c0,2.29,0,4.58,0,6.87c0.18-0.24,0.37-0.48,0.55-0.72c-2.97,1.06-5.99-0.81-6.46-3.91
			c-0.07-0.45-0.74-0.71-1.1-0.45c-2.49,1.83-4.98,3.66-7.47,5.49c0.38,0.22,0.75,0.43,1.13,0.65c0-2.5,0-5,0-7.5
			c0-1.69,0.39-3.29,1.48-4.63c1.49-1.83,3.9-2.78,6.24-2.4C30.49,5.92,32.82,8.74,32.88,11.99c0.02,0.96,1.52,0.97,1.5,0
			c-0.05-3.04-1.72-5.91-4.47-7.29c-2.52-1.27-5.6-1.16-8,0.33c-2.21,1.38-3.63,3.73-3.85,6.32c-0.11,1.32-0.03,2.68-0.03,4
			c0,1.52,0,3.05,0,4.57c0,0.52,0.66,1,1.13,0.65c2.49-1.83,4.98-3.66,7.47-5.49c-0.37-0.15-0.73-0.3-1.1-0.45
			c0.58,3.86,4.63,6.26,8.3,4.95c0.31-0.11,0.55-0.38,0.55-0.72c0-2.29,0-4.58,0-6.87C34.38,11.02,32.88,11.02,32.88,11.99z"/>
	</g>
</g>
<g>
	<path class="st7" d="M52.67,19.28v8.89c0,4.1-3.33,7.43-7.43,7.43c-4.1,0-7.42-3.33-7.42-7.43v-7.83l7.47-5.49
		c0.35,2.7,2.66,4.78,5.45,4.78C51.42,19.63,52.07,19.51,52.67,19.28z"/>
	<g>
		<path d="M51.92,19.28c0,1.85,0,3.71,0,5.56c0,2.15,0.27,4.5-0.78,6.46c-1.8,3.34-6.13,4.56-9.38,2.56
			c-1.52-0.93-2.61-2.46-3.02-4.19c-0.21-0.88-0.17-1.79-0.17-2.69c0-2.21,0-4.43,0-6.64c-0.12,0.22-0.25,0.43-0.37,0.65
			c2.49-1.83,4.98-3.66,7.47-5.49c-0.37-0.15-0.73-0.3-1.1-0.45c0.6,3.88,4.61,6.24,8.3,4.95c0.91-0.32,0.52-1.76-0.4-1.45
			c-2.99,1.04-5.97-0.8-6.46-3.91c-0.07-0.45-0.74-0.72-1.1-0.45c-2.3,1.69-4.6,3.38-6.9,5.07c-0.32,0.23-0.79,0.48-0.91,0.87
			c-0.12,0.36-0.03,0.87-0.03,1.24c0,1.76,0,3.53,0,5.29c0,1.65,0.01,3.22,0.69,4.77c0.99,2.28,3.03,4.04,5.45,4.65
			c5.16,1.32,10.13-2.68,10.22-7.93c0.05-2.96,0-5.92,0-8.88C53.42,18.31,51.92,18.31,51.92,19.28z"/>
	</g>
</g>
<g>
	<path class="st8" d="M52.67,12.41v6.87c-0.6,0.23-1.25,0.35-1.93,0.35c-2.79,0-5.1-2.08-5.45-4.78l-7.47,5.49v-7.93
		c0-4.1,3.32-7.43,7.42-7.43c2.05,0,3.91,0.83,5.25,2.18C51.84,8.5,52.67,10.36,52.67,12.41z"/>
	<g>
		<path d="M51.92,12.41c0,2.29,0,4.58,0,6.87c0.18-0.24,0.37-0.48,0.55-0.72c-2.97,1.06-5.99-0.81-6.46-3.91
			c-0.07-0.45-0.74-0.71-1.1-0.45c-2.49,1.83-4.98,3.66-7.47,5.49c0.38,0.22,0.75,0.43,1.13,0.65c0-2.5,0-5,0-7.5
			c0-1.69,0.39-3.29,1.48-4.63c1.49-1.83,3.9-2.78,6.24-2.4C49.54,6.34,51.87,9.16,51.92,12.41c0.02,0.96,1.52,0.97,1.5,0
			c-0.05-3.04-1.72-5.91-4.47-7.29c-2.52-1.27-5.6-1.16-8,0.33c-2.21,1.38-3.63,3.73-3.85,6.32c-0.11,1.32-0.03,2.68-0.03,4
			c0,1.52,0,3.05,0,4.57c0,0.52,0.66,1,1.13,0.65c2.49-1.83,4.98-3.66,7.47-5.49c-0.37-0.15-0.73-0.3-1.1-0.45
			c0.58,3.86,4.63,6.26,8.3,4.95c0.31-0.11,0.55-0.38,0.55-0.72c0-2.29,0-4.58,0-6.87C53.42,11.45,51.92,11.45,51.92,12.41z"/>
	</g>
</g>
<line class="st9" x1="26.2" y1="34.92" x2="26.2" y2="42.92"/>
<line class="st9" x1="45.25" y1="35.6" x2="45.25" y2="43.6"/>
<line class="st9" x1="64.77" y1="34.89" x2="64.77" y2="42.89"/>
</svg>
