<?xml version="1.0" encoding="utf-8"?>
<!-- Generator: Adobe Illustrator 22.0.0, SVG Export Plug-In . SVG Version: 6.00 Build 0)  -->
<svg version="1.1" id="Layer_1" xmlns="http://www.w3.org/2000/svg" xmlns:xlink="http://www.w3.org/1999/xlink" x="0px" y="0px"
	 viewBox="0 0 80 80" style="enable-background:new 0 0 80 80;" xml:space="preserve">
<style type="text/css">
	.st0{fill:#00B692;}
	.st1{fill:#008678;}
	.st2{fill:#FF9F2B;}
	.st3{fill:#A36F00;}
	.st4{fill:#C9E0FD;}
	.st5{fill:#562C00;}
	.st6{fill:#2B1900;}
	.st7{fill:#B2C9FF;}
	.st8{fill:#002A34;}
	.st9{fill:#BCD6F9;}
</style>
<path class="st0" d="M60,37H36.3v32.5h25.6V39C61.9,37.9,61,37,60,37L60,37z"/>
<path class="st1" d="M68.5,37h-9c1.1,0,1.9,0.9,1.9,1.9v30.6h9V39C70.5,37.9,69.6,37,68.5,37L68.5,37z"/>
<g>
	<path class="st2" d="M33.6,8.8L13.4,7.3c-1.1-0.1-2.1,0.8-2.1,1.9v5.3l23.2,1.8v-5.8C34.5,9.8,34.1,9.2,33.6,8.8z"/>
</g>
<path class="st3" d="M41.1,9.4l-8.3-0.6c0.6,0.3,1.1,1,1.1,1.7v5.7l9,0.7v-5.6C42.9,10.4,42.1,9.5,41.1,9.4z"/>
<path class="st2" d="M36.5,14l-25.9-2c-1.1-0.1-2.1,0.8-2.1,1.9v55.6h28.7v-54C37.3,14.9,37,14.4,36.5,14L36.5,14z"/>
<path class="st3" d="M43.8,14.6l-8.1-0.6c0.5,0.3,0.9,0.9,0.9,1.6v54h9v-53C45.6,15.5,44.9,14.7,43.8,14.6L43.8,14.6z"/>
<g>
	<g>
		<path class="st4" d="M18.2,25.9h-4.3c-0.4,0-0.8-0.3-0.8-0.8v-3.3c0-0.4,0.3-0.8,0.8-0.8h4.3c0.4,0,0.8,0.3,0.8,0.8v3.3
			C18.9,25.6,18.6,25.9,18.2,25.9L18.2,25.9z"/>
		<path class="st4" d="M28.9,25.9h-4.3c-0.4,0-0.8-0.3-0.8-0.8v-3.3c0-0.4,0.3-0.8,0.8-0.8h4.3c0.4,0,0.8,0.3,0.8,0.8v3.3
			C29.7,25.6,29.4,25.9,28.9,25.9L28.9,25.9z"/>
		<path class="st4" d="M37.3,21h-1.9c-0.4,0-0.8,0.3-0.8,0.8v3.3c0,0.4,0.3,0.8,0.8,0.8h1.9V21z"/>
	</g>
	<g>
		<path class="st4" d="M18.2,35.5h-4.3c-0.4,0-0.8-0.3-0.8-0.8v-3.3c0-0.4,0.3-0.8,0.8-0.8h4.3c0.4,0,0.8,0.3,0.8,0.8v3.3
			C18.9,35.2,18.6,35.5,18.2,35.5z"/>
		<path class="st4" d="M28.9,35.5h-4.3c-0.4,0-0.8-0.3-0.8-0.8v-3.3c0-0.4,0.3-0.8,0.8-0.8h4.3c0.4,0,0.8,0.3,0.8,0.8v3.3
			C29.7,35.2,29.4,35.5,28.9,35.5z"/>
		<path class="st4" d="M37.3,30.6h-1.9c-0.4,0-0.8,0.3-0.8,0.8v3.3c0,0.4,0.3,0.8,0.8,0.8h1.9V30.6z"/>
	</g>
	<g>
		<path class="st4" d="M18.2,45.1h-4.3c-0.4,0-0.8-0.3-0.8-0.8V41c0-0.4,0.3-0.8,0.8-0.8h4.3c0.4,0,0.8,0.3,0.8,0.8v3.3
			C18.9,44.8,18.6,45.1,18.2,45.1z"/>
		<path class="st4" d="M23.6,56H14c-0.5,0-1-0.4-1-1v-2.9c0-0.5,0.4-1,1-1h9.6c0.5,0,1,0.4,1,1v2.9C24.6,55.6,24.2,56,23.6,56z"/>
		<path class="st4" d="M28.9,45.1h-4.3c-0.4,0-0.8-0.3-0.8-0.8V41c0-0.4,0.3-0.8,0.8-0.8h4.3c0.4,0,0.8,0.3,0.8,0.8v3.3
			C29.7,44.8,29.4,45.1,28.9,45.1z"/>
		<path class="st4" d="M37.3,40.2h-1.9c-0.4,0-0.8,0.3-0.8,0.8v3.3c0,0.4,0.3,0.8,0.8,0.8h1.9V40.2z"/>
	</g>
</g>
<path class="st5" d="M29.9,51.2c-0.4,0-0.7,0.3-0.7,0.7v17.7h8.1V51.2L29.9,51.2z"/>
<path class="st6" d="M39.8,51.2h-3.2v18.4h3.9V51.8C40.5,51.5,40.2,51.2,39.8,51.2z"/>
<path class="st7" d="M63.6,68.2h-57c-1.4,0-2.5,1.1-2.5,2.5c0,1.4,1.1,2.5,2.5,2.5h59.3l0.2-0.3v-2.2C66.1,69.3,65,68.2,63.6,68.2
	L63.6,68.2z"/>
<path class="st8" d="M72.4,68.2h-9.1c1.4,0,2.5,1.1,2.5,2.5v2.5h6.6c1.4,0,2.5-1.1,2.5-2.5C74.9,69.3,73.8,68.2,72.4,68.2z"/>
<g>
	<path class="st9" d="M40.5,25.1v-3.3c0-0.4-0.3-0.8-0.8-0.8h-3.1v4.9h3.1C40.2,25.9,40.5,25.6,40.5,25.1z"/>
	<path class="st9" d="M40.5,34.7v-3.3c0-0.4-0.3-0.8-0.8-0.8h-3.1v4.9h3.1C40.2,35.5,40.5,35.2,40.5,34.7L40.5,34.7z"/>
	<path class="st9" d="M40.5,44.4V41c0-0.4-0.3-0.8-0.8-0.8h-3.1v4.9h3.1C40.2,45.1,40.5,44.8,40.5,44.4L40.5,44.4z"/>
</g>
<g>
	<g>
		<path class="st4" d="M55.3,49.6h-4.4c-0.5,0-0.9-0.4-0.9-0.9v-3.5c0-0.5,0.4-0.9,0.9-0.9h4.4c0.5,0,0.9,0.4,0.9,0.9v3.5
			C56.2,49.2,55.8,49.6,55.3,49.6z"/>
		<path class="st4" d="M55.3,59.5h-4.4c-0.5,0-0.9-0.4-0.9-0.9v-3.5c0-0.5,0.4-0.9,0.9-0.9h4.4c0.5,0,0.9,0.4,0.9,0.9v3.5
			C56.2,59.1,55.8,59.5,55.3,59.5z"/>
	</g>
	<g>
		<path class="st4" d="M65.2,49.6h-4.4c-0.5,0-0.9-0.4-0.9-0.9v-3.5c0-0.5,0.4-0.9,0.9-0.9h4.4c0.5,0,0.9,0.4,0.9,0.9v3.5
			C66.1,49.2,65.7,49.6,65.2,49.6z"/>
		<path class="st4" d="M65.2,59.5h-4.4c-0.5,0-0.9-0.4-0.9-0.9v-3.5c0-0.5,0.4-0.9,0.9-0.9h4.4c0.5,0,0.9,0.4,0.9,0.9v3.5
			C66.1,59.1,65.7,59.5,65.2,59.5z"/>
	</g>
</g>
<g>
	<g>
		<path d="M72.4,67.2h-0.9V49.5c0-0.6-0.5-1.1-1.1-1.1c-0.6,0-1.1,0.5-1.1,1.1v17.7H46.7V38.1h21.8c0.5,0,0.9,0.4,0.9,0.9v5.5
			c0,0.6,0.5,1.1,1.1,1.1c0.6,0,1.1-0.5,1.1-1.1V39c0-1.7-1.4-3-3-3H46.7V16.5c0-1.6-1.2-2.9-2.8-3v-2.1c0-1.6-1.2-2.9-2.8-3
			L13.5,6.2c-1.7-0.1-3.2,1.2-3.2,3v1.7c-1.6,0.1-2.8,1.5-2.8,3v53.2H6.6c-2,0-3.6,1.6-3.6,3.6s1.6,3.6,3.6,3.6h65.9
			c2,0,3.6-1.6,3.6-3.6S74.4,67.2,72.4,67.2z M12.4,9.2c0-0.5,0.4-0.9,0.9-0.9L41,10.5c0.5,0,0.8,0.4,0.8,0.9v2L12.4,11L12.4,9.2
			L12.4,9.2z M9.6,13.9c0-0.5,0.4-0.9,0.9-0.9l33.2,2.6c0.5,0,0.8,0.4,0.8,0.9v50.6h-3V51.8c0-1-0.8-1.8-1.8-1.8h-9.9
			c-1,0-1.8,0.8-1.8,1.8v6.9c0,0.6,0.5,1.1,1.1,1.1s1.1-0.5,1.1-1.1v-6.6h9.2v14.9h-9.2v-3.4c0-0.6-0.5-1.1-1.1-1.1
			s-1.1,0.5-1.1,1.1v3.4H9.6L9.6,13.9z M72.4,72.1H6.6c-0.8,0-1.4-0.6-1.4-1.4s0.6-1.4,1.4-1.4h65.9c0.8,0,1.4,0.6,1.4,1.4
			S73.2,72.1,72.4,72.1z"/>
		<path d="M13.8,27h4.3c1,0,1.8-0.8,1.8-1.8v-3.3c0-1-0.8-1.8-1.8-1.8h-4.3c-1,0-1.8,0.8-1.8,1.8v3.3C12,26.1,12.8,27,13.8,27z
			 M14.1,22.1h3.7v2.7h-3.7V22.1z"/>
		<path d="M24.6,27h4.3c1,0,1.8-0.8,1.8-1.8v-3.3c0-1-0.8-1.8-1.8-1.8h-4.3c-1,0-1.8,0.8-1.8,1.8v3.3C22.8,26.1,23.6,27,24.6,27z
			 M24.9,22.1h3.7v2.7h-3.7V22.1z"/>
		<path d="M35.4,27h4.3c1,0,1.8-0.8,1.8-1.8v-3.3c0-1-0.8-1.8-1.8-1.8h-4.3c-1,0-1.8,0.8-1.8,1.8v3.3C33.6,26.1,34.4,27,35.4,27
			L35.4,27z M35.7,22.1h3.7v2.7h-3.7V22.1z"/>
		<path d="M13.8,36.6h4.3c1,0,1.8-0.8,1.8-1.8v-3.3c0-1-0.8-1.8-1.8-1.8h-4.3c-1,0-1.8,0.8-1.8,1.8v3.3C12,35.8,12.8,36.6,13.8,36.6
			L13.8,36.6z M14.1,31.7h3.7v2.7h-3.7V31.7z"/>
		<path d="M24.6,36.6h4.3c1,0,1.8-0.8,1.8-1.8v-3.3c0-1-0.8-1.8-1.8-1.8h-4.3c-1,0-1.8,0.8-1.8,1.8v3.3
			C22.8,35.8,23.6,36.6,24.6,36.6L24.6,36.6z M24.9,31.7h3.7v2.7h-3.7V31.7z"/>
		<path d="M35.4,36.6h4.3c1,0,1.8-0.8,1.8-1.8v-3.3c0-1-0.8-1.8-1.8-1.8h-4.3c-1,0-1.8,0.8-1.8,1.8v3.3
			C33.6,35.8,34.4,36.6,35.4,36.6L35.4,36.6z M35.7,31.7h3.7v2.7h-3.7V31.7z"/>
		<path d="M13.8,46.2h4.3c1,0,1.8-0.8,1.8-1.8V41c0-1-0.8-1.8-1.8-1.8h-4.3c-1,0-1.8,0.8-1.8,1.8v3.3C12,45.4,12.8,46.2,13.8,46.2z
			 M14.1,41.3h3.7v2.7h-3.7V41.3z"/>
		<path d="M23.6,50.1H14c-1.1,0-2.1,0.9-2.1,2.1v2.9c0,1.1,0.9,2.1,2.1,2.1h9.6c1.1,0,2.1-0.9,2.1-2.1v-2.9
			C25.7,51,24.7,50.1,23.6,50.1z M23.5,55h-9.4v-2.7h9.4V55z"/>
		<path d="M24.6,46.2h4.3c1,0,1.8-0.8,1.8-1.8V41c0-1-0.8-1.8-1.8-1.8h-4.3c-1,0-1.8,0.8-1.8,1.8v3.3C22.8,45.4,23.6,46.2,24.6,46.2
			z M24.9,41.3h3.7v2.7h-3.7V41.3z"/>
		<path d="M35.4,46.2h4.3c1,0,1.8-0.8,1.8-1.8V41c0-1-0.8-1.8-1.8-1.8h-4.3c-1,0-1.8,0.8-1.8,1.8v3.3C33.6,45.4,34.4,46.2,35.4,46.2
			L35.4,46.2z M35.7,41.3h3.7v2.7h-3.7V41.3z"/>
		<path d="M57.3,45.3c0-1.1-0.9-2-2-2h-4.4c-1.1,0-2,0.9-2,2v3.5c0,1.1,0.9,2,2,2h4.4c1.1,0,2-0.9,2-2V45.3z M55.1,48.6h-4v-3.1h4
			V48.6z"/>
		<path d="M55.3,53.2h-4.4c-1.1,0-2,0.9-2,2v3.5c0,1.1,0.9,2,2,2h4.4c1.1,0,2-0.9,2-2v-3.5C57.3,54.1,56.4,53.2,55.3,53.2z
			 M55.1,58.4h-4v-3.1h4V58.4z"/>
		<path d="M67.2,45.3c0-1.1-0.9-2-2-2h-4.4c-1.1,0-2,0.9-2,2v3.5c0,1.1,0.9,2,2,2h4.4c1.1,0,2-0.9,2-2V45.3z M65.1,48.6h-4v-3.1h4
			V48.6z"/>
		<path d="M65.2,53.2h-4.4c-1.1,0-2,0.9-2,2v3.5c0,1.1,0.9,2,2,2h4.4c1.1,0,2-0.9,2-2v-3.5C67.2,54.1,66.3,53.2,65.2,53.2z
			 M65.1,58.4h-4v-3.1h4V58.4z"/>
	</g>
</g>
<rect x="28.1" y="58.3" width="2.1" height="5.9"/>
<polyline points="69.4,44.2 69.4,50 71.5,50 71.5,44.2 "/>
</svg>
