<?xml version="1.0" encoding="utf-8"?>
<!-- Generator: Adobe Illustrator 22.0.0, SVG Export Plug-In . SVG Version: 6.00 Build 0)  -->
<svg version="1.1" id="Layer_1" xmlns="http://www.w3.org/2000/svg" xmlns:xlink="http://www.w3.org/1999/xlink" x="0px" y="0px"
	 viewBox="0 0 80 80" style="enable-background:new 0 0 80 80;" xml:space="preserve">
<style type="text/css">
	.st0{fill:#CF9E76;}
	.st1{fill:#D9FFA8;}
	.st2{fill:#FF9F95;}
	.st3{fill:#81FFB2;}
	.st4{fill:#0499FF;}
	.st5{fill:#B27946;}
	.st6{fill:#AAB2BD;}
	.st7{fill:#CCD1D9;}
	.st8{fill:#69D6F4;}
	.st9{fill:#00D395;}
	.st10{fill:#FFEAA7;}
	.st11{fill:#FFC729;}
	.st12{fill:#006986;}
</style>
<path class="st0" d="M9.8,33.2h13.9v13.9H9.8V33.2z"/>
<path class="st1" d="M31.8,30.8l-1.6,1.6l0.5,2.7l-2.2,1.6v4.6l2.2,1.6l-0.5,2.7l1.6,1.6l-0.9,0.9L12,59.8C7.7,54,5.2,46.8,5.2,39
	S7.7,24,12,18.2l18.9,11.6L31.8,30.8z"/>
<path class="st0" d="M9.8,33.2h13.9v13.9H9.8V33.2z"/>
<path class="st2" d="M49.1,29.9l-0.9,0.9l-1.6-1.6l-2.7,0.5l-1.6-2.2h-4.6l-1.6,2.2l-2.7-0.5l-1.6,1.6l-0.9-0.9L19.2,11
	C25,6.7,32.2,4.2,40,4.2S55,6.7,60.8,11L49.1,29.9z"/>
<path class="st3" d="M49.1,48.1l-0.9-0.9l-1.6,1.6l-2.7-0.5l-1.6,2.2h-4.6l-1.6-2.2l-2.7,0.5l-1.6-1.6l-0.9,0.9L19.2,67
	c4.6,3.4,10.1,5.8,16.1,6.5h9.3c6-0.8,11.5-3.1,16.1-6.5L49.1,48.1z"/>
<path class="st4" d="M49.9,45.6l-0.5-2.7l2.2-1.6v-4.6l-2.2-1.6l0.5-2.7l-1.6-1.6l0.9-0.9L68,18.2c4.3,5.8,6.9,13,6.9,20.8
	S72.3,54,68,59.8L49.1,48.1l-0.9-0.9L49.9,45.6z"/>
<path class="st5" d="M59.7,43.6h7v4.6h-7V43.6z"/>
<path class="st6" d="M44.6,69.2v4.3c-1.5,0.2-3.1,0.3-4.6,0.3c-1.6,0-3.1-0.1-4.6-0.3v-4.3H44.6z"/>
<path class="st7" d="M49.3,64.5v2.3c0,1.3-1,2.3-2.3,2.3h-2.3h-9.3H33c-1.3,0-2.3-1-2.3-2.3v-2.3H49.3z"/>
<path class="st8" d="M49.3,57.6v7H30.7v-7c0-1.3,1-2.3,2.3-2.3H47C48.2,55.3,49.3,56.3,49.3,57.6z"/>
<path class="st5" d="M14.5,42.5h4.6v4.6h-4.6V42.5z"/>
<path class="st5" d="M14.5,33.2h4.6v4.6h-4.6V33.2z"/>
<path class="st9" d="M47,22.7H33c0-1.4,0.8-2.7,2.1-3.4l2.6-1.3v-0.9c-0.7-0.6-1.2-1.6-1.2-2.6v-2.3c0-2,1.7-3.6,3.7-3.5
	c1.9,0.1,3.3,1.8,3.3,3.7v2.1c0,1-0.5,1.9-1.2,2.6v0.9l2.6,1.3C46.2,20,47,21.3,47,22.7z"/>
<path class="st10" d="M63.2,43.6h-3.5c-2.7-1.3-4.6-3.7-4.6-7c0-4.5,3.6-8.1,8.1-8.1s8.1,3.6,8.1,8.1c0,3.2-1.9,5.7-4.6,7H63.2z"/>
<circle class="st11" cx="63.2" cy="36.7" r="2.3"/>
<path class="st12" d="M51.6,36.7v4.6l-2.2,1.6l0.5,2.7l-1.6,1.6l-1.6,1.6l-2.7-0.5l-1.6,2.2h-4.6l-1.6-2.2l-2.7,0.5l-1.6-1.6
	l-1.6-1.6l0.5-2.7l-2.2-1.6v-4.6l2.2-1.6l-0.5-2.7l1.6-1.6l1.6-1.6l2.7,0.5l1.6-2.2h4.6l1.6,2.2l2.7-0.5l1.6,1.6l1.6,1.6l-0.5,2.7
	L51.6,36.7z M44.6,39c0-2.6-2.1-4.6-4.6-4.6c-2.6,0-4.6,2.1-4.6,4.6c0,2.6,2.1,4.6,4.6,4.6C42.6,43.6,44.6,41.6,44.6,39z"/>
<path d="M48.1,23.9v-1.2c0-1.9-1-3.6-2.7-4.4l-1.8-0.9c0.6-0.8,1-1.8,1-2.9v-2.1c0-2.6-1.9-4.7-4.4-4.8C39,7.6,37.7,8,36.8,8.9
	c-0.9,0.9-1.4,2.1-1.4,3.4v2.3c0,1,0.4,2,1,2.9l-1.8,0.9c-1.7,0.8-2.7,2.5-2.7,4.4v1.2H48.1z M35.6,20.4l3.2-1.6v-2.1l-0.4-0.3
	c-0.5-0.5-0.8-1.1-0.8-1.7v-2.3c0-0.6,0.3-1.2,0.7-1.7c0.5-0.4,1.1-0.7,1.7-0.6c1.2,0.1,2.2,1.2,2.2,2.5v2.1c0,0.7-0.3,1.3-0.8,1.7
	l-0.4,0.3v2.1l3.2,1.6c0.5,0.3,0.9,0.7,1.2,1.2H34.5C34.7,21.1,35.1,20.7,35.6,20.4L35.6,20.4z"/>
<path d="M68.9,17.5l-0.6-0.9l-15.6,9.6l9.6-15.6l-0.9-0.6C55.2,5.5,47.8,3,40,3s-15.2,2.5-21.5,7.1l-0.9,0.6l9.6,15.6l-15.6-9.6
	l-0.6,0.9C6.5,23.8,4,31.2,4,39s2.5,15.2,7.1,21.5l0.6,0.9l15.6-9.6l-9.6,15.6l0.9,0.6C24.8,72.5,32.2,75,40,75s15.2-2.5,21.5-7.1
	l0.9-0.6l-9.6-15.6l15.6,9.6l0.6-0.9C73.5,54.2,76,46.8,76,39S73.5,23.8,68.9,17.5L68.9,17.5z M20.8,11.3c5.7-3.9,12.3-6,19.2-6
	s13.6,2.1,19.2,6l-11,17.8L47,27.9l-2.6,0.5l-1.5-2.1h-5.9l-1.5,2.1L33,27.9l-1.2,1.2L20.8,11.3z M48.6,45.2l-2.4,2.4l-2.8-0.5
	l-1.6,2.4h-3.4l-1.6-2.4l-2.8,0.5l-2.4-2.4l0.5-2.8l-2.4-1.6v-3.4l2.4-1.6l-0.5-2.8l2.4-2.4l2.8,0.5l1.6-2.4h3.4l1.6,2.4l2.8-0.5
	l2.4,2.4l-0.5,2.8l2.4,1.6v3.4l-2.4,1.6L48.6,45.2z M12.3,58.2c-3.9-5.7-6-12.3-6-19.2s2.1-13.6,6-19.2l17.8,11L28.9,32l0.5,2.6
	l-2.1,1.5v5.9l2.1,1.5L28.9,46l1.2,1.2L12.3,58.2z M36.5,72.5v-2.1h7v2.1c-1.2,0.1-2.3,0.2-3.5,0.2S37.7,72.6,36.5,72.5z M48.1,63.4
	H31.9v-5.8c0-0.6,0.5-1.2,1.2-1.2H47c0.6,0,1.2,0.5,1.2,1.2V63.4z M31.9,65.7h16.3v1.2c0,0.6-0.5,1.2-1.2,1.2H33
	c-0.6,0-1.2-0.5-1.2-1.2V65.7z M59.2,66.7c-4,2.8-8.6,4.7-13.4,5.5v-1.8H47c1.9,0,3.5-1.6,3.5-3.5v-9.3c0-1.9-1.6-3.5-3.5-3.5H33
	c-1.9,0-3.5,1.6-3.5,3.5v9.3c0,1.9,1.6,3.5,3.5,3.5h1.2v1.8c-4.8-0.8-9.3-2.7-13.4-5.5l11-17.8l1.2,1.2l2.6-0.5l1.5,2.1h5.9l1.5-2.1
	l2.6,0.5l1.2-1.2L59.2,66.7z M67.7,58.2l-17.8-11l1.2-1.2l-0.5-2.6l2.1-1.5v-5.9l-2.1-1.5l0.5-2.6l-1.2-1.2l17.8-11
	c3.9,5.7,6,12.3,6,19.2S71.6,52.6,67.7,58.2L67.7,58.2z"/>
<path d="M40,33.2c-3.2,0-5.8,2.6-5.8,5.8c0,3.2,2.6,5.8,5.8,5.8c3.2,0,5.8-2.6,5.8-5.8C45.8,35.8,43.2,33.2,40,33.2z M40,42.5
	c-1.9,0-3.5-1.6-3.5-3.5c0-1.9,1.6-3.5,3.5-3.5c1.9,0,3.5,1.6,3.5,3.5C43.5,40.9,41.9,42.5,40,42.5z"/>
<path d="M63.2,27.4c-5.1,0-9.3,4.2-9.3,9.3c0,3.3,1.7,6,4.6,7.7v5.1h9.3v-5.1c3-1.7,4.6-4.4,4.6-7.7C72.5,31.6,68.3,27.4,63.2,27.4
	L63.2,27.4z M60.9,47.1v-2.3h4.6v2.3H60.9z M62.1,36.7c0-0.6,0.5-1.2,1.2-1.2s1.2,0.5,1.2,1.2c0,0.6-0.5,1.2-1.2,1.2
	S62.1,37.3,62.1,36.7z M66.4,42.5h-2v-2.5c1.3-0.5,2.3-1.8,2.3-3.3c0-1.9-1.6-3.5-3.5-3.5s-3.5,1.6-3.5,3.5c0,1.5,1,2.8,2.3,3.3v2.5
	h-2c-1.5-0.8-3.8-2.5-3.8-5.8c0-3.8,3.1-7,7-7s7,3.1,7,7C70.2,40,67.9,41.7,66.4,42.5z"/>
<path d="M8.6,48.3h16.3V32H8.6V48.3z M17.9,46h-2.3v-2.3h2.3V46z M15.6,34.4h2.3v2.3h-2.3V34.4z M11,34.4h2.3V39h7v-4.6h2.3V46h-2.3
	v-4.6h-7V46H11V34.4z"/>
</svg>
