<?xml version="1.0" encoding="utf-8"?>
<!-- Generator: Adobe Illustrator 22.0.0, SVG Export Plug-In . SVG Version: 6.00 Build 0)  -->
<svg version="1.1" id="Layer_1" xmlns="http://www.w3.org/2000/svg" xmlns:xlink="http://www.w3.org/1999/xlink" x="0px" y="0px"
	 viewBox="0 0 80 80" style="enable-background:new 0 0 80 80;" xml:space="preserve">
<style type="text/css">
	.st0{fill:#EC8A00;}
	.st1{fill:#F6A300;}
	.st2{fill:#E5FFFF;}
	.st3{fill:#4B2900;}
	.st4{fill:#713E00;}
</style>
<circle class="st0" cx="34.1" cy="18.1" r="13.3"/>
<circle class="st1" cx="34.1" cy="18.1" r="11"/>
<path class="st2" d="M35.3,17.1v-4.8c0.8,0.4,1.2,1.2,1.2,2.1c0,0.7,0.5,1.2,1.2,1.2c0.7,0,1.2-0.5,1.2-1.2c0-2.2-1.5-4.2-3.7-4.8
	v-1c0-0.7-0.5-1.2-1.2-1.2c-0.7,0-1.2,0.5-1.2,1.2v1c-2.6,0.7-4.2,3.3-3.5,6c0.4,1.7,1.8,3.1,3.5,3.5V24c-0.8-0.4-1.2-1.2-1.2-2.1
	c0-0.7-0.5-1.2-1.2-1.2s-1.2,0.5-1.2,1.2c0,2.2,1.5,4.2,3.7,4.8v1c0,0.7,0.5,1.2,1.2,1.2c0.7,0,1.2-0.5,1.2-1.2v-1
	c2.6-0.7,4.2-3.4,3.5-6C38.4,18.9,37,17.5,35.3,17.1L35.3,17.1z M31.6,14.5c0-0.9,0.5-1.7,1.2-2.1v4.3
	C32.1,16.1,31.6,15.3,31.6,14.5L31.6,14.5z M35.3,24v-4.3c1.2,0.7,1.6,2.2,0.9,3.3C36,23.4,35.7,23.7,35.3,24z"/>
<path class="st3" d="M20.7,43.8c-0.4,9.7-1.9,18.6-4.2,24.5c-0.5,1.3,0.2,2.8,1.5,3.3c1.3,0.5,2.8-0.2,3.3-1.5
	c2.5-6.6,4.1-16,4.6-26.4L20.7,43.8z"/>
<path class="st3" d="M54.5,38.3c0-12.5,1.7-24.1,4.7-31.9c0.5-1.3,2-2,3.3-1.5c1.3,0.5,2,2,1.5,3.3c-2.7,7.1-4.3,18.3-4.3,30
	s1.6,23,4.3,30c0.5,1.3-0.1,2.8-1.4,3.3c-1.3,0.5-2.8-0.1-3.3-1.4c0,0,0,0,0,0C56.2,62.4,54.5,50.8,54.5,38.3L54.5,38.3z"/>
<path class="st4" d="M40.3,74.6c-12.5,0-24.1-1.7-31.9-4.7c-1.3-0.5-2-2-1.4-3.3c0.5-1.3,2-1.9,3.3-1.5c7.1,2.7,18.3,4.3,30,4.3
	s23-1.6,30-4.3c1.3-0.5,2.8,0.2,3.3,1.5c0.5,1.3-0.2,2.8-1.5,3.3C64.4,72.9,52.8,74.6,40.3,74.6z"/>
<path class="st4" d="M16.9,38.7H62l0,0v5.1l0,0H12l0,0v-0.2C12,40.9,14.2,38.7,16.9,38.7C16.9,38.7,16.9,38.7,16.9,38.7L16.9,38.7z"
	/>
<path class="st4" d="M20.4,53.7H62l0,0v5.1l0,0H15.5l0,0v-0.2C15.5,55.9,17.7,53.7,20.4,53.7L20.4,53.7L20.4,53.7z"/>
<path class="st3" d="M42.8,43.8v9.9h-5.1v-9.9H42.8z"/>
<path d="M34.1,32.7c8,0,14.6-6.5,14.6-14.6S42.1,3.6,34,3.6c-2.8,0-5.5,0.8-7.9,2.3c-0.6,0.4-0.7,1.1-0.4,1.7
	c0.4,0.6,1.1,0.7,1.7,0.4c5.6-3.6,13.1-2,16.8,3.6c3.6,5.6,2,13.1-3.6,16.8s-13.1,2-16.8-3.6c-2.7-4.2-2.6-9.6,0.3-13.6
	c0.4-0.6,0.3-1.3-0.3-1.7c-0.6-0.4-1.3-0.3-1.7,0.3C17.5,16.2,19,25.3,25.6,30C28,31.8,31,32.7,34.1,32.7L34.1,32.7z"/>
<path d="M31.6,21.8c0-0.7-0.5-1.2-1.2-1.2c-0.7,0-1.2,0.5-1.2,1.2c0,2.2,1.5,4.2,3.7,4.8v1c0,0.7,0.5,1.2,1.2,1.2
	c0.7,0,1.2-0.5,1.2-1.2v-1c2.6-0.7,4.2-3.4,3.5-6c-0.4-1.7-1.8-3.1-3.5-3.5v-4.8c0.8,0.4,1.2,1.2,1.2,2.1c0,0.7,0.5,1.2,1.2,1.2
	c0.7,0,1.2-0.5,1.2-1.2l0,0c0-2.2-1.5-4.2-3.7-4.8v-1c0-0.7-0.5-1.2-1.2-1.2c-0.7,0-1.2,0.5-1.2,1.2v1c-2.6,0.7-4.2,3.3-3.5,6
	c0.4,1.7,1.8,3.1,3.5,3.5V24C32.1,23.5,31.6,22.7,31.6,21.8z M36.5,21.8c0,0.9-0.5,1.7-1.2,2.1v-4.3C36,20.1,36.5,21,36.5,21.8z
	 M31.6,14.4c0-0.9,0.5-1.7,1.2-2.1v4.3C32.1,16.1,31.6,15.3,31.6,14.4z"/>
<path d="M56.3,72.3l-0.6,0.1c-0.7,0.1-1.1,0.7-1.1,1.4c0.1,0.6,0.6,1.1,1.2,1.1c0.1,0,0.1,0,0.2,0l0.6-0.1c0.7-0.1,1.1-0.7,1-1.4
	C57.6,72.7,57,72.3,56.3,72.3z"/>
<path d="M74.7,66.1c-0.7-2-2.9-2.9-4.9-2.2c0,0,0,0,0,0c-3.4,1.2-6.9,2.2-10.5,2.7c-0.7-2.2-1.2-4.4-1.6-6.6h2.7
	c0.2,1.2,0.5,2.4,0.8,3.5c0.2,0.7,0.8,1.1,1.5,0.9c0.7-0.2,1.1-0.8,0.9-1.5l0,0c-0.3-1-0.5-2.1-0.7-3.2c0.2-0.2,0.4-0.5,0.3-0.9
	v-5.1c0-0.7-0.5-1.2-1.2-1.2c0,0,0,0,0,0h-0.3c-0.3-2.4-0.5-4.9-0.6-7.4H62c0.7,0,1.2-0.5,1.2-1.2v-5.1c0-0.7-0.5-1.2-1.2-1.2
	c0,0,0,0,0,0h-1.1c0.1-11.3,1.7-22,4.3-28.7c0.8-2-0.2-4.1-2.2-4.9C61,3.1,58.8,4,58.1,6c0,0,0,0,0,0c-2.7,6.9-4.3,16.8-4.7,27.8
	c0,0.7,0.5,1.2,1.2,1.3c0.7,0,1.2-0.5,1.3-1.2c0.3-10.7,2-20.3,4.5-27c0.3-0.7,1-1,1.7-0.8c0.7,0.3,1,1,0.8,1.7
	c-2.7,7-4.3,18.1-4.4,29.6H33.9c-0.7,0-1.2,0.5-1.2,1.2c0,0.7,0.5,1.2,1.2,1.2h26.9v2.7h-6.1c0,0,0,0-0.1,0c0,0,0,0,0,0H13.3
	c0.4-1.6,1.9-2.7,3.5-2.7h5.9c0.7,0,1.2-0.5,1.2-1.2c0-0.7-0.5-1.2-1.2-1.2h-5.9c-3.4,0-6.1,2.7-6.1,6.1v0.2c0,0.7,0.5,1.2,1.2,1.2
	h7.5c-0.1,2.6-0.4,5.2-0.7,7.7c-2.7,0.7-4.5,3.1-4.5,5.9v0.2c0,0.7,0.5,1.2,1.2,1.2h2.1c-0.4,2-0.9,3.9-1.4,5.6
	c-1.9-0.4-3.7-1-5.5-1.7c-1.9-0.8-4.1,0.1-5,2s0.1,4.1,2,5C7.8,71,7.9,71,8,71c7.9,3,19.7,4.8,32.3,4.8c3.5,0,6.9-0.1,10.2-0.4
	c0.7-0.1,1.2-0.6,1.1-1.3c-0.1-0.7-0.6-1.2-1.3-1.1c-3.3,0.3-6.7,0.4-10.1,0.4c-12.4,0-23.8-1.7-31.4-4.6c-0.7-0.3-1-1-0.8-1.7
	c0,0,0,0,0,0c0.3-0.7,1-1,1.7-0.8c7.2,2.8,18.6,4.4,30.5,4.4s23.3-1.7,30.5-4.4c0.7-0.3,1.5,0.1,1.7,0.8c0,0,0,0,0,0
	c0.3,0.7-0.1,1.5-0.8,1.7c-3.2,1.2-6.6,2.1-9.9,2.7c-0.7,0.1-1.1,0.8-1,1.4c0.1,0.7,0.8,1.1,1.4,1c3.5-0.6,7-1.6,10.4-2.8
	C74.5,70.3,75.5,68.1,74.7,66.1L74.7,66.1z M59.2,52.5h-2.7c-0.3-2.4-0.5-4.9-0.6-7.4h2.7C58.8,47.6,59,50.1,59.2,52.5L59.2,52.5z
	 M38.9,52.5V45h2.7v7.4H38.9z M44,45h9.4c0.1,2.5,0.3,5,0.6,7.4H44V45z M24.6,45c-0.1,1.4-0.2,2.8-0.3,4.1c-0.1,0.7,0.4,1.3,1.1,1.3
	c0,0,0.1,0,0.1,0c0.6,0,1.2-0.5,1.2-1.1c0.1-1.4,0.2-2.8,0.3-4.3h9.4v7.4H21.3c0.3-2.4,0.5-4.9,0.6-7.4H24.6z M20.4,54.9h40.4v2.7
	H16.9C17.3,56,18.8,54.9,20.4,54.9L20.4,54.9z M20.1,60.1h2.7c-0.4,2.2-1,4.5-1.6,6.6c-0.9-0.2-1.8-0.3-2.6-0.5
	C19.2,64.2,19.7,62.1,20.1,60.1z M23.6,67.1c0.7-2.3,1.2-4.7,1.7-7h29.9c0.4,2.4,1,4.7,1.7,7c-5.5,0.8-11.1,1.2-16.6,1.1
	C34.7,68.2,29.1,67.9,23.6,67.1L23.6,67.1z"/>
<rect x="21.9" y="37.5" width="12.8" height="2.4"/>
<polyline points="61.2,63.3 62.1,66.2 64.4,65.7 63.6,62.8 "/>
<ellipse cx="63.2" cy="66" rx="1.1" ry="1"/>
<polyline points="24.3,48.9 26.8,48.9 26,53 24,53 "/>
<polyline points="53.4,33.8 55.8,33.8 56,38 53,38 "/>
</svg>
