<?xml version="1.0" encoding="utf-8"?>
<!-- Generator: Adobe Illustrator 22.0.0, SVG Export Plug-In . SVG Version: 6.00 Build 0)  -->
<svg version="1.1" id="Layer_1" xmlns="http://www.w3.org/2000/svg" xmlns:xlink="http://www.w3.org/1999/xlink" x="0px" y="0px"
	 viewBox="0 0 80 80" style="enable-background:new 0 0 80 80;" xml:space="preserve">
<style type="text/css">
	.st0{fill:#005E74;}
	.st1{fill:#003941;}
	.st2{fill:#EAA96A;}
	.st3{fill:#EFD27C;}
	.st4{fill:#E5935D;}
	.st5{fill:#EBB39A;}
	.st6{fill:#F4F2F4;}
	.st7{fill:#F4DABD;}
	.st8{fill:#EABC73;}
	.st9{fill:#C38400;}
	.st10{fill:#875100;}
</style>
<path class="st0" d="M51.9,52.1h2.4c5.3,0,9.6,4.3,9.6,9.6l0,12c0,1.3-1.1,2.4-2.4,2.4h-3.3l-18.3-1.4l-19.2,1.4h-2.4
	c-1.3,0-2.4-1.1-2.4-2.4v-12c0-5.3,5.5-9.6,10.8-9.6l1.2,0L51.9,52.1z"/>
<path class="st1" d="M63.9,61.7c0-5.3-4.3-9.6-9.6-9.6h-2.4H51c5.3,0,9.6,4.3,9.6,9.6l0,12c0,1.3-1.1,2.4-2.4,2.4h3.3
	c1.3,0,2.4-1.1,2.4-2.4L63.9,61.7z"/>
<path class="st2" d="M53.1,19.8v-7.3c0-3.3-2.7-6-6-6h-4.2h-6h-4.2c-3.3,0-6,2.7-6,6v7.3H53.1z"/>
<path class="st3" d="M42.9,19.8h-6V5.2c0-0.6,0.5-1.2,1.2-1.2h3.7c0.6,0,1.2,0.5,1.2,1.2V19.8z"/>
<path class="st4" d="M47.1,6.5h-3.3c3.3,0,6,2.7,6,6v7.3h3.3v-7.3C53.1,9.2,50.4,6.5,47.1,6.5z"/>
<path class="st5" d="M27.9,32.9h-2.4c-1.3,0-2.4-1.1-2.4-2.4v-4.8c0-1.3,1.1-2.4,2.4-2.4h2.4h24h2.4c1.3,0,2.4,1.1,2.4,2.4v4.8
	c0,1.3-1.1,2.4-2.4,2.4h-2.4H27.9z"/>
<path class="st5" d="M32.7,40.1v16.8h14.4V40.1L32.7,40.1z"/>
<path class="st6" d="M32.7,49.7l-4.8,2.4l4.2,8.4c0.3,0.6,1.1,0.9,1.7,0.5l6.1-4L32.7,49.7z"/>
<path class="st6" d="M47.1,49.7l4.8,2.4l-4.2,8.4c-0.3,0.6-1.1,0.9-1.7,0.5l-6.1-4L47.1,49.7z"/>
<path class="st7" d="M27.9,22.2l0,10.7c0,6.6,5.4,12,12,12s12-5.4,12-12V22.2L27.9,22.2z"/>
<path class="st3" d="M56.7,20.9c0-1.3-1.1-2.4-2.4-2.4H25.5c-1.3,0-2.4,1.1-2.4,2.4v1.2c0,0.7,0.5,1.2,1.2,1.2h31.2
	c0.7,0,1.2-0.5,1.2-1.2L56.7,20.9L56.7,20.9z"/>
<path class="st8" d="M54.3,18.5H51c1.3,0,2.4,1.1,2.4,2.4v1.2c0,0.7-0.5,1.2-1.2,1.2h3.3c0.7,0,1.2-0.5,1.2-1.2v-1.2
	C56.7,19.6,55.6,18.5,54.3,18.5z"/>
<path class="st9" d="M56.7,52.4c-0.8-0.2-1.6-0.3-2.4-0.3h-2.4v15.1h4.8V52.4z"/>
<path class="st10" d="M54.3,52.1h-0.8v15.1h3.2V52.4C55.9,52.2,55.1,52.1,54.3,52.1z"/>
<path class="st9" d="M27.9,52.1L27.9,52.1l-1.2,0c-1.2,0-2.4,0.2-3.6,0.6v14.5h4.8V52.1z"/>
<path class="st9" d="M59.1,76.1h-12l-7.2-1.4l-7.2,1.4h-12v-7.3c0-1.3,1-2.3,2.3-2.3h33.8c1.3,0,2.3,1,2.3,2.3V76.1z"/>
<path class="st2" d="M47.1,76.1H32.7v-3.6c0-0.6,0.5-1.2,1.2-1.2H46c0.6,0,1.2,0.5,1.2,1.2V76.1z"/>
<path class="st10" d="M56.8,66.5h-3.3c1.3,0,2.3,1,2.3,2.3v7.3h3.3v-7.3C59.1,67.5,58.1,66.5,56.8,66.5z"/>
<path class="st4" d="M46,71.3h-3.3c0.6,0,1.2,0.5,1.2,1.2v3.6h3.3v-3.6C47.1,71.8,46.6,71.3,46,71.3z"/>
<path d="M65,61.7C65,55.8,60.2,51,54.3,51h-2.1l-4-2v-6c2.7-2.2,4.5-5.4,4.8-9h1.4c1.9,0,3.5-1.6,3.5-3.5v-4.8c0-0.7-0.2-1.4-0.6-2
	c0.4-0.4,0.6-1,0.6-1.6v-1.2c0-1.9-1.6-3.5-3.5-3.5h-0.1v-4.9c0-3.9-3.2-7.1-7.1-7.1H44V5.2C44,4,43,3,41.8,3h-3.7
	c-1.2,0-2.2,1-2.2,2.2v0.2h-3.1c-3.9,0-7.1,3.2-7.1,7.1l0,4.9h-0.1c-1.9,0-3.5,1.6-3.5,3.5v1.2c0,0.6,0.2,1.2,0.6,1.6
	c-0.4,0.6-0.6,1.3-0.6,2v4.8c0,1.9,1.6,3.5,3.5,3.5h1.4c0.3,3.6,2.1,6.8,4.8,9v6l-4,2l-0.9,0c-1.3,0-2.6,0.2-3.9,0.7c0,0,0,0,0,0
	c-1.5,0.5-2.9,1.3-4.1,2.4c-2.4,2.1-3.8,4.8-3.8,7.6v2.6c0,0.6,0.5,1.1,1.1,1.1c0.6,0,1.1-0.5,1.1-1.1v-2.6c0-3.1,2.2-5.8,5-7.3
	v11.1c-1.4,0.4-2.4,1.7-2.4,3.3V75h-1.3c-0.7,0-1.3-0.6-1.3-1.3v-5c0-0.6-0.5-1.1-1.1-1.1c-0.6,0-1.1,0.5-1.1,1.1v5
	c0,1.9,1.6,3.5,3.5,3.5h2.4h29.2c0.6,0,1.1-0.5,1.1-1.1S50.5,75,49.9,75h-1.7v-2.6c0-1.2-1-2.2-2.2-2.2H33.9c-1.2,0-2.2,1-2.2,2.2
	V75h-9.8v-6.2c0-0.7,0.6-1.2,1.2-1.2h0.1h33.6h0.1c0.7,0,1.2,0.6,1.2,1.2V75h-3.8c-0.6,0-1.1,0.5-1.1,1.1s0.5,1.1,1.1,1.1h4.9h2.4
	c1.9,0,3.5-1.6,3.5-3.5L65,61.7z M33.8,72.4C33.8,72.4,33.8,72.4,33.8,72.4L46,72.4c0,0,0.1,0,0.1,0.1V75H33.8L33.8,72.4z
	 M55.6,53.3v7.3H53v-7.4h1.3C54.8,53.2,55.2,53.2,55.6,53.3z M29,56.7l2.1,4.3c0.3,0.6,0.8,1,1.5,1.2c0.2,0.1,0.4,0.1,0.6,0.1
	c0.4,0,0.9-0.1,1.3-0.4l5.5-3.6l5.5,3.6c0.4,0.3,0.8,0.4,1.3,0.4c0.2,0,0.4,0,0.6-0.1c0.6-0.2,1.2-0.6,1.5-1.2l2.1-4.3v8.7H29
	L29,56.7z M46.8,60C46.7,60,46.7,60,46.8,60c-0.1,0.1-0.1,0.1-0.2,0l-5-3.3l5.7-5.7l3.1,1.6L46.8,60z M55.6,30.5
	c0,0.7-0.6,1.3-1.3,1.3H53v-7.4h1.3c0.7,0,1.3,0.6,1.3,1.3L55.6,30.5L55.6,30.5z M47.1,7.6c2.7,0,4.9,2.2,4.9,4.9v4.9h-2.6v-1.3
	c0-0.6-0.5-1.1-1.1-1.1s-1.1,0.5-1.1,1.1v1.3H44V7.6H47.1z M38,5.2C38,5.2,38,5.2,38,5.2l3.8-0.1c0,0,0.1,0,0.1,0.1v12.2H38V5.2z
	 M27.8,12.5c0-2.7,2.2-4.9,4.9-4.9h3.1v9.8h-3.2v-1.3c0-0.6-0.5-1.1-1.1-1.1s-1.1,0.5-1.1,1.1v1.3h-2.6L27.8,12.5z M24.2,20.9
	c0-0.7,0.6-1.3,1.3-1.3h28.8c0.7,0,1.3,0.6,1.3,1.3v1.2c0,0.1-0.1,0.1-0.1,0.1H24.3c-0.1,0-0.1-0.1-0.1-0.1L24.2,20.9L24.2,20.9z
	 M24.2,30.5v-4.8c0-0.7,0.6-1.3,1.3-1.3h1.3l0,7.4h-1.3C24.8,31.8,24.2,31.2,24.2,30.5L24.2,30.5z M29,32.9l0-8.5h21.8v8.5
	c0,6-4.9,10.9-10.9,10.9C33.9,43.8,29,38.9,29,32.9L29,32.9z M39.9,46c2.2,0,4.3-0.5,6.1-1.5v4.8l-6.1,6.1l-6.1-6.1v-4.8
	C35.6,45.4,37.7,46,39.9,46L39.9,46z M32.5,51l5.7,5.7l-5,3.3c0,0-0.1,0-0.1,0c0,0-0.1,0-0.1-0.1l-3.7-7.4L32.5,51z M26.7,53.2h0.1
	v7.4h-2.6v-7.1C25,53.3,25.9,53.2,26.7,53.2z M24.2,65.4v-2.6h2.6v2.6L24.2,65.4L24.2,65.4z M53,65.4v-2.6h2.6v2.6L53,65.4L53,65.4z
	 M61.5,75h-1.3v-6.2c0-1.5-1-2.8-2.4-3.3V53.9c3,1.3,5,4.3,5,7.8l0,12C62.8,74.4,62.2,75,61.5,75L61.5,75z"/>
<rect x="14.8" y="63.8" width="2.2" height="5.5"/>
<rect x="49.3" y="75" width="5.7" height="2.2"/>
</svg>
