<?xml version="1.0" encoding="utf-8"?>
<!-- Generator: Adobe Illustrator 22.0.0, SVG Export Plug-In . SVG Version: 6.00 Build 0)  -->
<svg version="1.1" id="Layer_1" xmlns="http://www.w3.org/2000/svg" xmlns:xlink="http://www.w3.org/1999/xlink" x="0px" y="0px"
	 viewBox="0 0 80 80" style="enable-background:new 0 0 80 80;" xml:space="preserve">
<style type="text/css">
	.st0{fill:#006E63;}
	.st1{fill:#00E2A8;}
</style>
<path class="st0" d="M61.1,12.8L40,19.3l-21.1-6.6L40,6.2L61.1,12.8z"/>
<path class="st0" d="M61.1,13v29l-21,6.5v-29L61.1,13z"/>
<path class="st1" d="M40,19.3v29.2l-21.1-6.6V12.8L40,19.3z"/>
<path d="M23.2,71.8h-16c-1.2,0-2.2-1-2.2-2.2c0-1.2,1-2.2,2.2-2.2h16c1.2,0,2.2,1,2.2,2.2C25.4,70.8,24.4,71.8,23.2,71.8z"/>
<path d="M34.9,71.8h-4.4c-1.2,0-2.2-1-2.2-2.2c0-1.2,1-2.2,2.2-2.2h4.4c1.2,0,2.2,1,2.2,2.2C37.1,70.8,36.1,71.8,34.9,71.8z"/>
<path d="M23.2,74C22,74,21,73,21,71.8v-4.4c0-1.2,1-2.2,2.2-2.2c1.2,0,2.2,1,2.2,2.2v4.4C25.4,73,24.4,74,23.2,74z"/>
<path d="M11.6,60.2H7.2C6,60.2,5,59.2,5,58c0-1.2,1-2.2,2.2-2.2h4.4c1.2,0,2.2,1,2.2,2.2C13.8,59.2,12.8,60.2,11.6,60.2z"/>
<path d="M34.9,60.2h-16c-1.2,0-2.2-1-2.2-2.2c0-1.2,1-2.2,2.2-2.2h16c1.2,0,2.2,1,2.2,2.2C37.1,59.2,36.1,60.2,34.9,60.2z"/>
<path d="M11.6,62.3c-1.2,0-2.2-1-2.2-2.2v-4.4c0-1.2,1-2.2,2.2-2.2s2.2,1,2.2,2.2v4.4C13.8,61.4,12.8,62.3,11.6,62.3z"/>
<path d="M49.5,71.8h-4.4c-1.2,0-2.2-1-2.2-2.2c0-1.2,1-2.2,2.2-2.2h4.4c1.2,0,2.2,1,2.2,2.2C51.7,70.8,50.7,71.8,49.5,71.8z"/>
<path d="M72.8,71.8h-16c-1.2,0-2.2-1-2.2-2.2c0-1.2,1-2.2,2.2-2.2h16c1.2,0,2.2,1,2.2,2.2C75,70.8,74,71.8,72.8,71.8z"/>
<path d="M49.5,74c-1.2,0-2.2-1-2.2-2.2v-4.4c0-1.2,1-2.2,2.2-2.2c1.2,0,2.2,1,2.2,2.2v4.4C51.7,73,50.7,74,49.5,74z"/>
<path d="M58.2,60.2H45.1c-1.2,0-2.2-1-2.2-2.2c0-1.2,1-2.2,2.2-2.2h13.1c1.2,0,2.2,1,2.2,2.2C60.4,59.2,59.4,60.2,58.2,60.2z"/>
<path d="M72.8,60.2h-7.3c-1.2,0-2.2-1-2.2-2.2c0-1.2,1-2.2,2.2-2.2h7.3c1.2,0,2.2,1,2.2,2.2C75,59.2,74,60.2,72.8,60.2z"/>
<path d="M58.2,62.3c-1.2,0-2.2-1-2.2-2.2v-4.4c0-1.2,1-2.2,2.2-2.2c1.2,0,2.2,1,2.2,2.2v4.4C60.4,61.4,59.4,62.3,58.2,62.3z"/>
<path d="M40,21.5c-0.2,0-0.4,0-0.6-0.1l-21.1-6.6c-0.9-0.3-1.5-1.1-1.5-2.1s0.6-1.8,1.5-2.1l21.1-6.6c0.4-0.1,0.9-0.1,1.3,0
	l21.1,6.6c0.9,0.3,1.5,1.1,1.5,2.1s-0.6,1.8-1.5,2.1l-21.1,6.6C40.4,21.5,40.2,21.5,40,21.5z M26.2,12.8L40,17l13.8-4.3L40,8.5
	L26.2,12.8z"/>
<path d="M40,50.7c-0.2,0-0.4,0-0.6-0.1L18.2,44c-0.9-0.3-1.5-1.1-1.5-2.1V12.8c0-1.2,1-2.2,2.2-2.2c1.2,0,2.2,1,2.2,2.2v27.6l19,5.9
	l19-5.9V12.8c0-1.2,1-2.2,2.2-2.2c1.2,0,2.2,1,2.2,2.2v29.2c0,1-0.6,1.8-1.5,2.1l-21.1,6.6C40.4,50.6,40.2,50.7,40,50.7z"/>
<path d="M40,50.7c-1.2,0-2.2-1-2.2-2.2V19.3c0-1.2,1-2.2,2.2-2.2s2.2,1,2.2,2.2v29.2C42.2,49.7,41.2,50.7,40,50.7z"/>
</svg>
