<?xml version="1.0" encoding="utf-8"?>
<!-- Generator: Adobe Illustrator 22.0.0, SVG Export Plug-In . SVG Version: 6.00 Build 0)  -->
<svg version="1.1" id="Layer_1" xmlns="http://www.w3.org/2000/svg" xmlns:xlink="http://www.w3.org/1999/xlink" x="0px" y="0px"
	 viewBox="0 0 80 80" style="enable-background:new 0 0 80 80;" xml:space="preserve">
<style type="text/css">
	.st0{fill:#00A165;}
	.st1{fill:#006633;}
	.st2{fill:#FFD5C0;}
	.st3{fill:#005578;}
</style>
<g>
	<path class="st0" d="M48.5,17.2c0,0,6.8-8.9,4.9-11.4c-0.7-0.9-1.2,0.3-2.6,0.3c-1.6,0-1.6-1.1-3.3-1.1c-1.6,0-1.6,1.1-3.3,1.1
		c-1.6,0-1.6-1.1-3.3-1.1c-1.6,0-1.6,1.1-3.3,1.1c-1.4,0-2-1.2-2.6-0.3c-2,2.5,4.8,11.4,4.8,11.4C10,36.8,19.6,63.4,37.2,63.4h13.9
		C68.8,63.4,78.3,36.9,48.5,17.2L48.5,17.2z"/>
</g>
<g>
	<path class="st1" d="M49.7,20.4c-4,1-7.9,1-11.9,0c-1.4-0.3-2.2-1.9-1.7-3.3c0,0,0,0,0,0c0.4-1.2,1.6-1.9,2.8-1.6
		c3.3,0.8,6.4,0.8,9.7,0c1.2-0.3,2.3,0.4,2.8,1.6c0,0,0,0,0,0C51.9,18.5,51.1,20,49.7,20.4z"/>
</g>
<g>
	<g>
		<g>
			<path class="st2" d="M12.4,68l15.1,5.6c1.3,0.5,2.6,0.7,4,0.7h15.6c2.2,0,4.3-0.6,6.2-1.8l19.5-12.4c1.3-1.1,1.5-3.1,0.6-4.5
				c-1.1-1.6-2.8-1.8-4.7-0.9l-19,8.4l0-3.1c-0.3-2.5-2.2-4.6-4.7-4.9l-11.6-1.3c-2.7-0.4-4-1.3-6.3-2.6c-3.2-1.9-6.8-2.8-10.5-2.8
				h-4.2L12.4,68L12.4,68z"/>
		</g>
		<g>
			<path class="st2" d="M12.4,68l15.1,5.6c1.3,0.5,2.6,0.7,4,0.7h15.6c2.2,0,4.3-0.6,6.2-1.8l19.5-12.4c1.3-1.1,1.5-3.1,0.6-4.5
				c-1.1-1.6-2.8-1.8-4.7-0.9l-19,8.4l0-3.1c-0.3-2.5-2.2-4.6-4.7-4.9l-11.6-1.3c-2.7-0.4-4-1.3-6.3-2.6c-3.2-1.9-6.8-2.8-10.5-2.8
				h-4.2L12.4,68L12.4,68z"/>
		</g>
		<g>
			<path class="st2" d="M48.2,56.9L48.2,56.9L48.2,56.9C48.2,56.9,48.2,56.9,48.2,56.9z"/>
		</g>
	</g>
</g>
<path class="st3" d="M15.6,71c0,1.1-0.9,2-2,2H8.8c-1.1,0-2-0.9-2-2V46.6c0-1.1,0.9-2,2-2h4.8c1.1,0,2,0.9,2,2V71z"/>
<path d="M74.2,55.1c-1.3-2-3.6-2.4-6-1.3l-1.3,0.6c2.1-4.4,2.3-9.2,1.3-13.8c-1.2-5.3-4-10.4-8.4-15.2c-0.4-0.4-1.1-0.5-1.5-0.1
	c-0.4,0.4-0.5,1.1-0.1,1.5c4.2,4.5,6.8,9.3,7.9,14.3c1.1,5.2,0.5,10.5-2.5,14.8l-13,5.7l0-1.5c0,0,0-0.1,0-0.1
	c-0.3-3-2.6-5.4-5.6-5.9c0,0,0,0,0,0l-11.6-1.3c-4.4-0.6-5.6-3.3-11.6-4.8c-0.4-3.5,0.1-7.3,1.7-11.1c2.3-5.7,6.8-11.2,13-16
	c2.3,1.6,12.6,1.8,15-0.3c1.2,0.9,2.3,1.8,3.4,2.8c0.2,0.2,0.4,0.3,0.7,0.3c0.3,0,0.6-0.1,0.8-0.3c0.4-0.4,0.3-1.1-0.1-1.5
	c-1.2-1-2.4-2-3.7-3c0.3-1.3-0.1-2.8-1.2-3.7c3.3-5,4.2-8.2,2.9-9.9c-0.9-1.2-2-0.6-2.5-0.4c-0.8,0.4-1.3,0.4-2-0.1
	c-1.4-0.9-2.9-1-4.4,0c-0.8,0.5-1.4,0.5-2.1,0c-1.4-0.9-2.9-1-4.4,0c-0.8,0.5-1.2,0.5-2,0.1c-0.5-0.2-1.6-0.8-2.5,0.4
	c-1.3,1.7-0.4,4.8,2.6,9.6c-0.2,0.1-0.4,0.2-0.5,0.4c-1.2-1.3-3.2-2.6-6.1-2.3c-2.4,0.3-4.1-0.5-5.2-1.2c-0.5-0.3-1.1-0.2-1.5,0.3
	c-0.3,0.5-0.2,1.1,0.3,1.5c1.3,0.9,3.6,1.9,6.6,1.6c2.2-0.2,3.7,0.9,4.7,2c0,0,0,0.1,0,0.1c-0.8,0-2,0.1-3.3,0.4
	c-3.2,0.7-5.5,2.2-6.8,4.4c-0.3,0.5-0.1,1.1,0.4,1.4c0.5,0.3,1.1,0.1,1.4-0.4c1.9-3.3,6.6-3.7,8.4-3.7c0,0,0,0,0,0.1
	C28.6,24.3,24,30,21.6,36.1c-1.6,3.9-2.2,7.7-1.9,11.4c-1-0.1-2-0.2-3-0.2v-0.6c0-1.7-1.4-3-3-3H8.8c-1.7,0-3,1.4-3,3V71
	c0,1.7,1.4,3,3,3h4.8c1.7,0,3-1.4,3-3v-0.3l10.5,3.9c1.4,0.5,2.9,0.8,4.4,0.8h15.6c2.4,0,4.7-0.7,6.7-2
	c20.8-13.2,19.5-12.4,19.7-12.5C75.2,59.5,75.5,56.9,74.2,55.1L74.2,55.1z M49.5,19.4c-3.8,1-7.5,1-11.4,0c-1.6-0.4-1.2-3.3,0.6-2.9
	c3.4,0.9,6.7,0.9,10.2,0C50.6,16,51.1,19,49.5,19.4z M35.8,6.6C35.8,6.6,35.8,6.6,35.8,6.6c1.4,0.7,2.7,0.8,4.1-0.2
	c1.8-1.2,2,0.7,4.3,0.7c1.1,0,1.7-0.4,2.2-0.7c0.8-0.5,1.4-0.5,2.1,0c1.4,0.9,2.6,0.9,4.1,0.2c0.2,0.8-0.3,3.1-3.4,7.7
	c-1.5,0-3.8,1.5-10.1,0.1C36,9.8,35.6,7.4,35.8,6.6L35.8,6.6z M72.2,59.3L52.7,71.7c-1.7,1.1-3.6,1.6-5.6,1.6H31.5
	c-1.3,0-2.5-0.2-3.7-0.7l-11.2-4.2V57.2c0-0.6-0.5-1-1-1s-1,0.5-1,1V71c0,0.5-0.4,0.9-0.9,0.9H8.8c-0.5,0-0.9-0.4-0.9-0.9V46.6
	c0-0.5,0.4-0.9,0.9-0.9h4.8c0.5,0,0.9,0.4,0.9,0.9v5.7c0,0.6,0.5,1,1,1s1-0.5,1-1v-3c8.6,0.1,10.6,4.6,16.5,5.5c0,0,0,0,0,0
	l11.6,1.3c2,0.3,3.6,1.9,3.8,3.9l0,2H37.8c-0.6,0-1,0.5-1,1c0,0.6,0.5,1,1,1h11.8c0.1,0,0.3,0,0.4-0.1c0,0,19-8.4,19-8.4
	c1.4-0.6,2.6-0.7,3.5,0.5C73.2,57.2,73,58.5,72.2,59.3z"/>
<path d="M44.1,51.4c0.6,0,1-0.5,1-1v-1.7c2.9-0.5,4.6-2.9,5-5.1c0.5-2.8-1-5.2-3.7-6.1c-0.5-0.2-0.9-0.3-1.3-0.5v-6.7
	c1.2,0.2,2,0.8,2,0.9c0.4,0.4,1.1,0.4,1.5-0.1c0.4-0.4,0.4-1.1-0.1-1.5c-0.1-0.1-1.4-1.2-3.4-1.5v-1.5c0-0.6-0.5-1-1-1
	c-0.6,0-1,0.5-1,1v1.6c-0.3,0-0.5,0.1-0.8,0.2c-1.8,0.5-3.1,2.1-3.5,4c-0.3,1.7,0.2,3.4,1.4,4.4c0.7,0.5,1.6,1,2.8,1.6v8.3
	c-1.2-0.1-2-0.3-3.3-1.1c-0.5-0.3-1.1-0.2-1.4,0.3c-0.3,0.5-0.2,1.1,0.3,1.4c1.7,1.1,2.8,1.4,4.4,1.5v1.7C43,51,43.5,51.4,44.1,51.4
	L44.1,51.4z M41.5,35.1c-0.6-0.5-0.9-1.4-0.7-2.3c0.2-0.9,0.8-2,2-2.4c0.1,0,0.1,0,0.2,0v5.6C42.4,35.7,41.9,35.4,41.5,35.1z
	 M45.7,39.4c2.6,0.9,2.4,3.2,2.3,3.8c-0.2,1.4-1.2,2.8-3,3.3v-7.3C45.3,39.3,45.5,39.3,45.7,39.4L45.7,39.4z"/>
</svg>
