<?xml version="1.0" encoding="utf-8"?>
<!-- Generator: Adobe Illustrator 22.0.0, SVG Export Plug-In . SVG Version: 6.00 Build 0)  -->
<svg version="1.1" id="Layer_1" xmlns="http://www.w3.org/2000/svg" xmlns:xlink="http://www.w3.org/1999/xlink" x="0px" y="0px"
	 viewBox="0 0 80 80" style="enable-background:new 0 0 80 80;" xml:space="preserve">
<style type="text/css">
	.st0{fill:#00496C;}
	.st1{fill:#003759;}
	.st2{fill:#46637F;}
	.st3{fill:#234063;}
	.st4{fill:#FF901D;}
	.st5{fill:#F25D40;}
	.st6{fill:#F7904B;}
	.st7{fill:#D8E5EF;}
</style>
<path class="st0" d="M74,40.3v23.6c0,2-1.7,3.7-3.7,3.7H38v-31h32.3C72.3,36.6,74,38.3,74,40.3L74,40.3z"/>
<path class="st1" d="M74,40.3v23.6c0,2-1.7,3.7-3.7,3.7H38v-3h28.8c2,0,3.7-1.7,3.7-3.7V40.3c0-2-1.7-3.7-3.7-3.7h3.5
	C72.3,36.6,74,38.3,74,40.3L74,40.3z"/>
<path class="st2" d="M42,57.2h32v4.7H42L42,57.2z"/>
<path class="st3" d="M74,57.2v4.7h-3.6c0.1-0.3,0.1-0.6,0.1-1v-3.7H74z"/>
<g>
	<path class="st2" d="M11.1,70c0,1.1,0.9,2,2,2s2-0.9,2-2v-2.3h-4L11.1,70z"/>
	<path class="st2" d="M39.4,67.6V70c0,1.1,0.9,2,2,2c1.1,0,2-0.9,2-2v-2.3H39.4z"/>
	<path class="st2" d="M70.3,67.6h-4V70c0,1.1,0.9,2,2,2c1.1,0,2-0.9,2-2V67.6z"/>
</g>
<path class="st4" d="M47.5,20.1v43.8c0,2-1.7,3.7-3.7,3.7h-33c-2,0-3.7-1.7-3.7-3.7V20.1c0-2,1.7-3.7,3.7-3.7h33
	C45.8,16.4,47.5,18.1,47.5,20.1z"/>
<path class="st5" d="M47.5,20.1v43.8c0,2-1.7,3.7-3.7,3.7h-33c-2,0-3.7-1.7-3.7-3.7v-0.3h32.7c2,0,3.7-1.7,3.7-3.7V20.1
	c0-2-1.7-3.7-3.7-3.7h4C45.8,16.4,47.5,18.1,47.5,20.1z"/>
<path class="st6" d="M11.1,41.1h32.3v22.5H11.1L11.1,41.1z"/>
<path class="st5" d="M43.4,41.1v22.5H11.1v-3h26.1c1.8,0,3.2-1.5,3.2-3.2V41.1H43.4z"/>
<path class="st2" d="M20.5,26.5H34v4H20.5V26.5z"/>
<path class="st7" d="M63.7,42.5v6.2h-4.9v-6.2l2.4-2.5L63.7,42.5z"/>
<path d="M43.7,15.4h-8V6h1.7c0.6,0,1-0.5,1-1s-0.5-1-1-1H17.1c-0.6,0-1,0.5-1,1s0.5,1,1,1h1.7v9.4h-8c-2.6,0-4.7,2.1-4.7,4.7v43.8
	c0,2.4,1.8,4.3,4,4.7V70c0,1.7,1.4,3,3,3s3-1.4,3-3v-1.3h22.2V70c0,1.7,1.4,3,3,3c1.7,0,3-1.4,3-3v-1.4c2.3-0.3,4-2.3,4-4.7V27.8
	c0-0.6-0.5-1-1-1c-0.6,0-1,0.5-1,1v36.1c0,1.5-1.2,2.7-2.7,2.7h-33c-1.5,0-2.7-1.2-2.7-2.7V20.1c0-1.5,1.2-2.7,2.7-2.7h33
	c1.5,0,2.7,1.2,2.7,2.7v3c0,0.6,0.5,1,1,1s1-0.5,1-1v-3C48.5,17.5,46.4,15.4,43.7,15.4L43.7,15.4z M42.4,68.6V70c0,0.6-0.5,1-1,1
	c-0.6,0-1-0.5-1-1v-1.3H42.4z M14.1,68.6V70c0,0.6-0.5,1-1,1c-0.6,0-1-0.5-1-1v-1.3H14.1z M20.8,6h13v9.4h-13V6z"/>
<path d="M19.7,64.6h23.7c0.6,0,1-0.5,1-1V41.1c0-0.6-0.5-1-1-1H11.1c-0.6,0-1,0.5-1,1v22.5c0,0.6,0.5,1,1,1h4c0.6,0,1-0.5,1-1
	c0-0.6-0.5-1-1-1h-3V42.1h30.3v20.5H19.7c-0.6,0-1,0.5-1,1C18.7,64.1,19.2,64.6,19.7,64.6z"/>
<path d="M36.1,50.4c0.6,0,1-0.5,1-1v-3.3h2.2c0.6,0,1-0.5,1-1s-0.5-1-1-1H15.1c-0.6,0-1,0.5-1,1s0.5,1,1,1h20v3.3
	C35.1,49.9,35.6,50.4,36.1,50.4z"/>
<path d="M34,31.6c0.6,0,1-0.5,1-1v-4c0-0.6-0.5-1-1-1H20.5c-0.6,0-1,0.5-1,1v4c0,0.6,0.5,1,1,1H34z M21.5,27.5H33v2H21.5V27.5z"/>
<path d="M70.3,35.6h-8v-3.8c0-1.8-1.4-3.2-3.2-3.2h-7.6c-0.6,0-1,0.5-1,1c0,0.6,0.5,1,1,1H59c0.7,0,1.2,0.5,1.2,1.2v3.8h-8.8
	c-0.6,0-1,0.5-1,1c0,0.6,0.5,1,1,1h8.8v2l-2.1,2.2c-0.2,0.2-0.3,0.4-0.3,0.7v6.2c0,0.6,0.5,1,1,1h4.9c0.6,0,1-0.5,1-1v-6.2
	c0-0.3-0.1-0.5-0.3-0.7l-2.1-2.2v-2h8c1.5,0,2.7,1.2,2.7,2.7v15.9h-3.4c-0.6,0-1,0.5-1,1s0.5,1,1,1H73v2.7H51.4c-0.6,0-1,0.5-1,1
	s0.5,1,1,1H73v1c0,1.5-1.2,2.7-2.7,2.7H51.4c-0.6,0-1,0.5-1,1c0,0.6,0.5,1,1,1h13.8V70c0,1.7,1.4,3,3,3c1.7,0,3-1.4,3-3v-1.4
	c2.1-0.5,3.7-2.4,3.7-4.6V40.3C75,37.7,72.9,35.6,70.3,35.6L70.3,35.6z M62.7,47.7h-2.8v-4.8l1.4-1.4l1.4,1.4V47.7z M69.3,70
	c0,0.6-0.5,1-1,1s-1-0.5-1-1v-1.3h2V70z"/>
<path d="M51.4,58.3h13.4c0.6,0,1-0.5,1-1s-0.5-1-1-1H51.4c-0.6,0-1,0.5-1,1S50.9,58.3,51.4,58.3z"/>
</svg>
