<?xml version="1.0" encoding="utf-8"?>
<!-- Generator: Adobe Illustrator 24.1.1, SVG Export Plug-In . SVG Version: 6.00 Build 0)  -->
<svg version="1.1" id="Capa_1" xmlns="http://www.w3.org/2000/svg" xmlns:xlink="http://www.w3.org/1999/xlink" x="0px" y="0px"
	 viewBox="0 0 10 10" style="enable-background:new 0 0 10 10;" xml:space="preserve">
<style type="text/css">
	.st0{fill:#65C8D0;}
	.st1{fill:none;stroke:#000000;stroke-width:0.2;stroke-miterlimit:10;}
	.st2{fill:#E6FFFF;}
	.st3{fill:#C7B299;}
	.st4{fill:#603813;}
</style>
<g>
	<path d="M8.12,7.74c0.07,0.07,0.14,0.14,0.2,0.21c0.01,0.03,0.05,0.28-0.13,0.48C8.01,8.63,7.75,8.6,7.72,8.6
		C7.65,8.54,7.58,8.49,7.51,8.43C6.63,7.54,5.75,6.66,4.87,5.77c-0.1-0.02-0.24-0.05-0.41-0.05c-0.41,0-0.71,0.14-0.71,0.15
		c0,0,0.2-0.07,0.99-0.34l0.54-0.54c0.04-0.05,0.07-0.1,0.11-0.17c0.16-0.28,0.22-0.57,0.24-0.78C5.6,4.21,5.56,4.44,5.55,4.71
		c0,0,0,0.16,0,0.31C5.57,5.4,6.56,6.51,8.12,7.74z"/>
	<g>
		<path d="M7.96,7.9c0.03,0.03,0.18,0.2,0.15,0.12C8.12,8.06,8.1,8.16,8.08,8.21C8.01,8.34,7.86,8.39,7.72,8.37
			c0.05,0.02,0.11,0.04,0.16,0.07C7.46,8.11,7.11,7.71,6.74,7.33C6.36,6.95,5.99,6.58,5.61,6.2C5.43,6.02,5.26,5.82,5.07,5.65
			C4.93,5.52,4.73,5.51,4.55,5.5c-0.3-0.02-0.63,0.04-0.9,0.17C3.41,5.79,3.58,6.15,3.82,6.09c0.12-0.03,0.23-0.08,0.35-0.12
			c0.28-0.1,0.61-0.15,0.82-0.36C5.14,5.46,5.3,5.31,5.44,5.15c0.27-0.3,0.38-0.73,0.42-1.11c0.02-0.25-0.39-0.31-0.44-0.06
			C5.34,4.33,5.25,4.79,5.35,5.15c0.07,0.25,0.25,0.47,0.4,0.67C6.38,6.61,7.17,7.28,7.96,7.9c0.22,0.18,0.54-0.14,0.32-0.32
			C7.54,7,6.81,6.37,6.19,5.65C6.05,5.48,5.88,5.27,5.8,5.08C5.79,5.07,5.77,4.97,5.78,5.02c-0.01-0.09-0.01-0.2,0-0.3
			C5.78,4.51,5.81,4.31,5.85,4.1C5.7,4.08,5.56,4.06,5.41,4.04C5.36,4.6,5.04,4.96,4.64,5.32C4.62,5.33,4.61,5.36,4.59,5.37
			c0.03-0.05,0.01-0.05-0.06,0C4.48,5.39,4.43,5.4,4.38,5.42C4.24,5.47,4.1,5.51,3.97,5.56C3.88,5.59,3.79,5.63,3.7,5.65
			c0.06,0.14,0.12,0.27,0.17,0.41C4,6,4.25,5.95,4.43,5.95c0.17,0,0.3-0.01,0.42,0.11C4.97,6.19,5.1,6.32,5.23,6.45
			C5.75,6.98,6.28,7.51,6.8,8.04C6.93,8.17,7.06,8.3,7.19,8.43c0.12,0.12,0.27,0.29,0.42,0.36C7.77,8.87,8,8.82,8.14,8.74
			c0.23-0.12,0.38-0.34,0.41-0.59c0.03-0.27-0.09-0.38-0.27-0.57C8.07,7.38,7.76,7.7,7.96,7.9z"/>
	</g>
</g>
<g>
	<path class="st0" d="M4.2,4.04v0.97H2.16V4.04c0-0.42,0.25-0.78,0.6-0.89c0.11,0.12,0.26,0.18,0.42,0.18c0.16,0,0.3-0.06,0.41-0.18
		C3.94,3.26,4.2,3.62,4.2,4.04z"/>
	<g>
		<path d="M4.05,4.04c0,0.32,0,0.65,0,0.97c0.05-0.05,0.1-0.1,0.15-0.15c-0.6,0-1.19,0-1.79,0c-0.08,0-0.17,0-0.25,0
			c0.05,0.05,0.1,0.1,0.15,0.15c0-0.27,0-0.55,0-0.82c0-0.14,0-0.27,0.04-0.41C2.41,3.56,2.58,3.37,2.8,3.29
			C2.75,3.28,2.7,3.27,2.65,3.26c0.29,0.29,0.76,0.29,1.04,0C3.65,3.27,3.6,3.28,3.55,3.29C3.87,3.4,4.05,3.72,4.05,4.04
			c0,0.19,0.3,0.19,0.3,0C4.34,3.58,4.07,3.15,3.63,3.01c-0.05-0.02-0.11,0-0.15,0.04c-0.17,0.18-0.44,0.18-0.62,0
			c-0.04-0.04-0.1-0.06-0.15-0.04C2.45,3.1,2.23,3.3,2.11,3.56c-0.08,0.18-0.1,0.37-0.1,0.56c0,0.3,0,0.59,0,0.89
			c0,0.08,0.07,0.15,0.15,0.15c0.6,0,1.19,0,1.79,0c0.08,0,0.17,0,0.25,0c0.08,0,0.15-0.07,0.15-0.15c0-0.32,0-0.65,0-0.97
			C4.35,3.85,4.05,3.85,4.05,4.04z"/>
	</g>
</g>
<g>
	<g>
		<path d="M2.86,5.01c0-0.32-0.01-0.64-0.01-0.96c0-0.05,0-0.09,0-0.14c0-0.19-0.3-0.19-0.3,0c0,0.32,0.01,0.64,0.01,0.96
			c0,0.05,0,0.09,0,0.14C2.57,5.2,2.87,5.21,2.86,5.01L2.86,5.01z"/>
	</g>
</g>
<g>
	<g>
		<path d="M3.81,5.01c0-0.32-0.01-0.64-0.01-0.96c0-0.05,0-0.09,0-0.14c0-0.19-0.3-0.19-0.3,0c0,0.32,0.01,0.64,0.01,0.96
			c0,0.05,0,0.09,0,0.14C3.51,5.2,3.81,5.21,3.81,5.01L3.81,5.01z"/>
	</g>
</g>
<path class="st1" d="M3.71,2.76"/>
<g>
	<circle class="st2" cx="3.3" cy="3.5" r="2.5"/>
	<g>
		<path d="M5.65,3.5C5.64,4.48,5.03,5.38,4.09,5.71C3.17,6.04,2.11,5.75,1.48,4.99c-0.63-0.76-0.71-1.86-0.2-2.7
			c0.5-0.84,1.5-1.29,2.46-1.1C4.85,1.4,5.63,2.38,5.65,3.5c0,0.19,0.3,0.19,0.3,0C5.93,2.4,5.27,1.41,4.24,1.02
			c-1.05-0.4-2.28-0.07-2.98,0.8c-0.7,0.86-0.8,2.09-0.23,3.04C1.59,5.8,2.7,6.3,3.79,6.1c1.25-0.23,2.15-1.35,2.16-2.6
			C5.95,3.31,5.65,3.31,5.65,3.5z"/>
	</g>
</g>
<g>
	<path class="st0" d="M2.18,5.06V4.05c0-0.53,0.5-0.96,1.12-0.96s1.12,0.43,1.12,0.96v0.98"/>
	<g>
		<path d="M2.26,5.06c0-0.25,0-0.5,0-0.75c0-0.09,0-0.18,0-0.26c0-0.23,0.1-0.43,0.26-0.59C2.88,3.12,3.47,3.07,3.9,3.32
			c0.2,0.12,0.36,0.3,0.42,0.52c0.03,0.11,0.03,0.22,0.03,0.34c0,0.28,0,0.57,0,0.85c0,0.1,0.15,0.1,0.15,0c0-0.28,0-0.56,0-0.83
			c0-0.13,0-0.25-0.03-0.38C4.4,3.6,4.26,3.41,4.08,3.27C3.67,2.96,3.07,2.93,2.63,3.19C2.28,3.4,2.11,3.74,2.11,4.13
			c0,0.31,0,0.62,0,0.93C2.11,5.16,2.26,5.16,2.26,5.06L2.26,5.06z"/>
	</g>
</g>
<g>
	<path class="st3" d="M4.02,2.4v0.46c0,0.31-0.32,0.56-0.72,0.56S2.58,3.16,2.58,2.86V2.41l0.82-0.38C3.49,2.24,3.73,2.39,4.02,2.4z
		"/>
	<g>
		<path d="M3.94,2.4c0,0.13,0,0.26,0,0.4c0,0.06,0,0.12-0.02,0.18C3.88,3.08,3.8,3.17,3.71,3.22C3.5,3.36,3.21,3.38,2.98,3.28
			C2.8,3.2,2.66,3.05,2.66,2.84c0-0.14,0-0.29,0-0.43C2.65,2.44,2.63,2.46,2.62,2.48C2.9,2.35,3.17,2.22,3.45,2.09
			c-0.03-0.01-0.07-0.02-0.1-0.03c0.12,0.26,0.4,0.39,0.67,0.41c0.1,0.01,0.1-0.14,0-0.15C3.79,2.31,3.57,2.21,3.47,1.99
			C3.45,1.95,3.4,1.95,3.37,1.96C3.1,2.09,2.82,2.22,2.55,2.35C2.52,2.36,2.51,2.39,2.51,2.41c0,0.14,0,0.29,0,0.43
			c0,0.23,0.14,0.42,0.33,0.53C3.1,3.52,3.42,3.53,3.69,3.41c0.22-0.1,0.4-0.3,0.4-0.55c0-0.15,0-0.3,0-0.46
			C4.09,2.31,3.94,2.31,3.94,2.4z"/>
	</g>
</g>
<g>
	<path class="st4" d="M4.02,2.02V2.4C3.73,2.39,3.49,2.24,3.41,2.03L2.58,2.41V2.02c0-0.31,0.32-0.56,0.72-0.56
		c0.08,0,0.16,0.01,0.23,0.03c0.19,0.04,0.34,0.15,0.41,0.28C3.99,1.86,4.02,1.94,4.02,2.02z"/>
	<g>
		<path d="M3.94,2.02c0,0.13,0,0.25,0,0.38c0.03-0.03,0.05-0.05,0.08-0.08C3.79,2.31,3.57,2.21,3.47,1.99
			C3.45,1.95,3.4,1.95,3.37,1.96C3.1,2.09,2.82,2.22,2.55,2.35c0.04,0.02,0.08,0.04,0.11,0.06c0-0.11,0-0.23,0-0.34
			c0-0.15,0.05-0.27,0.17-0.37C3,1.56,3.25,1.51,3.46,1.56C3.69,1.61,3.93,1.76,3.94,2.02c0,0.1,0.15,0.1,0.15,0
			C4.07,1.55,3.53,1.34,3.12,1.41c-0.33,0.06-0.61,0.3-0.61,0.65c0,0.12,0,0.23,0,0.35c0,0.06,0.06,0.09,0.11,0.06
			C2.9,2.35,3.17,2.22,3.45,2.09c-0.03-0.01-0.07-0.02-0.1-0.03c0.12,0.26,0.4,0.39,0.67,0.41c0.04,0,0.07-0.04,0.07-0.08
			c0-0.13,0-0.25,0-0.38C4.09,1.93,3.94,1.93,3.94,2.02z"/>
	</g>
</g>
<g>
	<path class="st4" d="M4.02,2.4V2.02c0-0.08-0.03-0.17-0.07-0.24C3.87,1.65,3.71,1.55,3.53,1.5"/>
	<g>
		<path d="M4.09,2.4c0-0.13,0-0.25,0-0.38c0-0.31-0.26-0.53-0.54-0.6C3.46,1.41,3.42,1.55,3.51,1.57c0.22,0.05,0.43,0.22,0.43,0.46
			c0,0.12,0,0.24,0,0.37C3.94,2.5,4.09,2.5,4.09,2.4L4.09,2.4z"/>
	</g>
</g>
<g>
	<g>
		<path d="M3.22,3.42c0,0.21,0,0.43,0,0.64c0,0.03,0,0.06,0,0.09c0,0.1,0.15,0.1,0.15,0c0-0.21,0-0.43,0-0.64c0-0.03,0-0.06,0-0.09
			C3.38,3.32,3.22,3.32,3.22,3.42L3.22,3.42z"/>
	</g>
</g>
<g>
	<g>
		<path d="M2.65,4.15c0,0.27,0,0.53-0.01,0.8c0,0.04,0,0.08,0,0.11c0,0.1,0.15,0.1,0.15,0c0-0.27,0-0.53,0.01-0.8
			c0-0.04,0-0.08,0-0.11C2.8,4.05,2.65,4.05,2.65,4.15L2.65,4.15z"/>
	</g>
</g>
<g>
	<g>
		<path d="M3.78,4.15c0,0.26-0.01,0.52-0.01,0.78c0,0.04,0,0.07,0,0.11c0,0.1,0.15,0.1,0.15,0c0-0.26,0.01-0.52,0.01-0.78
			c0-0.04,0-0.07,0-0.11C3.93,4.05,3.78,4.05,3.78,4.15L3.78,4.15z"/>
	</g>
</g>
</svg>
