<?xml version="1.0" encoding="utf-8"?>
<!-- Generator: Adobe Illustrator 22.0.0, SVG Export Plug-In . SVG Version: 6.00 Build 0)  -->
<svg version="1.1" id="Layer_1" xmlns="http://www.w3.org/2000/svg" xmlns:xlink="http://www.w3.org/1999/xlink" x="0px" y="0px"
	 viewBox="0 0 80 80" style="enable-background:new 0 0 80 80;" xml:space="preserve">
<style type="text/css">
	.st0{fill:#9EF1FF;}
	.st1{fill:#FF7F2B;}
	.st2{fill:#0053A8;}
	.st3{fill:#00864F;}
	.st4{fill:#F09100;}
	.st5{fill:#74FF21;}
	.st6{fill:#FFE0B2;}
</style>
<path id="Shape" class="st0" d="M20.7,48.1h-1.1c-6.9,0-12.5-5.6-12.5-12.5s5.6-12.5,12.5-12.5c0.7,0,1.4,0.1,2.1,0.2
	c1.6-3.4,5-5.7,8.8-5.8c2.2-6.9,9.1-11.1,16.3-10s12.4,7.3,12.4,14.6c0,0.4,0,0.8,0,1.2c0.4,0,0.8-0.1,1.1-0.1
	c6.9,0,12.5,5.6,12.5,12.5s-5.6,12.5-12.5,12.5H20.7z"/>
<path id="Shape_3_" class="st1" d="M34.3,59.5c0,3.7-1.5,7.2-4.1,9.8c-1-2.9-3.5-6.4-9.5-6.4c3.1,0,5.7-2.5,5.7-5.7
	c0-3.1-2.5-5.7-5.7-5.7s-5.7,2.5-5.7,5.7c0,3.1,2.5,5.7,5.7,5.7c-5.9,0-8.4,3.5-9.5,6.4c-4.4-4.3-5.4-11.1-2.4-16.4s9.3-8,15.3-6.5
	C30.2,47.9,34.3,53.3,34.3,59.5z"/>
<path id="Shape_5_" class="st2" d="M30.2,69.2c-5.3,5.1-13.6,5.1-18.9,0c1-2.9,3.5-6.4,9.5-6.4S29.2,66.3,30.2,69.2z"/>
<path id="Shape_7_" class="st3" d="M68.7,69.2c-5.3,5.1-13.6,5.1-18.9,0c1-2.9,3.5-6.4,9.5-6.4C65.2,62.9,67.7,66.3,68.7,69.2z"/>
<path id="Shape_9_" class="st4" d="M72.9,59.5c0,3.7-1.5,7.2-4.1,9.8c-1-2.9-3.5-6.4-9.5-6.4c3.1,0,5.7-2.5,5.7-5.7
	c0-3.1-2.5-5.7-5.7-5.7c-3.1,0-5.7,2.5-5.7,5.7c0,3.1,2.5,5.7,5.7,5.7c-5.9,0-8.4,3.5-9.5,6.4c-4.4-4.3-5.4-11.1-2.4-16.4
	s9.3-8,15.3-6.5C68.7,47.9,72.9,53.3,72.9,59.5z"/>
<circle id="Oval" class="st5" cx="40" cy="33.4" r="4.5"/>
<circle id="Oval_1_" class="st6" cx="20.7" cy="57.2" r="5.7"/>
<circle id="Oval_2_" class="st6" cx="59.3" cy="57.2" r="5.7"/>
<path id="Shape_14_" d="M74,35.7c0-7.5-6.1-13.6-13.6-13.6c0-7.7-5.5-14.2-13-15.6s-15,2.8-17.7,10c-3.6,0.4-6.8,2.5-8.6,5.7
	c-0.5-0.1-1-0.1-1.5-0.1c-6.1,0-11.4,4-13.1,9.9s0.8,12.1,6,15.3c-5.7,3.9-7.9,11.1-5.4,17.5C9.6,71.2,16.1,75,22.9,74
	s12-6.6,12.5-13.4c1.8,0,3.5-0.8,4.5-2.3c1.1,1.4,2.7,2.3,4.5,2.3C45.1,67.4,50.3,73,57.1,74c6.8,1,13.4-2.8,15.9-9.2
	c2.5-6.4,0.2-13.7-5.4-17.5C71.6,44.8,74,40.4,74,35.7L74,35.7z M12.7,68.9c1.4-3.3,4.1-4.9,8.1-4.9s6.7,1.7,8.1,4.9
	C24.2,72.9,17.3,72.9,12.7,68.9z M16.2,57.2c0-2.5,2-4.5,4.5-4.5s4.5,2,4.5,4.5s-2,4.5-4.5,4.5c-1.2,0-2.4-0.5-3.2-1.3
	C16.7,59.5,16.2,58.4,16.2,57.2z M30.5,67.2c-1.2-2.2-3.1-3.9-5.5-4.7c2.2-1.8,3.1-4.8,2.1-7.5c-1-2.7-3.5-4.5-6.4-4.5
	s-5.4,1.8-6.4,4.5c-1,2.7-0.1,5.7,2.1,7.5c-2.4,0.8-4.3,2.5-5.5,4.7c-4-5.1-3.5-12.5,1.3-16.9s12.2-4.4,16.9,0S34.6,62.1,30.5,67.2z
	 M35.5,58.3c-0.3-3.4-1.7-6.6-4.1-9.1h7.5v5.7C38.9,56.8,37.4,58.3,35.5,58.3z M41.1,54.9v-5.7h7.5c-2.4,2.5-3.8,5.7-4.1,9.1
	c-0.9,0-1.8-0.3-2.4-1C41.5,56.7,41.1,55.8,41.1,54.9z M51.2,68.9c1.4-3.3,4.1-4.9,8.1-4.9s6.7,1.7,8.1,4.9
	C62.7,72.9,55.8,72.9,51.2,68.9z M54.7,57.2c0-2.5,2-4.5,4.5-4.5c2.5,0,4.5,2,4.5,4.5s-2,4.5-4.5,4.5C56.8,61.7,54.7,59.7,54.7,57.2
	z M71.7,59.5c0,2.8-0.9,5.5-2.7,7.7c-1.2-2.2-3.1-3.9-5.5-4.7c2.2-1.8,3.1-4.8,2.1-7.5c-1-2.7-3.5-4.5-6.4-4.5
	c-2.9,0-5.4,1.8-6.4,4.5c-1,2.7-0.1,5.7,2.1,7.5c-2.4,0.8-4.3,2.5-5.5,4.7c-3.4-4.3-3.6-10.3-0.5-14.8c3.1-4.5,8.8-6.5,14-4.8
	C68.2,49.2,71.7,54,71.7,59.5L71.7,59.5z M65.1,46c-4.4-1.9-9.6-1.6-13.7,1H41.1v-8c2.8-0.6,4.8-3.2,4.5-6.1
	c-0.3-2.9-2.7-5.1-5.6-5.1c-2.9,0-5.3,2.2-5.6,5.1c-0.3,2.9,1.7,5.5,4.5,6.1v8H28.6c-4.1-2.6-9.2-3-13.7-1c-3.9-1.8-6.5-5.6-6.7-9.8
	C8,31.8,10.3,27.8,14,25.7c3.7-2.1,8.3-1.9,11.9,0.5c0.3,0.2,0.8,0.3,1.1,0.1c0.4-0.2,0.6-0.5,0.6-1c0-0.4-0.2-0.8-0.5-1
	c-1.1-0.8-2.4-1.3-3.7-1.7c1.6-2.4,4.3-3.8,7.2-3.9h0.3c2,0,3.9,0.6,5.4,1.8c0.5,0.4,1.2,0.3,1.6-0.2s0.3-1.2-0.2-1.6
	c-1.6-1.2-3.6-2-5.6-2.2c2.6-5.8,9-9,15.2-7.7s10.7,6.9,10.7,13.3v0.2c-1.9,0.3-3.7,1-5.3,2.1c-0.5,0.4-0.7,1.1-0.3,1.6
	c0.4,0.5,1.1,0.7,1.6,0.3c1.9-1.2,4-1.9,6.3-1.9c5.3,0,9.9,3.7,11,8.9S70,43.7,65.1,46L65.1,46z M40,36.8c-1.9,0-3.4-1.5-3.4-3.4
	c0-1.9,1.5-3.4,3.4-3.4c1.9,0,3.4,1.5,3.4,3.4C43.4,35.3,41.9,36.8,40,36.8L40,36.8z"/>
</svg>
