<?xml version="1.0" encoding="utf-8"?>
<!-- Generator: Adobe Illustrator 22.0.0, SVG Export Plug-In . SVG Version: 6.00 Build 0)  -->
<svg version="1.1" id="Layer_1" xmlns="http://www.w3.org/2000/svg" xmlns:xlink="http://www.w3.org/1999/xlink" x="0px" y="0px"
	 viewBox="0 0 80 80" style="enable-background:new 0 0 80 80;" xml:space="preserve">
<style type="text/css">
	.st0{fill:#FFD2B7;}
	.st1{fill:#C99C00;}
	.st2{fill:#00516F;}
</style>
<path class="st0" d="M72.1,35.7c-1.7-1.5-4.3-1.2-5.8,0.5l-9.4,9.7h0c-0.5-1.8-2.1-3-4-3H37.2c-2-0.9-4.3-1.4-6.6-1.4
	c-6.5,0-12.2,3.2-14.8,9.1L28.2,63l0,0l2.1-2.1c1-1,2.4-1.5,3.8-1.5h18.4c2.9,0,5.6-1.1,7.7-3.1l12.3-14.8
	C74,39.8,73.8,37.2,72.1,35.7z"/>
<path class="st1" d="M59.3,19.1c0,7.6-6.2,13.8-13.8,13.8s-13.8-6.2-13.8-13.8c0-7.6,6.2-13.8,13.8-13.8S59.3,11.5,59.3,19.1z"/>
<path class="st2" d="M28,66.6l-6.7,6.6L5.8,57.6l6.6-6.6c1.1-1.1,2.8-1.1,3.9,0L28,62.7C29.1,63.8,29,65.5,28,66.6z"/>
<path d="M36.9,51.8c0.5-0.5,0.5-1.4,0-1.9c-0.5-0.5-1.4-0.5-1.9,0c-0.5,0.5-0.5,1.4,0,1.9C35.5,52.4,36.4,52.4,36.9,51.8z"/>
<path d="M30.4,19.1c0,8.4,6.8,15.1,15.1,15.1s15.1-6.8,15.1-15.1S53.9,4,45.5,4S30.4,10.8,30.4,19.1z M57.9,19.1
	c0,6.8-5.6,12.4-12.4,12.4S33.1,26,33.1,19.1c0-6.8,5.6-12.4,12.4-12.4S57.9,12.3,57.9,19.1z"/>
<path d="M20.4,74.1c0.5,0.5,1.4,0.5,1.9,0l6.7-6.6c1.1-1.1,1.5-2.8,1-4.3l1.4-1.4c0.8-0.7,1.8-1.2,2.9-1.2h18.3
	c3.2,0,6.3-1.2,8.6-3.5c0.1-0.1-0.7,0.9,12.5-14.9c2-2.3,1.7-5.8-0.7-7.8c-2.3-1.9-5.8-1.7-7.7,0.6l-8.1,8.4c-1-1.3-2.6-2-4.3-2
	H37.6c-2.2-0.9-4.5-1.4-6.9-1.4c-6.6,0-12.4,3.1-15.5,8.8c-1.3-0.2-2.7,0.1-3.7,1.1l-6.6,6.6c-0.5,0.5-0.5,1.4,0,1.9L20.4,74.1z
	 M30.7,42.8c2.1,0,4.1,0.4,6.1,1.3c0.2,0.1,0.4,0.1,0.6,0.1h15.6c1.5,0,2.8,1.2,2.8,2.8c0,1.5-1.2,2.8-2.8,2.8H41.7
	c-0.8,0-1.4,0.6-1.4,1.4c0,0.8,0.6,1.4,1.4,1.4h11.2c3,0,5.5-2.5,5.5-5.5c0-0.2,0-0.5,0-0.7c7.9-8.1,9-9.2,9-9.3
	c1-1.2,2.7-1.3,3.9-0.3c1.2,1,1.3,2.7,0.3,3.9L59.2,55.3C57.4,57,55.1,58,52.6,58H34.3c-1.8,0-3.5,0.7-4.8,1.9L28.3,61L17.5,50.3
	C20,45.5,24.8,42.8,30.7,42.8z M13.4,52c0.5-0.5,1.2-0.5,1.7-0.2c0.2,0.1-0.4-0.5,11.9,11.9c0.6,0.6,0.5,1.4,0,1.9l-5.7,5.6
	L7.8,57.6L13.4,52z"/>
<path d="M43.8,10.9v1.6c-1.6,0.6-2.8,2.1-2.8,3.9c0,2.3,1.8,4.1,4.1,4.1c0.7,0,1.3,0.5,1.4,1.2c0.1,0.8-0.6,1.5-1.4,1.5
	c-0.6,0-1.2-0.4-1.8-1c-0.4-0.5-1.2-0.7-1.8-0.3c-0.8,0.4-0.9,1.4-0.4,2.1c0.7,0.9,1.6,1.5,2.5,1.8v1.6c0,0.7,0.5,1.3,1.2,1.4
	c0.9,0.1,1.6-0.5,1.6-1.4v-1.6c1.6-0.6,2.8-2.1,2.8-3.9c0-2.3-1.8-4.1-4.1-4.1c-0.7,0-1.3-0.5-1.4-1.2c-0.1-0.8,0.6-1.5,1.4-1.5
	c0.5,0,1,0.2,1.5,0.7c0.5,0.5,1.3,0.6,1.8,0.2c0.7-0.5,0.7-1.5,0.1-2.1c-0.7-0.7-1.4-1.1-2-1.3v-1.6c0-0.8-0.7-1.5-1.6-1.4
	C44.3,9.6,43.8,10.2,43.8,10.9z"/>
</svg>
