<?xml version="1.0" encoding="utf-8"?>
<!-- Generator: Adobe Illustrator 22.0.0, SVG Export Plug-In . SVG Version: 6.00 Build 0)  -->
<svg version="1.1" id="Layer_1" xmlns="http://www.w3.org/2000/svg" xmlns:xlink="http://www.w3.org/1999/xlink" x="0px" y="0px"
	 viewBox="0 0 80 80" style="enable-background:new 0 0 80 80;" xml:space="preserve">
<style type="text/css">
	.st0{fill:#E7ECED;}
	.st1{fill:#180003;}
	.st2{fill:#FFD6C0;}
	.st3{fill:#231F20;}
</style>
<path class="st0" d="M69.9,72c0,0,0,1.7,0,3.9H11.2c0-2.2,0-3.9,0-3.9s0.1-8.5,14.7-13.1c0,0,5.3-2.8,7-4.6c0,0,3.2,3.9,7.7,3.9
	s7.7-3.9,7.7-3.9c1.7,1.9,7,4.6,7,4.6C69.9,63.5,69.9,72,69.9,72z"/>
<path class="st1" d="M27.9,17.1c0,4.6-5.4,5.4-5.4,5.4v-7.7c0,0,0.7-11.6,17-11.6s17,11.6,17,11.6v7.7c0,0-5.4-0.7-5.4-5.4
	l-11.6,4.6L27.9,17.1z"/>
<path class="st2" d="M32.8,49.3c2.3,1.2,4.9,1.8,7.7,1.8s5.5-0.6,7.7-1.8v4.9c0,0-3.2,3.9-7.7,3.9s-7.7-3.9-7.7-3.9V49.3z"/>
<path class="st2" d="M23.5,32.5c0,1,0.1,2.1,0.2,3c-2.4-0.3-4.8-2.6-4.8-4.6c0-2.1,2.1-3.1,4.6-3.1V32.5z"/>
<path class="st2" d="M57.6,27.9c2.6,0,4.6,1,4.6,3.1c0,2-2.4,4.3-4.8,4.6c0.1-1,0.2-2,0.2-3V27.9z"/>
<path class="st2" d="M57.6,26.9v4.6c0,1-0.1,2.1-0.2,3c-0.8,6-4.1,11.1-9.1,13.7c-2.3,1.2-4.9,1.8-7.7,1.8s-5.5-0.6-7.7-1.8
	c-5-2.6-8.2-7.6-9.1-13.7c-0.1-1-0.2-2-0.2-3v-4.6v-5.4c0,0,5.4-0.8,5.4-5.4l11.6,4.6l11.6-4.6c0,4.7,5.4,5.4,5.4,5.4V26.9z"/>
<path class="st3" d="M55.7,57.8c-1.4-0.7-4.8-2.7-6.2-4V50c4.7-2.7,7.9-7.5,8.9-13.4c2.7-0.8,5-3.3,5-5.6c0-2.3-1.7-3.9-4.6-4.2v-12
	l0-0.1c0-0.1-0.2-3.3-2.6-6.4C52.1,3.1,45.5,2,40.5,2S29,3.1,25,8.3c-2.4,3.1-2.6,6.3-2.6,6.4l0,6.8v5.3c-2.9,0.3-4.6,1.9-4.6,4.2
	c0,2.3,2.3,4.8,5,5.6c1,5.9,4.2,10.7,8.9,13.4v3.8c-1.5,1.4-4.9,3.3-6.2,4C10.3,62.6,10,71.6,10,72l0,5h61.1v-5
	C71.1,71.6,70.9,62.6,55.7,57.8z M34,53.7v-2.7c2,0.8,4.2,1.2,6.6,1.2c2.3,0,4.5-0.4,6.6-1.2v2.7c-0.8,0.8-3.3,3.2-6.6,3.2
	C37.3,56.9,34.8,54.6,34,53.7z M61,31c0,0.9-1,2.2-2.4,2.9c0-0.5,0-4.8,0-4.8C60.8,29.4,61,30.5,61,31z M26.8,9.7
	c2.7-3.5,7.3-5.3,13.7-5.3c14.7,0,15.8,9.8,15.9,10.5V21c-1.3-0.5-3.1-1.6-3.1-3.9v-1.7l-12.8,5.1l-12.8-5.1v1.7
	c0,2.3-1.8,3.4-3.1,3.9v-6.2C24.7,14.5,25,12.1,26.8,9.7z M20.1,31c0-0.5,0.3-1.6,2.3-1.9c0,0,0,4.3,0,4.8
	C21.1,33.2,20.1,31.9,20.1,31z M24.9,35.4c-0.1-0.9-0.2-1.9-0.2-2.9v-9.1c1.9-0.6,4.5-2,5.2-4.7L40.5,23l10.6-4.3
	c0.7,2.8,3.3,4.2,5.2,4.7v9.1c0,1-0.1,2-0.2,2.9c-0.8,5.8-3.9,10.4-8.5,12.8c-2.2,1.1-4.6,1.7-7.2,1.7c-2.6,0-5-0.6-7.2-1.7
	C28.8,45.9,25.7,41.2,24.9,35.4z M68.8,74.7H12.3V72c0-0.2,0.4-7.7,13.9-12.1c0,0,4.4-2.3,6.6-4.1c0.7,0.7,2,1.7,3.5,2.4v14.1h7.3
	V70h-5V59c0.6,0.1,1.3,0.2,1.9,0.2c3.6,0,6.4-2.1,7.8-3.4c2.2,1.8,6.6,4.1,6.6,4.1c3.9,1.2,9.2,3.6,12.1,7.7
	c1.7,2.4,1.8,4.2,1.8,4.3L68.8,74.7L68.8,74.7z"/>
<path class="st3" d="M40.5,39.9h3.1v-2.3h-1.9v-5h-2.3v6.2C39.4,39.4,39.9,39.9,40.5,39.9z"/>
<rect x="39.8" y="61.5" class="st3" width="3.1" height="2.3"/>
<rect x="39.8" y="65.4" class="st3" width="3.1" height="2.3"/>
</svg>
