<?xml version="1.0" encoding="utf-8"?>
<!-- Generator: Adobe Illustrator 22.0.0, SVG Export Plug-In . SVG Version: 6.00 Build 0)  -->
<svg version="1.1" id="Layer_1" xmlns="http://www.w3.org/2000/svg" xmlns:xlink="http://www.w3.org/1999/xlink" x="0px" y="0px"
	 viewBox="0 0 80 80" style="enable-background:new 0 0 80 80;" xml:space="preserve">
<style type="text/css">
	.st0{fill:#009D88;}
	.st1{fill:#EFEDEF;}
	.st2{fill:#00658A;}
	.st3{fill:#00525E;}
	.st4{fill:#EE6161;}
	.st5{fill:#D4F2F6;}
	.st6{fill:#FFB443;}
	.st7{fill:#5C3900;}
</style>
<path class="st0" d="M64.6,17.8H13.2L7,22.3v32.2c0,2.7,2.2,5,5,5h27.2h24.5c2.5,0,4.6-2.1,4.6-4.6V36.5V22.3L64.6,17.8z"/>
<path class="st1" d="M58.2,34.4C47.6,34.4,39,43,39,53.6c0,2.1,0.3,4.1,0.9,5.9h23.8c2.5,0,4.6-2.1,4.6-4.6V37.3
	C65.4,35.5,61.9,34.4,58.2,34.4L58.2,34.4z"/>
<circle class="st2" cx="58.2" cy="53.6" r="15.8"/>
<path class="st3" d="M47.1,53.6c0-7.9,5.8-14.5,13.4-15.6c-0.8-0.1-1.6-0.2-2.4-0.2c-8.7,0-15.8,7.1-15.8,15.8
	c0,8.7,7.1,15.8,15.8,15.8c0.8,0,1.6-0.1,2.4-0.2C53,68.1,47.1,61.5,47.1,53.6L47.1,53.6z"/>
<path class="st4" d="M17.6,33.5h-3c-0.7,0-1.3-0.6-1.3-1.3v-3c0-0.7,0.6-1.3,1.3-1.3h3c0.7,0,1.3,0.6,1.3,1.3v3
	C18.9,33,18.3,33.5,17.6,33.5z"/>
<path class="st5" d="M28.3,33.5h-3c-0.7,0-1.3-0.6-1.3-1.3v-3c0-0.7,0.6-1.3,1.3-1.3h3c0.7,0,1.3,0.6,1.3,1.3v3
	C29.6,33,29,33.5,28.3,33.5z"/>
<path class="st5" d="M39.1,33.5h-3c-0.7,0-1.3-0.6-1.3-1.3v-3c0-0.7,0.6-1.3,1.3-1.3h3c0.7,0,1.3,0.6,1.3,1.3v3
	C40.4,33,39.8,33.5,39.1,33.5z"/>
<path class="st5" d="M49.8,33.5h-3c-0.7,0-1.3-0.6-1.3-1.3v-3c0-0.7,0.6-1.3,1.3-1.3h3c0.7,0,1.3,0.6,1.3,1.3v3
	C51.2,33,50.6,33.5,49.8,33.5z"/>
<path class="st5" d="M60.6,33.5h-3c-0.7,0-1.3-0.6-1.3-1.3v-3c0-0.7,0.6-1.3,1.3-1.3h3c0.7,0,1.3,0.6,1.3,1.3v3
	C61.9,33,61.3,33.5,60.6,33.5z"/>
<path class="st4" d="M17.6,43.8h-3c-0.7,0-1.3-0.6-1.3-1.3v-3c0-0.7,0.6-1.3,1.3-1.3h3c0.7,0,1.3,0.6,1.3,1.3v3
	C18.9,43.2,18.3,43.8,17.6,43.8z"/>
<path class="st5" d="M28.3,43.8h-3c-0.7,0-1.3-0.6-1.3-1.3v-3c0-0.7,0.6-1.3,1.3-1.3h3c0.7,0,1.3,0.6,1.3,1.3v3
	C29.6,43.2,29,43.8,28.3,43.8z"/>
<path class="st5" d="M39.1,43.8h-3c-0.7,0-1.3-0.6-1.3-1.3v-3c0-0.7,0.6-1.3,1.3-1.3h3c0.7,0,1.3,0.6,1.3,1.3v3
	C40.4,43.2,39.8,43.8,39.1,43.8z"/>
<path class="st4" d="M17.6,54h-3c-0.7,0-1.3-0.6-1.3-1.3v-3c0-0.7,0.6-1.3,1.3-1.3h3c0.7,0,1.3,0.6,1.3,1.3v3
	C18.9,53.4,18.3,54,17.6,54z"/>
<path class="st5" d="M28.3,54h-3c-0.7,0-1.3-0.6-1.3-1.3v-3c0-0.7,0.6-1.3,1.3-1.3h3c0.7,0,1.3,0.6,1.3,1.3v3
	C29.6,53.4,29,54,28.3,54z"/>
<path class="st0" d="M17.2,54.6V22.3l6.2-4.5H13.2L7,22.3v32.2c0,2.7,2.2,5,5,5h10.1C19.4,59.5,17.2,57.3,17.2,54.6z"/>
<g>
	<path class="st4" d="M14.5,54h2.6v-5.7h-2.6c-0.7,0-1.3,0.6-1.3,1.3v3C13.2,53.4,13.8,54,14.5,54L14.5,54z"/>
	<path class="st4" d="M14.5,43.8h2.6v-5.7h-2.6c-0.7,0-1.3,0.6-1.3,1.3v3C13.2,43.2,13.8,43.8,14.5,43.8z"/>
	<path class="st4" d="M14.5,33.5h2.6v-5.7h-2.6c-0.7,0-1.3,0.6-1.3,1.3v3C13.2,33,13.8,33.5,14.5,33.5z"/>
</g>
<g>
	<path class="st6" d="M68.3,18.3v3.9H7v-3.9c0-2.7,2.2-5,5-5H18h39.2h6.1C66.1,13.4,68.3,15.6,68.3,18.3z"/>
</g>
<path class="st6" d="M22.1,13.4H18H12c-2.7,0-5,2.2-5,5v3.9h10.1v-3.9C17.2,15.6,19.4,13.4,22.1,13.4z"/>
<g>
	<path class="st7" d="M37.7,17.8c-1.2,0-2.1-0.9-2.1-2.1v-4.4c0-1.2,0.9-2.1,2.1-2.1c1.2,0,2.1,0.9,2.1,2.1v4.4
		C39.8,16.8,38.8,17.8,37.7,17.8z"/>
	<path class="st7" d="M28.9,17.8c-1.2,0-2.1-0.9-2.1-2.1v-4.4c0-1.2,0.9-2.1,2.1-2.1c1.2,0,2.1,0.9,2.1,2.1v4.4
		C31,16.8,30.1,17.8,28.9,17.8z"/>
	<path class="st7" d="M20.1,17.8c-1.2,0-2.1-0.9-2.1-2.1v-4.4c0-1.2,0.9-2.1,2.1-2.1s2.1,0.9,2.1,2.1v4.4
		C22.2,16.8,21.3,17.8,20.1,17.8z"/>
	<path class="st7" d="M46.4,17.8c1.2,0,2.1-0.9,2.1-2.1v-4.4c0-1.2-0.9-2.1-2.1-2.1s-2.1,0.9-2.1,2.1v4.4
		C44.3,16.8,45.3,17.8,46.4,17.8z"/>
	<path class="st7" d="M55.2,17.8c1.2,0,2.1-0.9,2.1-2.1v-4.4c0-1.2-0.9-2.1-2.1-2.1c-1.2,0-2.1,0.9-2.1,2.1v4.4
		C53.1,16.8,54,17.8,55.2,17.8z"/>
</g>
<circle class="st3" cx="58.2" cy="53.6" r="2.6"/>
<path d="M39.2,58.5H12c-2.2,0-4-1.8-4-4V23.3h6.7c0.6,0,1-0.5,1-1c0-0.6-0.5-1-1-1H8v-2.8c0-2.2,1.8-4,4-4h5v1.2
	c0,1.7,1.4,3.1,3.1,3.1c1.7,0,3.1-1.4,3.1-3.1v-1.2h2.5v1.2c0,1.7,1.4,3.1,3.1,3.1c1.7,0,3.1-1.4,3.1-3.1v-1.2h2.5v1.2
	c0,1.7,1.4,3.1,3.1,3.1c1.7,0,3.1-1.4,3.1-3.1v-1.2h2.5v1.2c0,1.7,1.4,3.1,3.1,3.1s3.1-1.4,3.1-3.1v-1.2h2.5v1.2
	c0,1.7,1.4,3.1,3.1,3.1s3.1-1.4,3.1-3.1v-1.2h5c2.2,0,4,1.8,4,4v2.8H19.1c-0.6,0-1,0.5-1,1s0.5,1,1,1h48.2v13.2c0,0.6,0.5,1,1,1
	c0.6,0,1-0.5,1-1v-18c0-3.3-2.7-6-6-6h-5v-1.2c0-1.7-1.4-3.1-3.1-3.1s-3.1,1.4-3.1,3.1v1.2h-2.5v-1.2c0-1.7-1.4-3.1-3.1-3.1
	s-3.1,1.4-3.1,3.1v1.2h-2.5v-1.2c0-1.7-1.4-3.1-3.1-3.1c-1.7,0-3.1,1.4-3.1,3.1v1.2H32v-1.2c0-1.7-1.4-3.1-3.1-3.1
	c-1.7,0-3.1,1.4-3.1,3.1v1.2h-2.5v-1.2c0-1.7-1.4-3.1-3.1-3.1c-1.7,0-3.1,1.4-3.1,3.1v1.2h-5c-3.3,0-6,2.7-6,6v36.1c0,3.3,2.7,6,6,6
	h27.2c0.6,0,1-0.5,1-1S39.8,58.5,39.2,58.5L39.2,58.5z M54.1,11.3c0-0.6,0.5-1.1,1.1-1.1s1.1,0.5,1.1,1.1v4.4c0,0.6-0.5,1.1-1.1,1.1
	s-1.1-0.5-1.1-1.1V11.3z M45.3,11.3c0-0.6,0.5-1.1,1.1-1.1s1.1,0.5,1.1,1.1v4.4c0,0.6-0.5,1.1-1.1,1.1s-1.1-0.5-1.1-1.1V11.3z
	 M36.6,11.3c0-0.6,0.5-1.1,1.1-1.1c0.6,0,1.1,0.5,1.1,1.1v4.4c0,0.6-0.5,1.1-1.1,1.1s-1.1-0.5-1.1-1.1V11.3z M27.8,11.3
	c0-0.6,0.5-1.1,1.1-1.1s1.1,0.5,1.1,1.1v4.4c0,0.6-0.5,1.1-1.1,1.1s-1.1-0.5-1.1-1.1V11.3z M19.1,11.3c0-0.6,0.5-1.1,1.1-1.1
	c0.6,0,1.1,0.5,1.1,1.1v4.4c0,0.6-0.5,1.1-1.1,1.1c-0.6,0-1.1-0.5-1.1-1.1V11.3z"/>
<path d="M58.2,36.8c-6,0-11.5,3.2-14.6,8.4c-0.3,0.5-0.1,1.1,0.4,1.4c0.5,0.3,1.1,0.1,1.4-0.4c2.6-4.5,7.5-7.4,12.8-7.4
	c8.2,0,14.8,6.6,14.8,14.8s-6.6,14.8-14.8,14.8c-8.2,0-14.8-6.6-14.8-14.8c0-1.2,0.2-2.5,0.5-3.7c0.1-0.5-0.2-1.1-0.7-1.2
	c-0.5-0.1-1.1,0.2-1.2,0.7c-0.3,1.4-0.5,2.8-0.5,4.2c0,9.3,7.5,16.8,16.8,16.8S75,62.9,75,53.6S67.5,36.8,58.2,36.8L58.2,36.8z"/>
<path d="M59.2,42.9V42c0-0.6-0.5-1-1-1c-0.6,0-1,0.5-1,1v0.9c0,0.6,0.5,1,1,1C58.7,43.9,59.2,43.4,59.2,42.9z"/>
<path d="M50.6,47c0.3,0,0.5-0.1,0.7-0.3c0.4-0.4,0.4-1,0-1.4l-0.6-0.6c-0.4-0.4-1-0.4-1.4,0s-0.4,1,0,1.4l0.6,0.6
	C50.1,46.9,50.3,47,50.6,47L50.6,47z"/>
<path d="M47.5,54.6c0.6,0,1-0.5,1-1c0-0.6-0.5-1-1-1h-0.9c-0.6,0-1,0.5-1,1c0,0.6,0.5,1,1,1H47.5z"/>
<path d="M49.3,62.5c0.2,0.2,0.5,0.3,0.7,0.3c0.3,0,0.5-0.1,0.7-0.3l0.6-0.6c0.4-0.4,0.4-1,0-1.4c-0.4-0.4-1-0.4-1.4,0l-0.6,0.6
	C48.9,61.5,48.9,62.1,49.3,62.5L49.3,62.5z"/>
<path d="M57.2,64.3v0.9c0,0.6,0.5,1,1,1c0.6,0,1-0.5,1-1v-0.9c0-0.6-0.5-1-1-1C57.6,63.3,57.2,63.8,57.2,64.3z"/>
<path d="M65,61.9l0.6,0.6c0.2,0.2,0.5,0.3,0.7,0.3s0.5-0.1,0.7-0.3c0.4-0.4,0.4-1,0-1.4l-0.6-0.6c-0.4-0.4-1-0.4-1.4,0
	C64.6,60.9,64.6,61.5,65,61.9L65,61.9z"/>
<path d="M69.8,54.6c0.6,0,1-0.5,1-1c0-0.6-0.5-1-1-1h-0.9c-0.6,0-1,0.5-1,1c0,0.6,0.5,1,1,1H69.8z"/>
<path d="M65.8,47c0.3,0,0.5-0.1,0.7-0.3l0.6-0.6c0.4-0.4,0.4-1,0-1.4c-0.4-0.4-1-0.4-1.4,0L65,45.3c-0.4,0.4-0.4,1,0,1.4
	C65.2,46.9,65.5,47,65.8,47L65.8,47z"/>
<path d="M54.3,47.8c-0.4-0.4-1-0.5-1.4-0.1c-0.4,0.4-0.5,1-0.1,1.4l2.3,2.6c-0.3,0.5-0.5,1.2-0.5,1.9c0,2,1.6,3.6,3.6,3.6
	s3.6-1.6,3.6-3.6c0-0.5-0.1-1-0.3-1.4l1.9-1.5c0.4-0.4,0.5-1,0.1-1.4c-0.4-0.4-1-0.5-1.4-0.1l-1.9,1.5c-0.6-0.4-1.3-0.6-2-0.6
	c-0.6,0-1.1,0.1-1.5,0.3L54.3,47.8z M59.7,53.6c0,0.9-0.7,1.6-1.6,1.6c-0.9,0-1.6-0.7-1.6-1.6c0-0.5,0.2-0.9,0.5-1.1c0,0,0,0,0,0
	c0,0,0,0,0,0c0.3-0.2,0.6-0.4,1-0.4C59,52,59.7,52.7,59.7,53.6L59.7,53.6z"/>
<path d="M19.9,29.2c0-1.3-1.1-2.4-2.4-2.4h-3c-1.3,0-2.4,1.1-2.4,2.4v3c0,1.3,1.1,2.4,2.4,2.4h3c1.3,0,2.4-1.1,2.4-2.4V29.2z
	 M17.9,32.2c0,0.2-0.1,0.3-0.3,0.3h-3c-0.2,0-0.3-0.1-0.3-0.3v-3c0-0.2,0.1-0.3,0.3-0.3h3c0.2,0,0.3,0.1,0.3,0.3V32.2z"/>
<path d="M30.7,29.2c0-1.3-1.1-2.4-2.4-2.4h-3c-1.3,0-2.4,1.1-2.4,2.4v3c0,1.3,1.1,2.4,2.4,2.4h3c1.3,0,2.4-1.1,2.4-2.4V29.2z
	 M28.6,32.2c0,0.2-0.1,0.3-0.3,0.3h-3c-0.2,0-0.3-0.1-0.3-0.3v-3c0-0.2,0.1-0.3,0.3-0.3h3c0.2,0,0.3,0.1,0.3,0.3V32.2z"/>
<path d="M36.1,26.9c-1.3,0-2.4,1.1-2.4,2.4v3c0,1.3,1.1,2.4,2.4,2.4h3c1.3,0,2.4-1.1,2.4-2.4v-3c0-1.3-1.1-2.4-2.4-2.4H36.1z
	 M39.4,29.2v3c0,0.2-0.1,0.3-0.3,0.3h-3c-0.2,0-0.3-0.1-0.3-0.3v-3c0-0.2,0.1-0.3,0.3-0.3h3C39.2,28.9,39.4,29,39.4,29.2z"/>
<path d="M46.8,26.9c-1.3,0-2.4,1.1-2.4,2.4v3c0,1.3,1.1,2.4,2.4,2.4h3c1.3,0,2.4-1.1,2.4-2.4v-3c0-1.3-1.1-2.4-2.4-2.4H46.8z
	 M50.1,29.2v3c0,0.2-0.1,0.3-0.3,0.3h-3c-0.2,0-0.3-0.1-0.3-0.3v-3c0-0.2,0.1-0.3,0.3-0.3h3C50,28.9,50.1,29,50.1,29.2z"/>
<path d="M57.6,26.9c-1.3,0-2.3,1.1-2.3,2.4v3c0,1.3,1.1,2.4,2.3,2.4h3c1.3,0,2.4-1.1,2.4-2.4v-3c0-1.3-1.1-2.4-2.4-2.4H57.6z
	 M60.9,29.2v3c0,0.2-0.1,0.3-0.3,0.3h-3c-0.2,0-0.3-0.1-0.3-0.3v-3c0-0.2,0.1-0.3,0.3-0.3h3C60.7,28.9,60.9,29,60.9,29.2z"/>
<path d="M19.9,39.5c0-1.3-1.1-2.4-2.4-2.4h-3c-1.3,0-2.4,1.1-2.4,2.4v3c0,1.3,1.1,2.4,2.4,2.4h3c1.3,0,2.4-1.1,2.4-2.4V39.5z
	 M17.9,42.5c0,0.2-0.1,0.3-0.3,0.3h-3c-0.2,0-0.3-0.1-0.3-0.3v-3c0-0.2,0.1-0.3,0.3-0.3h3c0.2,0,0.3,0.1,0.3,0.3V42.5z"/>
<path d="M30.7,39.5c0-1.3-1.1-2.4-2.4-2.4h-3c-1.3,0-2.4,1.1-2.4,2.4v3c0,1.3,1.1,2.4,2.4,2.4h3c1.3,0,2.4-1.1,2.4-2.4V39.5z
	 M28.6,42.5c0,0.2-0.1,0.3-0.3,0.3h-3c-0.2,0-0.3-0.1-0.3-0.3v-3c0-0.2,0.1-0.3,0.3-0.3h3c0.2,0,0.3,0.1,0.3,0.3V42.5z"/>
<path d="M41.4,39.5c0-1.3-1.1-2.4-2.4-2.4h-3c-1.3,0-2.4,1.1-2.4,2.4v3c0,1.3,1.1,2.4,2.4,2.4h3c1.3,0,2.4-1.1,2.4-2.4V39.5z
	 M39.4,42.5c0,0.2-0.1,0.3-0.3,0.3h-3c-0.2,0-0.3-0.1-0.3-0.3v-3c0-0.2,0.1-0.3,0.3-0.3h3c0.2,0,0.3,0.1,0.3,0.3V42.5z"/>
<path d="M17.6,47.3h-3c-1.3,0-2.4,1.1-2.4,2.4v3c0,1.3,1.1,2.4,2.4,2.4h3c1.3,0,2.4-1.1,2.4-2.4v-3C19.9,48.4,18.8,47.3,17.6,47.3z
	 M17.9,52.7c0,0.2-0.1,0.3-0.3,0.3h-3c-0.2,0-0.3-0.1-0.3-0.3v-3c0-0.2,0.1-0.3,0.3-0.3h3c0.2,0,0.3,0.1,0.3,0.3V52.7z"/>
<path d="M28.3,47.3h-3c-1.3,0-2.4,1.1-2.4,2.4v3c0,1.3,1.1,2.4,2.4,2.4h3c1.3,0,2.4-1.1,2.4-2.4v-3C30.7,48.4,29.6,47.3,28.3,47.3z
	 M28.6,52.7c0,0.2-0.1,0.3-0.3,0.3h-3c-0.2,0-0.3-0.1-0.3-0.3v-3c0-0.2,0.1-0.3,0.3-0.3h3c0.2,0,0.3,0.1,0.3,0.3V52.7z"/>
</svg>
