<?xml version="1.0" encoding="utf-8"?>
<!-- Generator: Adobe Illustrator 22.0.0, SVG Export Plug-In . SVG Version: 6.00 Build 0)  -->
<svg version="1.1" id="Layer_1" xmlns="http://www.w3.org/2000/svg" xmlns:xlink="http://www.w3.org/1999/xlink" x="0px" y="0px"
	 viewBox="0 0 80 80" style="enable-background:new 0 0 80 80;" xml:space="preserve">
<style type="text/css">
	.st0{fill:#64FFA4;}
	.st1{fill:#519A85;}
	.st2{fill:#B5F5FF;}
	.st3{fill:#7CC1FF;}
	.st4{fill:#EE6161;}
	.st5{fill:#E94444;}
</style>
<g>
	<path class="st0" d="M66.6,15.9L40.9,5.3c-0.8-0.3-1.7-0.3-2.5,0L12.7,15.9c-1.1,0.4-1.8,1.4-2,2.5c-1.1,7.6-3.3,37,27.3,54.1
		c1,0.6,2.2,0.6,3.2,0c30.6-17.1,28.5-46.5,27.3-54.1C68.4,17.3,67.6,16.3,66.6,15.9L66.6,15.9z"/>
</g>
<g>
	<path class="st1" d="M41.2,72.6c-0.5,0.3-1.1,0.4-1.7,0.4C69.1,55.8,67,27,65.9,19.4c-0.2-1.1-0.9-2.1-2-2.5L38.2,6.2
		C37.7,6,37.2,6,36.7,6l1.8-0.7c0.8-0.3,1.7-0.3,2.5,0l25.7,10.6c1.1,0.4,1.8,1.4,2,2.5C69.7,26.1,71.8,55.5,41.2,72.6z"/>
</g>
<g>
	<path class="st2" d="M61.3,20.7l-20.6-8.4c-0.6-0.3-1.4-0.3-2,0L18,20.7c-0.9,0.3-1.5,1.1-1.6,2c-0.9,6-2.6,29.3,21.9,42.8
		c0.8,0.4,1.8,0.4,2.6,0C65.5,52,63.8,28.8,62.9,22.7C62.7,21.8,62.1,21.1,61.3,20.7L61.3,20.7z"/>
</g>
<g>
	<path class="st3" d="M40.9,65.6c-0.8,0.4-1.8,0.4-2.6,0c0,0-0.1,0-0.1-0.1C62.7,51.6,61,27.6,60.1,21.4c-0.1-0.6-0.3-1.1-0.7-1.5
		l1.9,0.8c0.9,0.3,1.5,1.1,1.6,2C63.8,28.8,65.5,52,40.9,65.6L40.9,65.6z"/>
</g>
<g>
	<g>
		<path class="st4" d="M49.5,35.4H45c-0.9,0-1.6-0.7-1.6-1.6v-4.5c0-0.9-0.7-1.6-1.6-1.6h-4.1c-0.9,0-1.6,0.7-1.6,1.6v4.5
			c0,0.9-0.7,1.6-1.6,1.6h-4.6c-0.9,0-1.6,0.7-1.6,1.6V41c0,0.9,0.7,1.6,1.6,1.6h4.6c0.9,0,1.6,0.7,1.6,1.6v4.5
			c0,0.9,0.7,1.6,1.6,1.6h4.1c0.9,0,1.6-0.7,1.6-1.6v-4.5c0-0.9,0.7-1.6,1.6-1.6h4.6c0.9,0,1.6-0.7,1.6-1.6V37
			C51.1,36.1,50.4,35.4,49.5,35.4z"/>
	</g>
	<g>
		<g>
			<path class="st5" d="M42,42.6h3c-0.9,0-1.6,0.7-1.6,1.6v4.5c0,0.9-0.7,1.6-1.6,1.6H39c0,0-0.1,0-0.1,0c0.8-0.1,1.5-0.8,1.5-1.6
				v-4.5C40.3,43.4,41.1,42.6,42,42.6z"/>
		</g>
		<g>
			<path class="st5" d="M45,35.4h-3c-0.9,0-1.6-0.7-1.6-1.6v-4.5c0-0.9-0.7-1.5-1.5-1.6c0,0,0.1,0,0.1,0h2.7c0.9,0,1.6,0.7,1.6,1.6
				v4.5C43.3,34.6,44.1,35.4,45,35.4z"/>
		</g>
		<g>
			<path class="st5" d="M51.1,37V41c0,0.9-0.7,1.6-1.6,1.6h-3c0.9,0,1.6-0.7,1.6-1.6V37c0-0.9-0.7-1.6-1.6-1.6h3
				C50.4,35.4,51.1,36.1,51.1,37z"/>
		</g>
	</g>
	<g>
		<path d="M69.6,18.3c-0.2-1.5-1.2-2.8-2.6-3.3L41.3,4.3c-1.1-0.4-2.2-0.4-3.3,0L12.3,15c-1.4,0.6-2.4,1.9-2.6,3.3
			c-0.5,3.6-1.4,13.2,1.8,24c1.8,6,4.6,11.5,8.4,16.3c4.5,5.8,10.5,10.8,17.6,14.9c0.6,0.4,1.4,0.5,2.1,0.5c0.7,0,1.4-0.2,2.1-0.5
			c7.2-4,13.1-9,17.6-14.9c3.8-4.9,6.6-10.4,8.4-16.3C71,31.5,70.1,21.9,69.6,18.3L69.6,18.3z M65.8,41.7
			c-3.9,12.8-12.3,22.9-25.1,30c-0.7,0.4-1.5,0.4-2.2,0c-12.8-7.1-21.2-17.2-25.1-30c-3.1-10.3-2.3-19.6-1.7-23.1
			c0.1-0.8,0.6-1.4,1.4-1.7L38.8,6.2C39.1,6.1,39.4,6,39.7,6c0.3,0,0.6,0.1,0.9,0.2l25.7,10.6c0.7,0.3,1.2,1,1.4,1.7
			C68.1,22.1,68.9,31.3,65.8,41.7L65.8,41.7z"/>
		<path d="M61.7,19.8l-10-4.1c-0.5-0.2-1.1,0-1.3,0.6s0,1.1,0.6,1.3l10,4.1c0.5,0.2,0.9,0.7,1,1.2c0.4,2.7,1.1,10-1.4,18.2
			c-3.1,10-9.8,18-20,23.6c-0.5,0.3-1.1,0.3-1.6,0c-10.2-5.6-17-13.6-20-23.6c-2.5-8.1-1.8-15.4-1.4-18.2c0.1-0.5,0.5-1,1-1.2
			L39,13.3c0.4-0.2,0.8-0.2,1.2,0l6.2,2.5c0.5,0.2,1.1,0,1.3-0.6c0.2-0.5,0-1.1-0.6-1.3l-6.2-2.5c-0.9-0.4-1.9-0.4-2.8,0l-20.6,8.4
			c-1.2,0.5-2,1.6-2.2,2.8c-0.4,2.9-1.2,10.5,1.5,19.1c1.5,4.8,3.7,9.1,6.8,13c3.7,4.6,8.4,8.6,14.2,11.8c0.5,0.3,1.2,0.5,1.8,0.5
			c0.6,0,1.2-0.2,1.8-0.5c5.8-3.2,10.6-7.2,14.2-11.8c3-3.9,5.3-8.3,6.8-13c2.6-8.5,1.9-16.2,1.5-19.1
			C63.7,21.3,62.9,20.3,61.7,19.8L61.7,19.8z"/>
		<path d="M37.6,51.4h4.1c1.5,0,2.7-1.2,2.7-2.6v-4.5c0-0.3,0.3-0.6,0.6-0.6h4.6c1.5,0,2.7-1.2,2.7-2.6V37c0-1.5-1.2-2.6-2.7-2.6H45
			c-0.3,0-0.6-0.3-0.6-0.6v-4.5c0-1.5-1.2-2.6-2.7-2.6h-4.1c-1.5,0-2.7,1.2-2.7,2.6v4.5c0,0.3-0.3,0.6-0.6,0.6h-4.6
			c-1.5,0-2.7,1.2-2.7,2.6V41c0,1.3,1,2.4,2.3,2.6c0.6,0.1,1.1-0.3,1.1-0.9c0.1-0.6-0.3-1.1-0.9-1.1c-0.3,0-0.5-0.3-0.5-0.6V37
			c0-0.3,0.3-0.6,0.6-0.6h4.6c1.5,0,2.7-1.2,2.7-2.6v-4.5c0-0.3,0.3-0.6,0.6-0.6h4.1c0.3,0,0.6,0.3,0.6,0.6v4.5
			c0,1.5,1.2,2.6,2.7,2.6h4.6c0.3,0,0.6,0.3,0.6,0.6V41c0,0.3-0.3,0.6-0.6,0.6H45c-1.5,0-2.7,1.2-2.7,2.6v4.5c0,0.3-0.3,0.6-0.6,0.6
			h-4.1c-0.3,0-0.6-0.3-0.6-0.6v-4.5c0-1.5-1.2-2.6-2.7-2.6c-0.6,0-1,0.5-1,1c0,0.6,0.5,1,1,1c0.3,0,0.6,0.3,0.6,0.6v4.5
			C35,50.2,36.2,51.4,37.6,51.4L37.6,51.4z"/>
	</g>
</g>
<polygon points="29.6,41.6 34.5,41.6 34.5,43.7 29.6,43.7 "/>
<polygon points="46.8,13.7 52.2,15.9 51.3,17.8 45.6,15.4 "/>
</svg>
