<svg id="Capa_1" enable-background="new 0 0 511.999 511.999" height="512" viewBox="0 0 511.999 511.999" width="512" xmlns="http://www.w3.org/2000/svg"><g><path d="m400.62 504.5h-289.241c-9.964 0-18.042-8.078-18.042-18.042v-460.916c0-9.964 8.078-18.042 18.042-18.042h289.241c9.964 0 18.042 8.078 18.042 18.042v460.916c0 9.964-8.078 18.042-18.042 18.042z" fill="#365e7d"/><path d="m400.62 7.5h-21.757c9.964 0 18.042 8.077 18.042 18.042v460.917c0 9.964-8.078 18.042-18.042 18.042h21.757c9.964 0 18.042-8.078 18.042-18.042v-460.918c0-9.964-8.078-18.041-18.042-18.041z" fill="#2b4d66"/><path d="m128.337 42.5h255.325v427h-255.325z" fill="#bed8fb"/><path d="m363.831 42.5h19.831v427h-19.831z" fill="#9dc6fb"/><path d="m350.27 165.167h-88.326c-3.283 0-5.945-2.662-5.945-5.945v-34.025c0-3.283 2.662-5.945 5.945-5.945h88.326c3.283 0 5.945 2.662 5.945 5.945v34.025c0 3.283-2.662 5.945-5.945 5.945z" fill="#dd636e"/><path d="m350.27 119.251h-19.379c3.283 0 5.945 2.662 5.945 5.945v34.025c0 3.283-2.662 5.945-5.945 5.945h19.379c3.283 0 5.945-2.662 5.945-5.945v-34.025c0-3.283-2.661-5.945-5.945-5.945z" fill="#da4a54"/><path d="m350.27 255.999h-88.326c-3.283 0-5.945-2.662-5.945-5.945v-34.025c0-3.283 2.662-5.945 5.945-5.945h88.326c3.283 0 5.945 2.662 5.945 5.945v34.025c0 3.284-2.662 5.945-5.945 5.945z" fill="#ffe07d"/><path d="m350.27 210.084h-19.379c3.283 0 5.945 2.662 5.945 5.945v34.025c0 3.283-2.662 5.945-5.945 5.945h19.379c3.283 0 5.945-2.662 5.945-5.945v-34.025c0-3.284-2.661-5.945-5.945-5.945z" fill="#ffd064"/><path d="m350.27 346.832h-88.326c-3.283 0-5.945-2.662-5.945-5.945v-34.025c0-3.283 2.662-5.945 5.945-5.945h88.326c3.283 0 5.945 2.662 5.945 5.945v34.025c0 3.284-2.662 5.945-5.945 5.945z" fill="#e27d47"/><path d="m350.27 300.917h-19.379c3.283 0 5.945 2.662 5.945 5.945v34.025c0 3.283-2.662 5.945-5.945 5.945h19.379c3.283 0 5.945-2.662 5.945-5.945v-34.025c0-3.284-2.661-5.945-5.945-5.945z" fill="#dd6938"/><path d="m350.27 437.665h-88.326c-3.283 0-5.945-2.662-5.945-5.945v-34.025c0-3.283 2.662-5.945 5.945-5.945h88.326c3.283 0 5.945 2.662 5.945 5.945v34.025c0 3.283-2.662 5.945-5.945 5.945z" fill="#b3e59f"/><path d="m350.27 391.749h-19.379c3.283 0 5.945 2.662 5.945 5.945v34.025c0 3.283-2.662 5.945-5.945 5.945h19.379c3.283 0 5.945-2.662 5.945-5.945v-34.025c0-3.283-2.661-5.945-5.945-5.945z" fill="#95d6a4"/><g><path d="m302.936 72.721c0-4.143-3.357-7.5-7.5-7.5h-78.871c-4.143 0-7.5 3.357-7.5 7.5s3.357 7.5 7.5 7.5h78.871c4.142 0 7.5-3.358 7.5-7.5z"/><path d="m187.648 122.96h-24.1c-4.143 0-7.5 3.357-7.5 7.5s3.357 7.5 7.5 7.5h24.1c4.143 0 7.5-3.357 7.5-7.5s-3.357-7.5-7.5-7.5z"/><path d="m187.648 146.458h-24.1c-4.143 0-7.5 3.357-7.5 7.5s3.357 7.5 7.5 7.5h24.1c4.143 0 7.5-3.357 7.5-7.5s-3.357-7.5-7.5-7.5z"/><path d="m239.742 142.209c0-3.513-2.418-6.453-5.678-7.268v-26.389c0-4.143-3.357-7.5-7.5-7.5s-7.5 3.357-7.5 7.5v26.388c-3.26.815-5.679 3.755-5.679 7.268s2.418 6.453 5.679 7.268v76.297c-3.26.815-5.679 3.755-5.679 7.268s2.418 6.453 5.679 7.268v76.296c-3.26.815-5.679 3.755-5.679 7.268s2.418 6.453 5.679 7.268v76.297c-3.26.815-5.679 3.755-5.679 7.268s2.418 6.453 5.679 7.268v23.842c0 4.143 3.357 7.5 7.5 7.5s7.5-3.357 7.5-7.5v-23.843c3.26-.815 5.678-3.755 5.678-7.268s-2.418-6.453-5.678-7.268v-76.298c3.26-.815 5.678-3.755 5.678-7.268s-2.418-6.453-5.678-7.268v-76.293c3.26-.815 5.678-3.755 5.678-7.268s-2.418-6.453-5.678-7.268v-76.298c3.261-.814 5.678-3.754 5.678-7.267z"/><path d="m363.715 125.196c0-7.414-6.031-13.445-13.444-13.445h-88.326c-7.413 0-13.444 6.031-13.444 13.445v34.025c0 7.414 6.031 13.445 13.444 13.445h88.326c7.413 0 13.444-6.031 13.444-13.445zm-15 32.471h-85.215v-30.916h85.215z"/><path d="m187.648 213.792h-24.1c-4.143 0-7.5 3.357-7.5 7.5s3.357 7.5 7.5 7.5h24.1c4.143 0 7.5-3.357 7.5-7.5s-3.357-7.5-7.5-7.5z"/><path d="m187.648 237.291h-24.1c-4.143 0-7.5 3.357-7.5 7.5s3.357 7.5 7.5 7.5h24.1c4.143 0 7.5-3.357 7.5-7.5s-3.357-7.5-7.5-7.5z"/><path d="m363.715 216.029c0-7.414-6.031-13.445-13.444-13.445h-88.326c-7.413 0-13.444 6.031-13.444 13.445v34.025c0 7.413 6.031 13.444 13.444 13.444h88.326c7.413 0 13.444-6.031 13.444-13.444zm-15 32.47h-85.215v-30.915h85.215z"/><path d="m187.648 304.625h-24.1c-4.143 0-7.5 3.357-7.5 7.5s3.357 7.5 7.5 7.5h24.1c4.143 0 7.5-3.357 7.5-7.5s-3.357-7.5-7.5-7.5z"/><path d="m187.648 328.124h-24.1c-4.143 0-7.5 3.357-7.5 7.5s3.357 7.5 7.5 7.5h24.1c4.143 0 7.5-3.357 7.5-7.5s-3.357-7.5-7.5-7.5z"/><path d="m187.648 395.458h-24.1c-4.143 0-7.5 3.357-7.5 7.5s3.357 7.5 7.5 7.5h24.1c4.143 0 7.5-3.357 7.5-7.5s-3.357-7.5-7.5-7.5z"/><path d="m187.648 418.956h-24.1c-4.143 0-7.5 3.357-7.5 7.5s3.357 7.5 7.5 7.5h24.1c4.143 0 7.5-3.357 7.5-7.5s-3.357-7.5-7.5-7.5z"/><path d="m261.944 445.165h88.326c7.413 0 13.444-6.031 13.444-13.445v-34.025c0-7.414-6.031-13.445-13.444-13.445h-88.326c-7.413 0-13.444 6.031-13.444 13.445v34.025c0 7.414 6.031 13.445 13.444 13.445zm1.556-45.916h85.215v30.916h-85.215z"/><path d="m383.662 410.808c4.143 0 7.5-3.357 7.5-7.5v-360.808c0-4.143-3.357-7.5-7.5-7.5h-255.325c-4.143 0-7.5 3.357-7.5 7.5v427c0 4.143 3.357 7.5 7.5 7.5h255.325c4.143 0 7.5-3.357 7.5-7.5v-36.206c0-4.143-3.357-7.5-7.5-7.5s-7.5 3.357-7.5 7.5v28.706h-240.325v-412h240.325v353.308c0 4.142 3.358 7.5 7.5 7.5z"/><path d="m363.715 306.861c0-7.414-6.031-13.445-13.444-13.445h-32.84c-4.143 0-7.5 3.357-7.5 7.5s3.357 7.5 7.5 7.5h31.284v30.916h-85.215v-30.916h23.943c4.143 0 7.5-3.357 7.5-7.5s-3.357-7.5-7.5-7.5h-25.499c-7.413 0-13.444 6.031-13.444 13.445v34.025c0 7.414 6.031 13.445 13.444 13.445h88.326c7.413 0 13.444-6.031 13.444-13.445v-34.025z"/><path d="m400.62 0h-229.753c-4.143 0-7.5 3.357-7.5 7.5s3.357 7.5 7.5 7.5h229.753c5.812 0 10.542 4.729 10.542 10.541v460.917c0 5.812-4.729 10.541-10.542 10.541h-289.241c-5.812 0-10.542-4.729-10.542-10.541v-460.917c0-5.812 4.729-10.541 10.542-10.541h29.501c4.143 0 7.5-3.357 7.5-7.5s-3.357-7.5-7.5-7.5h-29.501c-14.084 0-25.542 11.458-25.542 25.541v460.917c0 14.083 11.458 25.541 25.542 25.541h289.241c14.084 0 25.542-11.458 25.542-25.541v-460.917c0-14.083-11.458-25.541-25.542-25.541z"/></g></g></svg>