<?xml version="1.0" encoding="utf-8"?>
<!-- Generator: Adobe Illustrator 22.0.0, SVG Export Plug-In . SVG Version: 6.00 Build 0)  -->
<svg version="1.1" id="Layer_1" xmlns="http://www.w3.org/2000/svg" xmlns:xlink="http://www.w3.org/1999/xlink" x="0px" y="0px"
	 viewBox="0 0 80 80" style="enable-background:new 0 0 80 80;" xml:space="preserve">
<style type="text/css">
	.st0{fill:#006152;}
	.st1{fill:#00958C;}
</style>
<circle class="st0" cx="40" cy="39" r="25"/>
<circle class="st1" cx="40" cy="39" r="20"/>
<g id="Layer_9">
	<path d="M62.4,12h1.7c0.5,0,1-0.4,1-1v-0.3c0-0.5-0.4-1-1-1h-3.7c-1.2,0-2.1,0.9-2.1,2.1v3.7c0,0.5,0.4,1,1,1h0.3c0.5,0,1-0.4,1-1
		v0c0-0.8,1-1.3,1.6-0.7c12.7,11.5,14.4,31,3.7,44.6c-9.6,12.1-26.2,15.8-40,9c-0.5-0.2-1-0.1-1.3,0.4l-0.1,0.3
		c-0.3,0.5-0.1,1.1,0.4,1.3c16.9,8.3,37.5,1.7,46.3-15.1C78.9,40.6,75.2,22.5,62.4,12z"/>
	<path d="M20,62.6c0,0.8-1,1.3-1.6,0.7c-12.7-11.5-14.5-31-3.7-44.6C24.2,6.6,40.9,2.9,54.7,9.7c0.5,0.2,1,0.1,1.3-0.4L56.1,9
		c0.3-0.5,0.1-1.1-0.4-1.3C38.8-0.6,18.2,6,9.4,22.8c-7.7,14.7-4.1,32.8,8.8,43.3h-1.7c-0.5,0-1,0.4-1,1v0.3c0,0.5,0.4,1,1,1h3.7
		c1.2,0,2.1-0.9,2.1-2.1v-3.7c0-0.5-0.4-1-1-1h-0.3C20.4,61.6,20,62,20,62.6L20,62.6z"/>
	<path d="M14.3,39.1C14.3,53.4,25.9,65,40.3,65s25.9-11.6,25.9-25.9S54.6,13.1,40.3,13.1S14.3,24.7,14.3,39.1z M63.9,39.1
		c0,13.1-10.6,23.7-23.7,23.7S16.6,52.1,16.6,39.1s10.6-23.7,23.7-23.7S63.9,26,63.9,39.1z"/>
	<path d="M18.8,39.1c0,11.8,9.6,21.4,21.4,21.4s21.4-9.6,21.4-21.4s-9.6-21.4-21.4-21.4S18.8,27.2,18.8,39.1z M53,27.9l0.8-0.8
		c0.4-0.4,1.1-0.4,1.4,0.1c2.2,2.8,3.7,6.2,4.1,9.7c0.1,0.6-0.4,1.1-1,1.1H57c-0.5,0-1,0.4-1,1v0.3c0,0.5,0.4,1,1,1h1.4
		c0.6,0,1,0.5,1,1.1c-0.4,3.6-1.8,6.9-4,9.7c-0.4,0.4-1,0.5-1.4,0.1l-0.8-0.8c-0.4-0.4-1-0.4-1.4,0l-0.2,0.2c-0.4,0.4-0.4,1,0,1.4
		l0.8,0.8c0.4,0.4,0.4,1.1-0.1,1.4c-2.8,2.3-6.2,3.7-9.8,4.1c-0.6,0.1-1.1-0.4-1.1-1v-1.4c0-0.5-0.4-1-1-1h-0.3c-0.5,0-1,0.4-1,1
		v1.4c0,0.6-0.5,1-1.1,1c-3.6-0.4-6.9-1.8-9.7-4c-0.4-0.4-0.5-1-0.1-1.4l0.8-0.8c0.4-0.4,0.4-1,0-1.4l-0.2-0.2c-0.4-0.4-1-0.4-1.4,0
		l-0.8,0.8c-0.4,0.4-1.1,0.4-1.4-0.1c-2.2-2.8-3.6-6.2-4-9.8c-0.1-0.6,0.4-1,1-1h1.3c0.5,0,1-0.4,1-1v-0.3c0-0.5-0.4-1-1-1h-1.3
		c-0.6,0-1-0.5-1-1.1c0.4-3.6,1.8-6.9,4-9.7c0.4-0.4,1-0.5,1.4-0.1l0.8,0.8c0.4,0.4,1,0.4,1.4,0l0.2-0.2c0.4-0.4,0.4-1,0-1.4
		l-0.8-0.8c-0.4-0.4-0.4-1.1,0.1-1.4c2.8-2.2,6.2-3.6,9.7-4c0.6-0.1,1.1,0.4,1.1,1v1.3c0,0.5,0.4,1,1,1h0.3c0.5,0,1-0.4,1-1V21
		c0-0.6,0.5-1,1.1-1c3.6,0.4,6.9,1.8,9.7,4c0.4,0.4,0.5,1,0.1,1.4l-0.8,0.8c-0.4,0.4-0.4,1,0,1.4l0.2,0.2C52,28.3,52.6,28.3,53,27.9
		z"/>
	<path d="M40.4,25.5h-0.3c-0.5,0-1,0.4-1,1v12.6c0,0.3,0.1,0.6,0.3,0.8l6.1,6.1c0.4,0.4,1,0.4,1.4,0l0.2-0.2c0.4-0.4,0.4-1,0-1.4
		l-5.5-5.5c-0.2-0.2-0.3-0.4-0.3-0.7V26.5C41.4,26,41,25.5,40.4,25.5z"/>
</g>
</svg>
