<?xml version="1.0" encoding="utf-8"?>
<!-- Generator: Adobe Illustrator 22.0.0, SVG Export Plug-In . SVG Version: 6.00 Build 0)  -->
<svg version="1.1" id="Layer_1" xmlns="http://www.w3.org/2000/svg" xmlns:xlink="http://www.w3.org/1999/xlink" x="0px" y="0px"
	 viewBox="0 0 80 80" style="enable-background:new 0 0 80 80;" xml:space="preserve">
<style type="text/css">
	.st0{fill:#FF9710;}
	.st1{fill:#009D88;}
	.st2{fill:#00AF88;}
	.st3{fill:#009AE9;}
</style>
<path class="st0" d="M10.4,14.5c-0.5,0.3-1,0.5-1.5,0.8c-0.3,0.2-0.4,0.5-0.4,0.9c0,4.6,2.1,31.1,7.9,41.2c3.5,6,15,12.4,20.6,14
	c0.1,0,0.3,0,0.4,0c0.7-0.2,1.6-0.5,2.5-0.9L10.4,14.5z"/>
<path class="st0" d="M65.6,15.3c-8.8-5-26.2-9.2-28.1-9.8c-0.1,0-0.3,0-0.4,0c-1.8,0.5-17.5,4.3-26.6,9c0.5,11.9,2.7,33.3,7.7,41.8
	c3.1,5.4,13.2,11.3,21.9,14.2c3.6-1.5,8.4-4.1,12.3-7.1l13.1-38.1c0.4-4.3,0.6-7.7,0.6-9.1C66,15.8,65.8,15.5,65.6,15.3L65.6,15.3z"
	/>
<path class="st0" d="M58,57.4c4.1-7,6.3-22.1,7.3-32.1c-0.2-0.1-0.4-0.1-0.6-0.1H54.4c-1.1,0-2.1,0.9-2.1,2.1v36.1
	C54.8,61.5,56.9,59.4,58,57.4z"/>
<path class="st1" d="M37.2,9.8l-21.4,6.8c-1.2,0.5-2.2,1-3.1,1.4c0.1,1.2,0.2,2.7,0.3,4.4c0,0,0.9,9.3,1.8,14.6c0,0,4.3,13,6.6,16.9
	c2.5,4.3,15.8,13.2,15.8,13.2l0,0l0,0c5.5-1.9,14.7-7.6,17.2-11.8c2.3-3.9,4-11.1,5.2-18.3c0.9-5.2,1.8-14.6,1.8-14.6
	c0.1-1.7,0.2-3.2,0.3-4.4C57.8,16.1,50.5,13.3,37.2,9.8L37.2,9.8z"/>
<path class="st1" d="M57.1,37l4.6-11.8h-7.4c-1.1,0-2.1,0.9-2.1,2.1V37H57.1z"/>
<path class="st1" d="M37.2,63.5c-5.4-2.5-12.1-7-14.2-10.6c-2-3.5-3.6-9.6-4.8-15.9h-3.5c1.2,7.2,2.9,14.4,5.2,18.3
	c2.5,4.3,11.7,9.9,17.2,11.8L37.2,63.5z"/>
<path class="st2" d="M37.2,37l0,26.5c0,0,0,0,0,0c3.7-1.6,10.9-5.2,15-8.3V37H37.2z"/>
<path class="st2" d="M37.2,9.8c-10.4,2.7-17.1,5-21.4,6.8c0.3,4.6,1.1,12.7,2.5,20.4h18.9L37.2,9.8z"/>
<g>
	<path class="st3" d="M67.5,74.5H57.1c-1.1,0-2.1-0.9-2.1-2.1V62c0-1.1,0.9-2.1,2.1-2.1h10.4c1.1,0,2.1,0.9,2.1,2.1v10.4
		C69.6,73.5,68.7,74.5,67.5,74.5z"/>
	<path class="st3" d="M67.5,55.7H57.1c-1.1,0-2.1-0.9-2.1-2.1V43.3c0-1.1,0.9-2.1,2.1-2.1h10.4c1.1,0,2.1,0.9,2.1,2.1v10.4
		C69.6,54.8,68.7,55.7,67.5,55.7z"/>
	<path class="st3" d="M67.5,37H57.1c-1.1,0-2.1-0.9-2.1-2.1V24.5c0-1.1,0.9-2.1,2.1-2.1h10.4c1.1,0,2.1,0.9,2.1,2.1v10.4
		C69.6,36.1,68.7,37,67.5,37z"/>
</g>
<path d="M67.5,75.5H57.1c-1.7,0-3.1-1.4-3.1-3.1v-9c-1.7,1.4-3.4,2.6-5,3.6c-3.9,2.4-8.3,4.6-11.3,5.5c-0.3,0.1-0.7,0.1-1,0
	c-3-0.9-7.5-3-11.3-5.5c-3.3-2.1-7.8-5.4-9.9-9c-6-10.2-8.1-36.8-8.1-41.7c0-0.8,0.4-1.4,1-1.8c5.4-3.1,14.7-6.3,27.5-9.6
	c0.4-0.1,1-0.3,1.3-0.3c0.3,0,0.9,0.2,1.3,0.3c10.5,2.7,18.6,5.4,24.2,8c0.5,0.2,0.8,0.9,0.5,1.4c-0.2,0.5-0.9,0.8-1.4,0.5
	C56.4,12.1,48.4,9.5,38,6.8c-0.3-0.1-0.6-0.2-0.8-0.2c-0.2,0-0.4,0.1-0.8,0.2c-15.6,4.1-23.3,7.3-26.9,9.4c0,0,0,0,0,0
	c0,4.6,2.1,31,7.8,40.7c1.5,2.5,4.7,5.5,9.2,8.3c3.7,2.3,7.9,4.4,10.7,5.2c2.9-0.9,7-2.9,10.7-5.2c4.5-2.8,7.7-5.8,9.2-8.3
	c0,0,0-0.1,0.1-0.1h-0.1c-0.7,0-1.4-0.3-2-0.7c-2.9,4.6-12.3,10.1-17.6,12c-0.1,0-0.2,0-0.3,0.1c0,0,0,0,0,0c0,0-0.1,0-0.1,0
	c0,0,0,0,0,0c-0.1,0-0.3,0-0.4-0.1c-4.1-1.4-10.7-5.1-14.9-9c-0.4-0.4-0.4-1-0.1-1.5c0.4-0.4,1-0.4,1.5-0.1c3.5,3.2,8.9,6.4,12.8,8
	l0-27.6H16.1c1.2,6.7,2.8,13.2,4.9,16.7c0.3,0.5,0.1,1.1-0.4,1.4c-0.5,0.3-1.1,0.1-1.4-0.4C14,47,12,23.8,11.7,18.1
	c0-0.4,0.2-0.8,0.6-1c5.3-2.6,13.7-5.4,24.7-8.3c0.1,0,0.2,0,0.3,0h0h0c0,0,0,0,0,0h0c0.1,0,0.2,0,0.3,0c11,2.9,19.3,5.7,24.7,8.3
	c0.4,0.2,0.6,0.6,0.6,1c0,1-0.1,2.1-0.2,3.3h2.1c0.2-2.6,0.3-4.4,0.3-5.2c0,0,0,0,0,0c-0.4-0.3-0.6-0.9-0.3-1.4
	c0.3-0.5,0.9-0.7,1.4-0.4c0.6,0.3,1,1,1,1.8c0,0.9-0.1,2.6-0.3,5.2c0.5,0.1,0.9,0.5,0.9,1c0,0.6-0.5,1-1,1h-9.4c-0.6,0-1,0.5-1,1
	v10.4c0,0.6,0.5,1,1,1h10.4c0.6,0,1-0.5,1-1v-7.4l-5.2,5.2c-0.4,0.4-1.1,0.4-1.5,0l-3.5-3.5c-0.4-0.4-0.4-1.1,0-1.5
	c0.4-0.4,1.1-0.4,1.5,0l2.7,2.7l8.7-8.7c0.4-0.4,1.1-0.4,1.5,0c0.4,0.4,0.4,1.1,0,1.5l-2.2,2.2v9.5c0,1.7-1.4,3.1-3.1,3.1h-2.8
	c-0.1,0.7-0.2,1.4-0.4,2.1h2.2c0.6,0,1,0.5,1,1s-0.5,1-1,1h-9.4c-0.6,0-1,0.5-1,1c0,0,0,10.5,0,10.6c0,0,0,0,0,0.1
	c0.1,0.5,0.5,0.8,1,0.8h10.4c0.6,0,1-0.5,1-1v-7.4l-5.2,5.2c-0.4,0.4-1.1,0.4-1.5,0l-3.5-3.5c-0.4-0.4-0.4-1.1,0-1.5
	c0.4-0.4,1.1-0.4,1.5,0l2.7,2.7l8.7-8.7c0.4-0.4,1.1-0.4,1.5,0c0.4,0.4,0.4,1.1,0,1.5l-2.2,2.2v9.5c0,1.7-1.4,3.1-3.1,3.1h-8
	c-0.2,0.4-0.4,0.8-0.6,1.2c-0.2,0.3-0.4,0.6-0.6,0.9h8.2c0.6,0,1,0.5,1,1c0,0.6-0.5,1-1,1h-9.4c-0.6,0-1,0.5-1,1v10.4
	c0,0.6,0.5,1,1,1h10.4c0.6,0,1-0.5,1-1V65l-5.2,5.2c-0.4,0.4-1.1,0.4-1.5,0l-3.5-3.5c-0.4-0.4-0.4-1.1,0-1.5c0.4-0.4,1.1-0.4,1.5,0
	l2.7,2.7l8.7-8.7c0.4-0.4,1.1-0.4,1.5,0c0.4,0.4,0.4,1.1,0,1.5l-2.2,2.2v9.5C70.7,74.1,69.3,75.5,67.5,75.5L67.5,75.5z M38.3,38.1
	l0,27.6c5.6-2.3,13.2-7.3,15.3-10.8c0.2-0.3,0.3-0.6,0.5-0.9c0-0.1,0-0.2,0-0.2V43.3c0-1.7,1.4-3.1,3.1-3.1H58
	c0.1-0.7,0.3-1.4,0.4-2.1L38.3,38.1z M60.2,40.1h2.1c0.1-0.7,0.2-1.4,0.4-2.1h-2.1C60.4,38.8,60.3,39.5,60.2,40.1L60.2,40.1z
	 M38.3,36h15.9c-0.1-0.3-0.2-0.7-0.2-1V24.5c0-1.7,1.4-3.1,3.1-3.1h3.4c0.1-1,0.1-1.9,0.2-2.7c-3.6-1.7-10.4-4.3-22.4-7.5L38.3,36z
	 M15.7,36h20.5l0-24.8c-12,3.2-18.8,5.8-22.4,7.5C14,22.8,14.7,29.4,15.7,36z M65,16.2C65,16.2,65,16.2,65,16.2
	C65,16.2,65,16.2,65,16.2z"/>
</svg>
