<svg height="512" viewBox="0 0 512 512" width="512" xmlns="http://www.w3.org/2000/svg" xmlns:xlink="http://www.w3.org/1999/xlink"><linearGradient id="New_Gradient_Swatch_12" gradientUnits="userSpaceOnUse" x1="116.674" x2="395.326" y1="439.326" y2="160.674"><stop offset=".011" stop-color="#80d1cb"/><stop offset="1" stop-color="#bfe8e5"/></linearGradient><linearGradient id="New_Gradient_Swatch_18" gradientUnits="userSpaceOnUse" x1="153.848" x2="423.132" y1="402.913" y2="133.629"><stop offset=".015" stop-color="#83839e"/><stop offset="1" stop-color="#b8b8c7"/></linearGradient><linearGradient id="New_Gradient_Swatch_18-2" x1="379.024" x2="507.098" xlink:href="#New_Gradient_Swatch_18" y1="325.966" y2="197.892"/><linearGradient id="New_Gradient_Swatch_18-3" x1="21.152" x2="149.227" xlink:href="#New_Gradient_Swatch_18" y1="479.652" y2="351.578"/><linearGradient id="New_Gradient_Swatch_5" gradientUnits="userSpaceOnUse" x1="239.68" x2="458.32" y1="283.245" y2="64.606"><stop offset=".011" stop-color="#f8c73f"/><stop offset="1" stop-color="#fada7f"/></linearGradient><linearGradient id="New_Gradient_Swatch_14" gradientUnits="userSpaceOnUse" x1="278.996" x2="419.004" y1="232.58" y2="92.573"><stop offset=".015" stop-color="#a6a6b9"/><stop offset="1" stop-color="#cacad5"/></linearGradient><linearGradient id="New_Gradient_Swatch_13" gradientUnits="userSpaceOnUse" x1="309.516" x2="388.484" y1="253.953" y2="174.984"><stop offset="0" stop-color="#d46669"/><stop offset="1" stop-color="#dd888a"/></linearGradient><linearGradient id="New_Gradient_Swatch_21" gradientUnits="userSpaceOnUse" x1="322.75" x2="374.75" y1="190.25" y2="138.25"><stop offset=".011" stop-color="#fdecbf"/><stop offset="1" stop-color="#fef9ea"/></linearGradient><g id="_05-location" data-name="05-location"><g id="linear_color" data-name="linear color"><circle cx="256" cy="300" fill="url(#New_Gradient_Swatch_12)" r="197.037"/><path d="m346.638 372.4-26.271-32.839-39-20.115-39.817-6.157-39.407-26.272-6.569-32.839 32.84-13.136 26.272 13.136 32.839-39.408 65.679-32.839 31.296-31.298a197.016 197.016 0 0 0 -252.477-3.768l4.443 2.221 6.568 19.7-13.134 26.276-6.567 26.271 19.7 32.84 13.136 52.543 26.272 19.7 39.407 19.7 26.272 13.136-6.568 32.84v32.839l39.407 19.7v39.407l3.139 10.985a197.031 197.031 0 0 0 136.047-86.021l-7.828-23.482z" fill="url(#New_Gradient_Swatch_18)"/><path d="m421.146 192.508-21.965 15.692-13.135 26.271-26.272 13.136 6.568 59.111 19.7 26.272 39.407 6.568 18.8 18.8a197.455 197.455 0 0 0 -23.1-165.845z" fill="url(#New_Gradient_Swatch_18-2)"/><path d="m195.576 397.928-19.7-19.7s-39.408-6.568-39.408-13.136-19.7-26.272-19.7-26.272l-26.278-6.571-31.5-34.6c-.01.785-.03 1.567-.03 2.354a197.028 197.028 0 0 0 109.471 176.538l7.442-45.773z" fill="url(#New_Gradient_Swatch_18-3)"/><path d="m202.424 162.576a146.576 146.576 0 0 1 293.152 0c0 95.593-146.576 229.424-146.576 229.424s-146.576-133.831-146.576-229.424z" fill="url(#New_Gradient_Swatch_5)"/><circle cx="349" cy="162.576" fill="url(#New_Gradient_Swatch_14)" r="99"/><path d="m308.5 176v76.937a99.252 99.252 0 0 0 81 0v-76.937z" fill="url(#New_Gradient_Swatch_13)"/><path d="m308.5 176 40-64 41 64z" fill="url(#New_Gradient_Swatch_21)"/><path d="m455.42 362.726a208.33 208.33 0 0 0 9.62-62.726 211.769 211.769 0 0 0 -1.262-22.992c24.644-37.378 43.8-78.1 43.8-114.432-.002-87.439-71.139-158.576-158.578-158.576a158.8 158.8 0 0 0 -144.551 93.388c-90.766 21.872-158.734 109.18-157.489 202.612 6.834 240.911 331.84 287.645 408.46 62.726zm-40.747 11.037-25.173-5.034c5.7-6 11.892-12.68 18.353-19.934l11.834 1.971 10.808 10.8a183.8 183.8 0 0 1 -7.607 18.319 11.981 11.981 0 0 0 -8.215-6.122zm23.058-38.895-3.8-3.8a12 12 0 0 0 -6.513-3.35l-1.292-.215c4.889-5.914 9.81-12.06 14.685-18.4a184.825 184.825 0 0 1 -3.08 25.765zm-88.731-306.868c74.2 0 134.576 60.371 134.576 134.576 2.735 68.415-99.366 180.164-134.576 212.867-31.085-29.691-135.465-138.61-134.576-212.867 0-74.205 60.376-134.576 134.576-134.576zm-96.59 274.817-6.41-.991-33.068-22.043-3.632-18.175 12.307-4.919a478.528 478.528 0 0 0 30.803 46.128zm-178.74 28.783 7.946 8.73a12 12 0 0 0 5.964 3.564l22.982 5.746c6.353 6.621 12.46 14.062 13.989 17.091 1.2 11.208 14.8 15.556 28.708 19.033 6.472 1.619 12.874 2.886 16.8 3.615l10.412 10.413-14.883 24.805a11.987 11.987 0 0 0 -1.555 4.248l-4.695 28.878a185.482 185.482 0 0 1 -85.668-126.123zm108.069 137.866 5.609-34.5 18.518-30.866a12 12 0 0 0 -1.8-14.659l-19.7-19.7a12.01 12.01 0 0 0 -6.51-3.351c-12.2-2.036-25.2-5.271-30.587-7.508-2.025-5.262-7.454-13.988-22.014-28.548a12 12 0 0 0 -5.575-3.156l-22.75-5.688-25.83-28.371c1.865-49.359 23.691-94.934 58.186-127.625l.792 2.376-10.914 21.83a11.957 11.957 0 0 0 -.908 2.456l-6.568 26.272a12 12 0 0 0 1.352 9.084l18.784 31.308 12.7 50.811a12 12 0 0 0 4.442 6.69l26.271 19.7a12 12 0 0 0 1.834 1.133l57.481 28.741-4.77 23.852a11.989 11.989 0 0 0 -.233 2.353v32.839a12 12 0 0 0 6.634 10.733l32.773 16.388v31.99c0 .177.011.353.019.529-4.289.3-8.615.462-12.978.462a183.971 183.971 0 0 1 -74.258-15.575zm111.22 11.863v-36.687a12 12 0 0 0 -6.634-10.733l-32.773-16.387v-24.235l6.334-31.675a12 12 0 0 0 -6.4-13.086l-64.712-32.356-22-16.5-12.1-48.41a11.97 11.97 0 0 0 -1.351-3.26l-17.146-28.577 5.043-20.172 12.547-25.093a12.005 12.005 0 0 0 .65-9.162l-5.289-15.866a183.016 183.016 0 0 1 45.725-23.8 158.354 158.354 0 0 0 -4.429 37.243c0 23.153 7.785 48.094 19.806 72.816l-19.1 7.635a12 12 0 0 0 -7.314 13.494l6.559 32.839a12.007 12.007 0 0 0 5.108 7.643l39.411 26.27a12.016 12.016 0 0 0 4.821 1.874l34.639 5.36a787.576 787.576 0 0 0 66.555 70.363 12 12 0 0 0 16.182 0c.976-.892 5.451-5.008 12.272-11.684l33.773 6.753 3.707 11.132a185.437 185.437 0 0 1 -113.884 74.261z"/><path d="m302.749 263.469c70.691 34.041 158.395-20.63 157.251-100.893a111 111 0 1 0 -157.251 100.893zm57.751-15.469v-60h17v56.776a86.225 86.225 0 0 1 -17.042 4.045c.019-.273.042-.544.042-.821zm-30.349-84 18.474-29.559 18.937 29.559zm-9.651 24h16v60c0 .229.021.453.034.679a86.184 86.184 0 0 1 -16.034-3.9zm28.5-112.424a86.968 86.968 0 0 1 52.5 156.324v-55.9a12.351 12.351 0 0 0 -1.9-6.473l-41-64c-4.373-7.327-15.974-7.262-20.28.113l-40 64a12.332 12.332 0 0 0 -1.82 6.36v55.9a86.968 86.968 0 0 1 52.5-156.324z"/></g></g></svg>