<?xml version="1.0" encoding="utf-8"?>
<!-- Generator: Adobe Illustrator 22.0.0, SVG Export Plug-In . SVG Version: 6.00 Build 0)  -->
<svg version="1.1" id="Layer_1" xmlns="http://www.w3.org/2000/svg" xmlns:xlink="http://www.w3.org/1999/xlink" x="0px" y="0px"
	 viewBox="0 0 80 80" style="enable-background:new 0 0 80 80;" xml:space="preserve">
<style type="text/css">
	.st0{fill:#6E563D;}
	.st1{fill:#E09C77;}
	.st2{fill:#F7B081;}
	.st3{fill:#A58260;}
	.st4{fill:#FF3D43;}
	.st5{fill:#D62D2D;}
	.st6{fill:#FFC89F;}
	.st7{fill:#004B6C;}
	.st8{fill:#002D3E;}
	.st9{fill:#B58900;}
	.st10{fill:#926600;}
</style>
<path class="st0" d="M9.9,35.9c-6.2-14.4,5-20.1,11.3-20.1l0,0c3.4,0,4.7,1,6,2.9c0,0,2.1-1.4,4.9-1c5.3,0.7,10.3,5.9,5.8,18.2"/>
<path class="st1" d="M36.1,35.1c-0.3,0-0.6,0-0.8,0.1c-0.1,1.5-0.5,3-1.2,4.3c0.5,0.5,1.2,0.9,2,0.9c1.5,0,2.7-1.2,2.7-2.7
	C38.8,36.2,37.6,35.1,36.1,35.1z"/>
<path class="st2" d="M12.6,35.2c-0.3-0.1-0.5-0.1-0.8-0.1c-1.5,0-2.7,1.2-2.7,2.7s1.2,2.7,2.7,2.7c0.8,0,1.5-0.3,2-0.9
	C13.1,38.2,12.7,36.7,12.6,35.2z"/>
<path class="st3" d="M68.4,49.9c5.7-1.9,6.2-18,3.9-23.8C70,19.9,64,15.8,57.4,15.8l0,0l0,0l0,0l0,0l0,0l0,0l0,0l0,0
	c-6.6,0-12.6,4.1-14.9,10.3c-2.2,5.8-1.8,21.9,3.9,23.8H68.4z"/>
<path class="st4" d="M41.8,7.7c-0.7-2.2-5.2-2.6-5.7,1.1C35.5,13,41.8,16,41.8,16s6.3-3,5.7-7.2C46.9,5.1,42.5,5.5,41.8,7.7z"/>
<g>
	<path class="st5" d="M47.4,8.8c-0.4-2.9-3.3-3.3-4.8-2.2c0.6,0.4,1.1,1.2,1.2,2.2c0.4,2.7-2.1,4.9-3.9,6.1c1,0.7,1.8,1.1,1.8,1.1
		S48,13,47.4,8.8z"/>
</g>
<path class="st6" d="M35.3,32.4c-5.5-0.9-9.2-6.4-9.2-6.4s-2.6,6.4-13.6,6.4v2c0,6.3,5.1,11.4,11.4,11.4l0,0
	c6.3,0,11.4-5.1,11.4-11.4C35.3,34.4,35.3,32.4,35.3,32.4z"/>
<path class="st6" d="M68.8,32.4c-5.5-0.9-9.2-6.4-9.2-6.4S57,32.4,46,32.4v2c0,6.3,5.1,11.4,11.4,11.4l0,0c6.3,0,11.4-5.1,11.4-11.4
	L68.8,32.4L68.8,32.4z"/>
<path class="st7" d="M40.7,62.6H7.2v0c0-9.2,7.5-16.7,16.7-16.7l0,0C33.2,45.8,40.7,53.3,40.7,62.6L40.7,62.6z"/>
<path class="st8" d="M24,45.8L24,45.8c-0.6,0-1.2,0-1.8,0.1c8.4,0.9,14.9,8,14.9,16.6v0h3.6v0C40.7,53.3,33.2,45.8,24,45.8z"/>
<path class="st1" d="M28.2,46.3c-1.3-0.3-2.8-0.5-4.2-0.5l0,0c-1.5,0-2.9,0.2-4.2,0.5c0.3,2.1,2,3.7,4.2,3.7S27.9,48.4,28.2,46.3z"
	/>
<path class="st9" d="M74.1,62.6H40.7v0c0-9.2,7.5-16.7,16.7-16.7l0,0C66.7,45.8,74.1,53.3,74.1,62.6L74.1,62.6L74.1,62.6z"/>
<path class="st10" d="M57.4,45.8L57.4,45.8c-0.6,0-1.2,0-1.8,0.1c8.4,0.9,14.9,8,14.9,16.6v0h3.6v0C74.1,53.3,66.7,45.8,57.4,45.8z"
	/>
<path class="st1" d="M61.6,46.3c-1.3-0.3-2.8-0.5-4.2-0.5l0,0c-1.5,0-2.9,0.2-4.2,0.5c0.3,2.1,2,3.7,4.2,3.7
	C59.6,50,61.4,48.4,61.6,46.3z"/>
<circle class="st6" cx="40.4" cy="61.2" r="11.8"/>
<path class="st1" d="M52.5,62.3c-0.2,0-0.3,0-0.4,0c-0.1,1.6-0.6,3.2-1.4,4.6c0.5,0.5,1.1,0.7,1.8,0.7c1.5,0,2.7-1.2,2.7-2.7
	C55.2,63.5,54,62.3,52.5,62.3z"/>
<path class="st2" d="M28.7,62.3c-0.1,0-0.3,0-0.4,0c-1.5,0-2.7,1.2-2.7,2.7c0,1.5,1.2,2.7,2.7,2.7c0.7,0,1.4-0.3,1.8-0.7
	C29.3,65.5,28.8,63.9,28.7,62.3z"/>
<g>
	<path d="M52.7,34.8c-0.9,0-1.6,0.7-1.6,1.6c0,0.9,0.7,1.6,1.6,1.6s1.6-0.7,1.6-1.6C54.4,35.5,53.6,34.8,52.7,34.8z"/>
	<path d="M62.1,34.8c-0.9,0-1.6,0.7-1.6,1.6c0,0.9,0.7,1.6,1.6,1.6s1.6-0.7,1.6-1.6C63.7,35.5,63,34.8,62.1,34.8z"/>
	<path d="M19.3,34.8c-0.9,0-1.6,0.7-1.6,1.6c0,0.9,0.7,1.6,1.6,1.6c0.9,0,1.6-0.7,1.6-1.6C20.9,35.5,20.2,34.8,19.3,34.8z"/>
	<path d="M28.7,34.8c-0.9,0-1.6,0.7-1.6,1.6c0,0.9,0.7,1.6,1.6,1.6c0.9,0,1.6-0.7,1.6-1.6C30.3,35.5,29.6,34.8,28.7,34.8z"/>
	<path d="M74.6,58.1c-0.1-0.5-0.7-0.9-1.2-0.7c-0.5,0.1-0.9,0.7-0.7,1.2c0.3,1,0.4,2,0.5,3H54c-0.3-0.1-0.5-0.2-0.8-0.2
		c0,0,0,0,0-0.1c0-4.5-2.3-8.5-5.9-10.7c1.5-1.3,3.3-2.3,5.2-2.9c0.7,2,2.7,3.5,4.9,3.5c2.2,0,4.2-1.4,4.9-3.5
		c3.7,1.2,6.9,3.9,8.9,7.4c0.3,0.5,1,0.7,1.5,0.4c0.4-0.3,0.6-0.9,0.3-1.3c-0.8-1.5-1.8-2.8-2.9-3.9c0.9-0.7,1.7-1.8,2.4-3.2
		c2.6-5.6,2.6-16.4,0.8-21.2c-1.2-3.2-3.4-6-6.2-7.9c-2.9-2-6.2-3-9.6-3c-4.1,0-8.1,1.5-11.2,4.2c-0.4,0.4-0.5,1-0.1,1.4
		c0.4,0.4,1,0.5,1.4,0.1c2.7-2.4,6.2-3.7,9.9-3.7c3,0,6,0.9,8.5,2.6c2.5,1.7,4.4,4.1,5.5,7c1.7,4.4,1.7,14.5-0.7,19.6
		c-0.6,1.3-1.3,2.2-2.1,2.6c-1.7-1.4-3.7-2.5-5.8-3.1c4.2-2,7.1-6.3,7.1-11.2v-2c0-0.5-0.4-0.9-0.8-1c-5-0.9-8.5-5.9-8.5-6
		c-0.4-0.7-1.5-0.6-1.8,0.2c0,0.1-2.5,5.8-12.6,5.8c-0.6,0-1,0.5-1,1v2c0,4.9,2.9,9.2,7,11.2c-2.1,0.7-4.1,1.7-5.8,3.1
		c-0.8-0.5-1.5-1.3-2.1-2.6c-2.4-5.1-2.4-15.2-0.7-19.6c0.4-1.1,1-2.1,1.6-3.1c0.3-0.5,0.2-1.1-0.3-1.4c-0.5-0.3-1.1-0.2-1.4,0.3
		c-0.7,1.1-1.4,2.3-1.8,3.5c-1.9,4.9-1.9,15.6,0.8,21.2c0.3,0.7,0.7,1.3,1.1,1.9c-0.9-0.2-1.8-0.3-2.8-0.4c-0.1-0.8-0.2-1.9,0-2.8
		c0.1-0.5-0.2-1.1-0.8-1.2c-0.5-0.1-1.1,0.2-1.2,0.8c-0.2,0.9-0.2,1.8-0.1,2.6c-1.6-1-1.9-2.6-1.9-2.6c-0.1-0.5-0.6-0.9-1.2-0.8
		c-0.6,0.1-0.9,0.6-0.8,1.2c0,0.1,0.3,2,2.1,3.5c-0.3,0.1-0.6,0.2-0.9,0.3c-1.9-1.7-4.1-3-6.5-3.7c2.1-1,3.9-2.6,5.1-4.6
		c0.5,0.3,1.1,0.4,1.7,0.4c2,0,3.7-1.7,3.7-3.7c0-0.8-0.2-1.5-0.7-2.1c2.6-7.7,1.5-12.1,0-14.6c-1.5-2.4-3.9-4-6.9-4.4
		c-2.1-0.3-3.8,0.3-4.8,0.7c-1.4-1.7-3-2.6-6.3-2.6c-3.8,0-9.2,2-12.1,6.3c-3.2,4.8-2,10.5-0.4,14.6c-0.4,0.6-0.6,1.3-0.6,2.1
		c0,2,1.7,3.7,3.7,3.7c0.6,0,1.2-0.1,1.7-0.4c1.2,2,3,3.6,5.1,4.6c-2.8,0.9-5.4,2.5-7.5,4.6c-0.4,0.4-0.4,1,0,1.3
		c0.4,0.5,1.1,0.5,1.5,0.1c1.8-1.9,4-3.3,6.4-4c0.7,2,2.7,3.5,4.9,3.5c2.2,0,4.2-1.4,4.9-3.5c1.8,0.6,3.4,1.5,4.9,2.7
		c-3.7,2.2-6.2,6.3-6.2,11c0,0,0,0,0,0.1c-0.3,0-0.6,0.1-0.8,0.2H8.3c0.1-2.4,0.9-4.8,2.1-6.9c0.3-0.5,0.1-1.1-0.4-1.4
		c-0.5-0.3-1.1-0.1-1.4,0.4c-1.5,2.7-2.4,5.7-2.4,8.9v0c0,0.6,0.5,1,1,1h17.6c-0.2,0.4-0.3,0.9-0.3,1.4c0,2,1.7,3.7,3.7,3.7
		c0.5,0,1.1-0.1,1.5-0.3C32,71.7,35.9,74,40.4,74c4.4,0,8.3-2.3,10.6-5.7c0.5,0.2,1,0.3,1.5,0.3c2,0,3.7-1.7,3.7-3.7
		c0-0.5-0.1-0.9-0.3-1.4h18.2c0.6,0,1-0.5,1-1v0C75.2,61,75,59.5,74.6,58.1z M36.1,39.4c-0.3,0-0.5-0.1-0.7-0.2c0.4-1,0.7-2,0.9-3.1
		c0.9,0.1,1.6,0.8,1.6,1.7C37.8,38.6,37,39.4,36.1,39.4z M10.8,22.2c2.4-3.7,7.1-5.4,10.4-5.4c3.2,0,4.1,0.9,5.2,2.4
		c0.3,0.4,0.9,0.5,1.4,0.2c0,0,1.8-1.2,4.2-0.8c2.3,0.3,4.3,1.5,5.4,3.4c1.7,2.8,1.7,7,0,12.2c-0.3-0.1-0.7-0.2-1.1-0.2v-1.7
		c0-0.5-0.4-0.9-0.8-1c-5-0.9-8.5-5.9-8.5-6c-0.4-0.7-1.5-0.6-1.8,0.2c0,0-0.6,1.5-2.5,2.9c-2.5,1.9-6,2.9-10.2,2.9
		c-0.6,0-1,0.5-1,1V34c-0.4,0-0.8,0.1-1.2,0.3C8.6,29.5,8.7,25.4,10.8,22.2z M11.8,39.4c-0.9,0-1.7-0.7-1.7-1.7
		c0-0.9,0.7-1.6,1.6-1.7c0.1,1.1,0.4,2.2,0.9,3.1C12.3,39.3,12.1,39.4,11.8,39.4z M13.6,35.1C13.6,35.1,13.6,35.1,13.6,35.1
		c0-0.2,0-0.5,0-0.7v-1.1c7.7-0.3,11.2-3.6,12.7-5.6c1.4,1.7,4.2,4.5,8.1,5.4v1.2c0,0.2,0,0.5,0,0.7c0,0,0,0,0,0
		c-0.4,5.4-4.9,9.7-10.3,9.7C18.5,44.8,14,40.5,13.6,35.1z M24,49c-1.3,0-2.5-0.8-3-1.9c1-0.2,2-0.3,3-0.3c1,0,2,0.1,3,0.3
		C26.4,48.2,25.3,49,24,49z M57.4,49c-1.3,0-2.5-0.8-3-1.9c1-0.2,2-0.3,3-0.3c1,0,2,0.1,3,0.3C59.9,48.2,58.7,49,57.4,49z
		 M47.1,34.4v-1.1c7.7-0.3,11.2-3.6,12.7-5.6c1.4,1.7,4.2,4.5,8.1,5.4v1.2c0,5.7-4.6,10.4-10.4,10.4S47.1,40.1,47.1,34.4z
		 M28.2,66.6c-0.9,0-1.7-0.7-1.7-1.7c0-0.8,0.5-1.4,1.2-1.6c0.2,1.1,0.5,2.2,1,3.2C28.6,66.6,28.4,66.6,28.2,66.6z M40.4,72
		c-5.9,0-10.7-4.8-10.7-10.7s4.8-10.7,10.7-10.7s10.7,4.8,10.7,10.7S46.3,72,40.4,72z M52.5,66.6c-0.2,0-0.4,0-0.5-0.1
		c0.5-1,0.8-2.1,1-3.2c0.7,0.2,1.2,0.8,1.2,1.6C54.2,65.9,53.4,66.6,52.5,66.6z"/>
	<path d="M35.7,60.8c-0.9,0-1.6,0.7-1.6,1.6c0,0.9,0.7,1.6,1.6,1.6c0.9,0,1.6-0.7,1.6-1.6C37.3,61.5,36.6,60.8,35.7,60.8z"/>
	<path d="M45.1,60.8c-0.9,0-1.6,0.7-1.6,1.6c0,0.9,0.7,1.6,1.6,1.6s1.6-0.7,1.6-1.6C46.7,61.5,46,60.8,45.1,60.8z"/>
	<path d="M38,14.7c1.6,1.4,3.2,2.2,3.3,2.2c0.3,0.1,0.6,0.1,0.9,0c0.1,0,1.7-0.8,3.3-2.2c2.2-1.9,3.3-4,3-6.1
		c-0.3-2.5-2.1-3.5-3.6-3.6c-1.2-0.1-2.3,0.3-3,0.9c-0.8-0.7-1.9-1-3-0.9c-1.5,0.1-3.3,1.2-3.6,3.6C34.8,10.7,35.8,12.8,38,14.7z
		 M37.1,8.9c0.2-1.5,1.2-1.8,1.8-1.9C39,7,39,7,39.1,7c0.8,0,1.5,0.4,1.7,1c0.1,0.4,0.5,0.7,1,0.7c0.4,0,0.8-0.3,1-0.7
		c0.2-0.6,1-1.1,1.9-1c0.6,0,1.6,0.4,1.8,1.9c0.4,2.6-2.9,5-4.7,6C40,13.9,36.7,11.5,37.1,8.9z"/>
</g>
</svg>
