<?xml version="1.0" encoding="utf-8"?>
<!-- Generator: Adobe Illustrator 22.0.0, SVG Export Plug-In . SVG Version: 6.00 Build 0)  -->
<svg version="1.1" id="Layer_1" xmlns="http://www.w3.org/2000/svg" xmlns:xlink="http://www.w3.org/1999/xlink" x="0px" y="0px"
	 viewBox="0 0 80 80" style="enable-background:new 0 0 80 80;" xml:space="preserve">
<style type="text/css">
	.st0{fill:#00899C;}
	.st1{fill:#8FD7FF;}
	.st2{fill:#FF9008;}
	.st3{fill:#74FFBC;}
	.st4{fill:#F0BC5E;}
	.st5{fill:#FF978F;}
	.st6{fill:#0078D2;}
	.st7{fill:#A9FF8F;}
</style>
<path class="st0" d="M67.4,74H49.3c-3.5,0-6.3-2.8-6.3-6.3V36c0-3.8,3.1-7,7-7h17.5c3.6,0,6.5,2.9,6.5,6.5v31.9
	C74,71.1,71.1,74,67.4,74z"/>
<rect x="47" y="34" class="st1" width="22" height="9"/>
<rect x="47" y="47" class="st2" width="5" height="5"/>
<rect x="47" y="56" class="st2" width="5" height="5"/>
<rect x="47" y="65" class="st2" width="5" height="5"/>
<rect x="56" y="47" class="st2" width="5" height="5"/>
<rect x="56" y="56" class="st2" width="5" height="5"/>
<rect x="56" y="65" class="st2" width="5" height="5"/>
<rect x="65" y="47" class="st2" width="5" height="5"/>
<rect x="65" y="56" class="st2" width="5" height="14"/>
<rect x="42" y="7" class="st3" width="27" height="22"/>
<rect x="8" y="7" class="st3" width="35" height="31"/>
<path class="st4" d="M47.5,29h1.3c2.3-3.5,2.7-8,0.7-12.3c-1.1-2.4-3-4.3-5.3-5.4c-9.6-4.4-19,3.2-17.8,12.6c0.6,4.9,4.3,8.9,9,10.2
	c2.6,0.7,5.2,0.5,7.6-0.4v-0.2C43,31,45,29,47.5,29z"/>
<rect x="8.2" y="49.5" class="st5" width="6.7" height="23.4"/>
<rect x="19.4" y="56.2" class="st6" width="6.7" height="16.7"/>
<rect x="30.5" y="51.7" class="st7" width="6.7" height="21.1"/>
<path d="M38.3,19.4c0.6,0,1.1,0.5,1.1,1.1h2.2c0-1.4-0.9-2.7-2.2-3.1v-2.4h-2.2v2.4c-1.9,0.7-3.1,3.1-1.5,5.4
	c0.6,0.8,1.6,1.1,2.5,1.1c0.6,0,1.1,0.5,1.1,1.1c0,0.6-0.5,1.1-1.1,1.1c-0.6,0-1.1-0.5-1.1-1.1h-2.2c0,1.4,0.9,2.7,2.2,3.1v2.4h2.2
	v-2.4c1.9-0.7,3.1-3.1,1.5-5.4c-0.6-0.8-1.6-1.1-2.5-1.1c-0.6,0-1.1-0.5-1.1-1.1C37.2,19.9,37.7,19.4,38.3,19.4z"/>
<path d="M11.6,17.1L11.6,17.1c0.6,0,1.1-0.5,1.1-1.1v-2.2c0-0.6,0.5-1.1,1.1-1.1H16c0.6,0,1.1-0.5,1.1-1.1v0c0-0.6-0.5-1.1-1.1-1.1
	h-4.5c-0.6,0-1.1,0.5-1.1,1.1V16C10.5,16.6,10.9,17.1,11.6,17.1z"/>
<path d="M11.6,28.3L11.6,28.3c-0.6,0-1.1,0.5-1.1,1.1v4.5c0,0.6,0.5,1.1,1.1,1.1H16c0.6,0,1.1-0.5,1.1-1.1v0c0-0.6-0.5-1.1-1.1-1.1
	h-2.2c-0.6,0-1.1-0.5-1.1-1.1v-2.2C12.7,28.8,12.2,28.3,11.6,28.3z"/>
<path d="M65,17.1L65,17.1c0.6,0,1.1-0.5,1.1-1.1v-4.5c0-0.6-0.5-1.1-1.1-1.1h-4.5c-0.6,0-1.1,0.5-1.1,1.1v0c0,0.6,0.5,1.1,1.1,1.1
	h2.2c0.6,0,1.1,0.5,1.1,1.1V16C63.9,16.6,64.4,17.1,65,17.1z"/>
<path d="M70.5,27.2V7.7c0-0.9-0.7-1.7-1.7-1.7H7.7C6.7,6,6,6.7,6,7.7v30c0,0.9,0.7,1.7,1.7,1.7h32.3c0.9,0,1.7,0.7,1.7,1.7v26.7
	c0,4,3.2,7.2,7.2,7.2h18.9c4,0,7.2-3.2,7.2-7.2V33.8c0-2.3-1.4-4.3-3.4-5.1C71,28.4,70.5,27.9,70.5,27.2z M41.6,35.5L41.6,35.5
	c0,0.9-0.7,1.7-1.7,1.7h-30c-0.9,0-1.7-0.7-1.7-1.7V9.9C8.2,9,9,8.2,9.9,8.2h56.8c0.9,0,1.7,0.7,1.7,1.7v16.7c0,0.9-0.7,1.7-1.7,1.7
	H48.8C44.9,28.3,41.6,31.5,41.6,35.5z M72.8,67.8c0,2.8-2.2,5-5,5H48.8c-2.8,0-5-2.2-5-5V35.5c0-2.8,2.2-5,5-5h18.9c2.8,0,5,2.2,5,5
	V67.8z"/>
<path d="M65,70.5h4.5c0.6,0,1.1-0.5,1.1-1.1V56.1c0-0.6-0.5-1.1-1.1-1.1H65c-0.6,0-1.1,0.5-1.1,1.1v13.4
	C63.9,70.1,64.4,70.5,65,70.5z M67.2,57.2L67.2,57.2c0.6,0,1.1,0.5,1.1,1.1v8.9c0,0.6-0.5,1.1-1.1,1.1l0,0c-0.6,0-1.1-0.5-1.1-1.1
	v-8.9C66.1,57.7,66.6,57.2,67.2,57.2z"/>
<path d="M56.1,70.5h4.5c0.6,0,1.1-0.5,1.1-1.1V65c0-0.6-0.5-1.1-1.1-1.1h-4.5c-0.6,0-1.1,0.5-1.1,1.1v4.5
	C55,70.1,55.5,70.5,56.1,70.5z M58.3,66.1L58.3,66.1c0.6,0,1.1,0.5,1.1,1.1l0,0c0,0.6-0.5,1.1-1.1,1.1h0c-0.6,0-1.1-0.5-1.1-1.1l0,0
	C57.2,66.6,57.7,66.1,58.3,66.1z"/>
<path d="M47.2,70.5h4.5c0.6,0,1.1-0.5,1.1-1.1V65c0-0.6-0.5-1.1-1.1-1.1h-4.5c-0.6,0-1.1,0.5-1.1,1.1v4.5
	C46.1,70.1,46.6,70.5,47.2,70.5z M49.4,66.1L49.4,66.1c0.6,0,1.1,0.5,1.1,1.1l0,0c0,0.6-0.5,1.1-1.1,1.1h0c-0.6,0-1.1-0.5-1.1-1.1
	l0,0C48.3,66.6,48.8,66.1,49.4,66.1z"/>
<path d="M56.1,61.6h4.5c0.6,0,1.1-0.5,1.1-1.1v-4.5c0-0.6-0.5-1.1-1.1-1.1h-4.5c-0.6,0-1.1,0.5-1.1,1.1v4.5
	C55,61.1,55.5,61.6,56.1,61.6z M58.3,57.2L58.3,57.2c0.6,0,1.1,0.5,1.1,1.1v0c0,0.6-0.5,1.1-1.1,1.1h0c-0.6,0-1.1-0.5-1.1-1.1v0
	C57.2,57.7,57.7,57.2,58.3,57.2z"/>
<path d="M47.2,61.6h4.5c0.6,0,1.1-0.5,1.1-1.1v-4.5c0-0.6-0.5-1.1-1.1-1.1h-4.5c-0.6,0-1.1,0.5-1.1,1.1v4.5
	C46.1,61.1,46.6,61.6,47.2,61.6z M49.4,57.2L49.4,57.2c0.6,0,1.1,0.5,1.1,1.1v0c0,0.6-0.5,1.1-1.1,1.1h0c-0.6,0-1.1-0.5-1.1-1.1v0
	C48.3,57.7,48.8,57.2,49.4,57.2z"/>
<path d="M56.1,52.7h4.5c0.6,0,1.1-0.5,1.1-1.1v-4.5c0-0.6-0.5-1.1-1.1-1.1h-4.5c-0.6,0-1.1,0.5-1.1,1.1v4.5
	C55,52.2,55.5,52.7,56.1,52.7z M58.3,48.3L58.3,48.3c0.6,0,1.1,0.5,1.1,1.1v0c0,0.6-0.5,1.1-1.1,1.1h0c-0.6,0-1.1-0.5-1.1-1.1v0
	C57.2,48.8,57.7,48.3,58.3,48.3z"/>
<path d="M65,52.7h4.5c0.6,0,1.1-0.5,1.1-1.1v-4.5c0-0.6-0.5-1.1-1.1-1.1H65c-0.6,0-1.1,0.5-1.1,1.1v4.5C63.9,52.2,64.4,52.7,65,52.7
	z M67.2,48.3L67.2,48.3c0.6,0,1.1,0.5,1.1,1.1v0c0,0.6-0.5,1.1-1.1,1.1l0,0c-0.6,0-1.1-0.5-1.1-1.1v0C66.1,48.8,66.6,48.3,67.2,48.3
	z"/>
<path d="M47.2,52.7h4.5c0.6,0,1.1-0.5,1.1-1.1v-4.5c0-0.6-0.5-1.1-1.1-1.1h-4.5c-0.6,0-1.1,0.5-1.1,1.1v4.5
	C46.1,52.2,46.6,52.7,47.2,52.7z M49.4,48.3L49.4,48.3c0.6,0,1.1,0.5,1.1,1.1v0c0,0.6-0.5,1.1-1.1,1.1h0c-0.6,0-1.1-0.5-1.1-1.1v0
	C48.3,48.8,48.8,48.3,49.4,48.3z"/>
<path d="M48.4,43.8h19.8c1.3,0,2.4-1.1,2.4-2.4v-6.4c0-1.3-1.1-2.4-2.4-2.4H48.4c-1.3,0-2.4,1.1-2.4,2.4v6.4
	C46.1,42.8,47.1,43.8,48.4,43.8z M50.7,34.9H66c1.3,0,2.4,1.1,2.4,2.4v2c0,1.3-1.1,2.4-2.4,2.4H50.7c-1.3,0-2.4-1.1-2.4-2.4v-2
	C48.3,36,49.3,34.9,50.7,34.9z"/>
<path d="M11.6,41.6c-1.8,0-3.3,1.5-3.3,3.3c0,1.8,1.5,3.3,3.3,3.3c0.8,0,1.5-0.3,2.1-0.8l5.7,3.4c0,0.2-0.1,0.4-0.1,0.7
	c0,1.8,1.5,3.3,3.3,3.3s3.3-1.5,3.3-3.3c0,0,0-0.1,0-0.1l5.3-2.1c0.6,0.7,1.5,1.1,2.5,1.1c1.8,0,3.3-1.5,3.3-3.3
	c0-1.8-1.5-3.3-3.3-3.3s-3.3,1.5-3.3,3.3c0,0,0,0.1,0,0.1l-5.3,2.1c-0.6-0.7-1.5-1.1-2.5-1.1c-0.8,0-1.5,0.3-2.1,0.8l-5.7-3.4
	c0-0.2,0.1-0.4,0.1-0.7C14.9,43.1,13.4,41.6,11.6,41.6z M33.8,46.1c0.6,0,1.1,0.5,1.1,1.1c0,0.6-0.5,1.1-1.1,1.1
	c-0.6,0-1.1-0.5-1.1-1.1C32.7,46.6,33.2,46.1,33.8,46.1z M11.6,46.1c-0.6,0-1.1-0.5-1.1-1.1c0-0.6,0.5-1.1,1.1-1.1s1.1,0.5,1.1,1.1
	C12.7,45.6,12.2,46.1,11.6,46.1z M23.8,51.6c0,0.6-0.5,1.1-1.1,1.1s-1.1-0.5-1.1-1.1s0.5-1.1,1.1-1.1S23.8,51,23.8,51.6z"/>
<rect x="6" y="72.8" width="33.4" height="2.2"/>
<path d="M45,21.6L45,21.6c0.6,0,1.1,0.5,1.1,1.1v0c0,0.6-0.5,1.1-1.1,1.1h0c-0.6,0-1.1-0.5-1.1-1.1v0C43.8,22.1,44.3,21.6,45,21.6z"
	/>
<path d="M31.6,21.6L31.6,21.6c0.6,0,1.1,0.5,1.1,1.1v0c0,0.6-0.5,1.1-1.1,1.1h0c-0.6,0-1.1-0.5-1.1-1.1v0
	C30.5,22.1,31,21.6,31.6,21.6z"/>
</svg>
