<?xml version="1.0" encoding="utf-8"?>
<!-- Generator: Adobe Illustrator 22.0.0, SVG Export Plug-In . SVG Version: 6.00 Build 0)  -->
<svg version="1.1" id="Layer_1" xmlns="http://www.w3.org/2000/svg" xmlns:xlink="http://www.w3.org/1999/xlink" x="0px" y="0px"
	 viewBox="0 0 80 80" style="enable-background:new 0 0 80 80;" xml:space="preserve">
<style type="text/css">
	.st0{fill:#007F92;}
	.st1{fill:#B5FFF6;}
	.st2{fill:#009573;}
</style>
<path id="XMLID_2936_" class="st0" d="M72.7,15.2c0-1.4-1.2-2.6-2.6-2.6H10.9c-1.4,0-2.6,1.2-2.6,2.6v53.9c0,1.4,1.2,2.6,2.6,2.6
	h48.7c5.1-5.1,7.9-7.9,13-13V15.2z"/>
<path id="XMLID_2935_" class="st1" d="M8.3,27.2v41.9c0,1.4,1.2,2.6,2.6,2.6h48.7c5.1-5.1,7.9-7.9,13-13V27.2H8.3z"/>
<path id="XMLID_2723_" class="st0" d="M59.6,61.2v10.5l13.1-13.1H62.2C60.7,58.6,59.6,59.7,59.6,61.2z"/>
<g id="XMLID_2903_">
	<path id="XMLID_2905_" class="st2" d="M23,12.2v-1.7c0-1.7-1.4-3.1-3.1-3.1l0,0c-1.7,0-3.1,1.4-3.1,3.1v6.4c0,1.7,1.4,3.1,3.1,3.1
		l0,0c1.7,0,3.1-1.4,3.1-3.1V12.2z"/>
</g>
<g id="XMLID_2900_">
	<path id="XMLID_2902_" class="st2" d="M43.6,12.2v-1.7c0-1.7-1.4-3.1-3.1-3.1l0,0c-1.7,0-3.1,1.4-3.1,3.1v6.4
		c0,1.7,1.4,3.1,3.1,3.1l0,0c1.7,0,3.1-1.4,3.1-3.1V12.2z"/>
</g>
<g id="XMLID_2897_">
	<path id="XMLID_2899_" class="st2" d="M64.3,12.2v-1.7c0-1.7-1.4-3.1-3.1-3.1l0,0c-1.7,0-3.1,1.4-3.1,3.1v6.4
		c0,1.7,1.4,3.1,3.1,3.1l0,0c1.7,0,3.1-1.4,3.1-3.1V12.2z"/>
</g>
<path id="XMLID_699_" d="M67.5,28.5c0.3,0,0.7-0.1,0.9-0.4c0.2-0.2,0.4-0.6,0.4-0.9s-0.1-0.7-0.4-0.9c-0.2-0.2-0.6-0.4-0.9-0.4
	s-0.7,0.1-0.9,0.4s-0.4,0.6-0.4,0.9s0.1,0.7,0.4,0.9C66.8,28.4,67.1,28.5,67.5,28.5z"/>
<path id="XMLID_698_" d="M32.7,64.1L32.7,64.1c-0.7,0-1.3,0.6-1.3,1.3c0,0.7,0.6,1.3,1.3,1.3h0c0.7,0,1.3-0.6,1.3-1.3
	C34,64.6,33.4,64.1,32.7,64.1z"/>
<path id="XMLID_691_" d="M74,58.6V15.2c0-2.2-1.8-3.9-3.9-3.9h-4.5v-0.8c0-2.5-2-4.4-4.4-4.4s-4.4,2-4.4,4.4v0.8H44.9v-0.8
	c0-2.5-2-4.4-4.4-4.4S36,8,36,10.4v0.8H24.3v-0.8c0-2.5-2-4.4-4.4-4.4s-4.4,2-4.4,4.4v0.8h-4.4C8.8,11.2,7,13,7,15.2v53.9
	c0,2.2,1.8,3.9,3.9,3.9h48.6c0.4,0,0.7-0.1,0.9-0.4c0,0,0,0,0,0l13.1-13.1l0,0C73.9,59.2,74,58.9,74,58.6z M59.3,10.4
	c0-1,0.8-1.8,1.8-1.8S63,9.4,63,10.4v6.4c0,1-0.8,1.8-1.8,1.8s-1.8-0.8-1.8-1.8V10.4z M38.7,10.4c0-1,0.8-1.8,1.8-1.8
	c1,0,1.8,0.8,1.8,1.8v6.4c0,1-0.8,1.8-1.8,1.8s-1.8-0.8-1.8-1.8V10.4L38.7,10.4z M18,10.4c0-1,0.8-1.8,1.8-1.8s1.8,0.8,1.8,1.8v6.4
	c0,1-0.8,1.8-1.8,1.8S18,17.9,18,16.9V10.4z M9.6,69.1v-2.4h17.9c0.7,0,1.3-0.6,1.3-1.3c0-0.7-0.6-1.3-1.3-1.3H9.6V28.5h52.6
	c0.7,0,1.3-0.6,1.3-1.3s-0.6-1.3-1.3-1.3H9.6V15.2c0-0.7,0.6-1.3,1.3-1.3h4.4v3c0,2.5,2,4.4,4.4,4.4s4.4-2,4.4-4.4v-3H36v3
	c0,2.5,2,4.4,4.4,4.4c2.5,0,4.4-2,4.4-4.4v-3h11.8v3c0,2.5,2,4.4,4.4,4.4s4.4-2,4.4-4.4v-3h4.5c0.7,0,1.3,0.6,1.3,1.3v42.1h-9.2
	c-2.2,0-3.9,1.8-3.9,3.9v9.2H10.9C10.2,70.4,9.6,69.8,9.6,69.1z M60.9,68.5v-7.4c0-0.7,0.6-1.3,1.3-1.3h7.4L60.9,68.5z"/>
<path id="XMLID_690_" d="M32.7,51.9v-4.5v-4.5c0-1.4-1.1-2.6-2.6-2.6h-5.7c-0.7,0-1.3,0.6-1.3,1.3s0.6,1.3,1.3,1.3H30V46h-5.6
	c-0.7,0-1.3,0.6-1.3,1.3s0.6,1.3,1.3,1.3H30v3.1h-5.6c-0.7,0-1.3,0.6-1.3,1.3s0.6,1.3,1.3,1.3h5.7C31.5,54.4,32.7,53.3,32.7,51.9z"
	/>
<path id="XMLID_687_" d="M44,42.9c0.7,0,1.3-0.6,1.3-1.3s-0.6-1.3-1.3-1.3h-5.7c-1.4,0-2.6,1.1-2.6,2.6v4.5v4.5
	c0,1.4,1.1,2.6,2.6,2.6h4.4c1.4,0,2.6-1.1,2.6-2.6v-3.3c0-1.4-1.1-2.6-2.6-2.6h-1.9h-2.4v-3.1L44,42.9L44,42.9z M40.8,48.7h1.9v3.1
	h-4.3v-3.1H40.8z"/>
<path id="XMLID_686_" d="M55.4,46h-2.2h-2.1v-3.1h5.6c0.7,0,1.3-0.6,1.3-1.3s-0.6-1.3-1.3-1.3H51c-1.4,0-2.6,1.1-2.6,2.6v3.3
	c0,1.4,1.1,2.6,2.6,2.6h2.2h2.1v3.1h-5.6c-0.7,0-1.3,0.6-1.3,1.3c0,0.7,0.6,1.3,1.3,1.3h5.7c1.4,0,2.6-1.1,2.6-2.6v-3.3
	C58,47.2,56.8,46,55.4,46z"/>
<rect x="61.3" y="25.9" width="10.1" height="2.6"/>
</svg>
