<?xml version="1.0" encoding="utf-8"?>
<!-- Generator: Adobe Illustrator 22.0.0, SVG Export Plug-In . SVG Version: 6.00 Build 0)  -->
<svg version="1.1" id="Layer_1" xmlns="http://www.w3.org/2000/svg" xmlns:xlink="http://www.w3.org/1999/xlink" x="0px" y="0px"
	 viewBox="0 0 80 80" style="enable-background:new 0 0 80 80;" xml:space="preserve">
<style type="text/css">
	.st0{fill:#86D9FF;}
	.st1{fill:#00A150;}
	.st2{fill:#7DFFC2;}
	.st3{fill:#1F9FFF;}
</style>
<rect x="5" y="5" class="st0" width="42.2" height="51.1"/>
<rect x="9.5" y="9.5" class="st1" width="13.3" height="13.3"/>
<rect x="9.5" y="27.3" class="st1" width="33.3" height="12.2"/>
<rect x="25" y="36.2" class="st2" width="48.9" height="37.8"/>
<rect x="30.6" y="40.6" class="st3" width="15.6" height="13.3"/>
<path d="M9.5,23.9h13.3c0.6,0,1-0.5,1-1V9.5c0-0.6-0.5-1-1-1H9.5c-0.6,0-1,0.5-1,1v13.3C8.4,23.4,8.9,23.9,9.5,23.9z M10.5,10.5
	h11.3v11.3H10.5V10.5z"/>
<path d="M28.4,11.6h14.5c0.6,0,1-0.5,1-1c0-0.6-0.5-1-1-1H28.4c-0.6,0-1,0.5-1,1C27.3,11.2,27.8,11.6,28.4,11.6z"/>
<path d="M28.4,17.2h14.5c0.6,0,1-0.5,1-1s-0.5-1-1-1H28.4c-0.6,0-1,0.5-1,1S27.8,17.2,28.4,17.2z"/>
<path d="M28.4,22.8h14.5c0.6,0,1-0.5,1-1c0-0.6-0.5-1-1-1H28.4c-0.6,0-1,0.5-1,1C27.3,22.3,27.8,22.8,28.4,22.8z"/>
<path d="M9.5,45h11.1c0.6,0,1-0.5,1-1c0-0.6-0.5-1-1-1H9.5c-0.6,0-1,0.5-1,1C8.4,44.5,8.9,45,9.5,45z"/>
<path d="M20.6,47.4H9.5c-0.6,0-1,0.5-1,1c0,0.6,0.5,1,1,1h11.1c0.6,0,1-0.5,1-1C21.6,47.8,21.2,47.4,20.6,47.4z"/>
<path d="M20.6,51.8H9.5c-0.6,0-1,0.5-1,1c0,0.6,0.5,1,1,1h11.1c0.6,0,1-0.5,1-1C21.6,52.3,21.2,51.8,20.6,51.8z"/>
<path d="M74,35.1h-7.5c-0.6,0-1,0.5-1,1c0,0.6,0.5,1,1,1h6.5v35.7H26.1V37.2h35.1c0.6,0,1-0.5,1-1c0-0.6-0.5-1-1-1H48.3V5
	c0-0.6-0.5-1-1-1H5C4.5,4,4,4.5,4,5v51.1c0,0.6,0.5,1,1,1h19V74c0,0.6,0.5,1,1,1H74c0.6,0,1-0.5,1-1V36.2C75,35.6,74.5,35.1,74,35.1
	z M25,35.1c-0.6,0-1,0.5-1,1v2.3H10.5V28.3h31.3v6.8H25z M6.1,55.1v-49h40.2v29h-2.4v-7.9c0-0.6-0.5-1-1-1H9.5c-0.6,0-1,0.5-1,1
	v12.2c0,0.6,0.5,1,1,1H24v14.6H6.1z"/>
<path d="M47.2,40.6c0-0.6-0.5-1-1-1H30.6c-0.6,0-1,0.5-1,1V54c0,0.6,0.5,1,1,1h15.6c0.6,0,1-0.5,1-1V40.6z M45.1,52.9H31.6V41.7
	h13.5V52.9z"/>
<path d="M68.4,40.7H52.8c-0.6,0-1,0.5-1,1c0,0.6,0.5,1,1,1h15.6c0.6,0,1-0.5,1-1C69.4,41.1,69,40.7,68.4,40.7z"/>
<path d="M68.4,46.2H52.8c-0.6,0-1,0.5-1,1c0,0.6,0.5,1,1,1h15.6c0.6,0,1-0.5,1-1C69.4,46.7,69,46.2,68.4,46.2z"/>
<path d="M68.4,51.8H52.8c-0.6,0-1,0.5-1,1c0,0.6,0.5,1,1,1h15.6c0.6,0,1-0.5,1-1C69.4,52.3,69,51.8,68.4,51.8z"/>
<rect x="61" y="35.1" width="6.2" height="2.1"/>
<rect x="30" y="58" class="st3" width="39" height="12"/>
<g>
	<path d="M68,58v12H31V58H68 M68,57H31c-0.6,0-1,0.4-1,1v12c0,0.6,0.4,1,1,1h37c0.6,0,1-0.4,1-1V58C69,57.4,68.6,57,68,57L68,57z"/>
</g>
<path d="M66.7,60H32.3C31,60,30,60.2,30,60.5s1,0.5,2.3,0.5h34.4c1.3,0,2.3-0.2,2.3-0.5S68,60,66.7,60z"/>
<path d="M66.7,63H32.3C31,63,30,63.2,30,63.5s1,0.5,2.3,0.5h34.4c1.3,0,2.3-0.2,2.3-0.5S68,63,66.7,63z"/>
<path d="M66.7,66H32.3C31,66,30,66.2,30,66.5s1,0.5,2.3,0.5h34.4c1.3,0,2.3-0.2,2.3-0.5S68,66,66.7,66z"/>
<path d="M39.2,70.2l-0.1-12.3c0-0.5-0.2-0.8-0.5-0.8c-0.3,0-0.5,0.4-0.5,0.8l0.1,12.3c0,0.5,0.2,0.8,0.5,0.8
	C39,71,39.2,70.6,39.2,70.2z"/>
<path d="M46.2,70.2l-0.1-12.3c0-0.5-0.2-0.8-0.5-0.8c-0.3,0-0.5,0.4-0.5,0.8l0.1,12.3c0,0.5,0.2,0.8,0.5,0.8
	C46,71,46.2,70.6,46.2,70.2z"/>
<path d="M53.2,70.2l-0.1-12.3c0-0.5-0.2-0.8-0.5-0.8c-0.3,0-0.5,0.4-0.5,0.8l0.1,12.3c0,0.5,0.2,0.8,0.5,0.8
	C53,71,53.2,70.6,53.2,70.2z"/>
<path d="M60.2,70.2l-0.1-12.3c0-0.5-0.2-0.8-0.5-0.8c-0.3,0-0.5,0.4-0.5,0.8l0.1,12.3c0,0.5,0.2,0.8,0.5,0.8
	C60,71,60.2,70.6,60.2,70.2z"/>
</svg>
