<?xml version="1.0" encoding="utf-8"?>
<!-- Generator: Adobe Illustrator 22.0.0, SVG Export Plug-In . SVG Version: 6.00 Build 0)  -->
<svg version="1.1" id="Layer_1" xmlns="http://www.w3.org/2000/svg" xmlns:xlink="http://www.w3.org/1999/xlink" x="0px" y="0px"
	 viewBox="0 0 80 80" style="enable-background:new 0 0 80 80;" xml:space="preserve">
<style type="text/css">
	.st0{fill:#FFBA3E;}
	.st1{fill:#98FFE8;}
	.st2{fill:#93FFC1;}
	.st3{fill:#A18600;}
	.st4{fill:#00626F;}
	.st5{fill:#620007;}
</style>
<path class="st0" d="M56.1,37.5c0-8.9-7.3-16.2-16.3-16c-8.5,0.1-15.6,7-15.8,15.6c-0.2,5.1,2.1,9.7,5.7,12.8
	c1.9,1.6,2.9,3.9,2.9,6.4v0h14.7l0,0c0-2.5,1.1-4.8,2.9-6.4C53.8,46.9,56.1,42.5,56.1,37.5z"/>
<path class="st1" d="M45.1,66.3H34.9c-1.3,0-2.3-1-2.3-2.3v-7.8h14.7V64C47.4,65.3,46.4,66.3,45.1,66.3z"/>
<g>
	<rect x="56.5" y="4.4" class="st2" width="19.1" height="18.5"/>
	<rect x="4.4" y="4.4" class="st3" width="19.1" height="18.5"/>
	<rect x="4.4" y="57.1" class="st4" width="19.1" height="18.5"/>
	<rect x="56.5" y="57.1" class="st5" width="19.1" height="18.5"/>
</g>
<path d="M52.3,25.1c-3.4-3.3-7.8-5.1-12.5-5c-4.5,0.1-8.8,1.9-12,5c-3.2,3.2-5.1,7.4-5.2,11.9c-0.2,5.4,2.1,10.5,6.2,13.9
	c1.5,1.3,2.4,3.2,2.4,5.3V64c0,2.1,1.7,3.7,3.7,3.7h10.1c2.1,0,3.7-1.7,3.7-3.7v-7.8c0-2.1,0.9-4,2.4-5.3c4-3.3,6.2-8.2,6.2-13.4
	C57.5,32.8,55.7,28.4,52.3,25.1z M45.9,64c0,0.5-0.4,0.9-0.9,0.9H34.9c-0.5,0-0.9-0.4-0.9-0.9v-6.3h11.9L45.9,64L45.9,64z
	 M49.4,48.7c-1.8,1.5-3,3.7-3.4,6h-4.6V43.2c0-0.8-0.6-1.4-1.4-1.4c-0.8,0-1.4,0.6-1.4,1.4v11.5H34c-0.3-2.4-1.5-4.5-3.3-6
	c-3.4-2.9-5.3-7.1-5.2-11.6c0.2-7.8,6.5-14,14.4-14.2c3.9-0.1,7.7,1.4,10.5,4.2c2.8,2.8,4.3,6.5,4.3,10.4
	C54.6,41.9,52.7,45.9,49.4,48.7z"/>
<path d="M33.7,35.9c-0.4,0-0.8,0.2-1,0.4c-0.3,0.3-0.4,0.6-0.4,1c0,0.4,0.2,0.8,0.4,1c0.3,0.3,0.6,0.4,1,0.4c0.4,0,0.8-0.2,1-0.4
	c0.3-0.3,0.4-0.6,0.4-1s-0.2-0.8-0.4-1C34.5,36.1,34.1,35.9,33.7,35.9z"/>
<path d="M40,35.9c-0.4,0-0.8,0.2-1,0.4c-0.3,0.3-0.4,0.6-0.4,1c0,0.4,0.2,0.8,0.4,1c0.3,0.3,0.6,0.4,1,0.4c0.4,0,0.8-0.2,1-0.4
	c0.3-0.3,0.4-0.6,0.4-1c0-0.4-0.2-0.8-0.4-1C40.8,36.1,40.4,35.9,40,35.9z"/>
<path d="M46.3,35.9c-0.4,0-0.8,0.2-1,0.4c-0.3,0.3-0.4,0.6-0.4,1c0,0.4,0.2,0.8,0.4,1c0.3,0.3,0.6,0.4,1,0.4c0.4,0,0.8-0.2,1-0.4
	c0.3-0.3,0.4-0.6,0.4-1c0-0.4-0.2-0.8-0.4-1C47,36.1,46.6,35.9,46.3,35.9z"/>
<path d="M75.6,3H56.5C55.7,3,55,3.6,55,4.4v18.5c0,0.8,0.6,1.4,1.4,1.4h11v4.9h-5.5c-0.8,0-1.4,0.6-1.4,1.4c0,0.8,0.6,1.4,1.4,1.4h7
	c0.8,0,1.4-0.6,1.4-1.4v-6.4h5.2c0.8,0,1.4-0.6,1.4-1.4V4.4C77,3.6,76.4,3,75.6,3z M74.1,21.5H57.9V5.9h16.2V21.5z"/>
<path d="M62,18.2h8.1c0.8,0,1.4-0.6,1.4-1.4s-0.6-1.4-1.4-1.4H62c-0.8,0-1.4,0.6-1.4,1.4S61.2,18.2,62,18.2z"/>
<path d="M62,12.4h8.1c0.8,0,1.4-0.6,1.4-1.4c0-0.8-0.6-1.4-1.4-1.4H62c-0.8,0-1.4,0.6-1.4,1.4C60.5,11.8,61.2,12.4,62,12.4z"/>
<path d="M4.4,24.4h5.2v6.4c0,0.8,0.6,1.4,1.4,1.4h7c0.8,0,1.4-0.6,1.4-1.4c0-0.8-0.6-1.4-1.4-1.4h-5.5v-4.9h11
	c0.8,0,1.4-0.6,1.4-1.4V4.4C25,3.6,24.3,3,23.5,3H4.4C3.6,3,3,3.6,3,4.4v18.5C3,23.7,3.6,24.4,4.4,24.4z M5.9,5.9h16.2v15.6H5.9V5.9
	z"/>
<path d="M19.5,16.8c0-0.8-0.6-1.4-1.4-1.4H9.9c-0.8,0-1.4,0.6-1.4,1.4s0.6,1.4,1.4,1.4H18C18.8,18.2,19.5,17.6,19.5,16.8z"/>
<path d="M9.9,12.4H18c0.8,0,1.4-0.6,1.4-1.4c0-0.8-0.6-1.4-1.4-1.4H9.9c-0.8,0-1.4,0.6-1.4,1.4C8.5,11.8,9.1,12.4,9.9,12.4z"/>
<path d="M23.5,55.6h-11v-4.9h4.1c0.8,0,1.4-0.6,1.4-1.4c0-0.8-0.6-1.4-1.4-1.4h-5.6c-0.8,0-1.4,0.6-1.4,1.4v6.4H4.4
	c-0.8,0-1.4,0.6-1.4,1.4v18.5C3,76.4,3.6,77,4.4,77h19.1c0.8,0,1.4-0.6,1.4-1.4V57.1C25,56.3,24.3,55.6,23.5,55.6z M22.1,74.1H5.9
	V58.5h16.2V74.1z"/>
<path d="M8.5,63.2c0,0.8,0.6,1.4,1.4,1.4H18c0.8,0,1.4-0.6,1.4-1.4c0-0.8-0.6-1.4-1.4-1.4H9.9C9.1,61.8,8.5,62.4,8.5,63.2z"/>
<path d="M18,67.6H9.9c-0.8,0-1.4,0.6-1.4,1.4c0,0.8,0.6,1.4,1.4,1.4H18c0.8,0,1.4-0.6,1.4-1.4C19.5,68.2,18.8,67.6,18,67.6z"/>
<path d="M75.6,55.6h-5.2v-6.4c0-0.8-0.6-1.4-1.4-1.4h-7c-0.8,0-1.4,0.6-1.4,1.4c0,0.8,0.6,1.4,1.4,1.4h5.5v4.9h-11
	c-0.8,0-1.4,0.6-1.4,1.4v18.5c0,0.8,0.6,1.4,1.4,1.4h19.1c0.8,0,1.4-0.6,1.4-1.4V57.1C77,56.3,76.4,55.6,75.6,55.6z M74.1,74.1H57.9
	V58.5h16.2V74.1z"/>
<path d="M60.5,63.2c0,0.8,0.6,1.4,1.4,1.4h8.1c0.8,0,1.4-0.6,1.4-1.4c0-0.8-0.6-1.4-1.4-1.4H62C61.2,61.8,60.5,62.4,60.5,63.2z"/>
<path d="M70.1,67.6H62c-0.8,0-1.4,0.6-1.4,1.4c0,0.8,0.6,1.4,1.4,1.4h8.1c0.8,0,1.4-0.6,1.4-1.4C71.5,68.2,70.9,67.6,70.1,67.6z"/>
<path d="M20.1,49.3c0,0.4,0.2,0.8,0.4,1c0.3,0.3,0.6,0.4,1,0.4c0.4,0,0.8-0.2,1-0.4c0.3-0.3,0.4-0.6,0.4-1c0-0.4-0.2-0.8-0.4-1
	c-0.3-0.3-0.6-0.4-1-0.4c-0.4,0-0.8,0.2-1,0.4C20.2,48.5,20.1,48.9,20.1,49.3z"/>
</svg>
