<?xml version="1.0" encoding="utf-8"?>
<!-- Generator: Adobe Illustrator 22.0.0, SVG Export Plug-In . SVG Version: 6.00 Build 0)  -->
<svg version="1.1" id="Layer_1" xmlns="http://www.w3.org/2000/svg" xmlns:xlink="http://www.w3.org/1999/xlink" x="0px" y="0px"
	 viewBox="0 0 80 80" style="enable-background:new 0 0 80 80;" xml:space="preserve">
<style type="text/css">
	.st0{fill:#00877F;}
	.st1{fill:#00BDA4;}
	.st2{fill:#F5F5F5;}
	.st3{fill:#E0A446;}
</style>
<path class="st0" d="M37.9,17.7l-10.3,5c-0.9,0.5-1.7,1.2-2.1,2.2L12.7,57c-1.3,3,0,6.5,3,7.8l12.8,5.7h9.5L37.9,17.7z"/>
<path class="st1" d="M66.4,61.5v6.2c0,3.4-2.9,6.3-6.3,6.3h-26c-3.4,0-6.2-2.9-6.2-6.3V31.2c0-1.1,0.3-2.1,1-3l7.8-9.5
	c0.9-1.1,2.2-1.8,3.6-1.8h13.7c1.4,0,2.7,0.7,3.6,1.8l7.8,9.5c0.7,0.8,1.1,1.9,1.1,3v25.3L66.4,61.5L66.4,61.5z"/>
<g>
	<path class="st0" d="M45,41.7L45,41.7L45,41.7C44.9,41.6,44.9,41.6,45,41.7l-1.6-1.6l-0.2,0.4c-0.5-0.2-1-0.3-1.5-0.3h-0.1
		c-2.5,0-4.6,2.1-4.6,4.6c0,0.5,0.1,1,0.3,1.5l-0.4,0.2l1.5,1.5c0,0,0,0,0,0l0,0l0,0c0.8,0.8,2,1.3,3.2,1.3h0.1
		c2.5,0,4.6-2.1,4.6-4.6C46.2,43.6,45.7,42.5,45,41.7L45,41.7z M41.7,47.3h-0.1c-1.4,0-2.5-1.1-2.5-2.5c0-1.4,1.1-2.5,2.5-2.5h0.1
		c1.4,0,2.5,1.1,2.5,2.5C44.1,46.2,43,47.3,41.7,47.3z"/>
	<path class="st0" d="M58.2,40.7l-1.4-1.4L37.2,58.8l1.4,1.4c0.2,0.2,0.5,0.3,0.7,0.3s0.5-0.1,0.7-0.3l18-18
		C58.6,41.8,58.6,41.2,58.2,40.7L58.2,40.7z"/>
	<path class="st0" d="M58.4,52.5L58.4,52.5l-1.2-1.2l0.1,0.5c-0.6-0.3-1.2-0.4-1.9-0.4h-0.1c-2.5,0-4.6,2.1-4.6,4.6
		c0,0.7,0.1,1.3,0.4,1.8l-0.5-0.1l1.4,1.4c0,0.1,0.1,0.1,0.2,0.2l0,0l0,0c0.8,0.8,1.9,1.2,3.1,1.2h0.1c2.5,0,4.6-2.1,4.6-4.6
		C60,54.6,59.4,53.4,58.4,52.5L58.4,52.5z M55.4,58.5h-0.1c-1.4,0-2.5-1.1-2.5-2.5c0-1.4,1.1-2.5,2.5-2.5h0.1c1.4,0,2.5,1.1,2.5,2.5
		C57.9,57.3,56.8,58.5,55.4,58.5z"/>
</g>
<g>
	<path class="st2" d="M38,59.2c-0.3,0-0.5-0.1-0.7-0.3c-0.4-0.4-0.4-1.1,0-1.5l18-18c0.4-0.4,1.1-0.4,1.5,0c0.4,0.4,0.4,1.1,0,1.5
		l-18,18C38.5,59.1,38.3,59.2,38,59.2L38,59.2z"/>
	<path class="st2" d="M40.2,48h-0.1c-2.5,0-4.6-2.1-4.6-4.6s2.1-4.6,4.6-4.6h0.1c2.5,0,4.6,2.1,4.6,4.6S42.8,48,40.2,48z M40.1,41
		c-1.4,0-2.5,1.1-2.5,2.5c0,1.4,1.1,2.5,2.5,2.5h0.1c1.4,0,2.5-1.1,2.5-2.5c0-1.4-1.1-2.5-2.5-2.5H40.1z"/>
	<path class="st2" d="M54,59.2h-0.1c-2.5,0-4.6-2.1-4.6-4.6s2.1-4.6,4.6-4.6H54c2.5,0,4.6,2.1,4.6,4.6S56.6,59.2,54,59.2z
		 M53.9,52.1c-1.4,0-2.5,1.1-2.5,2.5c0,1.4,1.1,2.5,2.5,2.5H54c1.4,0,2.5-1.1,2.5-2.5c0-1.4-1.1-2.5-2.5-2.5H53.9z"/>
</g>
<path class="st3" d="M49.4,25.6c-0.5,0-0.9-0.3-1-0.8c-0.2-0.6,0.2-1.1,0.7-1.3c0.1,0,0.2-0.1,0.4-0.1c3.2-1.1,5.4-4.1,5.4-7.5V4
	c0-0.6,0.5-1.1,1.1-1.1s1.1,0.5,1.1,1.1v11.8c0,4.3-2.7,8.1-6.8,9.5c-0.1,0.1-0.3,0.1-0.5,0.1C49.6,25.6,49.5,25.6,49.4,25.6
	L49.4,25.6z"/>
<path class="st2" d="M47.1,28.2c-1.8,0-3.3-1.5-3.3-3.3c0-1.8,1.5-3.3,3.3-3.3s3.3,1.5,3.3,3.3C50.5,26.7,49,28.2,47.1,28.2z"/>
<path d="M66.4,57.6c0.6,0,1.1-0.5,1.1-1.1V31.2c0-1.3-0.5-2.5-1.4-3.6l-7.8-9.5c-0.4-0.5-0.9-0.9-1.4-1.2c0-0.3,0-0.6,0-1V4
	c0-0.6-0.5-1.1-1.1-1.1c-0.6,0-1.1,0.5-1.1,1.1c0,0,0,11.9,0,12c-0.3-0.1-0.6-0.1-0.9-0.1H40.2c-1,0-1.9,0.3-2.7,0.8
	c0,0-0.1,0-0.1,0l-10.3,5c-1.1,0.6-2.1,1.5-2.6,2.7c0,0,0,0,0,0l-4.3,10.8c-0.2,0.5,0.1,1.2,0.6,1.4c0.1,0.1,0.3,0.1,0.4,0.1
	c0.4,0,0.8-0.3,1-0.7l4.2-10.8c0.3-0.7,0.9-1.3,1.6-1.6l5.4-2.6L28,27.6c-0.8,1-1.2,2.2-1.2,3.6v36.5c0,0.4,0,0.8,0.1,1.2L16,64.1
	c-2.5-1.1-3.6-4-2.5-6.4c0,0,0,0,0,0l6.9-17.1c0.2-0.5,0-1.2-0.6-1.4c-0.5-0.2-1.2,0-1.4,0.6l-6.9,17.1c-1.5,3.5,0.1,7.7,3.6,9.2
	l12.8,5.7c0,0,0,0,0,0c1.3,2,3.5,3.4,6.1,3.4h26c4,0,7.4-3.4,7.4-7.4v-6.2c0-0.6-0.5-1.1-1.1-1.1s-1.1,0.5-1.1,1.1v6.2
	c0,2.9-2.4,5.3-5.3,5.3h-26c-2.8,0-5.1-2.4-5.1-5.3V31.2c0-0.9,0.3-1.7,0.8-2.3l7.8-9.5c0.7-0.9,1.7-1.4,2.7-1.4h13.7
	c0.2,0,0.4,0,0.6,0.1c-0.7,2.3-2.3,4.1-4.5,5.1c-0.6-1-1.6-1.6-2.8-1.6c-1.8,0-3.3,1.5-3.3,3.3c0,1.8,1.5,3.3,3.3,3.3
	c1.7,0,3.1-1.3,3.3-2.9c2.8-1.1,5-3.4,6-6.1c0.1,0.1,0.2,0.2,0.3,0.3l7.8,9.5c0.6,0.7,0.9,1.5,0.9,2.3v25.3
	C65.4,57.1,65.8,57.6,66.4,57.6L66.4,57.6z M47.1,26.1c-0.7,0-1.2-0.5-1.2-1.2c0-0.7,0.5-1.2,1.2-1.2s1.2,0.5,1.2,1.2
	C48.3,25.5,47.8,26.1,47.1,26.1z"/>
<path d="M38,59.2c0.3,0,0.5-0.1,0.7-0.3l18-18c0.4-0.4,0.4-1.1,0-1.5c-0.4-0.4-1.1-0.4-1.5,0l-18,18C36.6,58,37.1,59.2,38,59.2
	L38,59.2z"/>
<path d="M40.2,48c2.5,0,4.6-2.1,4.6-4.6s-2.1-4.6-4.6-4.6h-0.1c-2.5,0-4.6,2.1-4.6,4.6s2.1,4.6,4.6,4.6H40.2z M37.6,43.5
	c0-1.4,1.1-2.5,2.5-2.5h0.1c1.4,0,2.5,1.1,2.5,2.5c0,1.4-1.1,2.5-2.5,2.5h-0.1C38.7,45.9,37.6,44.8,37.6,43.5z"/>
<path d="M53.9,59.2H54c2.5,0,4.6-2.1,4.6-4.6S56.6,50,54,50h-0.1c-2.5,0-4.6,2.1-4.6,4.6S51.4,59.2,53.9,59.2z M53.9,52.1H54
	c1.4,0,2.5,1.1,2.5,2.5c0,1.4-1.1,2.5-2.5,2.5h-0.1c-1.4,0-2.5-1.1-2.5-2.5C51.4,53.2,52.5,52.1,53.9,52.1z"/>
<rect x="65.4" y="55.8" width="2.1" height="6.8"/>
<polygon points="18.1,40.6 20.6,34.4 22.6,35.2 20.1,41.3 "/>
</svg>
