<?xml version="1.0" encoding="utf-8"?>
<!-- Generator: Adobe Illustrator 22.0.0, SVG Export Plug-In . SVG Version: 6.00 Build 0)  -->
<svg version="1.1" id="Layer_1" xmlns="http://www.w3.org/2000/svg" xmlns:xlink="http://www.w3.org/1999/xlink" x="0px" y="0px"
	 viewBox="0 0 80 80" style="enable-background:new 0 0 80 80;" xml:space="preserve">
<style type="text/css">
	.st0{fill:#FF6C67;}
	.st1{fill:#6FFFC3;}
	.st2{fill:#F3EFF0;}
</style>
<path class="st0" d="M6.4,31.8v37.7c0,2.3,1.8,4.1,4.1,4.1h59.1c2.3,0,4.1-1.8,4.1-4.1V31.8H6.4z"/>
<path class="st1" d="M73.6,23.6v8.2c-9.8,0-58.7,0-67.3,0v-8.2c0-2.3,1.8-4.1,4.1-4.1h59.1C71.8,19.5,73.6,21.3,73.6,23.6z"/>
<path class="st1" d="M57.2,31.8h8.2V40h-8.2V31.8z"/>
<path class="st2" d="M52.3,48.2v8.2h-8.2v8.2h-8.2v-8.2h-8.2v-8.2h8.2V40h8.2v8.2H52.3z"/>
<path class="st1" d="M14.6,31.8h8.2V40h-8.2V31.8z"/>
<g>
	<path d="M35.9,66h8.2c0.8,0,1.4-0.6,1.4-1.4v-6.8h6.8c0.8,0,1.4-0.6,1.4-1.4v-8.2c0-0.8-0.6-1.4-1.4-1.4h-6.8V40
		c0-0.8-0.6-1.4-1.4-1.4h-8.2c-0.8,0-1.4,0.6-1.4,1.4v6.8h-6.8c-0.8,0-1.4,0.6-1.4,1.4v8.2c0,0.8,0.6,1.4,1.4,1.4h6.8v6.8
		C34.5,65.4,35.1,66,35.9,66z M29.1,55v-5.5h6.8c0.8,0,1.4-0.6,1.4-1.4v-6.8h5.5v6.8c0,0.8,0.6,1.4,1.4,1.4h6.8V55h-6.8
		c-0.8,0-1.4,0.6-1.4,1.4v6.8h-5.5v-6.8c0-0.8-0.6-1.4-1.4-1.4H29.1z"/>
	<circle cx="40" cy="73.6" r="1.4"/>
	<path d="M10.5,75h23.4c0.8,0,1.4-0.6,1.4-1.4s-0.6-1.4-1.4-1.4H10.5c-1.5,0-2.7-1.2-2.7-2.7V33.2h5.5V40c0,0.8,0.6,1.4,1.4,1.4h8.2
		c0.8,0,1.4-0.6,1.4-1.4v-6.8h31.7V40c0,0.8,0.6,1.4,1.4,1.4h8.2c0.8,0,1.4-0.6,1.4-1.4v-6.8h5.5v36.4c0,1.5-1.2,2.7-2.7,2.7H46.2
		c-0.8,0-1.4,0.6-1.4,1.4s0.6,1.4,1.4,1.4h23.4c3,0,5.5-2.5,5.5-5.5V23.6c0-3-2.5-5.5-5.5-5.5H57.8v-7.7c0-3-2.5-5.5-5.5-5.5H27.7
		c-3,0-5.5,2.5-5.5,5.5v7.7H10.5c-3,0-5.5,2.5-5.5,5.5v45.9C5,72.5,7.5,75,10.5,75z M21.4,38.6h-5.5v-5.5h5.5V38.6z M64.1,38.6h-5.5
		v-5.5h5.5V38.6z M25,10.5c0-1.5,1.2-2.7,2.7-2.7h24.6c1.5,0,2.7,1.2,2.7,2.7v7.7H25V10.5z M10.5,20.9h59.1c1.5,0,2.7,1.2,2.7,2.7
		v6.8H7.7v-6.8C7.7,22.1,9,20.9,10.5,20.9z"/>
</g>
<rect x="32.8" y="72.3" width="15.3" height="2.7"/>
</svg>
