<?xml version="1.0" encoding="utf-8"?>
<!-- Generator: Adobe Illustrator 22.0.0, SVG Export Plug-In . SVG Version: 6.00 Build 0)  -->
<svg version="1.1" id="Layer_1" xmlns="http://www.w3.org/2000/svg" xmlns:xlink="http://www.w3.org/1999/xlink" x="0px" y="0px"
	 viewBox="0 0 80 80" style="enable-background:new 0 0 80 80;" xml:space="preserve">
<style type="text/css">
	.st0{fill:#969FAA;}
	.st1{fill:#E6E9ED;}
	.st2{fill:#5EB7FF;}
	.st3{fill:#94EAA7;}
	.st4{fill:#69D6F4;}
	.st5{fill:#87E900;}
</style>
<path class="st0" d="M6.6,20.9h4.8h14.3h4.8h2.4v2.4c0,2.6-2.1,4.8-4.8,4.8H9c-2.6,0-4.8-2.1-4.8-4.8v-2.4H6.6z"/>
<path class="st1" d="M30.5,13.7v7.2h-4.8V10.2c0-0.7-0.5-1.2-1.2-1.2H12.5c-0.7,0-1.2,0.5-1.2,1.2v10.7H6.6V9c0-2.6,2.1-4.8,4.8-4.8
	h14.3c2.6,0,4.8,2.1,4.8,4.8V13.7z"/>
<path class="st0" d="M56.7,71h11.9v4.8H56.7V71z"/>
<path class="st0" d="M75.8,66.3v2.4c0,1.3-1.1,2.4-2.4,2.4h-4.8H56.7h-4.8c-1.3,0-2.4-1.1-2.4-2.4v-2.4H75.8z"/>
<path class="st0" d="M20.9,51.9v2.4H4.2v-2.4c0-1.3,1.1-2.4,2.4-2.4h6h6C19.8,49.5,20.9,50.6,20.9,51.9z"/>
<path class="st0" d="M20.9,71v2.4c0,1.3-1.1,2.4-2.4,2.4H6.6c-1.3,0-2.4-1.1-2.4-2.4V71H20.9z"/>
<path class="st2" d="M25.7,10.2v10.7H11.4V10.2c0-0.7,0.5-1.2,1.2-1.2h11.9C25.1,9,25.7,9.5,25.7,10.2z"/>
<path class="st2" d="M75.8,56.7v9.5H49.5v-3.6v-6c0-1.3,1.1-2.4,2.4-2.4h21.5C74.7,54.3,75.8,55.4,75.8,56.7z"/>
<path class="st2" d="M4.2,54.3h16.7V71H4.2V54.3z"/>
<path class="st3" d="M55.5,44.8v2.4c0,1.3-1.1,2.4-2.4,2.4H40H26.9c-1.3,0-2.4-1.1-2.4-2.4v-2.4H55.5z"/>
<circle class="st4" cx="62.7" cy="17.3" r="13.1"/>
<path class="st5" d="M55.5,40v4.8h-31V40v-4.8c0-1.3,1.1-2.4,2.4-2.4H40h13.1c1.3,0,2.4,1.1,2.4,2.4V40z"/>
<path d="M49.5,38.8h2.4v2.4h-2.4V38.8z"/>
<path d="M44.8,38.8h2.4v2.4h-2.4V38.8z"/>
<path d="M40,38.8h2.4v2.4H40V38.8z"/>
<path d="M73.4,53.1H51.9c-2,0-3.6,1.6-3.6,3.6v4.8h-3.6c-2,0-3.6-1.6-3.6-3.6v-7.2h11.9c2,0,3.6-1.6,3.6-3.6v-6h1.2c3.3,0,6-2.7,6-6
	v-3.6C71.2,31,77,24.8,77,17.3C77,9.4,70.6,3,62.7,3S48.4,9.4,48.4,17.3c0,7.5,5.8,13.7,13.1,14.3v3.6c0,2-1.6,3.6-3.6,3.6h-1.2
	v-3.6c0-2-1.6-3.6-3.6-3.6H41.2V18.5c0-3.3-2.7-6-6-6h-3.6V9c0-3.3-2.7-6-6-6H11.4c-3.3,0-6,2.7-6,6v10.7H3v3.6c0,3.3,2.7,6,6,6
	h19.1c3.3,0,6-2.7,6-6v-3.6h-2.4v-4.8h3.6c2,0,3.6,1.6,3.6,3.6v13.1H26.9c-2,0-3.6,1.6-3.6,3.6v3.6h-6c-3.3,0-6,2.7-6,6v3.6H6.6
	c-2,0-3.6,1.6-3.6,3.6v21.5c0,2,1.6,3.6,3.6,3.6h11.9c2,0,3.6-1.6,3.6-3.6V51.9c0-2-1.6-3.6-3.6-3.6h-4.8v-3.6c0-2,1.6-3.6,3.6-3.6
	h6v6c0,2,1.6,3.6,3.6,3.6h11.9v7.2c0,3.3,2.7,6,6,6h3.6v4.8c0,2,1.6,3.6,3.6,3.6h3.6v2.4h-2.4V77h19.1v-2.4h-2.4v-2.4h3.6
	c2,0,3.6-1.6,3.6-3.6V56.7C77,54.7,75.4,53.1,73.4,53.1z M50.8,18.5h4.8c0.1,1.7,0.6,3.3,1.1,4.8h-4.4C51.5,21.9,51,20.2,50.8,18.5z
	 M66.1,11.4c0.6,1.5,1.2,3.1,1.3,4.8H58c0.2-1.7,0.7-3.3,1.3-4.8H66.1z M60.6,9c0.8-1.3,1.6-2.3,2.1-3c0.6,0.7,1.4,1.7,2.1,3H60.6z
	 M74.6,16.1h-4.8c-0.1-1.7-0.6-3.3-1.1-4.8H73C73.8,12.8,74.4,14.4,74.6,16.1L74.6,16.1z M74.6,18.5c-0.2,1.7-0.7,3.3-1.6,4.8h-4.4
	c0.6-1.5,1-3.1,1.1-4.8H74.6z M55.6,16.1h-4.8c0.2-1.7,0.7-3.3,1.6-4.8h4.4C56.1,12.8,55.7,14.4,55.6,16.1z M58,18.5h9.4
	c-0.2,1.7-0.7,3.3-1.3,4.8h-6.8C58.6,21.8,58.1,20.2,58,18.5L58,18.5z M64.8,25.7c-0.8,1.3-1.6,2.3-2.1,3c-0.6-0.7-1.4-1.7-2.1-3
	H64.8z M65.5,28.9c0.6-0.9,1.4-2,2-3.2h3.6C69.7,27.2,67.7,28.4,65.5,28.9z M71.2,9h-3.6c-0.7-1.3-1.4-2.3-2-3.2
	C67.7,6.3,69.7,7.4,71.2,9z M59.8,5.7c-0.6,0.9-1.4,2-2,3.2h-3.6C55.7,7.4,57.6,6.3,59.8,5.7z M54.2,25.7h3.6c0.7,1.3,1.4,2.3,2,3.2
	C57.6,28.4,55.7,27.2,54.2,25.7z M31.6,23.3c0,2-1.6,3.6-3.6,3.6H9c-2,0-3.6-1.6-3.6-3.6v-1.2h26.3V23.3z M24.5,19.7H12.5v-9.5h11.9
	V19.7z M26.9,19.7v-9.5c0-1.3-1.1-2.4-2.4-2.4H12.5c-1.3,0-2.4,1.1-2.4,2.4v9.5H7.8V9c0-2,1.6-3.6,3.6-3.6h14.3c2,0,3.6,1.6,3.6,3.6
	v10.7H26.9z M5.4,55.5h14.3v14.3H5.4V55.5z M18.5,74.6H6.6c-0.7,0-1.2-0.5-1.2-1.2v-1.2h14.3v1.2C19.7,74.1,19.2,74.6,18.5,74.6z
	 M19.7,51.9v1.2H5.4v-1.2c0-0.7,0.5-1.2,1.2-1.2h11.9C19.2,50.7,19.7,51.3,19.7,51.9z M26.9,34h26.3c0.7,0,1.2,0.5,1.2,1.2v8.4H25.7
	v-8.4C25.7,34.6,26.2,34,26.9,34L26.9,34z M25.7,47.2V46h28.6v1.2c0,0.7-0.5,1.2-1.2,1.2H26.9C26.2,48.4,25.7,47.8,25.7,47.2
	L25.7,47.2z M51.9,55.5h21.5c0.7,0,1.2,0.5,1.2,1.2v8.4H50.7v-8.4C50.7,56.1,51.3,55.5,51.9,55.5z M67.5,74.6h-9.5v-2.4h9.5V74.6z
	 M73.4,69.8H51.9c-0.7,0-1.2-0.5-1.2-1.2v-1.2h23.9v1.2C74.6,69.3,74.1,69.8,73.4,69.8z"/>
</svg>
