<?xml version="1.0" encoding="utf-8"?>
<!-- Generator: Adobe Illustrator 24.1.1, SVG Export Plug-In . SVG Version: 6.00 Build 0)  -->
<svg version="1.1" id="Capa_1" xmlns="http://www.w3.org/2000/svg" xmlns:xlink="http://www.w3.org/1999/xlink" x="0px" y="0px"
	 viewBox="0 0 10 10" style="enable-background:new 0 0 10 10;" xml:space="preserve">
<style type="text/css">
	.st0{fill:none;}
	.st1{fill:#ECE1CE;stroke:#1D1D1B;stroke-width:0.25;stroke-miterlimit:10;}
	.st2{fill:#DBE7F3;stroke:#1D1D1B;stroke-width:0.25;stroke-miterlimit:10;}
	.st3{fill:none;stroke:#1D1D1B;stroke-width:0.25;stroke-linecap:round;stroke-miterlimit:10;}
	.st4{fill:none;stroke:#1D1D1B;stroke-width:0.25;stroke-miterlimit:10;}
	.st5{fill:#B0C2CD;}
	.st6{fill:#D2C7B6;}
	.st7{fill:#DBCFBC;}
	.st8{fill:none;stroke:#000000;stroke-width:0.1;stroke-miterlimit:10;}
	.st9{fill:#F53B7C;}
	.st10{fill:#F1C1A2;}
	.st11{fill:#B1A182;}
	.st12{fill:#F8A980;}
	.st13{fill:#EDCB84;}
	.st14{fill:#E69216;}
	.st15{stroke:#000000;stroke-width:0.08;stroke-miterlimit:10;}
	.st16{fill:#ED1E79;}
</style>
<rect class="st0" width="10" height="10"/>
<path class="st1" d="M8.62,8.86H1.38c-0.08,0-0.15-0.07-0.16-0.15V4.05c0-0.09,0.04-0.17,0.11-0.22L4.8,1.2
	c0.12-0.09,0.28-0.09,0.4,0l3.46,2.63c0.07,0.05,0.12,0.13,0.12,0.22v4.66C8.77,8.79,8.7,8.86,8.62,8.86z"/>
<path class="st2" d="M6.27,6.06l1.86-1.59V2.22C8.13,2,8,1.82,7.85,1.82H2.13c-0.15,0-0.28,0.18-0.28,0.4v2.23l1.92,1.62"/>
<line class="st3" x1="1.25" y1="3.94" x2="3.77" y2="6.07"/>
<line class="st3" x1="8.74" y1="3.94" x2="6.27" y2="6.06"/>
<path class="st4" d="M5.26,6C5.11,5.88,4.89,5.88,4.74,6C4,6.59,2,8.23,1.39,8.72C1.36,8.75,1.35,8.8,1.38,8.83
	C1.4,8.85,1.42,8.86,1.45,8.86h7.2c0,0,0.06,0,0,0C8.25,8.45,6,6.61,5.26,6z"/>
<path class="st5" d="M8,4.39L7.35,4.93v-3H7.8C7.9,1.92,7.99,2,8,2.11c0,0,0,0.01,0,0.01L8,4.39z"/>
<polygon class="st6" points="7.66,8.14 2.28,8.14 1.54,8.74 8.41,8.74 "/>
<polygon class="st7" points="8.67,8.63 8.02,8.11 8.02,4.73 8.67,4.17 "/>
<line class="st8" x1="4.72" y1="3.16" x2="4.71" y2="3.16"/>
<g>
	<path class="st9" d="M5.61,5.77h0.66V4.75c0-0.44-0.32-0.82-0.74-0.94C5.39,3.94,5.22,4,5.02,4S4.65,3.94,4.51,3.82
		C4.08,3.93,3.77,4.31,3.77,4.75v1.02h0.68"/>
	<g>
		<path d="M5.61,5.92c0.22,0,0.44,0,0.66,0c0.08,0,0.15-0.07,0.15-0.15c0-0.29,0-0.58,0-0.87c0-0.15,0-0.29-0.04-0.43
			C6.31,4.21,6.14,3.99,5.92,3.83c-0.1-0.07-0.23-0.14-0.35-0.16C5.48,3.66,5.44,3.71,5.36,3.76C5.29,3.8,5.22,3.83,5.14,3.84
			C5,3.87,4.84,3.85,4.71,3.78c-0.07-0.04-0.12-0.11-0.2-0.11c-0.07,0-0.15,0.04-0.21,0.07C3.85,3.93,3.62,4.35,3.62,4.82
			c0,0.32,0,0.63,0,0.95c0,0.08,0.07,0.15,0.15,0.15c0.23,0,0.46,0,0.68,0c0.19,0,0.19-0.3,0-0.3c-0.23,0-0.46,0-0.68,0
			c0.05,0.05,0.1,0.1,0.15,0.15c0-0.29,0-0.58,0-0.87c0-0.14,0-0.28,0.05-0.42c0.09-0.26,0.32-0.45,0.58-0.52
			C4.5,3.95,4.45,3.94,4.4,3.92c0.37,0.3,0.87,0.3,1.24,0c-0.05,0.01-0.1,0.03-0.15,0.04c0.26,0.07,0.48,0.25,0.58,0.51
			C6.12,4.61,6.12,4.75,6.12,4.9c0,0.29,0,0.58,0,0.87c0.05-0.05,0.1-0.1,0.15-0.15c-0.22,0-0.44,0-0.66,0
			C5.42,5.62,5.42,5.92,5.61,5.92L5.61,5.92z"/>
	</g>
</g>
<g>
	<g>
		<path d="M4.6,5.77c0-0.34-0.01-0.68-0.01-1.01c0-0.05,0-0.1,0-0.15c0-0.19-0.3-0.19-0.3,0c0,0.34,0.01,0.68,0.01,1.01
			c0,0.05,0,0.1,0,0.15C4.3,5.96,4.6,5.96,4.6,5.77L4.6,5.77z"/>
	</g>
</g>
<g>
	<g>
		<path d="M5.76,5.77c0-0.34-0.01-0.68-0.01-1.01c0-0.05,0-0.1,0-0.15c0-0.19-0.3-0.19-0.3,0c0,0.34,0.01,0.68,0.01,1.01
			c0,0.05,0,0.1,0,0.15C5.47,5.96,5.77,5.96,5.76,5.77L5.76,5.77z"/>
	</g>
</g>
<g>
	<path class="st10" d="M5.78,3.46C5.8,3.41,5.8,3.35,5.81,3.28V3.25c0-0.03,0-0.06-0.01-0.09H4.24C4.23,3.19,4.23,3.22,4.23,3.25
		v0.03c0,0.04,0.01,0.08,0.02,0.13c0.04,0.16,0.13,0.31,0.26,0.41C4.65,3.94,4.82,4,5.02,4s0.37-0.07,0.51-0.19
		C5.65,3.73,5.73,3.61,5.78,3.46"/>
	<g>
		<path d="M5.89,3.49c0.03-0.11,0.06-0.25,0.02-0.37C5.9,3.08,5.85,3.04,5.8,3.04c-0.45,0-0.91,0-1.36,0c-0.07,0-0.13,0-0.2,0
			c-0.05,0-0.1,0.04-0.12,0.09c-0.06,0.2,0.03,0.45,0.14,0.61C4.39,3.91,4.59,4.05,4.81,4.1C5.27,4.2,5.74,3.95,5.89,3.49
			c0.04-0.14-0.19-0.2-0.24-0.06C5.55,3.75,5.2,3.94,4.87,3.87c-0.15-0.03-0.3-0.13-0.4-0.25C4.39,3.51,4.31,3.33,4.36,3.19
			C4.32,3.22,4.28,3.25,4.24,3.28c0.45,0,0.91,0,1.36,0c0.07,0,0.13,0,0.2,0C5.76,3.25,5.72,3.22,5.68,3.19
			c0.02,0.07,0,0.17-0.02,0.24C5.62,3.58,5.85,3.64,5.89,3.49L5.89,3.49z"/>
	</g>
</g>
<g>
	<path class="st11" d="M6.08,3.03v0.04c0,0.05-0.04,0.09-0.09,0.09H4.05C4,3.16,3.96,3.12,3.96,3.07V3.03
		c0-0.04,0.03-0.08,0.08-0.08V2.94h1.96C6.04,2.94,6.08,2.98,6.08,3.03z"/>
	<g>
		<path d="M5.96,3.03c0,0.04,0.02,0.01,0.02,0.01c-0.01,0-0.02,0-0.04,0c-0.04,0-0.09,0-0.13,0c-0.16,0-0.31,0-0.47,0
			c-0.36,0-0.71,0-1.07,0c-0.06,0-0.11,0-0.17,0c-0.01,0-0.03,0-0.05,0c0,0-0.01,0-0.01,0c-0.01,0,0.04-0.01,0.01,0.01
			c0.01,0.01,0.02,0.01,0.01,0c0-0.02,0-0.01-0.01,0.01c0.05-0.01,0.09-0.06,0.09-0.12c0,0,0,0,0-0.01
			C4.11,2.98,4.07,3.02,4.03,3.06c0.57,0,1.14,0,1.71,0c0.06,0,0.12,0,0.18,0c0.02,0,0.03,0,0.05,0c0.04,0-0.01,0-0.01,0
			C5.99,3.21,6.22,3.15,6.2,2.99c-0.03-0.16-0.17-0.18-0.3-0.18c-0.15,0-0.29,0-0.44,0c-0.38,0-0.76,0-1.14,0c-0.09,0-0.19,0-0.28,0
			c-0.06,0-0.12,0.05-0.12,0.12c0,0,0,0,0,0.01C3.94,2.9,3.97,2.86,4,2.83C3.85,2.87,3.78,3.05,3.87,3.18
			C3.92,3.25,4,3.28,4.08,3.28c0.15,0,0.29,0,0.44,0c0.43,0,0.87,0,1.3,0c0.05,0,0.1,0,0.15,0C6.13,3.27,6.2,3.17,6.2,3.03
			C6.2,2.87,5.96,2.87,5.96,3.03z"/>
	</g>
</g>
<g>
	<path class="st12" d="M4.13,3.49H4.05c-0.06,0-0.1-0.05-0.1-0.1V3.32c0-0.06,0.05-0.1,0.1-0.1h0.07c0.06,0,0.1,0.05,0.1,0.1v0.06
		C4.23,3.44,4.18,3.49,4.13,3.49z"/>
	<g>
		<path d="M4.13,3.37c-0.03,0-0.06,0-0.09,0c0.01,0,0.02,0,0.03,0c-0.01,0-0.02,0-0.03-0.01c0.01,0,0.02,0.01,0.03,0.01
			c-0.01,0-0.02-0.01-0.02-0.01c0.01,0.01,0.02,0.01,0.02,0.02C4.07,3.38,4.06,3.37,4.05,3.36c0.01,0.01,0.01,0.02,0.02,0.02
			C4.07,3.38,4.06,3.37,4.06,3.36c0,0.01,0.01,0.02,0.01,0.03c0-0.01-0.01-0.02-0.01-0.03c0,0.01,0,0.02,0,0.03
			c0-0.02,0-0.03,0-0.05c0-0.02,0-0.03,0-0.05c0,0.01,0,0.02,0,0.03c0-0.01,0-0.02,0.01-0.03c0,0.01-0.01,0.02-0.01,0.03
			c0-0.01,0.01-0.02,0.01-0.02C4.07,3.33,4.06,3.34,4.05,3.34c0.01-0.01,0.01-0.01,0.02-0.02C4.06,3.33,4.06,3.34,4.05,3.34
			c0.01-0.01,0.01-0.01,0.02-0.01c-0.01,0-0.02,0.01-0.03,0.01c0.01,0,0.02-0.01,0.03-0.01c-0.01,0-0.02,0-0.03,0
			c0.02,0,0.04,0,0.05,0c0.02,0,0.04,0,0.05,0c-0.01,0-0.02,0-0.03,0c0.01,0,0.02,0,0.03,0.01c-0.01,0-0.02-0.01-0.03-0.01
			c0.01,0,0.02,0.01,0.02,0.01C4.12,3.34,4.11,3.33,4.1,3.32c0.01,0.01,0.01,0.01,0.02,0.02C4.12,3.34,4.11,3.33,4.1,3.32
			c0.01,0.01,0.01,0.01,0.01,0.02c0-0.01-0.01-0.02-0.01-0.03c0,0.01,0.01,0.02,0.01,0.03c0-0.01,0-0.02,0-0.03
			c0,0.02,0,0.03,0,0.05c0,0.02,0,0.03,0,0.05c0-0.01,0-0.02,0-0.03c0,0.01,0,0.02-0.01,0.03C4.11,3.38,4.11,3.37,4.13,3.37
			c-0.01,0-0.02,0.01-0.02,0.02C4.11,3.38,4.12,3.37,4.13,3.37c-0.01,0-0.01,0.01-0.02,0.01C4.11,3.38,4.12,3.37,4.13,3.37
			c0,0-0.01,0-0.02,0.01C4.11,3.37,4.12,3.37,4.13,3.37c0,0-0.01,0-0.02,0c0.01,0,0.02,0,0.03,0C4.14,3.37,4.13,3.37,4.13,3.37
			c-0.03,0-0.06,0.01-0.08,0.04C4.02,3.42,4,3.46,4.01,3.49c0,0.06,0.05,0.12,0.12,0.12c0.08,0,0.16-0.04,0.19-0.11
			C4.35,3.45,4.35,3.4,4.35,3.35c0-0.05,0-0.1-0.03-0.15C4.27,3.14,4.2,3.1,4.12,3.1c-0.02,0-0.05,0-0.07,0
			c-0.07,0-0.14,0.03-0.18,0.09C3.85,3.22,3.83,3.26,3.83,3.31c0,0.01,0,0.02,0,0.03c0,0.01,0,0.03,0,0.04
			c0,0.04,0.01,0.07,0.03,0.11c0.04,0.07,0.12,0.12,0.2,0.12c0.02,0,0.05,0,0.07,0c0.03,0,0.06-0.01,0.08-0.04
			c0.02-0.02,0.04-0.05,0.04-0.08C4.24,3.42,4.19,3.37,4.13,3.37z"/>
	</g>
</g>
<g>
	<path class="st12" d="M5.99,3.49H5.91c-0.06,0-0.1-0.05-0.1-0.1V3.32c0-0.06,0.05-0.1,0.1-0.1h0.07c0.06,0,0.1,0.05,0.1,0.1v0.06
		C6.09,3.44,6.05,3.49,5.99,3.49z"/>
	<g>
		<path d="M5.99,3.37c-0.03,0-0.06,0-0.09,0c0.01,0,0.02,0,0.03,0c-0.01,0-0.02,0-0.03-0.01c0.01,0,0.02,0.01,0.03,0.01
			c-0.01,0-0.02-0.01-0.02-0.01c0.01,0.01,0.02,0.01,0.02,0.02C5.93,3.38,5.92,3.37,5.92,3.36c0.01,0.01,0.01,0.02,0.02,0.02
			C5.93,3.38,5.93,3.37,5.92,3.36c0,0.01,0.01,0.02,0.01,0.03c0-0.01-0.01-0.02-0.01-0.03c0,0.01,0,0.02,0,0.03
			c0-0.02,0-0.03,0-0.05c0-0.02,0-0.03,0-0.05c0,0.01,0,0.02,0,0.03c0-0.01,0-0.02,0.01-0.03c0,0.01-0.01,0.02-0.01,0.03
			c0-0.01,0.01-0.02,0.01-0.02C5.93,3.33,5.92,3.34,5.92,3.34c0.01-0.01,0.01-0.01,0.02-0.02C5.93,3.33,5.92,3.34,5.91,3.34
			c0.01-0.01,0.01-0.01,0.02-0.01c-0.01,0-0.02,0.01-0.03,0.01c0.01,0,0.02-0.01,0.03-0.01c-0.01,0-0.02,0-0.03,0
			c0.02,0,0.04,0,0.05,0c0.02,0,0.04,0,0.05,0c-0.01,0-0.02,0-0.03,0c0.01,0,0.02,0,0.03,0.01c-0.01,0-0.02-0.01-0.03-0.01
			c0.01,0,0.02,0.01,0.02,0.01C5.98,3.34,5.97,3.33,5.97,3.32c0.01,0.01,0.01,0.01,0.02,0.02C5.98,3.34,5.97,3.33,5.97,3.32
			c0.01,0.01,0.01,0.01,0.01,0.02c0-0.01-0.01-0.02-0.01-0.03c0,0.01,0.01,0.02,0.01,0.03c0-0.01,0-0.02,0-0.03
			c0,0.02,0,0.03,0,0.05c0,0.02,0,0.03,0,0.05c0-0.01,0-0.02,0-0.03c0,0.01,0,0.02-0.01,0.03C5.97,3.38,5.98,3.37,5.99,3.37
			c-0.01,0-0.02,0.01-0.02,0.02C5.97,3.38,5.98,3.37,5.99,3.37c-0.01,0-0.01,0.01-0.02,0.01C5.97,3.38,5.98,3.37,5.99,3.37
			c0,0-0.01,0-0.02,0.01C5.98,3.37,5.99,3.37,5.99,3.37c0,0-0.01,0-0.02,0c0.01,0,0.02,0,0.03,0C6,3.37,5.99,3.37,5.99,3.37
			c-0.03,0-0.06,0.01-0.08,0.04C5.88,3.42,5.87,3.46,5.87,3.49c0,0.06,0.05,0.12,0.12,0.12c0.08,0,0.16-0.04,0.19-0.11
			C6.21,3.45,6.21,3.4,6.21,3.35c0-0.05,0-0.1-0.03-0.15C6.14,3.14,6.07,3.1,5.99,3.1c-0.02,0-0.05,0-0.07,0
			c-0.07,0-0.14,0.03-0.18,0.09C5.71,3.22,5.7,3.26,5.69,3.31c0,0.01,0,0.02,0,0.03c0,0.01,0,0.03,0,0.04
			c0,0.04,0.01,0.07,0.03,0.11c0.04,0.07,0.12,0.12,0.2,0.12c0.02,0,0.05,0,0.07,0c0.03,0,0.06-0.01,0.08-0.04
			c0.02-0.02,0.04-0.05,0.04-0.08C6.11,3.42,6.06,3.37,5.99,3.37z"/>
	</g>
</g>
<g>
	<path class="st13" d="M5.16,2.17v0.36c0,0.04-0.03,0.07-0.06,0.07H4.94c-0.04,0-0.06-0.03-0.06-0.07V2.17
		c0-0.04,0.03-0.06,0.06-0.06H5.1C5.13,2.11,5.16,2.13,5.16,2.17z"/>
	<g>
		<path d="M5.04,2.17c0,0.08,0,0.17,0,0.25c0,0.03,0,0.07,0,0.1c0,0,0,0,0,0c0,0,0,0.02,0,0c0-0.03-0.01,0.01,0-0.01
			c0,0,0-0.01,0-0.01c0,0.01,0,0.01,0,0c0,0,0-0.01,0.01-0.01c0.02-0.01,0.02-0.01,0.01-0.01c0,0,0.03-0.01,0.01-0.01
			c0,0,0.02,0,0.02,0c0,0-0.01,0-0.02,0c-0.01,0-0.02,0-0.04,0c-0.03,0-0.05,0-0.08,0c-0.01,0-0.01,0-0.02,0
			c-0.01,0,0.03,0.01,0.01,0c0,0,0.03,0.01,0.01,0c0.01,0,0.01,0.01,0.02,0.01C5,2.51,5,2.51,4.99,2.5C4.99,2.49,5,2.53,5,2.51
			c0,0,0,0.03,0,0.01c0,0,0,0,0,0c0,0,0-0.01,0-0.01c0-0.02,0-0.04,0-0.05c0-0.09,0-0.19,0-0.28c0,0,0,0,0-0.01
			c0-0.02,0,0.02-0.01,0.02c-0.01,0.01-0.01,0.01,0,0c0,0.01-0.01,0.01-0.01,0.02C4.99,2.2,4.97,2.22,4.96,2.22c-0.01,0-0.01,0,0,0
			c-0.01,0-0.01,0-0.02,0c0,0,0.05,0,0.06,0c0.03,0,0.06,0,0.09,0c0.01,0,0.01,0,0.02,0c0.02,0-0.03-0.01-0.01,0
			c-0.01,0-0.01,0-0.02-0.01C5.05,2.21,5.05,2.2,5.06,2.21C5.07,2.22,5.04,2.18,5.05,2.2c0-0.01-0.01-0.01-0.01-0.02
			C5.04,2.16,5.04,2.16,5.04,2.17c0,0.06,0.05,0.12,0.12,0.12c0.06,0,0.12-0.05,0.12-0.12c0-0.08-0.05-0.16-0.14-0.18
			C5.11,1.99,5.08,1.99,5.05,1.99c-0.07,0-0.15-0.01-0.21,0.03C4.79,2.05,4.76,2.11,4.76,2.17c0,0.02,0,0.03,0,0.05
			c0,0.06,0,0.12,0,0.18c0,0.04,0,0.08,0,0.13c0,0.07,0.03,0.13,0.09,0.16c0.04,0.02,0.08,0.03,0.12,0.03
			c0.06,0,0.12,0.01,0.18-0.01c0.08-0.02,0.13-0.1,0.13-0.18c0-0.01,0-0.02,0-0.03c0-0.11,0-0.22,0-0.32c0-0.06-0.06-0.12-0.12-0.12
			C5.09,2.05,5.04,2.1,5.04,2.17z"/>
	</g>
</g>
<g>
	<g>
		<path d="M4.87,2.64c0,0.07,0,0.15,0,0.22c0,0.01,0,0.02,0,0.03c0,0.04,0.02,0.08,0.04,0.11c0.03,0.03,0.07,0.05,0.11,0.04
			C5.06,3.04,5.1,3.03,5.13,3C5.15,2.97,5.17,2.94,5.17,2.9c0-0.07,0-0.15,0-0.22c0-0.01,0-0.02,0-0.03c0-0.04-0.02-0.08-0.04-0.11
			C5.1,2.51,5.06,2.49,5.02,2.49c-0.04,0-0.08,0.01-0.11,0.04C4.89,2.56,4.87,2.6,4.87,2.64L4.87,2.64z"/>
	</g>
</g>
<g>
	<g>
		<path d="M4.15,2.94C4.15,2.94,4.15,2.94,4.15,2.94c0-0.04-0.01-0.07-0.04-0.09C4.1,2.83,4.06,2.81,4.03,2.82
			C4,2.82,3.97,2.83,3.95,2.85C3.93,2.87,3.91,2.9,3.91,2.94c0,0,0,0,0,0.01c0,0.03,0.01,0.06,0.04,0.08C3.97,3.05,4,3.06,4.03,3.06
			c0.03,0,0.06-0.01,0.08-0.04C4.14,3,4.15,2.97,4.15,2.94L4.15,2.94z"/>
	</g>
</g>
<g>
	<path class="st14" d="M5.99,2.94H4.03C4.06,2.6,4.42,2.34,4.88,2.3v0.22c0,0.04,0.03,0.07,0.06,0.07H5.1
		c0.04,0,0.06-0.03,0.06-0.07V2.3C5.61,2.35,5.96,2.61,5.99,2.94z"/>
	<g>
		<path d="M5.99,2.82c-0.57,0-1.14,0-1.72,0c-0.08,0-0.16,0-0.24,0C4.07,2.86,4.11,2.9,4.15,2.94C4.19,2.6,4.6,2.45,4.88,2.42
			C4.84,2.38,4.8,2.34,4.76,2.3c0,0.07,0,0.15,0,0.22c0.01,0.15,0.13,0.19,0.26,0.19c0.13,0,0.25-0.03,0.26-0.19
			c0-0.07,0-0.15,0-0.22C5.24,2.34,5.2,2.38,5.16,2.42c0.28,0.03,0.68,0.19,0.71,0.51c0.02,0.15,0.26,0.15,0.24,0
			c-0.06-0.47-0.53-0.7-0.95-0.75C5.09,2.17,5.04,2.24,5.04,2.3c0,0.05,0,0.1,0,0.16c0,0.01-0.01,0.05,0,0.06
			C5.1,2.49,5.12,2.47,5.09,2.47c-0.01,0-0.01,0-0.02,0c-0.01,0-0.04,0-0.05,0c-0.04,0-0.09-0.02-0.05,0.03C5.02,2.54,5,2.51,5,2.47
			C5,2.41,5,2.36,5,2.3c0-0.06-0.06-0.13-0.12-0.12C4.45,2.23,3.97,2.46,3.91,2.94C3.91,3,3.97,3.06,4.03,3.06c0.57,0,1.14,0,1.72,0
			c0.08,0,0.16,0,0.24,0C6.15,3.06,6.15,2.82,5.99,2.82z"/>
	</g>
</g>
<g>
	<g>
		<path d="M5.14,2.92c0-0.1,0-0.19,0-0.29c0-0.01,0-0.03,0-0.04c0-0.06-0.06-0.12-0.12-0.12c-0.07,0-0.12,0.05-0.12,0.12
			c0,0.1,0,0.19,0,0.29c0,0.01,0,0.03,0,0.04c0,0.06,0.06,0.12,0.12,0.12C5.08,3.04,5.14,2.99,5.14,2.92L5.14,2.92z"/>
	</g>
</g>
<ellipse class="st15" cx="4.7" cy="3.36" rx="0.06" ry="0.06"/>
<ellipse class="st15" cx="5.34" cy="3.36" rx="0.06" ry="0.06"/>
<g>
	<ellipse class="st16" cx="5.01" cy="4.79" rx="0.28" ry="0.27"/>
	<g>
		<path d="M5.18,4.79c0,0.01,0,0.02,0,0.02c0,0.02-0.01,0,0-0.01c0,0-0.01,0.03-0.01,0.04c0,0-0.01,0.03,0,0.01
			c0.01-0.02,0,0,0,0.01c0,0,0,0.01-0.01,0.01c0,0-0.02,0.03-0.01,0.01C5.16,4.87,5.14,4.89,5.13,4.9C5.13,4.9,5.12,4.91,5.12,4.91
			c-0.02,0.01,0-0.01,0.01,0c0,0-0.03,0.02-0.03,0.02c-0.01,0-0.01,0.01-0.02,0.01c-0.01,0,0,0,0.01,0c0,0-0.01,0-0.01,0.01
			c-0.01,0-0.02,0.01-0.04,0.01c-0.02,0,0.01-0.01,0.01,0c0,0-0.02,0-0.02,0c-0.01,0-0.02,0-0.04,0c-0.03,0,0.03,0.01,0,0
			c-0.01,0-0.02,0-0.02-0.01c-0.01,0-0.01,0-0.02-0.01c-0.02-0.01,0,0,0,0c0,0-0.03-0.02-0.03-0.02c0,0-0.01-0.01-0.01-0.01
			c-0.02-0.01,0.01,0.01,0,0C4.9,4.9,4.89,4.9,4.88,4.88c0,0,0,0,0-0.01C4.87,4.87,4.87,4.87,4.88,4.89c0,0-0.01-0.01-0.01-0.01
			c0-0.01-0.01-0.03-0.02-0.03c0.01,0,0.01,0.02,0,0.01c0-0.01,0-0.01-0.01-0.02c0,0,0-0.01,0-0.01c-0.01-0.02,0,0.03,0,0
			c0-0.01,0-0.02,0-0.03c0,0,0-0.01,0-0.01c0-0.01,0-0.01,0,0.01c0,0,0-0.01,0-0.01c0-0.01,0.01-0.03,0.01-0.04
			c0,0.01-0.01,0.02,0,0.01c0-0.01,0.01-0.02,0.01-0.02c0,0,0.01-0.01,0.01-0.01c0,0.01-0.02,0.02,0,0C4.89,4.7,4.9,4.69,4.91,4.68
			c0.02-0.02,0,0,0,0c0,0,0.01-0.01,0.01-0.01c0,0,0.04-0.02,0.04-0.02c0,0.01-0.02,0.01-0.01,0c0.01,0,0.01,0,0.02-0.01
			c0,0,0.01,0,0.02,0c0,0,0.01,0,0.01,0c0.01,0,0.01,0-0.01,0c0,0,0.03,0,0.04,0c0.01,0,0.01,0,0.02,0c0.03,0-0.03-0.01,0,0
			c0.02,0,0.03,0.01,0.04,0.01c0.02,0.01-0.01,0-0.01,0c0,0,0.02,0.01,0.02,0.01c0.01,0,0.01,0.01,0.02,0.01c0,0,0.01,0,0.01,0.01
			c0.01,0.01,0,0-0.01-0.01c0,0.01,0.03,0.02,0.03,0.03c0,0,0.01,0.01,0.01,0.01C5.14,4.7,5.14,4.7,5.15,4.71c0,0,0,0.01,0.01,0.01
			c0,0.01,0.01,0.01,0.01,0.02c0,0,0,0.01,0,0.01c0,0.01,0,0,0-0.01c0,0.01,0.01,0.03,0.01,0.04c0.01,0.02,0-0.01,0-0.01
			C5.17,4.77,5.18,4.79,5.18,4.79c0,0.06,0.05,0.12,0.12,0.12c0.06,0,0.12-0.05,0.12-0.12c0-0.17-0.11-0.31-0.27-0.37
			C5,4.37,4.81,4.42,4.71,4.54C4.6,4.67,4.57,4.85,4.67,5C4.76,5.14,4.93,5.21,5.1,5.18c0.18-0.03,0.31-0.2,0.32-0.38
			c0-0.06-0.06-0.12-0.12-0.12C5.23,4.68,5.18,4.73,5.18,4.79z"/>
	</g>
</g>
<g>
	<g>
		<path d="M4.77,5.41c0.15,0,0.3,0,0.44,0c0.02,0,0.04,0,0.06,0c0.06,0,0.12-0.06,0.12-0.12c0-0.07-0.05-0.12-0.12-0.12
			c-0.15,0-0.3,0-0.44,0c-0.02,0-0.04,0-0.06,0c-0.06,0-0.12,0.06-0.12,0.12C4.65,5.36,4.7,5.41,4.77,5.41L4.77,5.41z"/>
	</g>
</g>
</svg>
