<svg id="filled_outline" height="512" viewBox="0 0 512 512" width="512" xmlns="http://www.w3.org/2000/svg" data-name="filled outline"><path d="m40 304h432v32h-432z" fill="#2b93cb"/><path d="m80 24h352v200h-352z" fill="#216ead"/><path d="m56 224h400v32h-400z" fill="#2b93cb"/><path d="m240 392v-24l-24-80h-80l-24 80v24a16 16 0 0 0 16 16h96a16 16 0 0 0 16-16z" fill="#eeba2b"/><g fill="#c77708"><path d="m128 408 8 80h16l8-80z"/><path d="m192 408 8 80h16l8-80z"/><path d="m288 408 8 80h16l8-80z"/><path d="m352 408 8 80h16l8-80z"/></g><path d="m400 392v-24l-24-80h-80l-24 80v24a16 16 0 0 0 16 16h96a16 16 0 0 0 16-16z" fill="#eeba2b"/><path d="m88 336-16 152h-16v-152z" fill="#216ead"/><path d="m424 336 16 152h16v-152z" fill="#216ead"/><path d="m144 184h64v40h-64z" fill="#5ab9e6"/><path d="m56 264h400a7.99539 7.99539 0 0 0 8-8v-32a7.99539 7.99539 0 0 0 -8-8h-16v-192a7.99539 7.99539 0 0 0 -8-8h-352a7.99539 7.99539 0 0 0 -8 8v192h-16a7.99539 7.99539 0 0 0 -8 8v32a7.99539 7.99539 0 0 0 8 8zm32-232h336v184h-208v-32a7.99539 7.99539 0 0 0 -8-8h-64a7.99539 7.99539 0 0 0 -8 8v32h-48zm112 184h-48v-24h48zm-136 16h384v16h-384z"/><path d="m160 312h32v16h-32z"/><path d="m320 312h32v16h-32z"/><path d="m472 296h-85.24707l-3.08887-10.29688a8.00666 8.00666 0 0 0 -7.66406-5.70312h-80a8.00666 8.00666 0 0 0 -7.66406 5.70312l-3.08887 10.29688h-58.49414l-3.08887-10.29688a8.00666 8.00666 0 0 0 -7.66406-5.70312h-80a8.00666 8.00666 0 0 0 -7.66406 5.70312l-3.08887 10.29688h-85.24707a7.99539 7.99539 0 0 0 -8 8v32a7.99539 7.99539 0 0 0 8 8h8v144a7.99539 7.99539 0 0 0 8 8h16a7.99489 7.99489 0 0 0 7.95312-7.16406l15.2461-144.83594h15.64746l-6.51074 21.70312a8.12882 8.12882 0 0 0 -.33594 2.29688v24a23.95073 23.95073 0 0 0 16.63135 22.72217l7.40771 74.07471a8.00132 8.00132 0 0 0 7.96094 7.20312h16a8.00132 8.00132 0 0 0 7.96094-7.20312l7.27978-72.79688h17.51856l7.27978 72.79688a8.00132 8.00132 0 0 0 7.96094 7.20312h16a8.00132 8.00132 0 0 0 7.96094-7.20312l7.40722-74.07471a23.95008 23.95008 0 0 0 16.63184-22.72217v-24a8.12882 8.12882 0 0 0 -.33594-2.29688l-6.51074-21.70312h29.69336l-6.51074 21.70312a8.12882 8.12882 0 0 0 -.33594 2.29688v24a23.95073 23.95073 0 0 0 16.63135 22.72217l7.40771 74.07471a8.00132 8.00132 0 0 0 7.96094 7.20312h16a8.00132 8.00132 0 0 0 7.96094-7.20312l7.27978-72.79688h17.51856l7.27978 72.79688a8.00132 8.00132 0 0 0 7.96094 7.20312h16a8.00132 8.00132 0 0 0 7.96094-7.20312l7.40722-74.07471a23.95008 23.95008 0 0 0 16.63184-22.72217v-24a8.12882 8.12882 0 0 0 -.33594-2.29688l-6.51074-21.70312h15.64746l15.2461 144.83594a7.99489 7.99489 0 0 0 7.95312 7.16406h16a7.99539 7.99539 0 0 0 8-8v-144h8a7.99539 7.99539 0 0 0 8-8v-32a7.99539 7.99539 0 0 0 -8-8zm-407.20312 184h-.79688v-136h15.1167zm-16.79688-152v-16h72.44678l-4.79978 16zm96.75781 152h-1.51562l-6.40137-64h14.31836zm62.48438 0-6.40137-64h14.31836l-6.40137 64zm24.75781-88a8.00541 8.00541 0 0 1 -8 8h-96a8.00541 8.00541 0 0 1 -8-8v-22.82812l21.95312-73.17188h68.09376l21.95312 73.17188zm4.353-64-4.79981-16h48.89356l-4.79975 16zm68.40478 152h-1.51562l-6.40137-64h14.31836zm62.48438 0-6.40137-64h14.31836l-6.40137 64zm24.75784-88a8.00541 8.00541 0 0 1 -8 8h-96a8.00541 8.00541 0 0 1 -8-8v-22.82812l21.95312-73.17188h68.09376l21.95312 73.17188zm56 88h-.79688l-14.31982-136h15.1167zm16-152h-67.647l-4.79981-16h72.44681z"/></svg>